ISO-10303-21;
HEADER;
FILE_DESCRIPTION (( 'STEP AP203' ),
    '1' );
FILE_NAME ('PlantCarriageBase.step',
    '2026-08-22T11:38:51',
    ( '' ),
    ( '' ),
    'SwSTEP 2.0',
    'SolidWorks 2026',
    '' );
FILE_SCHEMA (( 'CONFIG_CONTROL_DESIGN' ));
ENDSEC;

DATA;
#1 = AXIS2_PLACEMENT_3D ( 'NONE', #389, #760, #99 ) ;
#2 = VERTEX_POINT ( 'NONE', #479 ) ;
#3 = EDGE_CURVE ( 'NONE', #683, #339, #623, .T. ) ;
#4 = LINE ( 'NONE', #329, #761 ) ;
#5 = CARTESIAN_POINT ( 'NONE',  ( 11.99999999999872813, -115.4041602925917260, 0.000000000000000000 ) ) ;
#6 = ORIENTED_EDGE ( 'NONE', *, *, #292, .F. ) ;
#7 = MANIFOLD_SOLID_BREP ( 'Boss-Extrude2', #581 ) ;
#8 = PERSON_AND_ORGANIZATION_ROLE ( 'creator' ) ;
#9 = CARTESIAN_POINT ( 'NONE',  ( -32.00000000000128608, -56.40416029259167630, 6.000000000000000000 ) ) ;
#10 = VECTOR ( 'NONE', #154, 1000.000000000000000 ) ;
#11 = ORIENTED_EDGE ( 'NONE', *, *, #928, .T. ) ;
#12 = CALENDAR_DATE ( 2026, 22, 8 ) ;
#13 = VECTOR ( 'NONE', #450, 1000.000000000000000 ) ;
#14 = ADVANCED_FACE ( 'NONE', ( #475 ), #185, .T. ) ;
#15 = DIRECTION ( 'NONE',  ( -1.000000000000000000, 0.000000000000000000, 0.000000000000000000 ) ) ;
#16 = DIRECTION ( 'NONE',  ( 1.000000000000000000, 0.000000000000000000, 0.000000000000000000 ) ) ;
#17 = AXIS2_PLACEMENT_3D ( 'NONE', #437, #737, #73 ) ;
#18 = EDGE_LOOP ( 'NONE', ( #779, #919, #51, #266, #116, #32, #359, #742 ) ) ;
#19 = AXIS2_PLACEMENT_3D ( 'NONE', #175, #766, #336 ) ;
#20 = DIRECTION ( 'NONE',  ( -1.000000000000000000, 0.000000000000000000, 0.000000000000000000 ) ) ;
#21 = DIRECTION ( 'NONE',  ( -0.000000000000000000, -0.000000000000000000, -1.000000000000000000 ) ) ;
#22 = ORIENTED_EDGE ( 'NONE', *, *, #150, .F. ) ;
#23 = AXIS2_PLACEMENT_3D ( 'NONE', #304, #897, #394 ) ;
#24 = DIRECTION ( 'NONE',  ( -0.000000000000000000, -0.000000000000000000, -1.000000000000000000 ) ) ;
#25 = CARTESIAN_POINT ( 'NONE',  ( -6.500000000001271871, -111.4776138657193201, 6.000000000000000000 ) ) ;
#26 = EDGE_CURVE ( 'NONE', #64, #227, #190, .T. ) ;
#27 = VERTEX_POINT ( 'NONE', #57 ) ;
#28 = EDGE_CURVE ( 'NONE', #867, #376, #934, .T. ) ;
#29 = LINE ( 'NONE', #242, #224 ) ;
#30 = FACE_BOUND ( 'NONE', #661, .T. ) ;
#31 = EDGE_CURVE ( 'NONE', #628, #330, #797, .T. ) ;
#32 = ORIENTED_EDGE ( 'NONE', *, *, #370, .T. ) ;
#33 = DIRECTION ( 'NONE',  ( 0.000000000000000000, -1.000000000000000000, 0.000000000000000000 ) ) ;
#34 = FACE_OUTER_BOUND ( 'NONE', #384, .T. ) ;
#35 = ORIENTED_EDGE ( 'NONE', *, *, #879, .T. ) ;
#36 = ORIENTED_EDGE ( 'NONE', *, *, #141, .T. ) ;
#37 = CARTESIAN_POINT ( 'NONE',  ( -13.50000000000127187, -115.4776138657193201, 6.000000000000000000 ) ) ;
#38 = CARTESIAN_POINT ( 'NONE',  ( -6.500000000001271871, -75.33070671946410357, 6.000000000000000000 ) ) ;
#39 = CIRCLE ( 'NONE', #811, 2.699999999999999289 ) ;
#40 = CARTESIAN_POINT ( 'NONE',  ( -13.50000000000127187, -111.4776138657193201, 0.000000000000000000 ) ) ;
#41 = CARTESIAN_POINT ( 'NONE',  ( -27.41334581156930383, -73.40416029259171182, 0.000000000000000000 ) ) ;
#42 = ORIENTED_EDGE ( 'NONE', *, *, #68, .T. ) ;
#43 = ORIENTED_EDGE ( 'NONE', *, *, #442, .T. ) ;
#44 = LINE ( 'NONE', #37, #885 ) ;
#45 = CARTESIAN_POINT ( 'NONE',  ( -32.81334581156930597, -73.40416029259171182, 0.000000000000000000 ) ) ;
#46 = DIRECTION ( 'NONE',  ( 1.000000000000000000, 0.000000000000000000, 0.000000000000000000 ) ) ;
#47 = ORIENTED_EDGE ( 'NONE', *, *, #28, .F. ) ;
#48 = CYLINDRICAL_SURFACE ( 'NONE', #395, 2.700000000000001066 ) ;
#49 = DIRECTION ( 'NONE',  ( -1.000000000000000000, 0.000000000000000000, 0.000000000000000000 ) ) ;
#50 = ORIENTED_EDGE ( 'NONE', *, *, #736, .F. ) ;
#51 = ORIENTED_EDGE ( 'NONE', *, *, #607, .T. ) ;
#52 = FACE_BOUND ( 'NONE', #717, .T. ) ;
#53 = VERTEX_POINT ( 'NONE', #443 ) ;
#54 = ADVANCED_FACE ( 'NONE', ( #719 ), #201, .F. ) ;
#55 = EDGE_LOOP ( 'NONE', ( #494, #11, #302, #827 ) ) ;
#56 = CIRCLE ( 'NONE', #301, 2.699999999999999289 ) ;
#57 = CARTESIAN_POINT ( 'NONE',  ( -6.500000000001271871, -111.4776138657193201, 6.000000000000000000 ) ) ;
#58 = CARTESIAN_POINT ( 'NONE',  ( 26.99999999999872813, -71.40416029259166919, 6.000000000000000000 ) ) ;
#59 = EDGE_LOOP ( 'NONE', ( #367, #936, #712, #665 ) ) ;
#60 = CYLINDRICAL_SURFACE ( 'NONE', #852, 2.699999999999999289 ) ;
#61 = VECTOR ( 'NONE', #182, 1000.000000000000000 ) ;
#62 = DIRECTION ( 'NONE',  ( -1.000000000000000000, 1.892425610156521707E-15, 0.000000000000000000 ) ) ;
#63 = LINE ( 'NONE', #507, #540 ) ;
#64 = VERTEX_POINT ( 'NONE', #282 ) ;
#65 = DIRECTION ( 'NONE',  ( -1.000000000000000000, 0.000000000000000000, 0.000000000000000000 ) ) ;
#66 = DIRECTION ( 'NONE',  ( 0.000000000000000000, 0.000000000000000000, 1.000000000000000000 ) ) ;
#67 = ORIENTED_EDGE ( 'NONE', *, *, #199, .F. ) ;
#68 = EDGE_CURVE ( 'NONE', #854, #219, #724, .T. ) ;
#69 = CARTESIAN_POINT ( 'NONE',  ( -6.500000000001271871, -71.33070671946410357, 6.000000000000000000 ) ) ;
#70 = ORIENTED_EDGE ( 'NONE', *, *, #750, .T. ) ;
#71 = CALENDAR_DATE ( 2026, 22, 8 ) ;
#72 = AXIS2_PLACEMENT_3D ( 'NONE', #930, #853, #286 ) ;
#73 = DIRECTION ( 'NONE',  ( 1.000000000000000000, 0.000000000000000000, 0.000000000000000000 ) ) ;
#74 = AXIS2_PLACEMENT_3D ( 'NONE', #834, #624, #688 ) ;
#75 = ORIENTED_EDGE ( 'NONE', *, *, #267, .F. ) ;
#76 = DATE_TIME_ROLE ( 'creation_date' ) ;
#77 = DIRECTION ( 'NONE',  ( -0.000000000000000000, -0.000000000000000000, -1.000000000000000000 ) ) ;
#78 = ORIENTED_EDGE ( 'NONE', *, *, #675, .F. ) ;
#79 = AXIS2_PLACEMENT_3D ( 'NONE', #642, #931, #275 ) ;
#80 = EDGE_CURVE ( 'NONE', #716, #588, #136, .T. ) ;
#81 = CARTESIAN_POINT ( 'NONE',  ( -32.81334581156931307, -113.4041602925917118, 6.000000000000000000 ) ) ;
#82 = DIRECTION ( 'NONE',  ( 9.462128050782600646E-16, -1.000000000000000000, 0.000000000000000000 ) ) ;
#83 = ORIENTED_EDGE ( 'NONE', *, *, #840, .F. ) ;
#84 = PERSON_AND_ORGANIZATION ( #360, #137 ) ;
#85 = DIRECTION ( 'NONE',  ( -1.000000000000000000, 0.000000000000000000, 0.000000000000000000 ) ) ;
#86 = CARTESIAN_POINT ( 'NONE',  ( -13.50000000000127187, -75.33070671946410357, 0.000000000000000000 ) ) ;
#87 = LINE ( 'NONE', #226, #314 ) ;
#88 = ORIENTED_EDGE ( 'NONE', *, *, #736, .T. ) ;
#89 = DIRECTION ( 'NONE',  ( -0.000000000000000000, -0.000000000000000000, -1.000000000000000000 ) ) ;
#90 = CARTESIAN_POINT ( 'NONE',  ( 7.413345811566749433, -113.4041602925917118, 6.000000000000000000 ) ) ;
#91 = ORIENTED_EDGE ( 'NONE', *, *, #491, .T. ) ;
#92 = AXIS2_PLACEMENT_3D ( 'NONE', #940, #109, #579 ) ;
#93 = CARTESIAN_POINT ( 'NONE',  ( -30.11334581156930312, -73.40416029259171182, 0.000000000000000000 ) ) ;
#94 = CARTESIAN_POINT ( 'NONE',  ( 10.11334581156675405, -113.4041602925917118, 6.000000000000000000 ) ) ;
#95 = EDGE_CURVE ( 'NONE', #53, #643, #577, .T. ) ;
#96 = CARTESIAN_POINT ( 'NONE',  ( 7.413345811566749433, -113.4041602925917118, 0.000000000000000000 ) ) ;
#97 = APPROVAL ( #815, 'UNSPECIFIED' ) ;
#98 = VERTEX_POINT ( 'NONE', #865 ) ;
#99 = DIRECTION ( 'NONE',  ( 0.000000000000000000, -0.000000000000000000, -1.000000000000000000 ) ) ;
#100 = CARTESIAN_POINT ( 'NONE',  ( -30.11334581156930312, -113.4041602925917118, 6.000000000000000000 ) ) ;
#101 = CIRCLE ( 'NONE', #545, 2.700000000000001066 ) ;
#102 = CARTESIAN_POINT ( 'NONE',  ( 12.81334581156675867, -113.4041602925917118, 0.000000000000000000 ) ) ;
#103 = ORIENTED_EDGE ( 'NONE', *, *, #310, .T. ) ;
#104 = CIRCLE ( 'NONE', #851, 2.700000000000004619 ) ;
#105 = CARTESIAN_POINT ( 'NONE',  ( -27.41334581156929673, -113.4041602925917118, 6.000000000000000000 ) ) ;
#106 = ORIENTED_EDGE ( 'NONE', *, *, #662, .T. ) ;
#107 = EDGE_CURVE ( 'NONE', #64, #628, #132, .T. ) ;
#108 = FACE_OUTER_BOUND ( 'NONE', #574, .T. ) ;
#109 = DIRECTION ( 'NONE',  ( -0.000000000000000000, -0.000000000000000000, -1.000000000000000000 ) ) ;
#110 = EDGE_CURVE ( 'NONE', #348, #164, #870, .T. ) ;
#111 = AXIS2_PLACEMENT_3D ( 'NONE', #405, #798, #935 ) ;
#112 = ORIENTED_EDGE ( 'NONE', *, *, #531, .F. ) ;
#113 = VERTEX_POINT ( 'NONE', #421 ) ;
#114 = CARTESIAN_POINT ( 'NONE',  ( -13.50000000000127187, -111.4776138657193201, 6.000000000000000000 ) ) ;
#115 = ORIENTED_EDGE ( 'NONE', *, *, #31, .F. ) ;
#116 = ORIENTED_EDGE ( 'NONE', *, *, #422, .T. ) ;
#117 = VECTOR ( 'NONE', #756, 1000.000000000000000 ) ;
#118 = EDGE_CURVE ( 'NONE', #553, #113, #939, .T. ) ;
#119 = FACE_OUTER_BOUND ( 'NONE', #905, .T. ) ;
#120 = ADVANCED_FACE ( 'NONE', ( #792 ), #138, .T. ) ;
#121 = EDGE_CURVE ( 'NONE', #262, #455, #198, .T. ) ;
#122 = ORIENTED_EDGE ( 'NONE', *, *, #694, .T. ) ;
#123 = EDGE_LOOP ( 'NONE', ( #695, #832 ) ) ;
#124 = PLANE ( 'NONE',  #340 ) ;
#125 = VECTOR ( 'NONE', #358, 1000.000000000000000 ) ;
#126 = EDGE_CURVE ( 'NONE', #180, #134, #836, .T. ) ;
#127 = CARTESIAN_POINT ( 'NONE',  ( -13.50000000000127187, -115.4776138657193201, 0.000000000000000000 ) ) ;
#128 = CARTESIAN_POINT ( 'NONE',  ( -32.00000000000127187, -130.4041602925916266, 0.000000000000000000 ) ) ;
#129 = ORIENTED_EDGE ( 'NONE', *, *, #708, .T. ) ;
#130 = DIRECTION ( 'NONE',  ( -7.885106708985496429E-17, -1.000000000000000000, 0.000000000000000000 ) ) ;
#131 = VECTOR ( 'NONE', #77, 1000.000000000000000 ) ;
#132 = LINE ( 'NONE', #209, #690 ) ;
#133 = CARTESIAN_POINT ( 'NONE',  ( -13.50000000000127187, -115.4776138657193201, 6.000000000000000000 ) ) ;
#134 = VERTEX_POINT ( 'NONE', #506 ) ;
#135 = FACE_OUTER_BOUND ( 'NONE', #850, .T. ) ;
#136 = CIRCLE ( 'NONE', #381, 2.700000000000001066 ) ;
#137 = ORGANIZATION ( 'UNSPECIFIED', 'UNSPECIFIED', '' ) ;
#138 = CYLINDRICAL_SURFACE ( 'NONE', #273, 15.00000000000002309 ) ;
#139 = CARTESIAN_POINT ( 'NONE',  ( -27.41334581156930383, -73.40416029259171182, 6.000000000000000000 ) ) ;
#140 = ORIENTED_EDGE ( 'NONE', *, *, #550, .T. ) ;
#141 = EDGE_CURVE ( 'NONE', #503, #293, #431, .T. ) ;
#142 = FACE_OUTER_BOUND ( 'NONE', #846, .T. ) ;
#143 = DIRECTION ( 'NONE',  ( 1.000000000000000000, 0.000000000000000000, 0.000000000000000000 ) ) ;
#144 = VECTOR ( 'NONE', #866, 1000.000000000000000 ) ;
#145 = ORIENTED_EDGE ( 'NONE', *, *, #298, .T. ) ;
#146 = APPROVAL_STATUS ( 'not_yet_approved' ) ;
#147 = CARTESIAN_POINT ( 'NONE',  ( -32.00000000000127898, -115.4041602925917260, 6.000000000000000000 ) ) ;
#148 = VECTOR ( 'NONE', #239, 1000.000000000000000 ) ;
#149 = ORIENTED_EDGE ( 'NONE', *, *, #694, .F. ) ;
#150 = EDGE_CURVE ( 'NONE', #455, #262, #672, .T. ) ;
#151 = EDGE_CURVE ( 'NONE', #216, #706, #917, .T. ) ;
#152 = DIRECTION ( 'NONE',  ( 1.000000000000000000, -0.000000000000000000, -0.000000000000000000 ) ) ;
#153 = ORIENTED_EDGE ( 'NONE', *, *, #312, .T. ) ;
#154 = DIRECTION ( 'NONE',  ( -0.000000000000000000, -0.000000000000000000, -1.000000000000000000 ) ) ;
#155 = LINE ( 'NONE', #529, #700 ) ;
#156 = ORIENTED_EDGE ( 'NONE', *, *, #928, .F. ) ;
#157 = AXIS2_PLACEMENT_3D ( 'NONE', #188, #183, #478 ) ;
#158 = LINE ( 'NONE', #25, #148 ) ;
#159 = ORIENTED_EDGE ( 'NONE', *, *, #281, .F. ) ;
#160 = ADVANCED_FACE ( 'NONE', ( #366 ), #653, .F. ) ;
#161 = PERSON_AND_ORGANIZATION_ROLE ( 'classification_officer' ) ;
#162 = CARTESIAN_POINT ( 'NONE',  ( 11.99999999999872458, -56.40416029259167630, 6.000000000000000000 ) ) ;
#163 = VECTOR ( 'NONE', #645, 1000.000000000000000 ) ;
#164 = VERTEX_POINT ( 'NONE', #357 ) ;
#165 = PRODUCT_DEFINITION_FORMATION_WITH_SPECIFIED_SOURCE ( 'ANY', '', #576, .NOT_KNOWN. ) ;
#166 = EDGE_CURVE ( 'NONE', #219, #503, #650, .T. ) ;
#167 = PLANE ( 'NONE',  #1 ) ;
#168 = DIRECTION ( 'NONE',  ( -0.000000000000000000, 0.000000000000000000, -1.000000000000000000 ) ) ;
#169 = ADVANCED_FACE ( 'NONE', ( #225 ), #758, .T. ) ;
#170 = LINE ( 'NONE', #889, #831 ) ;
#171 = EDGE_LOOP ( 'NONE', ( #585, #323, #460, #713 ) ) ;
#172 = FACE_OUTER_BOUND ( 'NONE', #313, .T. ) ;
#173 = LINE ( 'NONE', #678, #264 ) ;
#174 = VERTEX_POINT ( 'NONE', #528 ) ;
#175 = CARTESIAN_POINT ( 'NONE',  ( -13.50000000000127187, -111.4776138657193201, 6.000000000000000000 ) ) ;
#176 = DIRECTION ( 'NONE',  ( -0.000000000000000000, -0.000000000000000000, -1.000000000000000000 ) ) ;
#177 = VECTOR ( 'NONE', #311, 1000.000000000000000 ) ;
#178 = DIRECTION ( 'NONE',  ( -1.000000000000000000, 0.000000000000000000, 0.000000000000000000 ) ) ;
#179 = EDGE_CURVE ( 'NONE', #636, #486, #454, .T. ) ;
#180 = VERTEX_POINT ( 'NONE', #817 ) ;
#181 = EDGE_LOOP ( 'NONE', ( #687, #874, #755, #195 ) ) ;
#182 = DIRECTION ( 'NONE',  ( 0.000000000000000000, -1.000000000000000000, 0.000000000000000000 ) ) ;
#183 = DIRECTION ( 'NONE',  ( 0.000000000000000000, -1.000000000000000000, 0.000000000000000000 ) ) ;
#184 = DIRECTION ( 'NONE',  ( -0.000000000000000000, -1.000000000000000000, -0.000000000000000000 ) ) ;
#185 = PLANE ( 'NONE',  #414 ) ;
#186 = ORIENTED_EDGE ( 'NONE', *, *, #873, .T. ) ;
#187 = CARTESIAN_POINT ( 'NONE',  ( 10.11334581156675405, -113.4041602925917118, 6.000000000000000000 ) ) ;
#188 = CARTESIAN_POINT ( 'NONE',  ( 11.99999999999872458, -56.40416029259167630, 6.000000000000000000 ) ) ;
#189 = CIRCLE ( 'NONE', #733, 2.700000000000008171 ) ;
#190 = LINE ( 'NONE', #734, #163 ) ;
#191 = ORIENTED_EDGE ( 'NONE', *, *, #787, .F. ) ;
#192 = ADVANCED_FACE ( 'NONE', ( #600 ), #316, .F. ) ;
#193 =( NAMED_UNIT ( * ) PLANE_ANGLE_UNIT ( ) SI_UNIT ( $, .RADIAN. ) );
#194 = EDGE_CURVE ( 'NONE', #628, #764, #220, .T. ) ;
#195 = ORIENTED_EDGE ( 'NONE', *, *, #750, .F. ) ;
#196 = ORIENTED_EDGE ( 'NONE', *, *, #95, .F. ) ;
#197 = CARTESIAN_POINT ( 'NONE',  ( 10.11334581156804369, -73.40416029259174024, 6.000000000000000000 ) ) ;
#198 = CIRCLE ( 'NONE', #594, 2.700000000000004619 ) ;
#199 = EDGE_CURVE ( 'NONE', #330, #553, #516, .T. ) ;
#200 =( GEOMETRIC_REPRESENTATION_CONTEXT ( 3 ) GLOBAL_UNCERTAINTY_ASSIGNED_CONTEXT ( ( #644 ) ) GLOBAL_UNIT_ASSIGNED_CONTEXT ( ( #212, #193, #640 ) ) REPRESENTATION_CONTEXT ( 'NONE', 'WORKASPACE' ) );
#201 = CYLINDRICAL_SURFACE ( 'NONE', #739, 2.700000000000001066 ) ;
#202 = ORIENTED_EDGE ( 'NONE', *, *, #267, .T. ) ;
#203 = APPROVAL_STATUS ( 'not_yet_approved' ) ;
#204 = CIRCLE ( 'NONE', #860, 15.00000000000002309 ) ;
#205 = DIRECTION ( 'NONE',  ( 0.000000000000000000, 0.000000000000000000, 1.000000000000000000 ) ) ;
#206 = PLANE ( 'NONE',  #157 ) ;
#207 = VERTEX_POINT ( 'NONE', #822 ) ;
#208 = DIRECTION ( 'NONE',  ( -1.000000000000000000, 0.000000000000000000, 0.000000000000000000 ) ) ;
#209 = CARTESIAN_POINT ( 'NONE',  ( -6.500000000001271871, -75.33070671946410357, 6.000000000000000000 ) ) ;
#210 = CARTESIAN_POINT ( 'NONE',  ( -13.50000000000127187, -71.33070671946410357, 6.000000000000000000 ) ) ;
#211 = ORIENTED_EDGE ( 'NONE', *, *, #26, .T. ) ;
#212 =( LENGTH_UNIT ( ) NAMED_UNIT ( * ) SI_UNIT ( .MILLI., .METRE. ) );
#213 = VECTOR ( 'NONE', #33, 1000.000000000000000 ) ;
#214 = CARTESIAN_POINT ( 'NONE',  ( 10.11334581156675405, -113.4041602925917118, 0.000000000000000000 ) ) ;
#215 = CARTESIAN_POINT ( 'NONE',  ( -32.00000000000127187, -130.4041602925916266, 6.000000000000000000 ) ) ;
#216 = VERTEX_POINT ( 'NONE', #754 ) ;
#217 = CARTESIAN_POINT ( 'NONE',  ( -13.50000000000127187, -71.33070671946410357, 6.000000000000000000 ) ) ;
#218 = AXIS2_PLACEMENT_3D ( 'NONE', #5, #659, #446 ) ;
#219 = VERTEX_POINT ( 'NONE', #296 ) ;
#220 = LINE ( 'NONE', #459, #722 ) ;
#221 = VECTOR ( 'NONE', #741, 1000.000000000000000 ) ;
#222 = ORIENTED_EDGE ( 'NONE', *, *, #708, .F. ) ;
#223 = DATE_AND_TIME ( #71, #258 ) ;
#224 = VECTOR ( 'NONE', #538, 1000.000000000000000 ) ;
#225 = FACE_OUTER_BOUND ( 'NONE', #251, .T. ) ;
#226 = CARTESIAN_POINT ( 'NONE',  ( -6.500000000001271871, -115.4776138657193201, 0.000000000000000000 ) ) ;
#227 = VERTEX_POINT ( 'NONE', #86 ) ;
#228 = CALENDAR_DATE ( 2026, 22, 8 ) ;
#229 = CARTESIAN_POINT ( 'NONE',  ( -47.00000000000126477, -115.4041602925916834, 0.000000000000000000 ) ) ;
#230 = CARTESIAN_POINT ( 'NONE',  ( -10.00000000000127187, -111.4776138657193201, 0.000000000000000000 ) ) ;
#231 = EDGE_CURVE ( 'NONE', #227, #764, #170, .T. ) ;
#232 = DIRECTION ( 'NONE',  ( 0.000000000000000000, 1.000000000000000000, 0.000000000000000000 ) ) ;
#233 = VERTEX_POINT ( 'NONE', #90 ) ;
#234 = AXIS2_PLACEMENT_3D ( 'NONE', #94, #24, #20 ) ;
#235 = CARTESIAN_POINT ( 'NONE',  ( -13.50000000000127187, -71.33070671946410357, 0.000000000000000000 ) ) ;
#236 = EDGE_CURVE ( 'NONE', #255, #27, #809, .T. ) ;
#237 = EDGE_LOOP ( 'NONE', ( #396, #884, #403, #364 ) ) ;
#238 = CARTESIAN_POINT ( 'NONE',  ( -6.500000000001271871, -111.4776138657193201, 0.000000000000000000 ) ) ;
#239 = DIRECTION ( 'NONE',  ( -1.000000000000000000, 0.000000000000000000, 0.000000000000000000 ) ) ;
#240 = ORIENTED_EDGE ( 'NONE', *, *, #607, .F. ) ;
#241 = LOCAL_TIME ( 12, 38, 51.00000000000000000, #518 ) ;
#242 = CARTESIAN_POINT ( 'NONE',  ( -6.500000000001271871, -71.33070671946410357, 0.000000000000000000 ) ) ;
#243 = CYLINDRICAL_SURFACE ( 'NONE', #234, 2.700000000000004619 ) ;
#244 = DIRECTION ( 'NONE',  ( -1.000000000000000000, 0.000000000000000000, 0.000000000000000000 ) ) ;
#245 = ORIENTED_EDGE ( 'NONE', *, *, #605, .F. ) ;
#246 = VECTOR ( 'NONE', #869, 1000.000000000000000 ) ;
#247 = DIRECTION ( 'NONE',  ( -0.000000000000000000, -0.000000000000000000, -1.000000000000000000 ) ) ;
#248 = FACE_BOUND ( 'NONE', #123, .T. ) ;
#249 = EDGE_CURVE ( 'NONE', #895, #636, #591, .T. ) ;
#250 = CARTESIAN_POINT ( 'NONE',  ( -6.500000000001271871, -115.4776138657193201, 6.000000000000000000 ) ) ;
#251 = EDGE_LOOP ( 'NONE', ( #122, #112, #334, #415 ) ) ;
#252 = DIRECTION ( 'NONE',  ( 0.000000000000000000, -1.000000000000000000, 0.000000000000000000 ) ) ;
#253 = DIRECTION ( 'NONE',  ( -0.000000000000000000, -1.000000000000000000, -0.000000000000000000 ) ) ;
#254 = CARTESIAN_POINT ( 'NONE',  ( -6.500000000001271871, -71.33070671946410357, 6.000000000000000000 ) ) ;
#255 = VERTEX_POINT ( 'NONE', #383 ) ;
#256 = AXIS2_PLACEMENT_3D ( 'NONE', #369, #205, #272 ) ;
#257 = VERTEX_POINT ( 'NONE', #377 ) ;
#258 = LOCAL_TIME ( 12, 38, 51.00000000000000000, #299 ) ;
#259 = CYLINDRICAL_SURFACE ( 'NONE', #582, 15.00000000000000000 ) ;
#260 = DIRECTION ( 'NONE',  ( -0.000000000000000000, -0.000000000000000000, -1.000000000000000000 ) ) ;
#261 = CYLINDRICAL_SURFACE ( 'NONE', #271, 2.700000000000004619 ) ;
#262 = VERTEX_POINT ( 'NONE', #96 ) ;
#263 = FACE_BOUND ( 'NONE', #522, .T. ) ;
#264 = VECTOR ( 'NONE', #89, 1000.000000000000000 ) ;
#265 = DIRECTION ( 'NONE',  ( -1.000000000000000000, 0.000000000000000000, 0.000000000000000000 ) ) ;
#266 = ORIENTED_EDGE ( 'NONE', *, *, #801, .T. ) ;
#267 = EDGE_CURVE ( 'NONE', #276, #706, #445, .T. ) ;
#268 = ORIENTED_EDGE ( 'NONE', *, *, #151, .F. ) ;
#269 = CARTESIAN_POINT ( 'NONE',  ( 26.99999999999872813, -115.4041602925916123, 6.000000000000000000 ) ) ;
#270 = CC_DESIGN_PERSON_AND_ORGANIZATION_ASSIGNMENT ( #440, #656, ( #328 ) ) ;
#271 = AXIS2_PLACEMENT_3D ( 'NONE', #615, #400, #265 ) ;
#272 = DIRECTION ( 'NONE',  ( 1.000000000000000000, 0.000000000000000000, 0.000000000000000000 ) ) ;
#273 = AXIS2_PLACEMENT_3D ( 'NONE', #432, #730, #65 ) ;
#274 = DIRECTION ( 'NONE',  ( -1.000000000000000000, 0.000000000000000000, 0.000000000000000000 ) ) ;
#275 = DIRECTION ( 'NONE',  ( 1.000000000000000000, 0.000000000000000000, 0.000000000000000000 ) ) ;
#276 = VERTEX_POINT ( 'NONE', #386 ) ;
#277 = CARTESIAN_POINT ( 'NONE',  ( -32.81334581156930597, -73.40416029259171182, 6.000000000000000000 ) ) ;
#278 = LINE ( 'NONE', #571, #752 ) ;
#279 = EDGE_CURVE ( 'NONE', #601, #444, #101, .T. ) ;
#280 = CIRCLE ( 'NONE', #599, 15.00000000000002309 ) ;
#281 = EDGE_CURVE ( 'NONE', #862, #376, #520, .T. ) ;
#282 = CARTESIAN_POINT ( 'NONE',  ( -13.50000000000126832, -75.33070671946410357, 6.000000000000000000 ) ) ;
#283 = PLANE ( 'NONE',  #524 ) ;
#284 = ORIENTED_EDGE ( 'NONE', *, *, #110, .F. ) ;
#285 = DIRECTION ( 'NONE',  ( 0.000000000000000000, 0.000000000000000000, 1.000000000000000000 ) ) ;
#286 = DIRECTION ( 'NONE',  ( 1.000000000000000000, 0.000000000000000000, 0.000000000000000000 ) ) ;
#287 = LINE ( 'NONE', #429, #125 ) ;
#288 = ORIENTED_EDGE ( 'NONE', *, *, #312, .F. ) ;
#289 = CALENDAR_DATE ( 2026, 22, 8 ) ;
#290 = AXIS2_PLACEMENT_3D ( 'NONE', #93, #404, #696 ) ;
#291 = DIRECTION ( 'NONE',  ( 0.000000000000000000, 0.000000000000000000, 1.000000000000000000 ) ) ;
#292 = EDGE_CURVE ( 'NONE', #631, #113, #894, .T. ) ;
#293 = VERTEX_POINT ( 'NONE', #596 ) ;
#294 = APPROVAL_ROLE ( '' ) ;
#295 = EDGE_CURVE ( 'NONE', #899, #455, #525, .T. ) ;
#296 = CARTESIAN_POINT ( 'NONE',  ( -32.81334581156931307, -113.4041602925917118, 6.000000000000000000 ) ) ;
#297 = ORIENTED_EDGE ( 'NONE', *, *, #715, .T. ) ;
#298 = EDGE_CURVE ( 'NONE', #276, #770, #56, .T. ) ;
#299 = COORDINATED_UNIVERSAL_TIME_OFFSET ( 0, 0, .AHEAD. ) ;
#300 = DIRECTION ( 'NONE',  ( -0.000000000000000000, -0.000000000000000000, -1.000000000000000000 ) ) ;
#301 = AXIS2_PLACEMENT_3D ( 'NONE', #681, #744, #813 ) ;
#302 = ORIENTED_EDGE ( 'NONE', *, *, #141, .F. ) ;
#303 = PERSON_AND_ORGANIZATION_ROLE ( 'design_supplier' ) ;
#304 = CARTESIAN_POINT ( 'NONE',  ( 10.11334581156804369, -73.40416029259174024, 6.000000000000000000 ) ) ;
#305 = VECTOR ( 'NONE', #859, 1000.000000000000000 ) ;
#306 = DIRECTION ( 'NONE',  ( 0.000000000000000000, 0.000000000000000000, 1.000000000000000000 ) ) ;
#307 = ORIENTED_EDGE ( 'NONE', *, *, #343, .F. ) ;
#308 = PERSON_AND_ORGANIZATION ( #360, #137 ) ;
#309 = DIRECTION ( 'NONE',  ( 1.000000000000000000, 0.000000000000000000, 0.000000000000000000 ) ) ;
#310 = EDGE_CURVE ( 'NONE', #27, #867, #158, .T. ) ;
#311 = DIRECTION ( 'NONE',  ( -1.000000000000000000, 0.000000000000000000, 0.000000000000000000 ) ) ;
#312 = EDGE_CURVE ( 'NONE', #255, #164, #4, .T. ) ;
#313 = EDGE_LOOP ( 'NONE', ( #159, #544, #103, #569 ) ) ;
#314 = VECTOR ( 'NONE', #232, 1000.000000000000000 ) ;
#315 = CYLINDRICAL_SURFACE ( 'NONE', #23, 2.699999999999999289 ) ;
#316 = PLANE ( 'NONE',  #590 ) ;
#317 = ORIENTED_EDGE ( 'NONE', *, *, #199, .T. ) ;
#318 = FACE_OUTER_BOUND ( 'NONE', #237, .T. ) ;
#319 = DIRECTION ( 'NONE',  ( 1.000000000000000000, 0.000000000000000000, 0.000000000000000000 ) ) ;
#320 = DIRECTION ( 'NONE',  ( -0.000000000000000000, -0.000000000000000000, -1.000000000000000000 ) ) ;
#321 = VECTOR ( 'NONE', #513, 1000.000000000000000 ) ;
#322 = APPROVAL_PERSON_ORGANIZATION ( #942, #97, #294 ) ;
#323 = ORIENTED_EDGE ( 'NONE', *, *, #26, .F. ) ;
#324 = CC_DESIGN_APPROVAL ( #622, ( #328 ) ) ;
#325 = ADVANCED_FACE ( 'NONE', ( #342 ), #261, .F. ) ;
#326 = DIRECTION ( 'NONE',  ( 1.000000000000000000, 0.000000000000000000, 0.000000000000000000 ) ) ;
#327 = FACE_BOUND ( 'NONE', #805, .T. ) ;
#328 = PRODUCT_DEFINITION ( 'UNKNOWN', '', #165, #864 ) ;
#329 = CARTESIAN_POINT ( 'NONE',  ( -6.500000000001271871, -115.4776138657193201, 6.000000000000000000 ) ) ;
#330 = VERTEX_POINT ( 'NONE', #254 ) ;
#331 = CARTESIAN_POINT ( 'NONE',  ( -47.00000000000128608, -71.40416029259168340, 6.000000000000000000 ) ) ;
#332 = FACE_OUTER_BOUND ( 'NONE', #652, .T. ) ;
#333 = DIRECTION ( 'NONE',  ( -0.000000000000000000, -0.000000000000000000, -1.000000000000000000 ) ) ;
#334 = ORIENTED_EDGE ( 'NONE', *, *, #634, .F. ) ;
#335 = EDGE_LOOP ( 'NONE', ( #83, #50 ) ) ;
#336 = DIRECTION ( 'NONE',  ( -0.000000000000000000, 0.000000000000000000, -1.000000000000000000 ) ) ;
#337 = CARTESIAN_POINT ( 'NONE',  ( -6.500000000001271871, -71.33070671946410357, 0.000000000000000000 ) ) ;
#338 = ADVANCED_FACE ( 'NONE', ( #119 ), #487, .T. ) ;
#339 = VERTEX_POINT ( 'NONE', #838 ) ;
#340 = AXIS2_PLACEMENT_3D ( 'NONE', #564, #347, #208 ) ;
#341 = CALENDAR_DATE ( 2026, 22, 8 ) ;
#342 = FACE_OUTER_BOUND ( 'NONE', #546, .T. ) ;
#343 = EDGE_CURVE ( 'NONE', #553, #64, #473, .T. ) ;
#344 = ORIENTED_EDGE ( 'NONE', *, *, #411, .F. ) ;
#345 = EDGE_CURVE ( 'NONE', #530, #514, #630, .T. ) ;
#346 = ORIENTED_EDGE ( 'NONE', *, *, #802, .F. ) ;
#347 = DIRECTION ( 'NONE',  ( -0.000000000000000000, 0.000000000000000000, -1.000000000000000000 ) ) ;
#348 = VERTEX_POINT ( 'NONE', #560 ) ;
#349 = AXIS2_PLACEMENT_3D ( 'NONE', #725, #362, #62 ) ;
#350 = EDGE_LOOP ( 'NONE', ( #245, #823, #482, #211 ) ) ;
#351 = DIRECTION ( 'NONE',  ( 0.000000000000000000, 0.000000000000000000, 1.000000000000000000 ) ) ;
#352 = VECTOR ( 'NONE', #320, 1000.000000000000000 ) ;
#353 = DIRECTION ( 'NONE',  ( 1.000000000000000000, 0.000000000000000000, 0.000000000000000000 ) ) ;
#354 = PLANE ( 'NONE',  #111 ) ;
#355 = ORIENTED_EDGE ( 'NONE', *, *, #729, .T. ) ;
#356 = FACE_BOUND ( 'NONE', #488, .T. ) ;
#357 = CARTESIAN_POINT ( 'NONE',  ( -6.500000000001271871, -115.4776138657193201, 0.000000000000000000 ) ) ;
#358 = DIRECTION ( 'NONE',  ( -0.000000000000000000, -0.000000000000000000, -1.000000000000000000 ) ) ;
#359 = ORIENTED_EDGE ( 'NONE', *, *, #249, .T. ) ;
#360 = PERSON ( 'UNSPECIFIED', 'UNSPECIFIED', 'UNSPECIFIED', ('UNSPECIFIED'), ('UNSPECIFIED'), ('UNSPECIFIED') ) ;
#361 = AXIS2_PLACEMENT_3D ( 'NONE', #692, #603, #319 ) ;
#362 = DIRECTION ( 'NONE',  ( 1.892425610156521707E-15, 1.000000000000000000, -0.000000000000000000 ) ) ;
#363 = CARTESIAN_POINT ( 'NONE',  ( -32.00000000000128608, -56.40416029259167630, 6.000000000000000000 ) ) ;
#364 = ORIENTED_EDGE ( 'NONE', *, *, #95, .T. ) ;
#365 = EDGE_CURVE ( 'NONE', #536, #257, #882, .T. ) ;
#366 = FACE_OUTER_BOUND ( 'NONE', #434, .T. ) ;
#367 = ORIENTED_EDGE ( 'NONE', *, *, #840, .T. ) ;
#368 = LOCAL_TIME ( 12, 38, 51.00000000000000000, #891 ) ;
#369 = CARTESIAN_POINT ( 'NONE',  ( 10.11334581156675405, -113.4041602925917118, 0.000000000000000000 ) ) ;
#370 = EDGE_CURVE ( 'NONE', #683, #895, #280, .T. ) ;
#371 = DIRECTION ( 'NONE',  ( 7.885106708985497662E-17, 1.000000000000000000, 0.000000000000000000 ) ) ;
#372 = ORIENTED_EDGE ( 'NONE', *, *, #80, .F. ) ;
#373 = DATE_AND_TIME ( #289, #458 ) ;
#374 = VECTOR ( 'NONE', #720, 1000.000000000000000 ) ;
#375 = DIRECTION ( 'NONE',  ( -0.000000000000000000, -0.000000000000000000, -1.000000000000000000 ) ) ;
#376 = VERTEX_POINT ( 'NONE', #40 ) ;
#377 = CARTESIAN_POINT ( 'NONE',  ( -32.00000000000127898, -130.4041602925916550, 0.000000000000000000 ) ) ;
#378 = EDGE_LOOP ( 'NONE', ( #759, #808, #721, #765 ) ) ;
#379 = DATE_AND_TIME ( #12, #368 ) ;
#380 = CARTESIAN_POINT ( 'NONE',  ( 26.99999999999872813, -115.4041602925916123, 0.000000000000000000 ) ) ;
#381 = AXIS2_PLACEMENT_3D ( 'NONE', #876, #572, #658 ) ;
#382 = VECTOR ( 'NONE', #247, 1000.000000000000000 ) ;
#383 = CARTESIAN_POINT ( 'NONE',  ( -6.500000000001271871, -115.4776138657193201, 6.000000000000000000 ) ) ;
#384 = EDGE_LOOP ( 'NONE', ( #924, #941, #932, #606 ) ) ;
#385 = CARTESIAN_POINT ( 'NONE',  ( -32.00000000000127898, -115.4041602925917260, 0.000000000000000000 ) ) ;
#386 = CARTESIAN_POINT ( 'NONE',  ( 7.413345811568043509, -73.40416029259174024, 6.000000000000000000 ) ) ;
#387 = ORIENTED_EDGE ( 'NONE', *, *, #236, .F. ) ;
#388 = AXIS2_PLACEMENT_3D ( 'NONE', #100, #829, #15 ) ;
#389 = CARTESIAN_POINT ( 'NONE',  ( -10.00000000000127187, -111.4776138657193201, 6.000000000000000000 ) ) ;
#390 = CARTESIAN_POINT ( 'NONE',  ( 12.81334581156675867, -113.4041602925917118, 6.000000000000000000 ) ) ;
#391 = ORIENTED_EDGE ( 'NONE', *, *, #729, .F. ) ;
#392 = AXIS2_PLACEMENT_3D ( 'NONE', #250, #178, #709 ) ;
#393 = LINE ( 'NONE', #684, #711 ) ;
#394 = DIRECTION ( 'NONE',  ( -1.000000000000000000, 0.000000000000000000, 0.000000000000000000 ) ) ;
#395 = AXIS2_PLACEMENT_3D ( 'NONE', #471, #602, #901 ) ;
#396 = ORIENTED_EDGE ( 'NONE', *, *, #425, .T. ) ;
#397 = ORIENTED_EDGE ( 'NONE', *, *, #118, .T. ) ;
#398 = CARTESIAN_POINT ( 'NONE',  ( 26.99999999999872813, -115.4041602925916123, 0.000000000000000000 ) ) ;
#399 = DIRECTION ( 'NONE',  ( 0.000000000000000000, 1.000000000000000000, 0.000000000000000000 ) ) ;
#400 = DIRECTION ( 'NONE',  ( -0.000000000000000000, -0.000000000000000000, -1.000000000000000000 ) ) ;
#401 = ORIENTED_EDGE ( 'NONE', *, *, #682, .F. ) ;
#402 = AXIS2_PLACEMENT_3D ( 'NONE', #385, #168, #85 ) ;
#403 = ORIENTED_EDGE ( 'NONE', *, *, #801, .F. ) ;
#404 = DIRECTION ( 'NONE',  ( 0.000000000000000000, 0.000000000000000000, 1.000000000000000000 ) ) ;
#405 = CARTESIAN_POINT ( 'NONE',  ( -6.500000000001271871, -71.33070671946410357, 6.000000000000000000 ) ) ;
#406 = CARTESIAN_POINT ( 'NONE',  ( 26.99999999999872813, -115.4041602925916123, 6.000000000000000000 ) ) ;
#407 = CARTESIAN_POINT ( 'NONE',  ( 11.99999999999872813, -71.40416029259172603, 0.000000000000000000 ) ) ;
#408 = CARTESIAN_POINT ( 'NONE',  ( 26.99999999999872813, -71.40416029259166919, 6.000000000000000000 ) ) ;
#409 = EDGE_LOOP ( 'NONE', ( #566, #789 ) ) ;
#410 = CARTESIAN_POINT ( 'NONE',  ( -47.00000000000126477, -115.4041602925916834, 6.000000000000000000 ) ) ;
#411 = EDGE_CURVE ( 'NONE', #706, #216, #39, .T. ) ;
#412 = CC_DESIGN_DATE_AND_TIME_ASSIGNMENT ( #373, #76, ( #328 ) ) ;
#413 = ORIENTED_EDGE ( 'NONE', *, *, #637, .F. ) ;
#414 = AXIS2_PLACEMENT_3D ( 'NONE', #556, #923, #844 ) ;
#415 = ORIENTED_EDGE ( 'NONE', *, *, #179, .T. ) ;
#416 = CIRCLE ( 'NONE', #290, 2.700000000000001066 ) ;
#417 = PERSON_AND_ORGANIZATION_ROLE ( 'design_owner' ) ;
#418 = ORIENTED_EDGE ( 'NONE', *, *, #682, .T. ) ;
#419 = ORIENTED_EDGE ( 'NONE', *, *, #279, .F. ) ;
#420 = DIRECTION ( 'NONE',  ( -0.000000000000000000, -0.000000000000000000, -1.000000000000000000 ) ) ;
#421 = CARTESIAN_POINT ( 'NONE',  ( -13.50000000000127187, -71.33070671946410357, 0.000000000000000000 ) ) ;
#422 = EDGE_CURVE ( 'NONE', #530, #683, #745, .T. ) ;
#423 = DIRECTION ( 'NONE',  ( 0.000000000000000000, -1.000000000000000000, 0.000000000000000000 ) ) ;
#424 = ORIENTED_EDGE ( 'NONE', *, *, #295, .F. ) ;
#425 = EDGE_CURVE ( 'NONE', #643, #514, #481, .T. ) ;
#426 = FACE_BOUND ( 'NONE', #638, .T. ) ;
#427 = VECTOR ( 'NONE', #880, 1000.000000000000000 ) ;
#428 = DIRECTION ( 'NONE',  ( -0.000000000000000000, 1.000000000000000000, -0.000000000000000000 ) ) ;
#429 = CARTESIAN_POINT ( 'NONE',  ( -6.500000000001271871, -111.4776138657193201, 6.000000000000000000 ) ) ;
#430 = ORIENTED_EDGE ( 'NONE', *, *, #442, .F. ) ;
#431 = CIRCLE ( 'NONE', #17, 2.700000000000008171 ) ;
#432 = CARTESIAN_POINT ( 'NONE',  ( 11.99999999999872813, -71.40416029259172603, 6.000000000000000000 ) ) ;
#433 = DIRECTION ( 'NONE',  ( 0.000000000000000000, -0.000000000000000000, 1.000000000000000000 ) ) ;
#434 = EDGE_LOOP ( 'NONE', ( #418, #196, #240, #140 ) ) ;
#435 = EDGE_CURVE ( 'NONE', #164, #862, #87, .T. ) ;
#436 = AXIS2_PLACEMENT_3D ( 'NONE', #539, #176, #472 ) ;
#437 = CARTESIAN_POINT ( 'NONE',  ( -30.11334581156930312, -113.4041602925917118, 0.000000000000000000 ) ) ;
#438 = CARTESIAN_POINT ( 'NONE',  ( -6.500000000001271871, -71.33070671946410357, 6.000000000000000000 ) ) ;
#439 = EDGE_LOOP ( 'NONE', ( #517, #186, #419, #78 ) ) ;
#440 = PERSON_AND_ORGANIZATION ( #360, #137 ) ;
#441 = EDGE_CURVE ( 'NONE', #174, #536, #155, .T. ) ;
#442 = EDGE_CURVE ( 'NONE', #330, #631, #584, .T. ) ;
#443 = CARTESIAN_POINT ( 'NONE',  ( 11.99999999999862155, -130.4041602925917118, 6.000000000000000000 ) ) ;
#444 = VERTEX_POINT ( 'NONE', #41 ) ;
#445 = LINE ( 'NONE', #668, #563 ) ;
#446 = DIRECTION ( 'NONE',  ( -1.000000000000000000, 0.000000000000000000, 0.000000000000000000 ) ) ;
#447 = ORIENTED_EDGE ( 'NONE', *, *, #435, .F. ) ;
#448 = DATE_TIME_ROLE ( 'classification_date' ) ;
#449 = VECTOR ( 'NONE', #252, 1000.000000000000000 ) ;
#450 = DIRECTION ( 'NONE',  ( 0.000000000000000000, 1.000000000000000000, 0.000000000000000000 ) ) ;
#451 = CARTESIAN_POINT ( 'NONE',  ( 26.99999999999872813, -115.4041602925916123, 6.000000000000000000 ) ) ;
#452 = ORIENTED_EDGE ( 'NONE', *, *, #179, .F. ) ;
#453 = FACE_OUTER_BOUND ( 'NONE', #350, .T. ) ;
#454 = LINE ( 'NONE', #9, #427 ) ;
#455 = VERTEX_POINT ( 'NONE', #102 ) ;
#456 = APPROVAL_DATE_TIME ( #223, #753 ) ;
#457 = FACE_OUTER_BOUND ( 'NONE', #59, .T. ) ;
#458 = LOCAL_TIME ( 12, 38, 51.00000000000000000, #740 ) ;
#459 = CARTESIAN_POINT ( 'NONE',  ( -6.500000000001271871, -75.33070671946410357, 6.000000000000000000 ) ) ;
#460 = ORIENTED_EDGE ( 'NONE', *, *, #107, .T. ) ;
#461 = LINE ( 'NONE', #410, #382 ) ;
#462 = FACE_OUTER_BOUND ( 'NONE', #526, .T. ) ;
#463 = EDGE_CURVE ( 'NONE', #588, #716, #680, .T. ) ;
#464 = DIRECTION ( 'NONE',  ( -1.000000000000000000, -0.000000000000000000, -0.000000000000000000 ) ) ;
#465 = CC_DESIGN_PERSON_AND_ORGANIZATION_ASSIGNMENT ( #308, #303, ( #165 ) ) ;
#466 = EDGE_LOOP ( 'NONE', ( #156, #42, #633, #841 ) ) ;
#467 = LINE ( 'NONE', #114, #449 ) ;
#468 = DIRECTION ( 'NONE',  ( -0.000000000000000000, -0.000000000000000000, -1.000000000000000000 ) ) ;
#469 = ADVANCED_FACE ( 'NONE', ( #248, #667, #30, #825, #757, #527, #327 ), #609, .T. ) ;
#470 = ORIENTED_EDGE ( 'NONE', *, *, #776, .T. ) ;
#471 = CARTESIAN_POINT ( 'NONE',  ( -30.11334581156930312, -73.40416029259171182, 6.000000000000000000 ) ) ;
#472 = DIRECTION ( 'NONE',  ( -1.000000000000000000, 0.000000000000000000, 0.000000000000000000 ) ) ;
#473 = LINE ( 'NONE', #621, #515 ) ;
#474 = CIRCLE ( 'NONE', #74, 15.00000000000000000 ) ;
#475 = FACE_OUTER_BOUND ( 'NONE', #171, .T. ) ;
#476 = APPLICATION_CONTEXT ( 'configuration controlled 3d designs of mechanical parts and assemblies' ) ;
#477 = PLANE ( 'NONE',  #19 ) ;
#478 = DIRECTION ( 'NONE',  ( 0.000000000000000000, -0.000000000000000000, -1.000000000000000000 ) ) ;
#479 = CARTESIAN_POINT ( 'NONE',  ( 11.99999999999872458, -56.40416029259169761, 0.000000000000000000 ) ) ;
#480 = EDGE_CURVE ( 'NONE', #895, #2, #173, .T. ) ;
#481 = CIRCLE ( 'NONE', #218, 15.00000000000000000 ) ;
#482 = ORIENTED_EDGE ( 'NONE', *, *, #343, .T. ) ;
#483 = DIRECTION ( 'NONE',  ( 1.000000000000000000, 0.000000000000000000, 0.000000000000000000 ) ) ;
#484 = LINE ( 'NONE', #128, #374 ) ;
#485 = ORIENTED_EDGE ( 'NONE', *, *, #110, .T. ) ;
#486 = VERTEX_POINT ( 'NONE', #543 ) ;
#487 = PLANE ( 'NONE',  #392 ) ;
#488 = EDGE_LOOP ( 'NONE', ( #372, #541 ) ) ;
#489 = EDGE_LOOP ( 'NONE', ( #35, #452, #769, #881 ) ) ;
#490 = DIRECTION ( 'NONE',  ( -1.000000000000000000, 0.000000000000000000, 0.000000000000000000 ) ) ;
#491 = EDGE_CURVE ( 'NONE', #293, #503, #189, .T. ) ;
#492 = EDGE_CURVE ( 'NONE', #233, #262, #820, .T. ) ;
#493 = CARTESIAN_POINT ( 'NONE',  ( -30.11334581156930312, -73.40416029259171182, 6.000000000000000000 ) ) ;
#494 = ORIENTED_EDGE ( 'NONE', *, *, #938, .T. ) ;
#495 = CIRCLE ( 'NONE', #79, 15.00000000000002665 ) ;
#496 = APPROVAL_ROLE ( '' ) ;
#497 = CARTESIAN_POINT ( 'NONE',  ( 10.11334581156804369, -73.40416029259174024, 0.000000000000000000 ) ) ;
#498 = LINE ( 'NONE', #133, #616 ) ;
#499 = ORIENTED_EDGE ( 'NONE', *, *, #776, .F. ) ;
#500 = DIRECTION ( 'NONE',  ( 1.000000000000000000, 0.000000000000000000, 0.000000000000000000 ) ) ;
#501 = FACE_OUTER_BOUND ( 'NONE', #580, .T. ) ;
#502 = ADVANCED_FACE ( 'NONE', ( #533 ), #614, .F. ) ;
#503 = VERTEX_POINT ( 'NONE', #902 ) ;
#504 = PERSON_AND_ORGANIZATION ( #360, #137 ) ;
#505 = CC_DESIGN_SECURITY_CLASSIFICATION ( #778, ( #165 ) ) ;
#506 = CARTESIAN_POINT ( 'NONE',  ( -32.00000000000127898, -130.4041602925916550, 6.000000000000000000 ) ) ;
#507 = CARTESIAN_POINT ( 'NONE',  ( -32.00000000000127898, -130.4041602925916550, 6.000000000000000000 ) ) ;
#508 = ORIENTED_EDGE ( 'NONE', *, *, #236, .T. ) ;
#509 = ADVANCED_FACE ( 'NONE', ( #457 ), #243, .F. ) ;
#510 = DATE_AND_TIME ( #228, #241 ) ;
#511 = ADVANCED_FACE ( 'NONE', ( #462 ), #315, .F. ) ;
#512 = AXIS2_PLACEMENT_3D ( 'NONE', #651, #788, #646 ) ;
#513 = DIRECTION ( 'NONE',  ( -0.000000000000000000, -0.000000000000000000, -1.000000000000000000 ) ) ;
#514 = VERTEX_POINT ( 'NONE', #380 ) ;
#515 = VECTOR ( 'NONE', #184, 1000.000000000000000 ) ;
#516 = LINE ( 'NONE', #604, #639 ) ;
#517 = ORIENTED_EDGE ( 'NONE', *, *, #80, .T. ) ;
#518 = COORDINATED_UNIVERSAL_TIME_OFFSET ( 0, 0, .AHEAD. ) ;
#519 = ADVANCED_FACE ( 'NONE', ( #34 ), #908, .T. ) ;
#520 = LINE ( 'NONE', #230, #177 ) ;
#521 = CC_DESIGN_DATE_AND_TIME_ASSIGNMENT ( #379, #448, ( #778 ) ) ;
#522 = EDGE_LOOP ( 'NONE', ( #677, #702 ) ) ;
#523 = CARTESIAN_POINT ( 'NONE',  ( 26.99999999999872813, -115.4041602925916123, 6.000000000000000000 ) ) ;
#524 = AXIS2_PLACEMENT_3D ( 'NONE', #704, #423, #555 ) ;
#525 = LINE ( 'NONE', #390, #131 ) ;
#526 = EDGE_LOOP ( 'NONE', ( #145, #558, #344, #75 ) ) ;
#527 = FACE_BOUND ( 'NONE', #814, .T. ) ;
#528 = CARTESIAN_POINT ( 'NONE',  ( -47.00000000000130740, -71.40416029259168340, 0.000000000000000000 ) ) ;
#529 = CARTESIAN_POINT ( 'NONE',  ( -47.00000000000128608, -93.40416029259171182, 0.000000000000000000 ) ) ;
#530 = VERTEX_POINT ( 'NONE', #523 ) ;
#531 = EDGE_CURVE ( 'NONE', #98, #174, #595, .T. ) ;
#532 = LINE ( 'NONE', #398, #691 ) ;
#533 = FACE_OUTER_BOUND ( 'NONE', #466, .T. ) ;
#534 = VECTOR ( 'NONE', #617, 1000.000000000000000 ) ;
#535 = DIRECTION ( 'NONE',  ( -1.000000000000000000, 0.000000000000000000, 0.000000000000000000 ) ) ;
#536 = VERTEX_POINT ( 'NONE', #229 ) ;
#537 = ADVANCED_FACE ( 'NONE', ( #453 ), #747, .T. ) ;
#538 = DIRECTION ( 'NONE',  ( -0.000000000000000000, 1.000000000000000000, -0.000000000000000000 ) ) ;
#539 = CARTESIAN_POINT ( 'NONE',  ( -32.00000000000127898, -115.4041602925917260, 6.000000000000000000 ) ) ;
#540 = VECTOR ( 'NONE', #260, 1000.000000000000000 ) ;
#541 = ORIENTED_EDGE ( 'NONE', *, *, #463, .F. ) ;
#542 = CARTESIAN_POINT ( 'NONE',  ( 10.11334581156675405, -113.4041602925917118, 6.000000000000000000 ) ) ;
#543 = CARTESIAN_POINT ( 'NONE',  ( -32.00000000000128608, -56.40416029259167630, 0.000000000000000000 ) ) ;
#544 = ORIENTED_EDGE ( 'NONE', *, *, #662, .F. ) ;
#545 = AXIS2_PLACEMENT_3D ( 'NONE', #676, #306, #16 ) ;
#546 = EDGE_LOOP ( 'NONE', ( #424, #88, #735, #22 ) ) ;
#547 = CARTESIAN_POINT ( 'NONE',  ( 12.81334581156804298, -73.40416029259174024, 6.000000000000000000 ) ) ;
#548 = FACE_OUTER_BOUND ( 'NONE', #489, .T. ) ;
#549 = CARTESIAN_POINT ( 'NONE',  ( 10.11334581156804369, -73.40416029259174024, 0.000000000000000000 ) ) ;
#550 = EDGE_CURVE ( 'NONE', #134, #257, #63, .T. ) ;
#551 = AXIS2_PLACEMENT_3D ( 'NONE', #937, #285, #855 ) ;
#552 = ORIENTED_EDGE ( 'NONE', *, *, #422, .F. ) ;
#553 = VERTEX_POINT ( 'NONE', #210 ) ;
#554 = LINE ( 'NONE', #331, #61 ) ;
#555 = DIRECTION ( 'NONE',  ( 0.000000000000000000, -0.000000000000000000, -1.000000000000000000 ) ) ;
#556 = CARTESIAN_POINT ( 'NONE',  ( -10.00000000000127187, -75.33070671946410357, 6.000000000000000000 ) ) ;
#557 = AXIS2_PLACEMENT_3D ( 'NONE', #673, #309, #912 ) ;
#558 = ORIENTED_EDGE ( 'NONE', *, *, #906, .T. ) ;
#559 = FACE_OUTER_BOUND ( 'NONE', #18, .T. ) ;
#560 = CARTESIAN_POINT ( 'NONE',  ( -13.50000000000127187, -115.4776138657193201, 0.000000000000000000 ) ) ;
#561 = ORIENTED_EDGE ( 'NONE', *, *, #310, .F. ) ;
#562 = ORIENTED_EDGE ( 'NONE', *, *, #3, .F. ) ;
#563 = VECTOR ( 'NONE', #21, 1000.000000000000000 ) ;
#564 = CARTESIAN_POINT ( 'NONE',  ( -32.00000000000127898, -115.4041602925917260, 6.000000000000000000 ) ) ;
#565 = DIRECTION ( 'NONE',  ( -0.000000000000000000, -0.000000000000000000, -1.000000000000000000 ) ) ;
#566 = ORIENTED_EDGE ( 'NONE', *, *, #411, .T. ) ;
#567 = DIRECTION ( 'NONE',  ( -0.000000000000000000, -0.000000000000000000, -1.000000000000000000 ) ) ;
#568 = CARTESIAN_POINT ( 'NONE',  ( 7.413345811568043509, -73.40416029259174024, 0.000000000000000000 ) ) ;
#569 = ORIENTED_EDGE ( 'NONE', *, *, #28, .T. ) ;
#570 = VECTOR ( 'NONE', #371, 1000.000000000000000 ) ;
#571 = CARTESIAN_POINT ( 'NONE',  ( 12.81334581156804298, -73.40416029259174024, 6.000000000000000000 ) ) ;
#572 = DIRECTION ( 'NONE',  ( 0.000000000000000000, 0.000000000000000000, 1.000000000000000000 ) ) ;
#573 = LINE ( 'NONE', #619, #648 ) ;
#574 = EDGE_LOOP ( 'NONE', ( #746, #47, #355, #833 ) ) ;
#575 = PERSON_AND_ORGANIZATION ( #360, #137 ) ;
#576 = PRODUCT ( 'PlantCarriageBase', 'PlantCarriageBase', '', ( #635 ) ) ;
#577 = LINE ( 'NONE', #782, #710 ) ;
#578 = ADVANCED_FACE ( 'NONE', ( #872 ), #283, .T. ) ;
#579 = DIRECTION ( 'NONE',  ( -1.000000000000000000, 0.000000000000000000, 0.000000000000000000 ) ) ;
#580 = EDGE_LOOP ( 'NONE', ( #284, #191, #129, #153 ) ) ;
#581 = CLOSED_SHELL ( 'NONE', ( #660, #509, #511, #856, #945, #469, #192, #519, #160, #777, #920, #120, #679, #169, #54, #589, #578, #537, #14, #900, #325, #502, #620, #338, #878, #806 ) ) ;
#582 = AXIS2_PLACEMENT_3D ( 'NONE', #608, #771, #763 ) ;
#583 = DIRECTION ( 'NONE',  ( 1.000000000000000000, -0.000000000000000000, -0.000000000000000000 ) ) ;
#584 = LINE ( 'NONE', #438, #246 ) ;
#585 = ORIENTED_EDGE ( 'NONE', *, *, #231, .F. ) ;
#586 = PERSON_AND_ORGANIZATION ( #360, #137 ) ;
#587 = DIRECTION ( 'NONE',  ( -9.462128050782600646E-16, 1.000000000000000000, 0.000000000000000000 ) ) ;
#588 = VERTEX_POINT ( 'NONE', #139 ) ;
#589 = ADVANCED_FACE ( 'NONE', ( #332 ), #354, .T. ) ;
#590 = AXIS2_PLACEMENT_3D ( 'NONE', #748, #883, #587 ) ;
#591 = LINE ( 'NONE', #162, #686 ) ;
#592 = ORIENTED_EDGE ( 'NONE', *, *, #879, .F. ) ;
#593 = SECURITY_CLASSIFICATION_LEVEL ( 'unclassified' ) ;
#594 = AXIS2_PLACEMENT_3D ( 'NONE', #214, #944, #353 ) ;
#595 = LINE ( 'NONE', #812, #743 ) ;
#596 = CARTESIAN_POINT ( 'NONE',  ( -27.41334581156929673, -113.4041602925917118, 0.000000000000000000 ) ) ;
#597 = ORIENTED_EDGE ( 'NONE', *, *, #441, .T. ) ;
#598 = SHAPE_DEFINITION_REPRESENTATION ( #875, #830 ) ;
#599 = AXIS2_PLACEMENT_3D ( 'NONE', #699, #611, #244 ) ;
#600 = FACE_OUTER_BOUND ( 'NONE', #849, .T. ) ;
#601 = VERTEX_POINT ( 'NONE', #45 ) ;
#602 = DIRECTION ( 'NONE',  ( -0.000000000000000000, -0.000000000000000000, -1.000000000000000000 ) ) ;
#603 = DIRECTION ( 'NONE',  ( 0.000000000000000000, 0.000000000000000000, 1.000000000000000000 ) ) ;
#604 = CARTESIAN_POINT ( 'NONE',  ( -13.50000000000127187, -71.33070671946410357, 6.000000000000000000 ) ) ;
#605 = EDGE_CURVE ( 'NONE', #113, #227, #573, .T. ) ;
#606 = ORIENTED_EDGE ( 'NONE', *, *, #845, .T. ) ;
#607 = EDGE_CURVE ( 'NONE', #134, #53, #843, .T. ) ;
#608 = CARTESIAN_POINT ( 'NONE',  ( 11.99999999999872813, -115.4041602925917260, 6.000000000000000000 ) ) ;
#609 = PLANE ( 'NONE',  #402 ) ;
#610 = CIRCLE ( 'NONE', #821, 2.700000000000004619 ) ;
#611 = DIRECTION ( 'NONE',  ( 0.000000000000000000, 0.000000000000000000, 1.000000000000000000 ) ) ;
#612 = ORIENTED_EDGE ( 'NONE', *, *, #531, .T. ) ;
#613 = CARTESIAN_POINT ( 'NONE',  ( -13.50000000000127187, -111.4776138657193201, 6.000000000000000000 ) ) ;
#614 = CYLINDRICAL_SURFACE ( 'NONE', #388, 2.700000000000008171 ) ;
#615 = CARTESIAN_POINT ( 'NONE',  ( 10.11334581156675405, -113.4041602925917118, 6.000000000000000000 ) ) ;
#616 = VECTOR ( 'NONE', #858, 1000.000000000000000 ) ;
#617 = DIRECTION ( 'NONE',  ( -0.000000000000000000, -0.000000000000000000, -1.000000000000000000 ) ) ;
#618 = DIRECTION ( 'NONE',  ( 0.000000000000000000, 0.000000000000000000, 1.000000000000000000 ) ) ;
#619 = CARTESIAN_POINT ( 'NONE',  ( -13.50000000000127187, -75.33070671946410357, 0.000000000000000000 ) ) ;
#620 = ADVANCED_FACE ( 'NONE', ( #501 ), #794, .T. ) ;
#621 = CARTESIAN_POINT ( 'NONE',  ( -13.50000000000127187, -75.33070671946410357, 6.000000000000000000 ) ) ;
#622 = APPROVAL ( #203, 'UNSPECIFIED' ) ;
#623 = LINE ( 'NONE', #408, #534 ) ;
#624 = DIRECTION ( 'NONE',  ( 0.000000000000000000, 0.000000000000000000, 1.000000000000000000 ) ) ;
#625 = CARTESIAN_POINT ( 'NONE',  ( 11.99999999999862155, -130.4041602925917118, 0.000000000000000000 ) ) ;
#626 = AXIS2_PLACEMENT_3D ( 'NONE', #147, #291, #274 ) ;
#627 = AXIS2_PLACEMENT_3D ( 'NONE', #269, #921, #130 ) ;
#628 = VERTEX_POINT ( 'NONE', #38 ) ;
#629 = DATE_AND_TIME ( #341, #657 ) ;
#630 = LINE ( 'NONE', #406, #352 ) ;
#631 = VERTEX_POINT ( 'NONE', #337 ) ;
#632 = AXIS2_PLACEMENT_3D ( 'NONE', #705, #848, #685 ) ;
#633 = ORIENTED_EDGE ( 'NONE', *, *, #166, .T. ) ;
#634 = EDGE_CURVE ( 'NONE', #636, #98, #922, .T. ) ;
#635 = MECHANICAL_CONTEXT ( 'NONE', #670, 'mechanical' ) ;
#636 = VERTEX_POINT ( 'NONE', #363 ) ;
#637 = EDGE_CURVE ( 'NONE', #770, #276, #768, .T. ) ;
#638 = EDGE_LOOP ( 'NONE', ( #654, #413 ) ) ;
#639 = VECTOR ( 'NONE', #464, 1000.000000000000000 ) ;
#640 =( NAMED_UNIT ( * ) SI_UNIT ( $, .STERADIAN. ) SOLID_ANGLE_UNIT ( ) );
#641 = CARTESIAN_POINT ( 'NONE',  ( -13.50000000000127187, -111.4776138657193201, 6.000000000000000000 ) ) ;
#642 = CARTESIAN_POINT ( 'NONE',  ( -32.00000000000127898, -71.40416029259172603, 0.000000000000000000 ) ) ;
#643 = VERTEX_POINT ( 'NONE', #625 ) ;
#644 = UNCERTAINTY_MEASURE_WITH_UNIT (LENGTH_MEASURE( 1.000000000000000082E-05 ), #212, 'distance_accuracy_value', 'NONE');
#645 = DIRECTION ( 'NONE',  ( -0.000000000000000000, -0.000000000000000000, -1.000000000000000000 ) ) ;
#646 = DIRECTION ( 'NONE',  ( 1.000000000000000000, 0.000000000000000000, 0.000000000000000000 ) ) ;
#647 = ORIENTED_EDGE ( 'NONE', *, *, #637, .T. ) ;
#648 = VECTOR ( 'NONE', #253, 1000.000000000000000 ) ;
#649 = CARTESIAN_POINT ( 'NONE',  ( -27.41334581156929673, -113.4041602925917118, 6.000000000000000000 ) ) ;
#650 = LINE ( 'NONE', #81, #10 ) ;
#651 = CARTESIAN_POINT ( 'NONE',  ( 10.11334581156804369, -73.40416029259174024, 6.000000000000000000 ) ) ;
#652 = EDGE_LOOP ( 'NONE', ( #732, #910, #775, #43 ) ) ;
#653 = PLANE ( 'NONE',  #349 ) ;
#654 = ORIENTED_EDGE ( 'NONE', *, *, #298, .F. ) ;
#655 = VECTOR ( 'NONE', #500, 1000.000000000000000 ) ;
#656 = PERSON_AND_ORGANIZATION_ROLE ( 'creator' ) ;
#657 = LOCAL_TIME ( 12, 38, 51.00000000000000000, #796 ) ;
#658 = DIRECTION ( 'NONE',  ( 1.000000000000000000, 0.000000000000000000, 0.000000000000000000 ) ) ;
#659 = DIRECTION ( 'NONE',  ( 0.000000000000000000, 0.000000000000000000, 1.000000000000000000 ) ) ;
#660 = ADVANCED_FACE ( 'NONE', ( #916 ), #767, .F. ) ;
#661 = EDGE_LOOP ( 'NONE', ( #693, #70 ) ) ;
#662 = EDGE_CURVE ( 'NONE', #27, #862, #287, .T. ) ;
#663 = VECTOR ( 'NONE', #835, 1000.000000000000000 ) ;
#664 = CARTESIAN_POINT ( 'NONE',  ( -6.500000000001271871, -115.4776138657193201, 6.000000000000000000 ) ) ;
#665 = ORIENTED_EDGE ( 'NONE', *, *, #492, .F. ) ;
#666 = APPROVAL_DATE_TIME ( #629, #622 ) ;
#667 = FACE_BOUND ( 'NONE', #378, .T. ) ;
#668 = CARTESIAN_POINT ( 'NONE',  ( 7.413345811568043509, -73.40416029259174024, 6.000000000000000000 ) ) ;
#669 = ORIENTED_EDGE ( 'NONE', *, *, #441, .F. ) ;
#670 = APPLICATION_CONTEXT ( 'configuration controlled 3d designs of mechanical parts and assemblies' ) ;
#671 = PERSON_AND_ORGANIZATION ( #360, #137 ) ;
#672 = CIRCLE ( 'NONE', #256, 2.700000000000004619 ) ;
#673 = CARTESIAN_POINT ( 'NONE',  ( -13.50000000000127187, -75.33070671946410357, 6.000000000000000000 ) ) ;
#674 = CC_DESIGN_APPROVAL ( #97, ( #165 ) ) ;
#675 = EDGE_CURVE ( 'NONE', #716, #601, #697, .T. ) ;
#676 = CARTESIAN_POINT ( 'NONE',  ( -30.11334581156930312, -73.40416029259171182, 0.000000000000000000 ) ) ;
#677 = ORIENTED_EDGE ( 'NONE', *, *, #938, .F. ) ;
#678 = CARTESIAN_POINT ( 'NONE',  ( 11.99999999999872458, -56.40416029259169761, 6.000000000000000000 ) ) ;
#679 = ADVANCED_FACE ( 'NONE', ( #548 ), #206, .F. ) ;
#680 = CIRCLE ( 'NONE', #361, 2.700000000000001066 ) ;
#681 = CARTESIAN_POINT ( 'NONE',  ( 10.11334581156804369, -73.40416029259174024, 6.000000000000000000 ) ) ;
#682 = EDGE_CURVE ( 'NONE', #257, #643, #484, .T. ) ;
#683 = VERTEX_POINT ( 'NONE', #58 ) ;
#684 = CARTESIAN_POINT ( 'NONE',  ( 11.99999999999872458, -56.40416029259167630, 0.000000000000000000 ) ) ;
#685 = DIRECTION ( 'NONE',  ( -1.000000000000000000, 0.000000000000000000, 0.000000000000000000 ) ) ;
#686 = VECTOR ( 'NONE', #535, 1000.000000000000000 ) ;
#687 = ORIENTED_EDGE ( 'NONE', *, *, #873, .F. ) ;
#688 = DIRECTION ( 'NONE',  ( -1.000000000000000000, 0.000000000000000000, 0.000000000000000000 ) ) ;
#689 = CARTESIAN_POINT ( 'NONE',  ( -30.11334581156930312, -113.4041602925917118, 0.000000000000000000 ) ) ;
#690 = VECTOR ( 'NONE', #583, 1000.000000000000000 ) ;
#691 = VECTOR ( 'NONE', #703, 1000.000000000000000 ) ;
#692 = CARTESIAN_POINT ( 'NONE',  ( -30.11334581156930312, -73.40416029259171182, 6.000000000000000000 ) ) ;
#693 = ORIENTED_EDGE ( 'NONE', *, *, #279, .T. ) ;
#694 = EDGE_CURVE ( 'NONE', #486, #174, #495, .T. ) ;
#695 = ORIENTED_EDGE ( 'NONE', *, *, #121, .T. ) ;
#696 = DIRECTION ( 'NONE',  ( 1.000000000000000000, 0.000000000000000000, 0.000000000000000000 ) ) ;
#697 = LINE ( 'NONE', #861, #663 ) ;
#698 = CC_DESIGN_PERSON_AND_ORGANIZATION_ASSIGNMENT ( #84, #161, ( #778 ) ) ;
#699 = CARTESIAN_POINT ( 'NONE',  ( 11.99999999999872813, -71.40416029259172603, 6.000000000000000000 ) ) ;
#700 = VECTOR ( 'NONE', #82, 1000.000000000000000 ) ;
#701 = EDGE_LOOP ( 'NONE', ( #669, #149, #592, #810, #499, #818, #401, #890 ) ) ;
#702 = ORIENTED_EDGE ( 'NONE', *, *, #68, .F. ) ;
#703 = DIRECTION ( 'NONE',  ( 7.885106708985497662E-17, 1.000000000000000000, 0.000000000000000000 ) ) ;
#704 = CARTESIAN_POINT ( 'NONE',  ( -13.50000000000127187, -71.33070671946410357, 6.000000000000000000 ) ) ;
#705 = CARTESIAN_POINT ( 'NONE',  ( -32.00000000000127898, -115.4041602925917260, 0.000000000000000000 ) ) ;
#706 = VERTEX_POINT ( 'NONE', #568 ) ;
#707 = DIRECTION ( 'NONE',  ( -0.000000000000000000, -0.000000000000000000, -1.000000000000000000 ) ) ;
#708 = EDGE_CURVE ( 'NONE', #207, #255, #498, .T. ) ;
#709 = DIRECTION ( 'NONE',  ( 0.000000000000000000, 0.000000000000000000, 1.000000000000000000 ) ) ;
#710 = VECTOR ( 'NONE', #567, 1000.000000000000000 ) ;
#711 = VECTOR ( 'NONE', #907, 1000.000000000000000 ) ;
#712 = ORIENTED_EDGE ( 'NONE', *, *, #121, .F. ) ;
#713 = ORIENTED_EDGE ( 'NONE', *, *, #194, .T. ) ;
#714 = DIRECTION ( 'NONE',  ( -0.000000000000000000, -0.000000000000000000, -1.000000000000000000 ) ) ;
#715 = EDGE_CURVE ( 'NONE', #339, #2, #204, .T. ) ;
#716 = VERTEX_POINT ( 'NONE', #277 ) ;
#717 = EDGE_LOOP ( 'NONE', ( #222, #391, #561, #387 ) ) ;
#718 = CARTESIAN_POINT ( 'NONE',  ( 11.99999999999872458, -56.40416029259169761, 6.000000000000000000 ) ) ;
#719 = FACE_OUTER_BOUND ( 'NONE', #181, .T. ) ;
#720 = DIRECTION ( 'NONE',  ( 1.000000000000000000, -1.892425610156521707E-15, 0.000000000000000000 ) ) ;
#721 = ORIENTED_EDGE ( 'NONE', *, *, #292, .T. ) ;
#722 = VECTOR ( 'NONE', #375, 1000.000000000000000 ) ;
#723 = CARTESIAN_POINT ( 'NONE',  ( -30.11334581156930312, -113.4041602925917118, 6.000000000000000000 ) ) ;
#724 = CIRCLE ( 'NONE', #72, 2.700000000000008171 ) ;
#725 = CARTESIAN_POINT ( 'NONE',  ( -32.00000000000127187, -130.4041602925916266, 6.000000000000000000 ) ) ;
#726 = AXIS2_PLACEMENT_3D ( 'NONE', #723, #351, #781 ) ;
#727 = DIRECTION ( 'NONE',  ( 1.000000000000000000, 0.000000000000000000, 0.000000000000000000 ) ) ;
#728 = ORIENTED_EDGE ( 'NONE', *, *, #845, .F. ) ;
#729 = EDGE_CURVE ( 'NONE', #867, #207, #467, .T. ) ;
#730 = DIRECTION ( 'NONE',  ( -0.000000000000000000, -0.000000000000000000, -1.000000000000000000 ) ) ;
#731 = CARTESIAN_POINT ( 'NONE',  ( -32.00000000000127898, -71.40416029259172603, 6.000000000000000000 ) ) ;
#732 = ORIENTED_EDGE ( 'NONE', *, *, #888, .F. ) ;
#733 = AXIS2_PLACEMENT_3D ( 'NONE', #689, #751, #893 ) ;
#734 = CARTESIAN_POINT ( 'NONE',  ( -13.50000000000127187, -75.33070671946410357, 6.000000000000000000 ) ) ;
#735 = ORIENTED_EDGE ( 'NONE', *, *, #492, .T. ) ;
#736 = EDGE_CURVE ( 'NONE', #899, #233, #610, .T. ) ;
#737 = DIRECTION ( 'NONE',  ( 0.000000000000000000, 0.000000000000000000, 1.000000000000000000 ) ) ;
#738 = ORIENTED_EDGE ( 'NONE', *, *, #480, .F. ) ;
#739 = AXIS2_PLACEMENT_3D ( 'NONE', #493, #565, #804 ) ;
#740 = COORDINATED_UNIVERSAL_TIME_OFFSET ( 0, 0, .AHEAD. ) ;
#741 = DIRECTION ( 'NONE',  ( -1.000000000000000000, -0.000000000000000000, -0.000000000000000000 ) ) ;
#742 = ORIENTED_EDGE ( 'NONE', *, *, #634, .T. ) ;
#743 = VECTOR ( 'NONE', #887, 1000.000000000000000 ) ;
#744 = DIRECTION ( 'NONE',  ( 0.000000000000000000, 0.000000000000000000, 1.000000000000000000 ) ) ;
#745 = LINE ( 'NONE', #451, #570 ) ;
#746 = ORIENTED_EDGE ( 'NONE', *, *, #826, .F. ) ;
#747 = PLANE ( 'NONE',  #557 ) ;
#748 = CARTESIAN_POINT ( 'NONE',  ( -47.00000000000128608, -93.40416029259171182, 6.000000000000000000 ) ) ;
#749 = ORIENTED_EDGE ( 'NONE', *, *, #370, .F. ) ;
#750 = EDGE_CURVE ( 'NONE', #444, #601, #416, .T. ) ;
#751 = DIRECTION ( 'NONE',  ( 0.000000000000000000, 0.000000000000000000, 1.000000000000000000 ) ) ;
#752 = VECTOR ( 'NONE', #420, 1000.000000000000000 ) ;
#753 = APPROVAL ( #146, 'UNSPECIFIED' ) ;
#754 = CARTESIAN_POINT ( 'NONE',  ( 12.81334581156804298, -73.40416029259174024, 0.000000000000000000 ) ) ;
#755 = ORIENTED_EDGE ( 'NONE', *, *, #675, .T. ) ;
#756 = DIRECTION ( 'NONE',  ( -0.000000000000000000, -0.000000000000000000, -1.000000000000000000 ) ) ;
#757 = FACE_BOUND ( 'NONE', #409, .T. ) ;
#758 = CYLINDRICAL_SURFACE ( 'NONE', #926, 15.00000000000002665 ) ;
#759 = ORIENTED_EDGE ( 'NONE', *, *, #231, .T. ) ;
#760 = DIRECTION ( 'NONE',  ( 0.000000000000000000, -1.000000000000000000, 0.000000000000000000 ) ) ;
#761 = VECTOR ( 'NONE', #333, 1000.000000000000000 ) ;
#762 = EDGE_LOOP ( 'NONE', ( #115, #839, #307, #67 ) ) ;
#763 = DIRECTION ( 'NONE',  ( -1.000000000000000000, 0.000000000000000000, 0.000000000000000000 ) ) ;
#764 = VERTEX_POINT ( 'NONE', #911 ) ;
#765 = ORIENTED_EDGE ( 'NONE', *, *, #605, .T. ) ;
#766 = DIRECTION ( 'NONE',  ( 1.000000000000000000, 0.000000000000000000, -0.000000000000000000 ) ) ;
#767 = CYLINDRICAL_SURFACE ( 'NONE', #92, 2.700000000000008171 ) ;
#768 = CIRCLE ( 'NONE', #512, 2.699999999999999289 ) ;
#769 = ORIENTED_EDGE ( 'NONE', *, *, #249, .F. ) ;
#770 = VERTEX_POINT ( 'NONE', #547 ) ;
#771 = DIRECTION ( 'NONE',  ( -0.000000000000000000, -0.000000000000000000, -1.000000000000000000 ) ) ;
#772 = DIRECTION ( 'NONE',  ( 0.000000000000000000, 0.000000000000000000, 1.000000000000000000 ) ) ;
#773 = CARTESIAN_POINT ( 'NONE',  ( -13.50000000000127187, -115.4776138657193201, 6.000000000000000000 ) ) ;
#774 = ORIENTED_EDGE ( 'NONE', *, *, #3, .T. ) ;
#775 = ORIENTED_EDGE ( 'NONE', *, *, #31, .T. ) ;
#776 = EDGE_CURVE ( 'NONE', #514, #339, #532, .T. ) ;
#777 = ADVANCED_FACE ( 'NONE', ( #318 ), #259, .T. ) ;
#778 = SECURITY_CLASSIFICATION ( '', '', #593 ) ;
#779 = ORIENTED_EDGE ( 'NONE', *, *, #802, .T. ) ;
#780 = ORIENTED_EDGE ( 'NONE', *, *, #435, .T. ) ;
#781 = DIRECTION ( 'NONE',  ( 1.000000000000000000, 0.000000000000000000, 0.000000000000000000 ) ) ;
#782 = CARTESIAN_POINT ( 'NONE',  ( 11.99999999999862155, -130.4041602925917118, 6.000000000000000000 ) ) ;
#783 = AXIS2_PLACEMENT_3D ( 'NONE', #731, #66, #727 ) ;
#784 = EDGE_LOOP ( 'NONE', ( #6, #430, #317, #397 ) ) ;
#785 = PLANE ( 'NONE',  #627 ) ;
#786 = DIRECTION ( 'NONE',  ( 0.000000000000000000, 0.000000000000000000, 1.000000000000000000 ) ) ;
#787 = EDGE_CURVE ( 'NONE', #207, #348, #44, .T. ) ;
#788 = DIRECTION ( 'NONE',  ( 0.000000000000000000, 0.000000000000000000, 1.000000000000000000 ) ) ;
#789 = ORIENTED_EDGE ( 'NONE', *, *, #151, .T. ) ;
#790 = CARTESIAN_POINT ( 'NONE',  ( 12.81334581156675867, -113.4041602925917118, 6.000000000000000000 ) ) ;
#791 = AXIS2_PLACEMENT_3D ( 'NONE', #497, #786, #143 ) ;
#792 = FACE_OUTER_BOUND ( 'NONE', #927, .T. ) ;
#793 = CC_DESIGN_APPROVAL ( #753, ( #778 ) ) ;
#794 = PLANE ( 'NONE',  #909 ) ;
#795 = ORIENTED_EDGE ( 'NONE', *, *, #281, .T. ) ;
#796 = COORDINATED_UNIVERSAL_TIME_OFFSET ( 0, 0, .AHEAD. ) ;
#797 = LINE ( 'NONE', #69, #943 ) ;
#798 = DIRECTION ( 'NONE',  ( -1.000000000000000000, 0.000000000000000000, 0.000000000000000000 ) ) ;
#799 = ORIENTED_EDGE ( 'NONE', *, *, #345, .T. ) ;
#800 = APPROVAL_DATE_TIME ( #510, #97 ) ;
#801 = EDGE_CURVE ( 'NONE', #53, #530, #474, .T. ) ;
#802 = EDGE_CURVE ( 'NONE', #98, #180, #554, .T. ) ;
#803 = CC_DESIGN_PERSON_AND_ORGANIZATION_ASSIGNMENT ( #586, #8, ( #165 ) ) ;
#804 = DIRECTION ( 'NONE',  ( -1.000000000000000000, 0.000000000000000000, 0.000000000000000000 ) ) ;
#805 = EDGE_LOOP ( 'NONE', ( #877, #485, #780, #795 ) ) ;
#806 = ADVANCED_FACE ( 'NONE', ( #108 ), #477, .T. ) ;
#807 = CARTESIAN_POINT ( 'NONE',  ( -32.00000000000127898, -71.40416029259172603, 6.000000000000000000 ) ) ;
#808 = ORIENTED_EDGE ( 'NONE', *, *, #888, .T. ) ;
#809 = LINE ( 'NONE', #664, #13 ) ;
#810 = ORIENTED_EDGE ( 'NONE', *, *, #715, .F. ) ;
#811 = AXIS2_PLACEMENT_3D ( 'NONE', #549, #913, #46 ) ;
#812 = CARTESIAN_POINT ( 'NONE',  ( -47.00000000000130740, -71.40416029259168340, 6.000000000000000000 ) ) ;
#813 = DIRECTION ( 'NONE',  ( 1.000000000000000000, 0.000000000000000000, 0.000000000000000000 ) ) ;
#814 = EDGE_LOOP ( 'NONE', ( #36, #91 ) ) ;
#815 = APPROVAL_STATUS ( 'not_yet_approved' ) ;
#816 = CARTESIAN_POINT ( 'NONE',  ( 7.413345811566749433, -113.4041602925917118, 6.000000000000000000 ) ) ;
#817 = CARTESIAN_POINT ( 'NONE',  ( -47.00000000000126477, -115.4041602925916834, 6.000000000000000000 ) ) ;
#818 = ORIENTED_EDGE ( 'NONE', *, *, #425, .F. ) ;
#819 = DIRECTION ( 'NONE',  ( 0.000000000000000000, 0.000000000000000000, 1.000000000000000000 ) ) ;
#820 = LINE ( 'NONE', #816, #892 ) ;
#821 = AXIS2_PLACEMENT_3D ( 'NONE', #542, #618, #326 ) ;
#822 = CARTESIAN_POINT ( 'NONE',  ( -13.50000000000127187, -115.4776138657193201, 6.000000000000000000 ) ) ;
#823 = ORIENTED_EDGE ( 'NONE', *, *, #118, .F. ) ;
#824 = FACE_OUTER_BOUND ( 'NONE', #439, .T. ) ;
#825 = FACE_OUTER_BOUND ( 'NONE', #701, .T. ) ;
#826 = EDGE_CURVE ( 'NONE', #376, #348, #915, .T. ) ;
#827 = ORIENTED_EDGE ( 'NONE', *, *, #166, .F. ) ;
#828 = LINE ( 'NONE', #896, #117 ) ;
#829 = DIRECTION ( 'NONE',  ( -0.000000000000000000, -0.000000000000000000, -1.000000000000000000 ) ) ;
#830 = ADVANCED_BREP_SHAPE_REPRESENTATION ( 'PlantCarriageBase', ( #7, #551 ), #200 ) ;
#831 = VECTOR ( 'NONE', #152, 1000.000000000000000 ) ;
#832 = ORIENTED_EDGE ( 'NONE', *, *, #150, .T. ) ;
#833 = ORIENTED_EDGE ( 'NONE', *, *, #787, .T. ) ;
#834 = CARTESIAN_POINT ( 'NONE',  ( 11.99999999999872813, -115.4041602925917260, 6.000000000000000000 ) ) ;
#835 = DIRECTION ( 'NONE',  ( -0.000000000000000000, -0.000000000000000000, -1.000000000000000000 ) ) ;
#836 = CIRCLE ( 'NONE', #626, 14.99999999999995026 ) ;
#837 = VECTOR ( 'NONE', #714, 1000.000000000000000 ) ;
#838 = CARTESIAN_POINT ( 'NONE',  ( 26.99999999999872813, -71.40416029259166919, 0.000000000000000000 ) ) ;
#839 = ORIENTED_EDGE ( 'NONE', *, *, #107, .F. ) ;
#840 = EDGE_CURVE ( 'NONE', #233, #899, #104, .T. ) ;
#841 = ORIENTED_EDGE ( 'NONE', *, *, #491, .F. ) ;
#842 = CARTESIAN_POINT ( 'NONE',  ( -13.50000000000127187, -111.4776138657193201, 0.000000000000000000 ) ) ;
#843 = LINE ( 'NONE', #215, #144 ) ;
#844 = DIRECTION ( 'NONE',  ( 0.000000000000000000, 0.000000000000000000, 1.000000000000000000 ) ) ;
#845 = EDGE_CURVE ( 'NONE', #180, #536, #461, .T. ) ;
#846 = EDGE_LOOP ( 'NONE', ( #470, #562, #552, #799 ) ) ;
#847 = LINE ( 'NONE', #649, #837 ) ;
#848 = DIRECTION ( 'NONE',  ( 0.000000000000000000, 0.000000000000000000, 1.000000000000000000 ) ) ;
#849 = EDGE_LOOP ( 'NONE', ( #597, #728, #346, #612 ) ) ;
#850 = EDGE_LOOP ( 'NONE', ( #914, #647, #202, #268 ) ) ;
#851 = AXIS2_PLACEMENT_3D ( 'NONE', #187, #819, #483 ) ;
#852 = AXIS2_PLACEMENT_3D ( 'NONE', #197, #925, #490 ) ;
#853 = DIRECTION ( 'NONE',  ( 0.000000000000000000, 0.000000000000000000, 1.000000000000000000 ) ) ;
#854 = VERTEX_POINT ( 'NONE', #105 ) ;
#855 = DIRECTION ( 'NONE',  ( 1.000000000000000000, 0.000000000000000000, 0.000000000000000000 ) ) ;
#856 = ADVANCED_FACE ( 'NONE', ( #824 ), #48, .F. ) ;
#857 = CC_DESIGN_PERSON_AND_ORGANIZATION_ASSIGNMENT ( #575, #417, ( #576 ) ) ;
#858 = DIRECTION ( 'NONE',  ( 1.000000000000000000, 0.000000000000000000, 0.000000000000000000 ) ) ;
#859 = DIRECTION ( 'NONE',  ( -0.000000000000000000, -0.000000000000000000, -1.000000000000000000 ) ) ;
#860 = AXIS2_PLACEMENT_3D ( 'NONE', #407, #772, #49 ) ;
#861 = CARTESIAN_POINT ( 'NONE',  ( -32.81334581156930597, -73.40416029259171182, 6.000000000000000000 ) ) ;
#862 = VERTEX_POINT ( 'NONE', #238 ) ;
#863 = FACE_BOUND ( 'NONE', #335, .T. ) ;
#864 = DESIGN_CONTEXT ( 'detailed design', #476, 'design' ) ;
#865 = CARTESIAN_POINT ( 'NONE',  ( -47.00000000000130740, -71.40416029259168340, 6.000000000000000000 ) ) ;
#866 = DIRECTION ( 'NONE',  ( 1.000000000000000000, -1.892425610156521707E-15, 0.000000000000000000 ) ) ;
#867 = VERTEX_POINT ( 'NONE', #613 ) ;
#868 = APPLICATION_PROTOCOL_DEFINITION ( 'international standard', 'config_control_design', 1994, #476 ) ;
#869 = DIRECTION ( 'NONE',  ( -0.000000000000000000, -0.000000000000000000, -1.000000000000000000 ) ) ;
#870 = LINE ( 'NONE', #127, #655 ) ;
#871 = APPROVAL_PERSON_ORGANIZATION ( #504, #622, #496 ) ;
#872 = FACE_OUTER_BOUND ( 'NONE', #784, .T. ) ;
#873 = EDGE_CURVE ( 'NONE', #588, #444, #828, .T. ) ;
#874 = ORIENTED_EDGE ( 'NONE', *, *, #463, .T. ) ;
#875 = PRODUCT_DEFINITION_SHAPE ( 'NONE', 'NONE',  #328 ) ;
#876 = CARTESIAN_POINT ( 'NONE',  ( -30.11334581156930312, -73.40416029259171182, 6.000000000000000000 ) ) ;
#877 = ORIENTED_EDGE ( 'NONE', *, *, #826, .T. ) ;
#878 = ADVANCED_FACE ( 'NONE', ( #172 ), #167, .T. ) ;
#879 = EDGE_CURVE ( 'NONE', #2, #486, #393, .T. ) ;
#880 = DIRECTION ( 'NONE',  ( -0.000000000000000000, -0.000000000000000000, -1.000000000000000000 ) ) ;
#881 = ORIENTED_EDGE ( 'NONE', *, *, #480, .T. ) ;
#882 = CIRCLE ( 'NONE', #632, 14.99999999999995026 ) ;
#883 = DIRECTION ( 'NONE',  ( 1.000000000000000000, 9.462128050782600646E-16, -0.000000000000000000 ) ) ;
#884 = ORIENTED_EDGE ( 'NONE', *, *, #345, .F. ) ;
#885 = VECTOR ( 'NONE', #707, 1000.000000000000000 ) ;
#886 = APPROVAL_ROLE ( '' ) ;
#887 = DIRECTION ( 'NONE',  ( -0.000000000000000000, -0.000000000000000000, -1.000000000000000000 ) ) ;
#888 = EDGE_CURVE ( 'NONE', #764, #631, #29, .T. ) ;
#889 = CARTESIAN_POINT ( 'NONE',  ( -10.00000000000127187, -75.33070671946410357, 0.000000000000000000 ) ) ;
#890 = ORIENTED_EDGE ( 'NONE', *, *, #365, .F. ) ;
#891 = COORDINATED_UNIVERSAL_TIME_OFFSET ( 0, 0, .AHEAD. ) ;
#892 = VECTOR ( 'NONE', #468, 1000.000000000000000 ) ;
#893 = DIRECTION ( 'NONE',  ( 1.000000000000000000, 0.000000000000000000, 0.000000000000000000 ) ) ;
#894 = LINE ( 'NONE', #235, #221 ) ;
#895 = VERTEX_POINT ( 'NONE', #718 ) ;
#896 = CARTESIAN_POINT ( 'NONE',  ( -27.41334581156930383, -73.40416029259171182, 6.000000000000000000 ) ) ;
#897 = DIRECTION ( 'NONE',  ( -0.000000000000000000, -0.000000000000000000, -1.000000000000000000 ) ) ;
#898 = DIRECTION ( 'NONE',  ( -1.000000000000000000, 0.000000000000000000, 0.000000000000000000 ) ) ;
#899 = VERTEX_POINT ( 'NONE', #790 ) ;
#900 = ADVANCED_FACE ( 'NONE', ( #135 ), #60, .F. ) ;
#901 = DIRECTION ( 'NONE',  ( -1.000000000000000000, 0.000000000000000000, 0.000000000000000000 ) ) ;
#902 = CARTESIAN_POINT ( 'NONE',  ( -32.81334581156931307, -113.4041602925917118, 0.000000000000000000 ) ) ;
#903 = APPROVAL_PERSON_ORGANIZATION ( #671, #753, #886 ) ;
#904 = PRODUCT_RELATED_PRODUCT_CATEGORY ( 'detail', '', ( #576 ) ) ;
#905 = EDGE_LOOP ( 'NONE', ( #447, #288, #508, #106 ) ) ;
#906 = EDGE_CURVE ( 'NONE', #770, #216, #278, .T. ) ;
#907 = DIRECTION ( 'NONE',  ( -1.000000000000000000, 0.000000000000000000, 0.000000000000000000 ) ) ;
#908 = CYLINDRICAL_SURFACE ( 'NONE', #436, 14.99999999999995026 ) ;
#909 = AXIS2_PLACEMENT_3D ( 'NONE', #773, #399, #433 ) ;
#910 = ORIENTED_EDGE ( 'NONE', *, *, #194, .F. ) ;
#911 = CARTESIAN_POINT ( 'NONE',  ( -6.500000000001275424, -75.33070671946410357, 0.000000000000000000 ) ) ;
#912 = DIRECTION ( 'NONE',  ( 0.000000000000000000, 0.000000000000000000, -1.000000000000000000 ) ) ;
#913 = DIRECTION ( 'NONE',  ( 0.000000000000000000, 0.000000000000000000, 1.000000000000000000 ) ) ;
#914 = ORIENTED_EDGE ( 'NONE', *, *, #906, .F. ) ;
#915 = LINE ( 'NONE', #842, #213 ) ;
#916 = FACE_OUTER_BOUND ( 'NONE', #55, .T. ) ;
#917 = CIRCLE ( 'NONE', #791, 2.699999999999999289 ) ;
#918 = CIRCLE ( 'NONE', #726, 2.700000000000008171 ) ;
#919 = ORIENTED_EDGE ( 'NONE', *, *, #126, .T. ) ;
#920 = ADVANCED_FACE ( 'NONE', ( #142 ), #785, .F. ) ;
#921 = DIRECTION ( 'NONE',  ( -1.000000000000000000, 7.885106708985496429E-17, 0.000000000000000000 ) ) ;
#922 = CIRCLE ( 'NONE', #783, 15.00000000000002665 ) ;
#923 = DIRECTION ( 'NONE',  ( 0.000000000000000000, 1.000000000000000000, -0.000000000000000000 ) ) ;
#924 = ORIENTED_EDGE ( 'NONE', *, *, #365, .T. ) ;
#925 = DIRECTION ( 'NONE',  ( -0.000000000000000000, -0.000000000000000000, -1.000000000000000000 ) ) ;
#926 = AXIS2_PLACEMENT_3D ( 'NONE', #807, #300, #898 ) ;
#927 = EDGE_LOOP ( 'NONE', ( #297, #738, #749, #774 ) ) ;
#928 = EDGE_CURVE ( 'NONE', #854, #293, #847, .T. ) ;
#929 = APPLICATION_PROTOCOL_DEFINITION ( 'international standard', 'config_control_design', 1994, #670 ) ;
#930 = CARTESIAN_POINT ( 'NONE',  ( -30.11334581156930312, -113.4041602925917118, 6.000000000000000000 ) ) ;
#931 = DIRECTION ( 'NONE',  ( 0.000000000000000000, 0.000000000000000000, 1.000000000000000000 ) ) ;
#932 = ORIENTED_EDGE ( 'NONE', *, *, #126, .F. ) ;
#933 = FACE_BOUND ( 'NONE', #762, .T. ) ;
#934 = LINE ( 'NONE', #641, #321 ) ;
#935 = DIRECTION ( 'NONE',  ( 0.000000000000000000, 0.000000000000000000, 1.000000000000000000 ) ) ;
#936 = ORIENTED_EDGE ( 'NONE', *, *, #295, .T. ) ;
#937 = CARTESIAN_POINT ( 'NONE',  ( 0.000000000000000000, 0.000000000000000000, 0.000000000000000000 ) ) ;
#938 = EDGE_CURVE ( 'NONE', #219, #854, #918, .T. ) ;
#939 = LINE ( 'NONE', #217, #305 ) ;
#940 = CARTESIAN_POINT ( 'NONE',  ( -30.11334581156930312, -113.4041602925917118, 6.000000000000000000 ) ) ;
#941 = ORIENTED_EDGE ( 'NONE', *, *, #550, .F. ) ;
#942 = PERSON_AND_ORGANIZATION ( #360, #137 ) ;
#943 = VECTOR ( 'NONE', #428, 1000.000000000000000 ) ;
#944 = DIRECTION ( 'NONE',  ( 0.000000000000000000, 0.000000000000000000, 1.000000000000000000 ) ) ;
#945 = ADVANCED_FACE ( 'NONE', ( #263, #863, #426, #933, #559, #356, #52 ), #124, .F. ) ;
ENDSEC;
END-ISO-10303-21;
