ISO-10303-21;
HEADER;
FILE_DESCRIPTION (( 'STEP AP203' ),
    '1' );
FILE_NAME ('PlantCarriageTop.step',
    '2026-08-22T11:38:53',
    ( '' ),
    ( '' ),
    'SwSTEP 2.0',
    'SolidWorks 2026',
    '' );
FILE_SCHEMA (( 'CONFIG_CONTROL_DESIGN' ));
ENDSEC;

DATA;
#1 = EDGE_CURVE ( 'NONE', #646, #306, #576, .T. ) ;
#2 = ORIENTED_EDGE ( 'NONE', *, *, #108, .T. ) ;
#3 = CARTESIAN_POINT ( 'NONE',  ( -65.00000000000129319, -138.4041602925916834, -14.00000000000000000 ) ) ;
#4 = FACE_OUTER_BOUND ( 'NONE', #63, .T. ) ;
#5 = ORIENTED_EDGE ( 'NONE', *, *, #1052, .F. ) ;
#6 = ORIENTED_EDGE ( 'NONE', *, *, #577, .F. ) ;
#7 = DIRECTION ( 'NONE',  ( -1.000000000000000000, 0.000000000000000000, 0.000000000000000000 ) ) ;
#8 = DIRECTION ( 'NONE',  ( 1.000000000000000000, 0.000000000000000000, 0.000000000000000000 ) ) ;
#9 = CYLINDRICAL_SURFACE ( 'NONE', #1128, 2.700000000000001066 ) ;
#10 = ORIENTED_EDGE ( 'NONE', *, *, #162, .T. ) ;
#11 = EDGE_LOOP ( 'NONE', ( #382, #1061, #1086, #371 ) ) ;
#12 = VECTOR ( 'NONE', #1072, 1000.000000000000000 ) ;
#13 = LOCAL_TIME ( 12, 38, 53.00000000000000000, #837 ) ;
#14 = CYLINDRICAL_SURFACE ( 'NONE', #822, 5.000000000000004441 ) ;
#15 = ADVANCED_FACE ( 'NONE', ( #232 ), #716, .T. ) ;
#16 = ADVANCED_BREP_SHAPE_REPRESENTATION ( 'PlantCarriageTop', ( #106, #445 ), #276 ) ;
#17 = DIRECTION ( 'NONE',  ( 0.000000000000000000, 0.000000000000000000, 1.000000000000000000 ) ) ;
#18 = EDGE_LOOP ( 'NONE', ( #212, #10, #401, #233 ) ) ;
#19 = AXIS2_PLACEMENT_3D ( 'NONE', #320, #1016, #405 ) ;
#20 = VERTEX_POINT ( 'NONE', #1113 ) ;
#21 = CARTESIAN_POINT ( 'NONE',  ( 49.99999999999869971, -143.4041602925917118, 6.000000000000000000 ) ) ;
#22 = CARTESIAN_POINT ( 'NONE',  ( -70.00000000000129319, -143.4041602925917118, 6.000000000000000000 ) ) ;
#23 = EDGE_CURVE ( 'NONE', #719, #1207, #1118, .T. ) ;
#24 = CARTESIAN_POINT ( 'NONE',  ( 34.99999999999869971, -48.40416029259169051, -14.00000000000000000 ) ) ;
#25 = VERTEX_POINT ( 'NONE', #1200 ) ;
#26 = ORIENTED_EDGE ( 'NONE', *, *, #702, .F. ) ;
#27 = PERSON_AND_ORGANIZATION ( #774, #801 ) ;
#28 = DIRECTION ( 'NONE',  ( -0.000000000000000000, -0.000000000000000000, -1.000000000000000000 ) ) ;
#29 = CARTESIAN_POINT ( 'NONE',  ( -70.00000000000129319, -43.40416029259172603, 6.000000000000000000 ) ) ;
#30 = DIRECTION ( 'NONE',  ( 0.000000000000000000, 0.000000000000000000, -1.000000000000000000 ) ) ;
#31 = ORIENTED_EDGE ( 'NONE', *, *, #169, .F. ) ;
#32 = VECTOR ( 'NONE', #308, 1000.000000000000000 ) ;
#33 = CYLINDRICAL_SURFACE ( 'NONE', #531, 10.00000000000000178 ) ;
#34 = VECTOR ( 'NONE', #28, 1000.000000000000000 ) ;
#35 = SECURITY_CLASSIFICATION ( '', '', #249 ) ;
#36 = DIRECTION ( 'NONE',  ( -0.000000000000000000, -0.000000000000000000, -1.000000000000000000 ) ) ;
#37 = PLANE ( 'NONE',  #562 ) ;
#38 = ORIENTED_EDGE ( 'NONE', *, *, #684, .T. ) ;
#39 = AXIS2_PLACEMENT_3D ( 'NONE', #182, #787, #285 ) ;
#40 = EDGE_CURVE ( 'NONE', #791, #697, #626, .T. ) ;
#41 = APPROVAL_DATE_TIME ( #826, #595 ) ;
#42 = DIRECTION ( 'NONE',  ( 0.000000000000000000, -0.000000000000000000, -1.000000000000000000 ) ) ;
#43 = DIRECTION ( 'NONE',  ( -0.000000000000000000, -0.000000000000000000, 1.000000000000000000 ) ) ;
#44 = CARTESIAN_POINT ( 'NONE',  ( 0.000000000000000000, 0.000000000000000000, 0.000000000000000000 ) ) ;
#45 = VERTEX_POINT ( 'NONE', #1037 ) ;
#46 = COORDINATED_UNIVERSAL_TIME_OFFSET ( 0, 0, .AHEAD. ) ;
#47 = FACE_BOUND ( 'NONE', #1057, .T. ) ;
#48 = DIRECTION ( 'NONE',  ( 0.000000000000000000, -1.000000000000000000, 0.000000000000000000 ) ) ;
#49 = DIRECTION ( 'NONE',  ( 0.000000000000000000, 1.000000000000000000, 0.000000000000000000 ) ) ;
#50 = VERTEX_POINT ( 'NONE', #221 ) ;
#51 = FACE_BOUND ( 'NONE', #676, .T. ) ;
#52 = CIRCLE ( 'NONE', #93, 10.00000000000000178 ) ;
#53 = APPROVAL_PERSON_ORGANIZATION ( #494, #595, #1230 ) ;
#54 = CYLINDRICAL_SURFACE ( 'NONE', #800, 2.700000000000004619 ) ;
#55 = PRODUCT_RELATED_PRODUCT_CATEGORY ( 'detail', '', ( #951 ) ) ;
#56 = LINE ( 'NONE', #640, #390 ) ;
#57 = ORIENTED_EDGE ( 'NONE', *, *, #202, .T. ) ;
#58 = CARTESIAN_POINT ( 'NONE',  ( -30.11334581156930312, -113.4041602925917118, 0.000000000000000000 ) ) ;
#59 = CARTESIAN_POINT ( 'NONE',  ( 15.11334581156675405, -113.4041602925917118, -4.000000000000000000 ) ) ;
#60 = ORIENTED_EDGE ( 'NONE', *, *, #1256, .T. ) ;
#61 = CARTESIAN_POINT ( 'NONE',  ( -30.11334581156930312, -113.4041602925917118, 6.000000000000000000 ) ) ;
#62 = DIRECTION ( 'NONE',  ( -0.000000000000000000, -0.000000000000000000, -1.000000000000000000 ) ) ;
#63 = EDGE_LOOP ( 'NONE', ( #407, #957, #1177, #997 ) ) ;
#64 = EDGE_CURVE ( 'NONE', #481, #719, #632, .T. ) ;
#65 = EDGE_CURVE ( 'NONE', #982, #866, #56, .T. ) ;
#66 = ORIENTED_EDGE ( 'NONE', *, *, #338, .F. ) ;
#67 = PLANE ( 'NONE',  #695 ) ;
#68 = CARTESIAN_POINT ( 'NONE',  ( 0.000000000000000000, 0.000000000000000000, 0.000000000000000000 ) ) ;
#69 = AXIS2_PLACEMENT_3D ( 'NONE', #144, #846, #649 ) ;
#70 = CARTESIAN_POINT ( 'NONE',  ( -65.00000000000129319, -148.4041602925916834, -4.000000000000000000 ) ) ;
#71 = AXIS2_PLACEMENT_3D ( 'NONE', #199, #1014, #809 ) ;
#72 = EDGE_LOOP ( 'NONE', ( #543, #1084, #354, #216 ) ) ;
#73 = EDGE_LOOP ( 'NONE', ( #765, #584, #910, #889 ) ) ;
#74 = ADVANCED_FACE ( 'NONE', ( #140 ), #37, .T. ) ;
#75 = FACE_OUTER_BOUND ( 'NONE', #896, .T. ) ;
#76 = DIRECTION ( 'NONE',  ( 0.000000000000000000, 0.000000000000000000, 1.000000000000000000 ) ) ;
#77 = AXIS2_PLACEMENT_3D ( 'NONE', #279, #969, #980 ) ;
#78 = CARTESIAN_POINT ( 'NONE',  ( 15.11334581156804546, -73.40416029259174024, -4.000000000000000000 ) ) ;
#79 = ORIENTED_EDGE ( 'NONE', *, *, #710, .F. ) ;
#80 = DIRECTION ( 'NONE',  ( -1.000000000000000000, 0.000000000000000000, 0.000000000000000000 ) ) ;
#81 = DIRECTION ( 'NONE',  ( -1.000000000000000000, 0.000000000000000000, 0.000000000000000000 ) ) ;
#82 = LINE ( 'NONE', #368, #12 ) ;
#83 = LINE ( 'NONE', #70, #657 ) ;
#84 = ORIENTED_EDGE ( 'NONE', *, *, #208, .T. ) ;
#85 = ORIENTED_EDGE ( 'NONE', *, *, #131, .T. ) ;
#86 = DIRECTION ( 'NONE',  ( 0.000000000000000000, 0.000000000000000000, 1.000000000000000000 ) ) ;
#87 = DIRECTION ( 'NONE',  ( 0.000000000000000000, 0.000000000000000000, 1.000000000000000000 ) ) ;
#88 = DIRECTION ( 'NONE',  ( -1.000000000000000000, 0.000000000000000000, 0.000000000000000000 ) ) ;
#89 = ADVANCED_FACE ( 'NONE', ( #426 ), #1215, .T. ) ;
#90 = DIRECTION ( 'NONE',  ( -0.000000000000000000, 0.000000000000000000, 1.000000000000000000 ) ) ;
#91 = ADVANCED_FACE ( 'NONE', ( #1138, #934 ), #1130, .F. ) ;
#92 = ORIENTED_EDGE ( 'NONE', *, *, #392, .F. ) ;
#93 = AXIS2_PLACEMENT_3D ( 'NONE', #495, #1261, #374 ) ;
#94 = VECTOR ( 'NONE', #1136, 1000.000000000000000 ) ;
#95 = VECTOR ( 'NONE', #302, 1000.000000000000000 ) ;
#96 = ORIENTED_EDGE ( 'NONE', *, *, #454, .F. ) ;
#97 = DIRECTION ( 'NONE',  ( 0.000000000000000000, 0.000000000000000000, -1.000000000000000000 ) ) ;
#98 = APPLICATION_PROTOCOL_DEFINITION ( 'international standard', 'config_control_design', 1994, #622 ) ;
#99 = DIRECTION ( 'NONE',  ( -1.000000000000000000, 0.000000000000000000, 0.000000000000000000 ) ) ;
#100 = CARTESIAN_POINT ( 'NONE',  ( -35.11334581156931023, -113.4041602925917118, -4.000000000000000000 ) ) ;
#101 = ORIENTED_EDGE ( 'NONE', *, *, #936, .T. ) ;
#102 = ORIENTED_EDGE ( 'NONE', *, *, #1060, .T. ) ;
#103 = LINE ( 'NONE', #722, #984 ) ;
#104 = CARTESIAN_POINT ( 'NONE',  ( 34.99999999999869971, -38.40416029259168340, -4.000000000000000000 ) ) ;
#105 = ORIENTED_EDGE ( 'NONE', *, *, #944, .T. ) ;
#106 = MANIFOLD_SOLID_BREP ( 'Fillet1', #204 ) ;
#107 = ORIENTED_EDGE ( 'NONE', *, *, #413, .F. ) ;
#108 = EDGE_CURVE ( 'NONE', #467, #1106, #335, .T. ) ;
#109 = DIRECTION ( 'NONE',  ( 1.000000000000000000, 0.000000000000000000, 0.000000000000000000 ) ) ;
#110 = CARTESIAN_POINT ( 'NONE',  ( -55.00000000000129319, -138.4041602925916834, -4.000000000000000000 ) ) ;
#111 = DIRECTION ( 'NONE',  ( 1.000000000000000000, 0.000000000000000000, 0.000000000000000000 ) ) ;
#112 = VERTEX_POINT ( 'NONE', #246 ) ;
#113 = ORIENTED_EDGE ( 'NONE', *, *, #742, .F. ) ;
#114 = VECTOR ( 'NONE', #486, 1000.000000000000000 ) ;
#115 = CIRCLE ( 'NONE', #257, 2.699999999999999289 ) ;
#116 = EDGE_CURVE ( 'NONE', #467, #1263, #542, .T. ) ;
#117 = DIRECTION ( 'NONE',  ( 0.000000000000000000, 0.000000000000000000, -1.000000000000000000 ) ) ;
#118 = DIRECTION ( 'NONE',  ( -0.000000000000000000, -0.000000000000000000, -1.000000000000000000 ) ) ;
#119 = ORIENTED_EDGE ( 'NONE', *, *, #162, .F. ) ;
#120 = CIRCLE ( 'NONE', #536, 2.700000000000001066 ) ;
#121 = ORIENTED_EDGE ( 'NONE', *, *, #1275, .T. ) ;
#122 = APPROVAL_DATE_TIME ( #133, #431 ) ;
#123 = DIRECTION ( 'NONE',  ( -1.000000000000000000, 0.000000000000000000, 0.000000000000000000 ) ) ;
#124 = DIRECTION ( 'NONE',  ( 0.000000000000000000, 0.000000000000000000, -1.000000000000000000 ) ) ;
#125 = DIRECTION ( 'NONE',  ( 0.000000000000000000, -0.000000000000000000, 1.000000000000000000 ) ) ;
#126 = VERTEX_POINT ( 'NONE', #940 ) ;
#127 = DIRECTION ( 'NONE',  ( -0.000000000000000000, -0.000000000000000000, -1.000000000000000000 ) ) ;
#128 = EDGE_CURVE ( 'NONE', #697, #614, #404, .T. ) ;
#129 = DIRECTION ( 'NONE',  ( 1.000000000000000000, 0.000000000000000000, 0.000000000000000000 ) ) ;
#130 = EDGE_LOOP ( 'NONE', ( #725, #860 ) ) ;
#131 = EDGE_CURVE ( 'NONE', #1165, #50, #158, .T. ) ;
#132 = ORIENTED_EDGE ( 'NONE', *, *, #241, .F. ) ;
#133 = DATE_AND_TIME ( #748, #178 ) ;
#134 = CIRCLE ( 'NONE', #337, 5.000000000000004441 ) ;
#135 = VECTOR ( 'NONE', #1108, 1000.000000000000000 ) ;
#136 = PLANE ( 'NONE',  #154 ) ;
#137 = VECTOR ( 'NONE', #1121, 1000.000000000000000 ) ;
#138 = AXIS2_PLACEMENT_3D ( 'NONE', #206, #1191, #7 ) ;
#139 = CARTESIAN_POINT ( 'NONE',  ( 49.99999999999869971, -153.4041602925916834, -14.00000000000000000 ) ) ;
#140 = FACE_OUTER_BOUND ( 'NONE', #301, .T. ) ;
#141 = ORIENTED_EDGE ( 'NONE', *, *, #1052, .T. ) ;
#142 = AXIS2_PLACEMENT_3D ( 'NONE', #480, #878, #1262 ) ;
#143 = PLANE ( 'NONE',  #358 ) ;
#144 = CARTESIAN_POINT ( 'NONE',  ( -30.11334581156930312, -113.4041602925917118, 6.000000000000000000 ) ) ;
#145 = CARTESIAN_POINT ( 'NONE',  ( -30.11334581156930312, -73.40416029259171182, -4.000000000000000000 ) ) ;
#146 = ORIENTED_EDGE ( 'NONE', *, *, #470, .F. ) ;
#147 = ADVANCED_FACE ( 'NONE', ( #493 ), #869, .F. ) ;
#148 = CARTESIAN_POINT ( 'NONE',  ( -65.00000000000129319, -38.40416029259168340, -14.00000000000000000 ) ) ;
#149 = LINE ( 'NONE', #755, #947 ) ;
#150 = CARTESIAN_POINT ( 'NONE',  ( -30.11334581156930312, -73.40416029259171182, 0.000000000000000000 ) ) ;
#151 = EDGE_LOOP ( 'NONE', ( #1208, #935, #490, #1066 ) ) ;
#152 = CARTESIAN_POINT ( 'NONE',  ( 44.99999999999869971, -138.4041602925916834, -4.000000000000000000 ) ) ;
#153 = CIRCLE ( 'NONE', #444, 10.00000000000000178 ) ;
#154 = AXIS2_PLACEMENT_3D ( 'NONE', #534, #551, #42 ) ;
#155 = AXIS2_PLACEMENT_3D ( 'NONE', #585, #979, #1252 ) ;
#156 = CARTESIAN_POINT ( 'NONE',  ( -70.00000000000129319, -33.40416029259172603, 6.000000000000000000 ) ) ;
#157 = EDGE_LOOP ( 'NONE', ( #903, #782, #482, #210 ) ) ;
#158 = CIRCLE ( 'NONE', #183, 2.700000000000001066 ) ;
#159 = FACE_OUTER_BOUND ( 'NONE', #186, .T. ) ;
#160 = DIRECTION ( 'NONE',  ( -0.000000000000000000, -0.000000000000000000, -1.000000000000000000 ) ) ;
#161 = FACE_OUTER_BOUND ( 'NONE', #503, .T. ) ;
#162 = EDGE_CURVE ( 'NONE', #306, #112, #1234, .T. ) ;
#163 = ADVANCED_FACE ( 'NONE', ( #1253 ), #985, .T. ) ;
#164 = VERTEX_POINT ( 'NONE', #569 ) ;
#165 = EDGE_LOOP ( 'NONE', ( #1243, #756, #180, #92 ) ) ;
#166 = DIRECTION ( 'NONE',  ( 0.000000000000000000, 0.000000000000000000, -1.000000000000000000 ) ) ;
#167 = LINE ( 'NONE', #870, #907 ) ;
#168 = CARTESIAN_POINT ( 'NONE',  ( 44.99999999999869971, -48.40416029259169051, -14.00000000000000000 ) ) ;
#169 = EDGE_CURVE ( 'NONE', #831, #45, #321, .T. ) ;
#170 = VERTEX_POINT ( 'NONE', #1046 ) ;
#171 = ADVANCED_FACE ( 'NONE', ( #650 ), #367, .F. ) ;
#172 = ORIENTED_EDGE ( 'NONE', *, *, #498, .T. ) ;
#173 = DIRECTION ( 'NONE',  ( -1.000000000000000000, 0.000000000000000000, 0.000000000000000000 ) ) ;
#174 = DIRECTION ( 'NONE',  ( 1.000000000000000000, 0.000000000000000000, 0.000000000000000000 ) ) ;
#175 = CYLINDRICAL_SURFACE ( 'NONE', #949, 2.700000000000001066 ) ;
#176 = CARTESIAN_POINT ( 'NONE',  ( -60.00000000000129319, -33.40416029259169051, -14.00000000000000000 ) ) ;
#177 = AXIS2_PLACEMENT_3D ( 'NONE', #715, #1112, #502 ) ;
#178 = LOCAL_TIME ( 12, 38, 53.00000000000000000, #832 ) ;
#179 = ORIENTED_EDGE ( 'NONE', *, *, #665, .F. ) ;
#180 = ORIENTED_EDGE ( 'NONE', *, *, #1068, .F. ) ;
#181 = DIRECTION ( 'NONE',  ( 0.000000000000000000, 0.000000000000000000, -1.000000000000000000 ) ) ;
#182 = CARTESIAN_POINT ( 'NONE',  ( 10.11334581156804369, -73.40416029259174024, 6.000000000000000000 ) ) ;
#183 = AXIS2_PLACEMENT_3D ( 'NONE', #150, #547, #252 ) ;
#184 = CARTESIAN_POINT ( 'NONE',  ( -55.00000000000129319, -38.40416029259168340, -14.00000000000000000 ) ) ;
#185 = CARTESIAN_POINT ( 'NONE',  ( -27.41334581156929673, -113.4041602925917118, 6.000000000000000000 ) ) ;
#186 = EDGE_LOOP ( 'NONE', ( #377, #696, #79, #556 ) ) ;
#187 = CARTESIAN_POINT ( 'NONE',  ( -60.00000000000129319, -143.4041602925917118, 6.000000000000000000 ) ) ;
#188 = PLANE ( 'NONE',  #1272 ) ;
#189 = CYLINDRICAL_SURFACE ( 'NONE', #593, 5.000000000000004441 ) ;
#190 = ORIENTED_EDGE ( 'NONE', *, *, #784, .F. ) ;
#191 = DIRECTION ( 'NONE',  ( -0.000000000000000000, -0.000000000000000000, 1.000000000000000000 ) ) ;
#192 = DIRECTION ( 'NONE',  ( 0.000000000000000000, 0.000000000000000000, -1.000000000000000000 ) ) ;
#193 = ORIENTED_EDGE ( 'NONE', *, *, #552, .T. ) ;
#194 = CIRCLE ( 'NONE', #508, 10.00000000000000178 ) ;
#195 = AXIS2_PLACEMENT_3D ( 'NONE', #1109, #1198, #799 ) ;
#196 = LOCAL_TIME ( 12, 38, 53.00000000000000000, #415 ) ;
#197 = ORIENTED_EDGE ( 'NONE', *, *, #554, .F. ) ;
#198 = CYLINDRICAL_SURFACE ( 'NONE', #1226, 10.00000000000000178 ) ;
#199 = CARTESIAN_POINT ( 'NONE',  ( -30.11334581156930312, -73.40416029259171182, -4.000000000000000000 ) ) ;
#200 = AXIS2_PLACEMENT_3D ( 'NONE', #1173, #97, #673 ) ;
#201 = DIRECTION ( 'NONE',  ( 0.000000000000000000, 0.000000000000000000, -1.000000000000000000 ) ) ;
#202 = EDGE_CURVE ( 'NONE', #866, #946, #1163, .T. ) ;
#203 = ORIENTED_EDGE ( 'NONE', *, *, #116, .T. ) ;
#204 = CLOSED_SHELL ( 'NONE', ( #290, #810, #919, #147, #517, #768, #1090, #1166, #630, #825, #91, #922, #1073, #211, #998, #394, #942, #429, #224, #566, #567, #1032, #1104, #802, #750, #295, #688, #15, #74, #991, #89, #956, #248, #1247, #171, #1092, #1122, #409, #163 ) ) ;
#205 = EDGE_LOOP ( 'NONE', ( #1100, #203, #228, #1190 ) ) ;
#206 = CARTESIAN_POINT ( 'NONE',  ( -55.00000000000129319, -138.4041602925916834, -14.00000000000000000 ) ) ;
#207 = DIRECTION ( 'NONE',  ( -0.000000000000000000, -0.000000000000000000, 1.000000000000000000 ) ) ;
#208 = EDGE_CURVE ( 'NONE', #1167, #993, #847, .T. ) ;
#209 = CARTESIAN_POINT ( 'NONE',  ( -65.00000000000129319, -38.40416029259168340, -4.000000000000000000 ) ) ;
#210 = ORIENTED_EDGE ( 'NONE', *, *, #633, .T. ) ;
#211 = ADVANCED_FACE ( 'NONE', ( #273 ), #188, .F. ) ;
#212 = ORIENTED_EDGE ( 'NONE', *, *, #1, .T. ) ;
#213 = LINE ( 'NONE', #601, #32 ) ;
#214 = LINE ( 'NONE', #209, #344 ) ;
#215 = EDGE_LOOP ( 'NONE', ( #1216, #915, #1251, #608 ) ) ;
#216 = ORIENTED_EDGE ( 'NONE', *, *, #762, .F. ) ;
#217 = AXIS2_PLACEMENT_3D ( 'NONE', #61, #455, #854 ) ;
#218 = CARTESIAN_POINT ( 'NONE',  ( 10.11334581156804369, -73.40416029259174024, 6.000000000000000000 ) ) ;
#219 = CARTESIAN_POINT ( 'NONE',  ( 39.99999999999869971, -33.40416029259172603, 6.000000000000000000 ) ) ;
#220 = DIRECTION ( 'NONE',  ( -1.000000000000000000, 0.000000000000000000, 0.000000000000000000 ) ) ;
#221 = CARTESIAN_POINT ( 'NONE',  ( -27.41334581156930383, -73.40416029259171182, 0.000000000000000000 ) ) ;
#222 = ORIENTED_EDGE ( 'NONE', *, *, #511, .F. ) ;
#223 = DIRECTION ( 'NONE',  ( -0.000000000000000000, -0.000000000000000000, 1.000000000000000000 ) ) ;
#224 = ADVANCED_FACE ( 'NONE', ( #373 ), #1142, .F. ) ;
#225 = CARTESIAN_POINT ( 'NONE',  ( -70.00000000000129319, -33.40416029259172603, 6.000000000000000000 ) ) ;
#226 = ORIENTED_EDGE ( 'NONE', *, *, #670, .F. ) ;
#227 = AXIS2_PLACEMENT_3D ( 'NONE', #145, #1221, #736 ) ;
#228 = ORIENTED_EDGE ( 'NONE', *, *, #317, .F. ) ;
#229 = APPROVAL_STATUS ( 'not_yet_approved' ) ;
#230 = CARTESIAN_POINT ( 'NONE',  ( 0.000000000000000000, 0.000000000000000000, 0.000000000000000000 ) ) ;
#231 = CARTESIAN_POINT ( 'NONE',  ( -60.00000000000129319, -143.4041602925917118, 6.000000000000000000 ) ) ;
#232 = FACE_OUTER_BOUND ( 'NONE', #157, .T. ) ;
#233 = ORIENTED_EDGE ( 'NONE', *, *, #902, .F. ) ;
#234 = DATE_TIME_ROLE ( 'classification_date' ) ;
#235 = AXIS2_PLACEMENT_3D ( 'NONE', #558, #62, #456 ) ;
#236 = CIRCLE ( 'NONE', #823, 5.000000000000004441 ) ;
#237 = CARTESIAN_POINT ( 'NONE',  ( -70.00000000000129319, -153.4041602925917118, 6.000000000000000000 ) ) ;
#238 = VECTOR ( 'NONE', #1116, 1000.000000000000000 ) ;
#239 = DIRECTION ( 'NONE',  ( -1.000000000000000000, 0.000000000000000000, 0.000000000000000000 ) ) ;
#240 = DIRECTION ( 'NONE',  ( -1.000000000000000000, 0.000000000000000000, -0.000000000000000000 ) ) ;
#241 = EDGE_CURVE ( 'NONE', #306, #646, #260, .T. ) ;
#242 = ORIENTED_EDGE ( 'NONE', *, *, #128, .T. ) ;
#243 = CC_DESIGN_PERSON_AND_ORGANIZATION_ASSIGNMENT ( #1097, #591, ( #951 ) ) ;
#244 = LINE ( 'NONE', #329, #1242 ) ;
#245 = CARTESIAN_POINT ( 'NONE',  ( -70.00000000000129319, -143.4041602925917118, 6.000000000000000000 ) ) ;
#246 = CARTESIAN_POINT ( 'NONE',  ( 5.113345811568039245, -73.40416029259174024, 0.000000000000000000 ) ) ;
#247 = ORIENTED_EDGE ( 'NONE', *, *, #369, .F. ) ;
#248 = ADVANCED_FACE ( 'NONE', ( #1076 ), #380, .F. ) ;
#249 = SECURITY_CLASSIFICATION_LEVEL ( 'unclassified' ) ;
#250 = DIRECTION ( 'NONE',  ( -1.000000000000000000, 0.000000000000000000, 0.000000000000000000 ) ) ;
#251 = CYLINDRICAL_SURFACE ( 'NONE', #69, 2.700000000000008171 ) ;
#252 = DIRECTION ( 'NONE',  ( 1.000000000000000000, 0.000000000000000000, 0.000000000000000000 ) ) ;
#253 = ORIENTED_EDGE ( 'NONE', *, *, #1036, .F. ) ;
#254 = PLANE ( 'NONE',  #759 ) ;
#255 = VECTOR ( 'NONE', #606, 1000.000000000000000 ) ;
#256 = CIRCLE ( 'NONE', #653, 5.000000000000004441 ) ;
#257 = AXIS2_PLACEMENT_3D ( 'NONE', #994, #687, #109 ) ;
#258 = FACE_OUTER_BOUND ( 'NONE', #11, .T. ) ;
#259 = VERTEX_POINT ( 'NONE', #1080 ) ;
#260 = CIRCLE ( 'NONE', #200, 5.000000000000003553 ) ;
#261 = CARTESIAN_POINT ( 'NONE',  ( 10.11334581156675405, -113.4041602925917118, 0.000000000000000000 ) ) ;
#262 = EDGE_CURVE ( 'NONE', #164, #887, #1053, .T. ) ;
#263 = CARTESIAN_POINT ( 'NONE',  ( -32.81334581156930597, -73.40416029259171182, 0.000000000000000000 ) ) ;
#264 = FACE_OUTER_BOUND ( 'NONE', #812, .T. ) ;
#265 = EDGE_CURVE ( 'NONE', #50, #1165, #865, .T. ) ;
#266 = EDGE_LOOP ( 'NONE', ( #843, #496, #247, #5 ) ) ;
#267 = VERTEX_POINT ( 'NONE', #100 ) ;
#268 = CYLINDRICAL_SURFACE ( 'NONE', #885, 10.00000000000000178 ) ;
#269 = CARTESIAN_POINT ( 'NONE',  ( 34.99999999999869971, -138.4041602925916834, -4.000000000000000000 ) ) ;
#270 = CYLINDRICAL_SURFACE ( 'NONE', #514, 4.999999999999999112 ) ;
#271 = VERTEX_POINT ( 'NONE', #596 ) ;
#272 = DIRECTION ( 'NONE',  ( 0.000000000000000000, 0.000000000000000000, -1.000000000000000000 ) ) ;
#273 = FACE_OUTER_BOUND ( 'NONE', #215, .T. ) ;
#274 = DIRECTION ( 'NONE',  ( -1.000000000000000000, 0.000000000000000000, 0.000000000000000000 ) ) ;
#275 = CIRCLE ( 'NONE', #964, 5.000000000000003553 ) ;
#276 =( GEOMETRIC_REPRESENTATION_CONTEXT ( 3 ) GLOBAL_UNCERTAINTY_ASSIGNED_CONTEXT ( ( #465 ) ) GLOBAL_UNIT_ASSIGNED_CONTEXT ( ( #605, #792, #289 ) ) REPRESENTATION_CONTEXT ( 'NONE', 'WORKASPACE' ) );
#277 = ORIENTED_EDGE ( 'NONE', *, *, #317, .T. ) ;
#278 = DIRECTION ( 'NONE',  ( -1.000000000000000000, 0.000000000000000000, 0.000000000000000000 ) ) ;
#279 = CARTESIAN_POINT ( 'NONE',  ( -55.00000000000129319, -48.40416029259169051, -14.00000000000000000 ) ) ;
#280 = DIRECTION ( 'NONE',  ( -1.000000000000000000, 0.000000000000000000, 0.000000000000000000 ) ) ;
#281 = CARTESIAN_POINT ( 'NONE',  ( -70.00000000000129319, -43.40416029259172603, -14.00000000000000000 ) ) ;
#282 = LINE ( 'NONE', #29, #599 ) ;
#283 = VERTEX_POINT ( 'NONE', #185 ) ;
#284 = DIRECTION ( 'NONE',  ( -1.000000000000000000, 0.000000000000000000, 0.000000000000000000 ) ) ;
#285 = DIRECTION ( 'NONE',  ( -1.000000000000000000, 0.000000000000000000, 0.000000000000000000 ) ) ;
#286 = DIRECTION ( 'NONE',  ( -0.000000000000000000, 0.000000000000000000, -1.000000000000000000 ) ) ;
#287 = ORIENTED_EDGE ( 'NONE', *, *, #1145, .F. ) ;
#288 = VERTEX_POINT ( 'NONE', #582 ) ;
#289 =( NAMED_UNIT ( * ) SI_UNIT ( $, .STERADIAN. ) SOLID_ANGLE_UNIT ( ) );
#290 = ADVANCED_FACE ( 'NONE', ( #962 ), #270, .F. ) ;
#291 = FACE_OUTER_BOUND ( 'NONE', #978, .T. ) ;
#292 = EDGE_CURVE ( 'NONE', #982, #1235, #83, .T. ) ;
#293 = EDGE_LOOP ( 'NONE', ( #775, #491 ) ) ;
#294 = AXIS2_PLACEMENT_3D ( 'NONE', #1158, #192, #99 ) ;
#295 = ADVANCED_FACE ( 'NONE', ( #4 ), #795, .F. ) ;
#296 = ORIENTED_EDGE ( 'NONE', *, *, #479, .F. ) ;
#297 = CARTESIAN_POINT ( 'NONE',  ( 49.99999999999869971, -33.40416029259172603, 6.000000000000000000 ) ) ;
#298 = EDGE_CURVE ( 'NONE', #711, #697, #282, .T. ) ;
#299 = CARTESIAN_POINT ( 'NONE',  ( -30.11334581156930312, -73.40416029259171182, 6.000000000000000000 ) ) ;
#300 = ORIENTED_EDGE ( 'NONE', *, *, #857, .F. ) ;
#301 = EDGE_LOOP ( 'NONE', ( #1258, #817, #57, #753 ) ) ;
#302 = DIRECTION ( 'NONE',  ( 0.000000000000000000, 0.000000000000000000, -1.000000000000000000 ) ) ;
#303 = CARTESIAN_POINT ( 'NONE',  ( 7.413345811566749433, -113.4041602925917118, 6.000000000000000000 ) ) ;
#304 = LINE ( 'NONE', #996, #1152 ) ;
#305 = ORIENTED_EDGE ( 'NONE', *, *, #472, .T. ) ;
#306 = VERTEX_POINT ( 'NONE', #521 ) ;
#307 = CARTESIAN_POINT ( 'NONE',  ( -25.11334581156929957, -113.4041602925917118, -4.000000000000000000 ) ) ;
#308 = DIRECTION ( 'NONE',  ( -0.000000000000000000, -0.000000000000000000, -1.000000000000000000 ) ) ;
#309 = EDGE_CURVE ( 'NONE', #705, #1207, #1095, .T. ) ;
#310 = CARTESIAN_POINT ( 'NONE',  ( 39.99999999999869971, -43.40416029259172603, 6.000000000000000000 ) ) ;
#311 = ORIENTED_EDGE ( 'NONE', *, *, #762, .T. ) ;
#312 = EDGE_CURVE ( 'NONE', #334, #651, #607, .T. ) ;
#313 = VECTOR ( 'NONE', #751, 1000.000000000000000 ) ;
#314 = ORIENTED_EDGE ( 'NONE', *, *, #497, .T. ) ;
#315 = AXIS2_PLACEMENT_3D ( 'NONE', #1034, #540, #432 ) ;
#316 = AXIS2_PLACEMENT_3D ( 'NONE', #578, #459, #278 ) ;
#317 = EDGE_CURVE ( 'NONE', #499, #1263, #764, .T. ) ;
#318 = APPROVAL_STATUS ( 'not_yet_approved' ) ;
#319 = CARTESIAN_POINT ( 'NONE',  ( 5.113345811566754939, -113.4041602925917118, -4.000000000000000000 ) ) ;
#320 = CARTESIAN_POINT ( 'NONE',  ( -30.11334581156930312, -73.40416029259171182, 6.000000000000000000 ) ) ;
#321 = CIRCLE ( 'NONE', #888, 2.700000000000004619 ) ;
#322 = ORIENTED_EDGE ( 'NONE', *, *, #1, .F. ) ;
#323 = ORIENTED_EDGE ( 'NONE', *, *, #40, .F. ) ;
#324 = APPROVAL_ROLE ( '' ) ;
#325 = PLANE ( 'NONE',  #967 ) ;
#326 = CYLINDRICAL_SURFACE ( 'NONE', #398, 10.00000000000000178 ) ;
#327 = DIRECTION ( 'NONE',  ( -1.000000000000000000, 0.000000000000000000, 0.000000000000000000 ) ) ;
#328 = EDGE_LOOP ( 'NONE', ( #38, #1176 ) ) ;
#329 = CARTESIAN_POINT ( 'NONE',  ( 39.99999999999869971, -33.40416029259172603, 6.000000000000000000 ) ) ;
#330 = EDGE_CURVE ( 'NONE', #614, #1114, #506, .T. ) ;
#331 = DIRECTION ( 'NONE',  ( 0.000000000000000000, 0.000000000000000000, 1.000000000000000000 ) ) ;
#332 = EDGE_CURVE ( 'NONE', #267, #1238, #1033, .T. ) ;
#333 = DIRECTION ( 'NONE',  ( 0.000000000000000000, -0.000000000000000000, -1.000000000000000000 ) ) ;
#334 = VERTEX_POINT ( 'NONE', #820 ) ;
#335 = CIRCLE ( 'NONE', #227, 5.000000000000004441 ) ;
#336 = COORDINATED_UNIVERSAL_TIME_OFFSET ( 0, 0, .AHEAD. ) ;
#337 = AXIS2_PLACEMENT_3D ( 'NONE', #1035, #541, #855 ) ;
#338 = EDGE_CURVE ( 'NONE', #1038, #449, #120, .T. ) ;
#339 = DIRECTION ( 'NONE',  ( 0.000000000000000000, 0.000000000000000000, -1.000000000000000000 ) ) ;
#340 = DIRECTION ( 'NONE',  ( 1.000000000000000000, 0.000000000000000000, 0.000000000000000000 ) ) ;
#341 = CARTESIAN_POINT ( 'NONE',  ( -65.00000000000129319, -38.40416029259168340, -14.00000000000000000 ) ) ;
#342 = EDGE_CURVE ( 'NONE', #449, #1038, #721, .T. ) ;
#343 = ORIENTED_EDGE ( 'NONE', *, *, #64, .F. ) ;
#344 = VECTOR ( 'NONE', #1193, 1000.000000000000000 ) ;
#345 = CALENDAR_DATE ( 2026, 22, 8 ) ;
#346 = DIRECTION ( 'NONE',  ( 0.000000000000000000, 1.000000000000000000, 0.000000000000000000 ) ) ;
#347 = CARTESIAN_POINT ( 'NONE',  ( 39.99999999999869971, -43.40416029259172603, 6.000000000000000000 ) ) ;
#348 = DIRECTION ( 'NONE',  ( -0.000000000000000000, -0.000000000000000000, 1.000000000000000000 ) ) ;
#349 = VERTEX_POINT ( 'NONE', #908 ) ;
#350 = DIRECTION ( 'NONE',  ( 0.000000000000000000, -0.000000000000000000, 1.000000000000000000 ) ) ;
#351 = DIRECTION ( 'NONE',  ( -1.000000000000000000, 0.000000000000000000, 0.000000000000000000 ) ) ;
#352 = ORIENTED_EDGE ( 'NONE', *, *, #784, .T. ) ;
#353 = EDGE_CURVE ( 'NONE', #651, #966, #1231, .T. ) ;
#354 = ORIENTED_EDGE ( 'NONE', *, *, #497, .F. ) ;
#355 = CC_DESIGN_PERSON_AND_ORGANIZATION_ASSIGNMENT ( #27, #437, ( #898 ) ) ;
#356 = CARTESIAN_POINT ( 'NONE',  ( -60.00000000000129319, -43.40416029259172603, 6.000000000000000000 ) ) ;
#357 = VECTOR ( 'NONE', #638, 1000.000000000000000 ) ;
#358 = AXIS2_PLACEMENT_3D ( 'NONE', #237, #346, #1140 ) ;
#359 = FACE_OUTER_BOUND ( 'NONE', #328, .T. ) ;
#360 = ORIENTED_EDGE ( 'NONE', *, *, #916, .F. ) ;
#361 = VECTOR ( 'NONE', #191, 1000.000000000000000 ) ;
#362 = DIRECTION ( 'NONE',  ( -1.000000000000000000, 0.000000000000000000, 0.000000000000000000 ) ) ;
#363 = CARTESIAN_POINT ( 'NONE',  ( -32.81334581156931307, -113.4041602925917118, 0.000000000000000000 ) ) ;
#364 = VERTEX_POINT ( 'NONE', #913 ) ;
#365 = ORIENTED_EDGE ( 'NONE', *, *, #944, .F. ) ;
#366 = CYLINDRICAL_SURFACE ( 'NONE', #316, 2.699999999999999289 ) ;
#367 = CYLINDRICAL_SURFACE ( 'NONE', #77, 10.00000000000000178 ) ;
#368 = CARTESIAN_POINT ( 'NONE',  ( 49.99999999999869971, -43.40416029259172603, 6.000000000000000000 ) ) ;
#369 = EDGE_CURVE ( 'NONE', #349, #383, #744, .T. ) ;
#370 = ORIENTED_EDGE ( 'NONE', *, *, #783, .T. ) ;
#371 = ORIENTED_EDGE ( 'NONE', *, *, #312, .F. ) ;
#372 = CARTESIAN_POINT ( 'NONE',  ( 34.99999999999869971, -48.40416029259169051, -4.000000000000000000 ) ) ;
#373 = FACE_OUTER_BOUND ( 'NONE', #867, .T. ) ;
#374 = DIRECTION ( 'NONE',  ( 1.000000000000000000, 0.000000000000000000, 0.000000000000000000 ) ) ;
#375 = CIRCLE ( 'NONE', #615, 2.700000000000004619 ) ;
#376 = LOCAL_TIME ( 12, 38, 53.00000000000000000, #46 ) ;
#377 = ORIENTED_EDGE ( 'NONE', *, *, #726, .F. ) ;
#378 = VERTEX_POINT ( 'NONE', #411 ) ;
#379 = CARTESIAN_POINT ( 'NONE',  ( 49.99999999999869971, -43.40416029259172603, -14.00000000000000000 ) ) ;
#380 = CYLINDRICAL_SURFACE ( 'NONE', #575, 10.00000000000000178 ) ;
#381 = DIRECTION ( 'NONE',  ( 1.000000000000000000, 0.000000000000000000, 0.000000000000000000 ) ) ;
#382 = ORIENTED_EDGE ( 'NONE', *, *, #530, .T. ) ;
#383 = VERTEX_POINT ( 'NONE', #602 ) ;
#384 = EDGE_CURVE ( 'NONE', #481, #851, #214, .T. ) ;
#385 = DIRECTION ( 'NONE',  ( 0.000000000000000000, 0.000000000000000000, 1.000000000000000000 ) ) ;
#386 = CARTESIAN_POINT ( 'NONE',  ( 5.113345811566754939, -113.4041602925917118, -4.000000000000000000 ) ) ;
#387 = EDGE_CURVE ( 'NONE', #990, #705, #304, .T. ) ;
#388 = DIRECTION ( 'NONE',  ( 1.000000000000000000, 0.000000000000000000, 0.000000000000000000 ) ) ;
#389 = VERTEX_POINT ( 'NONE', #723 ) ;
#390 = VECTOR ( 'NONE', #333, 1000.000000000000000 ) ;
#391 = ORIENTED_EDGE ( 'NONE', *, *, #262, .F. ) ;
#392 = EDGE_CURVE ( 'NONE', #1207, #851, #620, .T. ) ;
#393 = CARTESIAN_POINT ( 'NONE',  ( 34.99999999999869971, -38.40416029259168340, -14.00000000000000000 ) ) ;
#394 = ADVANCED_FACE ( 'NONE', ( #708 ), #1117, .F. ) ;
#395 = CARTESIAN_POINT ( 'NONE',  ( 49.99999999999869971, -33.40416029259169051, -14.00000000000000000 ) ) ;
#396 = DIRECTION ( 'NONE',  ( -1.000000000000000000, 0.000000000000000000, 0.000000000000000000 ) ) ;
#397 = ORIENTED_EDGE ( 'NONE', *, *, #312, .T. ) ;
#398 = AXIS2_PLACEMENT_3D ( 'NONE', #310, #926, #815 ) ;
#399 = VECTOR ( 'NONE', #1259, 1000.000000000000000 ) ;
#400 = CIRCLE ( 'NONE', #421, 10.00000000000000178 ) ;
#401 = ORIENTED_EDGE ( 'NONE', *, *, #684, .F. ) ;
#402 = DIRECTION ( 'NONE',  ( -0.000000000000000000, -0.000000000000000000, 1.000000000000000000 ) ) ;
#403 = DIRECTION ( 'NONE',  ( -1.000000000000000000, 0.000000000000000000, 0.000000000000000000 ) ) ;
#404 = CIRCLE ( 'NONE', #677, 10.00000000000000178 ) ;
#405 = DIRECTION ( 'NONE',  ( 1.000000000000000000, 0.000000000000000000, 0.000000000000000000 ) ) ;
#406 = ORIENTED_EDGE ( 'NONE', *, *, #702, .T. ) ;
#407 = ORIENTED_EDGE ( 'NONE', *, *, #904, .F. ) ;
#408 = FACE_OUTER_BOUND ( 'NONE', #1196, .T. ) ;
#409 = ADVANCED_FACE ( 'NONE', ( #1008 ), #326, .T. ) ;
#410 = DIRECTION ( 'NONE',  ( -1.000000000000000000, 0.000000000000000000, 0.000000000000000000 ) ) ;
#411 = CARTESIAN_POINT ( 'NONE',  ( 7.413345811568043509, -73.40416029259174024, 0.000000000000000000 ) ) ;
#412 = ORIENTED_EDGE ( 'NONE', *, *, #292, .T. ) ;
#413 = EDGE_CURVE ( 'NONE', #719, #946, #714, .T. ) ;
#414 = ORIENTED_EDGE ( 'NONE', *, *, #202, .F. ) ;
#415 = COORDINATED_UNIVERSAL_TIME_OFFSET ( 0, 0, .AHEAD. ) ;
#416 = LINE ( 'NONE', #1020, #636 ) ;
#417 = CARTESIAN_POINT ( 'NONE',  ( -70.00000000000129319, -33.40416029259169051, -14.00000000000000000 ) ) ;
#418 = CARTESIAN_POINT ( 'NONE',  ( -70.00000000000129319, -153.4041602925916834, -14.00000000000000000 ) ) ;
#419 = AXIS2_PLACEMENT_3D ( 'NONE', #225, #1105, #526 ) ;
#420 = ORIENTED_EDGE ( 'NONE', *, *, #1015, .T. ) ;
#421 = AXIS2_PLACEMENT_3D ( 'NONE', #110, #905, #1001 ) ;
#422 = CIRCLE ( 'NONE', #532, 2.699999999999999289 ) ;
#423 = DIRECTION ( 'NONE',  ( 1.000000000000000000, 0.000000000000000000, 0.000000000000000000 ) ) ;
#424 = CARTESIAN_POINT ( 'NONE',  ( -30.11334581156930312, -113.4041602925917118, -4.000000000000000000 ) ) ;
#425 = AXIS2_PLACEMENT_3D ( 'NONE', #1260, #778, #564 ) ;
#426 = FACE_OUTER_BOUND ( 'NONE', #963, .T. ) ;
#427 = VECTOR ( 'NONE', #1022, 1000.000000000000000 ) ;
#428 = EDGE_LOOP ( 'NONE', ( #121, #102, #1069, #296 ) ) ;
#429 = ADVANCED_FACE ( 'NONE', ( #900 ), #9, .F. ) ;
#430 = DATE_AND_TIME ( #628, #196 ) ;
#431 = APPROVAL ( #318, 'UNSPECIFIED' ) ;
#432 = DIRECTION ( 'NONE',  ( -1.000000000000000000, 0.000000000000000000, 0.000000000000000000 ) ) ;
#433 = CARTESIAN_POINT ( 'NONE',  ( 39.99999999999869971, -153.4041602925916834, -14.00000000000000000 ) ) ;
#434 = DIRECTION ( 'NONE',  ( 1.000000000000000000, 0.000000000000000000, -0.000000000000000000 ) ) ;
#435 = ORIENTED_EDGE ( 'NONE', *, *, #704, .F. ) ;
#436 = EDGE_CURVE ( 'NONE', #589, #20, #1188, .T. ) ;
#437 = PERSON_AND_ORGANIZATION_ROLE ( 'creator' ) ;
#438 = DIRECTION ( 'NONE',  ( 1.000000000000000000, 0.000000000000000000, -0.000000000000000000 ) ) ;
#439 = EDGE_CURVE ( 'NONE', #589, #872, #1026, .T. ) ;
#440 = DIRECTION ( 'NONE',  ( 0.000000000000000000, 0.000000000000000000, -1.000000000000000000 ) ) ;
#441 = CARTESIAN_POINT ( 'NONE',  ( -60.00000000000129319, -43.40416029259172603, -14.00000000000000000 ) ) ;
#442 = ORIENTED_EDGE ( 'NONE', *, *, #332, .T. ) ;
#443 = APPROVAL_ROLE ( '' ) ;
#444 = AXIS2_PLACEMENT_3D ( 'NONE', #231, #933, #340 ) ;
#445 = AXIS2_PLACEMENT_3D ( 'NONE', #788, #1089, #699 ) ;
#446 = LINE ( 'NONE', #943, #94 ) ;
#447 = DIRECTION ( 'NONE',  ( -1.000000000000000000, 0.000000000000000000, 0.000000000000000000 ) ) ;
#448 = DIRECTION ( 'NONE',  ( 0.000000000000000000, 1.000000000000000000, 0.000000000000000000 ) ) ;
#449 = VERTEX_POINT ( 'NONE', #743 ) ;
#450 = FACE_BOUND ( 'NONE', #130, .T. ) ;
#451 = CARTESIAN_POINT ( 'NONE',  ( -30.11334581156930312, -113.4041602925917118, 6.000000000000000000 ) ) ;
#452 = EDGE_CURVE ( 'NONE', #1133, #560, #730, .T. ) ;
#453 = EDGE_LOOP ( 'NONE', ( #770, #1018 ) ) ;
#454 = EDGE_CURVE ( 'NONE', #785, #288, #153, .T. ) ;
#455 = DIRECTION ( 'NONE',  ( 0.000000000000000000, 0.000000000000000000, 1.000000000000000000 ) ) ;
#456 = DIRECTION ( 'NONE',  ( -1.000000000000000000, 0.000000000000000000, 0.000000000000000000 ) ) ;
#457 = ORIENTED_EDGE ( 'NONE', *, *, #128, .F. ) ;
#458 = ORIENTED_EDGE ( 'NONE', *, *, #309, .T. ) ;
#459 = DIRECTION ( 'NONE',  ( -0.000000000000000000, -0.000000000000000000, -1.000000000000000000 ) ) ;
#460 = AXIS2_PLACEMENT_3D ( 'NONE', #269, #773, #478 ) ;
#461 = AXIS2_PLACEMENT_3D ( 'NONE', #261, #181, #80 ) ;
#462 = DIRECTION ( 'NONE',  ( 0.000000000000000000, -0.000000000000000000, 1.000000000000000000 ) ) ;
#463 = VECTOR ( 'NONE', #525, 1000.000000000000000 ) ;
#464 = LINE ( 'NONE', #1175, #1241 ) ;
#465 = UNCERTAINTY_MEASURE_WITH_UNIT (LENGTH_MEASURE( 1.000000000000000082E-05 ), #605, 'distance_accuracy_value', 'NONE');
#466 = VERTEX_POINT ( 'NONE', #433 ) ;
#467 = VERTEX_POINT ( 'NONE', #535 ) ;
#468 = AXIS2_PLACEMENT_3D ( 'NONE', #1269, #348, #586 ) ;
#469 = FACE_BOUND ( 'NONE', #510, .T. ) ;
#470 = EDGE_CURVE ( 'NONE', #711, #785, #1227, .T. ) ;
#471 = CARTESIAN_POINT ( 'NONE',  ( 39.99999999999869971, -143.4041602925917118, 6.000000000000000000 ) ) ;
#472 = EDGE_CURVE ( 'NONE', #1235, #481, #528, .T. ) ;
#473 = DIRECTION ( 'NONE',  ( 0.000000000000000000, 0.000000000000000000, -1.000000000000000000 ) ) ;
#474 = EDGE_LOOP ( 'NONE', ( #96, #604, #300, #226 ) ) ;
#475 = ORIENTED_EDGE ( 'NONE', *, *, #511, .T. ) ;
#476 = DIRECTION ( 'NONE',  ( 1.000000000000000000, 0.000000000000000000, -0.000000000000000000 ) ) ;
#477 = CARTESIAN_POINT ( 'NONE',  ( 10.11334581156804369, -73.40416029259174024, 6.000000000000000000 ) ) ;
#478 = DIRECTION ( 'NONE',  ( -1.000000000000000000, 0.000000000000000000, 0.000000000000000000 ) ) ;
#479 = EDGE_CURVE ( 'NONE', #887, #378, #839, .T. ) ;
#480 = CARTESIAN_POINT ( 'NONE',  ( 10.11334581156675405, -113.4041602925917118, -4.000000000000000000 ) ) ;
#481 = VERTEX_POINT ( 'NONE', #1141 ) ;
#482 = ORIENTED_EDGE ( 'NONE', *, *, #1210, .T. ) ;
#483 = CARTESIAN_POINT ( 'NONE',  ( 10.11334581156804369, -73.40416029259174024, 0.000000000000000000 ) ) ;
#484 = CARTESIAN_POINT ( 'NONE',  ( 10.11334581156675405, -113.4041602925917118, 6.000000000000000000 ) ) ;
#485 = APPLICATION_PROTOCOL_DEFINITION ( 'international standard', 'config_control_design', 1994, #643 ) ;
#486 = DIRECTION ( 'NONE',  ( 0.000000000000000000, -1.000000000000000000, 0.000000000000000000 ) ) ;
#487 = VECTOR ( 'NONE', #286, 1000.000000000000000 ) ;
#488 = VECTOR ( 'NONE', #88, 1000.000000000000000 ) ;
#489 = DIRECTION ( 'NONE',  ( 0.000000000000000000, 1.000000000000000000, 0.000000000000000000 ) ) ;
#490 = ORIENTED_EDGE ( 'NONE', *, *, #131, .F. ) ;
#491 = ORIENTED_EDGE ( 'NONE', *, *, #1055, .T. ) ;
#492 = AXIS2_PLACEMENT_3D ( 'NONE', #1099, #201, #1199 ) ;
#493 = FACE_OUTER_BOUND ( 'NONE', #18, .T. ) ;
#494 = PERSON_AND_ORGANIZATION ( #774, #801 ) ;
#495 = CARTESIAN_POINT ( 'NONE',  ( -60.00000000000129319, -43.40416029259172603, 6.000000000000000000 ) ) ;
#496 = ORIENTED_EDGE ( 'NONE', *, *, #897, .T. ) ;
#497 = EDGE_CURVE ( 'NONE', #259, #364, #134, .T. ) ;
#498 = EDGE_CURVE ( 'NONE', #383, #349, #375, .T. ) ;
#499 = VERTEX_POINT ( 'NONE', #631 ) ;
#500 = LINE ( 'NONE', #706, #1067 ) ;
#501 = CYLINDRICAL_SURFACE ( 'NONE', #71, 5.000000000000004441 ) ;
#502 = DIRECTION ( 'NONE',  ( -1.000000000000000000, 0.000000000000000000, 0.000000000000000000 ) ) ;
#503 = EDGE_LOOP ( 'NONE', ( #1062, #1004, #397, #253 ) ) ;
#504 = ORIENTED_EDGE ( 'NONE', *, *, #470, .T. ) ;
#505 = LINE ( 'NONE', #713, #255 ) ;
#506 = LINE ( 'NONE', #417, #827 ) ;
#507 = ORIENTED_EDGE ( 'NONE', *, *, #1179, .F. ) ;
#508 = AXIS2_PLACEMENT_3D ( 'NONE', #347, #1220, #952 ) ;
#509 = CIRCLE ( 'NONE', #217, 2.700000000000008171 ) ;
#510 = EDGE_LOOP ( 'NONE', ( #641, #391 ) ) ;
#511 = EDGE_CURVE ( 'NONE', #389, #769, #194, .T. ) ;
#512 = LINE ( 'NONE', #21, #95 ) ;
#513 = DIRECTION ( 'NONE',  ( -1.000000000000000000, 0.000000000000000000, 0.000000000000000000 ) ) ;
#514 = AXIS2_PLACEMENT_3D ( 'NONE', #894, #977, #388 ) ;
#515 = DIRECTION ( 'NONE',  ( -1.000000000000000000, 0.000000000000000000, 0.000000000000000000 ) ) ;
#516 = EDGE_LOOP ( 'NONE', ( #287, #645, #26, #507 ) ) ;
#517 = ADVANCED_FACE ( 'NONE', ( #258 ), #251, .F. ) ;
#518 = ORIENTED_EDGE ( 'NONE', *, *, #1082, .F. ) ;
#519 = DATE_AND_TIME ( #1211, #13 ) ;
#520 = CARTESIAN_POINT ( 'NONE',  ( 7.413345811568043509, -73.40416029259174024, 6.000000000000000000 ) ) ;
#521 = CARTESIAN_POINT ( 'NONE',  ( 5.113345811568039245, -73.40416029259174024, -4.000000000000000000 ) ) ;
#522 = CARTESIAN_POINT ( 'NONE',  ( -35.11334581156931023, -73.40416029259171182, -4.000000000000000000 ) ) ;
#523 = EDGE_LOOP ( 'NONE', ( #105, #609, #565, #352, #412, #305, #796, #1010 ) ) ;
#524 = VECTOR ( 'NONE', #921, 1000.000000000000000 ) ;
#525 = DIRECTION ( 'NONE',  ( 0.000000000000000000, -1.000000000000000000, 0.000000000000000000 ) ) ;
#526 = DIRECTION ( 'NONE',  ( -0.000000000000000000, 0.000000000000000000, -1.000000000000000000 ) ) ;
#527 = CARTESIAN_POINT ( 'NONE',  ( 44.99999999999869971, -148.4041602925916834, -14.00000000000000000 ) ) ;
#528 = CIRCLE ( 'NONE', #757, 10.00000000000000178 ) ;
#529 = ORIENTED_EDGE ( 'NONE', *, *, #667, .F. ) ;
#530 = EDGE_CURVE ( 'NONE', #334, #283, #925, .T. ) ;
#531 = AXIS2_PLACEMENT_3D ( 'NONE', #938, #1040, #250 ) ;
#532 = AXIS2_PLACEMENT_3D ( 'NONE', #218, #385, #1186 ) ;
#533 = PERSON_AND_ORGANIZATION ( #774, #801 ) ;
#534 = CARTESIAN_POINT ( 'NONE',  ( 49.99999999999869971, -33.40416029259172603, 6.000000000000000000 ) ) ;
#535 = CARTESIAN_POINT ( 'NONE',  ( -35.11334581156931023, -73.40416029259171182, -4.000000000000000000 ) ) ;
#536 = AXIS2_PLACEMENT_3D ( 'NONE', #1206, #701, #625 ) ;
#537 = DIRECTION ( 'NONE',  ( -0.000000000000000000, 0.000000000000000000, 1.000000000000000000 ) ) ;
#538 = ORIENTED_EDGE ( 'NONE', *, *, #577, .T. ) ;
#539 = EDGE_CURVE ( 'NONE', #791, #785, #1137, .T. ) ;
#540 = DIRECTION ( 'NONE',  ( 0.000000000000000000, 0.000000000000000000, -1.000000000000000000 ) ) ;
#541 = DIRECTION ( 'NONE',  ( 0.000000000000000000, 0.000000000000000000, -1.000000000000000000 ) ) ;
#542 = LINE ( 'NONE', #522, #524 ) ;
#543 = ORIENTED_EDGE ( 'NONE', *, *, #877, .T. ) ;
#544 = APPROVAL_DATE_TIME ( #1115, #747 ) ;
#545 = DIRECTION ( 'NONE',  ( 0.000000000000000000, 0.000000000000000000, -1.000000000000000000 ) ) ;
#546 = CARTESIAN_POINT ( 'NONE',  ( 34.99999999999869971, -148.4041602925916834, -14.00000000000000000 ) ) ;
#547 = DIRECTION ( 'NONE',  ( 0.000000000000000000, 0.000000000000000000, 1.000000000000000000 ) ) ;
#548 = ORIENTED_EDGE ( 'NONE', *, *, #439, .T. ) ;
#549 = VECTOR ( 'NONE', #644, 1000.000000000000000 ) ;
#550 = LOCAL_TIME ( 12, 38, 53.00000000000000000, #336 ) ;
#551 = DIRECTION ( 'NONE',  ( 0.000000000000000000, -1.000000000000000000, 0.000000000000000000 ) ) ;
#552 = EDGE_CURVE ( 'NONE', #1114, #1139, #570, .T. ) ;
#553 = DIRECTION ( 'NONE',  ( 0.000000000000000000, 0.000000000000000000, 1.000000000000000000 ) ) ;
#554 = EDGE_CURVE ( 'NONE', #267, #364, #149, .T. ) ;
#555 = VECTOR ( 'NONE', #448, 1000.000000000000000 ) ;
#556 = ORIENTED_EDGE ( 'NONE', *, *, #208, .F. ) ;
#557 = DIRECTION ( 'NONE',  ( -1.000000000000000000, 0.000000000000000000, -0.000000000000000000 ) ) ;
#558 = CARTESIAN_POINT ( 'NONE',  ( -30.11334581156930312, -113.4041602925917118, 6.000000000000000000 ) ) ;
#559 = ORIENTED_EDGE ( 'NONE', *, *, #530, .F. ) ;
#560 = VERTEX_POINT ( 'NONE', #546 ) ;
#561 = FACE_BOUND ( 'NONE', #776, .T. ) ;
#562 = AXIS2_PLACEMENT_3D ( 'NONE', #841, #821, #1042 ) ;
#563 = DIRECTION ( 'NONE',  ( -1.000000000000000000, 0.000000000000000000, 0.000000000000000000 ) ) ;
#564 = DIRECTION ( 'NONE',  ( 1.000000000000000000, 0.000000000000000000, 0.000000000000000000 ) ) ;
#565 = ORIENTED_EDGE ( 'NONE', *, *, #1246, .T. ) ;
#566 = ADVANCED_FACE ( 'NONE', ( #945 ), #54, .F. ) ;
#567 = ADVANCED_FACE ( 'NONE', ( #161 ), #1233, .F. ) ;
#568 = FACE_OUTER_BOUND ( 'NONE', #1096, .T. ) ;
#569 = CARTESIAN_POINT ( 'NONE',  ( 12.81334581156804298, -73.40416029259174024, 6.000000000000000000 ) ) ;
#570 = CIRCLE ( 'NONE', #819, 10.00000000000000178 ) ;
#571 = CIRCLE ( 'NONE', #1050, 2.699999999999999289 ) ;
#572 = CARTESIAN_POINT ( 'NONE',  ( -30.11334581156930312, -73.40416029259171182, 6.000000000000000000 ) ) ;
#573 = LINE ( 'NONE', #675, #1110 ) ;
#574 = ORIENTED_EDGE ( 'NONE', *, *, #897, .F. ) ;
#575 = AXIS2_PLACEMENT_3D ( 'NONE', #579, #974, #81 ) ;
#576 = CIRCLE ( 'NONE', #1011, 5.000000000000003553 ) ;
#577 = EDGE_CURVE ( 'NONE', #466, #1194, #1028, .T. ) ;
#578 = CARTESIAN_POINT ( 'NONE',  ( 10.11334581156804369, -73.40416029259174024, 6.000000000000000000 ) ) ;
#579 = CARTESIAN_POINT ( 'NONE',  ( 34.99999999999869971, -48.40416029259169051, -14.00000000000000000 ) ) ;
#580 = FACE_OUTER_BOUND ( 'NONE', #151, .T. ) ;
#581 = CARTESIAN_POINT ( 'NONE',  ( 15.11334581156675405, -113.4041602925917118, -4.000000000000000000 ) ) ;
#582 = CARTESIAN_POINT ( 'NONE',  ( -60.00000000000129319, -153.4041602925917118, 6.000000000000000000 ) ) ;
#583 = ORIENTED_EDGE ( 'NONE', *, *, #65, .F. ) ;
#584 = ORIENTED_EDGE ( 'NONE', *, *, #392, .T. ) ;
#585 = CARTESIAN_POINT ( 'NONE',  ( 10.11334581156804369, -73.40416029259174024, -4.000000000000000000 ) ) ;
#586 = DIRECTION ( 'NONE',  ( 1.000000000000000000, 0.000000000000000000, 0.000000000000000000 ) ) ;
#587 = DIRECTION ( 'NONE',  ( -1.000000000000000000, 0.000000000000000000, 0.000000000000000000 ) ) ;
#588 = VERTEX_POINT ( 'NONE', #668 ) ;
#589 = VERTEX_POINT ( 'NONE', #581 ) ;
#590 = CARTESIAN_POINT ( 'NONE',  ( -65.00000000000129319, -148.4041602925916834, -14.00000000000000000 ) ) ;
#591 = PERSON_AND_ORGANIZATION_ROLE ( 'design_owner' ) ;
#592 = DIRECTION ( 'NONE',  ( 1.000000000000000000, 0.000000000000000000, -0.000000000000000000 ) ) ;
#593 = AXIS2_PLACEMENT_3D ( 'NONE', #886, #1271, #381 ) ;
#594 = CIRCLE ( 'NONE', #1204, 2.700000000000008171 ) ;
#595 = APPROVAL ( #1013, 'UNSPECIFIED' ) ;
#596 = CARTESIAN_POINT ( 'NONE',  ( 12.81334581156804298, -73.40416029259174024, 0.000000000000000000 ) ) ;
#597 = ORIENTED_EDGE ( 'NONE', *, *, #1195, .F. ) ;
#598 = ORIENTED_EDGE ( 'NONE', *, *, #1060, .F. ) ;
#599 = VECTOR ( 'NONE', #124, 1000.000000000000000 ) ;
#600 = LINE ( 'NONE', #1270, #635 ) ;
#601 = CARTESIAN_POINT ( 'NONE',  ( -32.81334581156930597, -73.40416029259171182, 6.000000000000000000 ) ) ;
#602 = CARTESIAN_POINT ( 'NONE',  ( 12.81334581156675867, -113.4041602925917118, 0.000000000000000000 ) ) ;
#603 = ORIENTED_EDGE ( 'NONE', *, *, #40, .T. ) ;
#604 = ORIENTED_EDGE ( 'NONE', *, *, #539, .F. ) ;
#605 =( LENGTH_UNIT ( ) NAMED_UNIT ( * ) SI_UNIT ( .MILLI., .METRE. ) );
#606 = DIRECTION ( 'NONE',  ( 0.000000000000000000, 1.000000000000000000, 0.000000000000000000 ) ) ;
#607 = LINE ( 'NONE', #829, #1135 ) ;
#608 = ORIENTED_EDGE ( 'NONE', *, *, #1179, .T. ) ;
#609 = ORIENTED_EDGE ( 'NONE', *, *, #710, .T. ) ;
#610 = CC_DESIGN_DATE_AND_TIME_ASSIGNMENT ( #519, #720, ( #898 ) ) ;
#611 = CARTESIAN_POINT ( 'NONE',  ( -35.11334581156931023, -73.40416029259171182, 0.000000000000000000 ) ) ;
#612 = PLANE ( 'NONE',  #195 ) ;
#613 = CARTESIAN_POINT ( 'NONE',  ( -30.11334581156930312, -113.4041602925917118, 0.000000000000000000 ) ) ;
#614 = VERTEX_POINT ( 'NONE', #176 ) ;
#615 = AXIS2_PLACEMENT_3D ( 'NONE', #1054, #553, #834 ) ;
#616 = AXIS2_PLACEMENT_3D ( 'NONE', #356, #272, #672 ) ;
#617 = ORIENTED_EDGE ( 'NONE', *, *, #862, .T. ) ;
#618 = PRODUCT_DEFINITION_SHAPE ( 'NONE', 'NONE',  #898 ) ;
#619 = CARTESIAN_POINT ( 'NONE',  ( -60.00000000000129319, -143.4041602925917118, -14.00000000000000000 ) ) ;
#620 = LINE ( 'NONE', #104, #881 ) ;
#621 = CARTESIAN_POINT ( 'NONE',  ( -55.00000000000129319, -38.40416029259168340, -14.00000000000000000 ) ) ;
#622 = APPLICATION_CONTEXT ( 'configuration controlled 3d designs of mechanical parts and assemblies' ) ;
#623 = ORIENTED_EDGE ( 'NONE', *, *, #241, .T. ) ;
#624 = FACE_OUTER_BOUND ( 'NONE', #72, .T. ) ;
#625 = DIRECTION ( 'NONE',  ( 1.000000000000000000, 0.000000000000000000, 0.000000000000000000 ) ) ;
#626 = LINE ( 'NONE', #418, #427 ) ;
#627 = EDGE_LOOP ( 'NONE', ( #806, #172 ) ) ;
#628 = CALENDAR_DATE ( 2026, 22, 8 ) ;
#629 = CYLINDRICAL_SURFACE ( 'NONE', #928, 5.000000000000004441 ) ;
#630 = ADVANCED_FACE ( 'NONE', ( #989, #359 ), #864, .F. ) ;
#631 = CARTESIAN_POINT ( 'NONE',  ( -25.11334581156929957, -73.40416029259171182, 0.000000000000000000 ) ) ;
#632 = LINE ( 'NONE', #621, #853 ) ;
#633 = EDGE_CURVE ( 'NONE', #724, #126, #464, .T. ) ;
#634 = EDGE_LOOP ( 'NONE', ( #953, #948, #1181, #1171 ) ) ;
#635 = VECTOR ( 'NONE', #911, 1000.000000000000000 ) ;
#636 = VECTOR ( 'NONE', #223, 1000.000000000000000 ) ;
#637 = DIRECTION ( 'NONE',  ( 0.000000000000000000, -0.000000000000000000, -1.000000000000000000 ) ) ;
#638 = DIRECTION ( 'NONE',  ( -0.000000000000000000, -0.000000000000000000, 1.000000000000000000 ) ) ;
#639 = AXIS2_PLACEMENT_3D ( 'NONE', #424, #1002, #220 ) ;
#640 = CARTESIAN_POINT ( 'NONE',  ( -65.00000000000129319, -138.4041602925916834, -14.00000000000000000 ) ) ;
#641 = ORIENTED_EDGE ( 'NONE', *, *, #1275, .F. ) ;
#642 = CARTESIAN_POINT ( 'NONE',  ( -65.00000000000129319, -48.40416029259169051, -14.00000000000000000 ) ) ;
#643 = APPLICATION_CONTEXT ( 'configuration controlled 3d designs of mechanical parts and assemblies' ) ;
#644 = DIRECTION ( 'NONE',  ( 0.000000000000000000, -0.000000000000000000, 1.000000000000000000 ) ) ;
#645 = ORIENTED_EDGE ( 'NONE', *, *, #975, .F. ) ;
#646 = VERTEX_POINT ( 'NONE', #78 ) ;
#647 = EDGE_CURVE ( 'NONE', #872, #589, #1047, .T. ) ;
#648 = LINE ( 'NONE', #1213, #137 ) ;
#649 = DIRECTION ( 'NONE',  ( -1.000000000000000000, 0.000000000000000000, 0.000000000000000000 ) ) ;
#650 = FACE_OUTER_BOUND ( 'NONE', #1182, .T. ) ;
#651 = VERTEX_POINT ( 'NONE', #363 ) ;
#652 = CIRCLE ( 'NONE', #460, 10.00000000000000178 ) ;
#653 = AXIS2_PLACEMENT_3D ( 'NONE', #58, #545, #833 ) ;
#654 = CIRCLE ( 'NONE', #1184, 10.00000000000000178 ) ;
#655 = CARTESIAN_POINT ( 'NONE',  ( 44.99999999999869971, -38.40416029259168340, -4.000000000000000000 ) ) ;
#656 = DIRECTION ( 'NONE',  ( -1.000000000000000000, 0.000000000000000000, 0.000000000000000000 ) ) ;
#657 = VECTOR ( 'NONE', #489, 1000.000000000000000 ) ;
#658 = ORIENTED_EDGE ( 'NONE', *, *, #1012, .F. ) ;
#659 = ORIENTED_EDGE ( 'NONE', *, *, #916, .T. ) ;
#660 = DIRECTION ( 'NONE',  ( -0.000000000000000000, -0.000000000000000000, -1.000000000000000000 ) ) ;
#661 = PLANE ( 'NONE',  #1265 ) ;
#662 = CC_DESIGN_PERSON_AND_ORGANIZATION_ASSIGNMENT ( #1120, #931, ( #35 ) ) ;
#663 = ORIENTED_EDGE ( 'NONE', *, *, #436, .F. ) ;
#664 = ORIENTED_EDGE ( 'NONE', *, *, #298, .F. ) ;
#665 = EDGE_CURVE ( 'NONE', #705, #1167, #767, .T. ) ;
#666 = DIRECTION ( 'NONE',  ( -0.000000000000000000, 0.000000000000000000, -1.000000000000000000 ) ) ;
#667 = EDGE_CURVE ( 'NONE', #1038, #50, #573, .T. ) ;
#668 = CARTESIAN_POINT ( 'NONE',  ( 49.99999999999869971, -143.4041602925917118, -14.00000000000000000 ) ) ;
#669 = EDGE_LOOP ( 'NONE', ( #323, #1267, #146, #1107 ) ) ;
#670 = EDGE_CURVE ( 'NONE', #288, #1194, #1153, .T. ) ;
#671 = ORIENTED_EDGE ( 'NONE', *, *, #1082, .T. ) ;
#672 = DIRECTION ( 'NONE',  ( -1.000000000000000000, 0.000000000000000000, 0.000000000000000000 ) ) ;
#673 = DIRECTION ( 'NONE',  ( -1.000000000000000000, 0.000000000000000000, 0.000000000000000000 ) ) ;
#674 = AXIS2_PLACEMENT_3D ( 'NONE', #68, #763, #592 ) ;
#675 = CARTESIAN_POINT ( 'NONE',  ( -27.41334581156930383, -73.40416029259171182, 6.000000000000000000 ) ) ;
#676 = EDGE_LOOP ( 'NONE', ( #322, #132 ) ) ;
#677 = AXIS2_PLACEMENT_3D ( 'NONE', #441, #30, #745 ) ;
#678 = DIRECTION ( 'NONE',  ( 0.000000000000000000, 0.000000000000000000, -1.000000000000000000 ) ) ;
#679 = DIRECTION ( 'NONE',  ( 0.000000000000000000, 0.000000000000000000, -1.000000000000000000 ) ) ;
#680 = CARTESIAN_POINT ( 'NONE',  ( 44.99999999999869971, -138.4041602925916834, -14.00000000000000000 ) ) ;
#681 = DIRECTION ( 'NONE',  ( -0.000000000000000000, -0.000000000000000000, 1.000000000000000000 ) ) ;
#682 = ORIENTED_EDGE ( 'NONE', *, *, #726, .T. ) ;
#683 = ORIENTED_EDGE ( 'NONE', *, *, #975, .T. ) ;
#684 = EDGE_CURVE ( 'NONE', #1155, #112, #275, .T. ) ;
#685 = CYLINDRICAL_SURFACE ( 'NONE', #155, 5.000000000000002665 ) ;
#686 = CARTESIAN_POINT ( 'NONE',  ( 44.99999999999869971, -138.4041602925916834, -4.000000000000000000 ) ) ;
#687 = DIRECTION ( 'NONE',  ( 0.000000000000000000, 0.000000000000000000, 1.000000000000000000 ) ) ;
#688 = ADVANCED_FACE ( 'NONE', ( #264, #1249 ), #661, .T. ) ;
#689 = DIRECTION ( 'NONE',  ( -1.000000000000000000, 0.000000000000000000, 0.000000000000000000 ) ) ;
#690 = ORIENTED_EDGE ( 'NONE', *, *, #552, .F. ) ;
#691 = EDGE_LOOP ( 'NONE', ( #414, #790, #709, #682, #179, #458, #848, #1257 ) ) ;
#692 = DIRECTION ( 'NONE',  ( 0.000000000000000000, 0.000000000000000000, -1.000000000000000000 ) ) ;
#693 = CARTESIAN_POINT ( 'NONE',  ( -70.00000000000129319, -153.4041602925917118, 6.000000000000000000 ) ) ;
#694 = CIRCLE ( 'NONE', #1202, 10.00000000000000178 ) ;
#695 = AXIS2_PLACEMENT_3D ( 'NONE', #777, #786, #476 ) ;
#696 = ORIENTED_EDGE ( 'NONE', *, *, #452, .F. ) ;
#697 = VERTEX_POINT ( 'NONE', #281 ) ;
#698 = AXIS2_PLACEMENT_3D ( 'NONE', #471, #679, #883 ) ;
#699 = DIRECTION ( 'NONE',  ( 1.000000000000000000, 0.000000000000000000, 0.000000000000000000 ) ) ;
#700 = CARTESIAN_POINT ( 'NONE',  ( -30.11334581156930312, -113.4041602925917118, -4.000000000000000000 ) ) ;
#701 = DIRECTION ( 'NONE',  ( 0.000000000000000000, 0.000000000000000000, 1.000000000000000000 ) ) ;
#702 = EDGE_CURVE ( 'NONE', #588, #466, #1007, .T. ) ;
#703 = ORIENTED_EDGE ( 'NONE', *, *, #262, .T. ) ;
#704 = EDGE_CURVE ( 'NONE', #1139, #389, #82, .T. ) ;
#705 = VERTEX_POINT ( 'NONE', #168 ) ;
#706 = CARTESIAN_POINT ( 'NONE',  ( -60.00000000000128608, -33.40416029259172603, 6.000000000000000000 ) ) ;
#707 = LINE ( 'NONE', #297, #803 ) ;
#708 = FACE_OUTER_BOUND ( 'NONE', #669, .T. ) ;
#709 = ORIENTED_EDGE ( 'NONE', *, *, #1210, .F. ) ;
#710 = EDGE_CURVE ( 'NONE', #993, #1133, #652, .T. ) ;
#711 = VERTEX_POINT ( 'NONE', #893 ) ;
#712 = LINE ( 'NONE', #1178, #135 ) ;
#713 = CARTESIAN_POINT ( 'NONE',  ( 49.99999999999869971, -153.4041602925917118, 6.000000000000000000 ) ) ;
#714 = CIRCLE ( 'NONE', #177, 10.00000000000000178 ) ;
#715 = CARTESIAN_POINT ( 'NONE',  ( -55.00000000000129319, -48.40416029259169051, -14.00000000000000000 ) ) ;
#716 = PLANE ( 'NONE',  #1274 ) ;
#717 = VECTOR ( 'NONE', #423, 1000.000000000000000 ) ;
#718 = AXIS2_PLACEMENT_3D ( 'NONE', #973, #954, #362 ) ;
#719 = VERTEX_POINT ( 'NONE', #184 ) ;
#720 = DATE_TIME_ROLE ( 'creation_date' ) ;
#721 = CIRCLE ( 'NONE', #19, 2.700000000000001066 ) ;
#722 = CARTESIAN_POINT ( 'NONE',  ( -25.11334581156929957, -113.4041602925917118, -4.000000000000000000 ) ) ;
#723 = CARTESIAN_POINT ( 'NONE',  ( 49.99999999999869971, -43.40416029259172603, 6.000000000000000000 ) ) ;
#724 = VERTEX_POINT ( 'NONE', #876 ) ;
#725 = ORIENTED_EDGE ( 'NONE', *, *, #439, .F. ) ;
#726 = EDGE_CURVE ( 'NONE', #560, #1167, #694, .T. ) ;
#727 = PERSON_AND_ORGANIZATION_ROLE ( 'creator' ) ;
#728 = FACE_OUTER_BOUND ( 'NONE', #73, .T. ) ;
#729 = EDGE_CURVE ( 'NONE', #1023, #711, #52, .T. ) ;
#730 = LINE ( 'NONE', #939, #906 ) ;
#731 = DIRECTION ( 'NONE',  ( 0.000000000000000000, 0.000000000000000000, -1.000000000000000000 ) ) ;
#732 = ORIENTED_EDGE ( 'NONE', *, *, #116, .F. ) ;
#733 = AXIS2_PLACEMENT_3D ( 'NONE', #1017, #240, #537 ) ;
#734 = CARTESIAN_POINT ( 'NONE',  ( 44.99999999999869971, -48.40416029259169051, -4.000000000000000000 ) ) ;
#735 = CARTESIAN_POINT ( 'NONE',  ( 10.11334581156675405, -113.4041602925917118, 6.000000000000000000 ) ) ;
#736 = DIRECTION ( 'NONE',  ( -1.000000000000000000, 0.000000000000000000, 0.000000000000000000 ) ) ;
#737 = AXIS2_PLACEMENT_3D ( 'NONE', #781, #1170, #689 ) ;
#738 = ORIENTED_EDGE ( 'NONE', *, *, #904, .T. ) ;
#739 = CC_DESIGN_APPROVAL ( #747, ( #1111 ) ) ;
#740 = CALENDAR_DATE ( 2026, 22, 8 ) ;
#741 = FACE_OUTER_BOUND ( 'NONE', #205, .T. ) ;
#742 = EDGE_CURVE ( 'NONE', #1263, #499, #779, .T. ) ;
#743 = CARTESIAN_POINT ( 'NONE',  ( -32.81334581156930597, -73.40416029259171182, 6.000000000000000000 ) ) ;
#744 = CIRCLE ( 'NONE', #992, 2.700000000000004619 ) ;
#745 = DIRECTION ( 'NONE',  ( -1.000000000000000000, 0.000000000000000000, 0.000000000000000000 ) ) ;
#746 = EDGE_LOOP ( 'NONE', ( #879, #805 ) ) ;
#747 = APPROVAL ( #229, 'UNSPECIFIED' ) ;
#748 = CALENDAR_DATE ( 2026, 22, 8 ) ;
#749 = FACE_OUTER_BOUND ( 'NONE', #1031, .T. ) ;
#750 = ADVANCED_FACE ( 'NONE', ( #1077 ), #189, .F. ) ;
#751 = DIRECTION ( 'NONE',  ( -0.000000000000000000, -0.000000000000000000, -1.000000000000000000 ) ) ;
#752 = CARTESIAN_POINT ( 'NONE',  ( 49.99999999999869971, -93.40416029259171182, 6.000000000000000000 ) ) ;
#753 = ORIENTED_EDGE ( 'NONE', *, *, #1212, .T. ) ;
#754 = LINE ( 'NONE', #655, #1087 ) ;
#755 = CARTESIAN_POINT ( 'NONE',  ( -35.11334581156931023, -113.4041602925917118, -4.000000000000000000 ) ) ;
#756 = ORIENTED_EDGE ( 'NONE', *, *, #387, .F. ) ;
#757 = AXIS2_PLACEMENT_3D ( 'NONE', #1045, #440, #239 ) ;
#758 = EDGE_LOOP ( 'NONE', ( #927, #60 ) ) ;
#759 = AXIS2_PLACEMENT_3D ( 'NONE', #230, #350, #438 ) ;
#760 = LINE ( 'NONE', #960, #1027 ) ;
#761 = EDGE_CURVE ( 'NONE', #1009, #389, #505, .T. ) ;
#762 = EDGE_CURVE ( 'NONE', #1238, #259, #103, .T. ) ;
#763 = DIRECTION ( 'NONE',  ( 0.000000000000000000, -0.000000000000000000, 1.000000000000000000 ) ) ;
#764 = CIRCLE ( 'NONE', #492, 5.000000000000004441 ) ;
#765 = ORIENTED_EDGE ( 'NONE', *, *, #23, .T. ) ;
#766 = FACE_OUTER_BOUND ( 'NONE', #474, .T. ) ;
#767 = LINE ( 'NONE', #981, #114 ) ;
#768 = ADVANCED_FACE ( 'NONE', ( #995 ), #1103, .F. ) ;
#769 = VERTEX_POINT ( 'NONE', #219 ) ;
#770 = ORIENTED_EDGE ( 'NONE', *, *, #1219, .F. ) ;
#771 = FACE_OUTER_BOUND ( 'NONE', #1101, .T. ) ;
#772 = CARTESIAN_POINT ( 'NONE',  ( 5.113345811568039245, -73.40416029259174024, -4.000000000000000000 ) ) ;
#773 = DIRECTION ( 'NONE',  ( 0.000000000000000000, 0.000000000000000000, -1.000000000000000000 ) ) ;
#774 = PERSON ( 'UNSPECIFIED', 'UNSPECIFIED', 'UNSPECIFIED', ('UNSPECIFIED'), ('UNSPECIFIED'), ('UNSPECIFIED') ) ;
#775 = ORIENTED_EDGE ( 'NONE', *, *, #1012, .T. ) ;
#776 = EDGE_LOOP ( 'NONE', ( #559, #1201 ) ) ;
#777 = CARTESIAN_POINT ( 'NONE',  ( 0.000000000000000000, 0.000000000000000000, 6.000000000000000000 ) ) ;
#778 = DIRECTION ( 'NONE',  ( 0.000000000000000000, 0.000000000000000000, 1.000000000000000000 ) ) ;
#779 = CIRCLE ( 'NONE', #737, 5.000000000000004441 ) ;
#780 = CIRCLE ( 'NONE', #1266, 10.00000000000000178 ) ;
#781 = CARTESIAN_POINT ( 'NONE',  ( -30.11334581156930312, -73.40416029259171182, 0.000000000000000000 ) ) ;
#782 = ORIENTED_EDGE ( 'NONE', *, *, #452, .T. ) ;
#783 = EDGE_CURVE ( 'NONE', #449, #1165, #213, .T. ) ;
#784 = EDGE_CURVE ( 'NONE', #126, #982, #400, .T. ) ;
#785 = VERTEX_POINT ( 'NONE', #22 ) ;
#786 = DIRECTION ( 'NONE',  ( 0.000000000000000000, -0.000000000000000000, 1.000000000000000000 ) ) ;
#787 = DIRECTION ( 'NONE',  ( -0.000000000000000000, -0.000000000000000000, -1.000000000000000000 ) ) ;
#788 = CARTESIAN_POINT ( 'NONE',  ( 0.000000000000000000, 0.000000000000000000, 0.000000000000000000 ) ) ;
#789 = DIRECTION ( 'NONE',  ( -0.000000000000000000, -0.000000000000000000, -1.000000000000000000 ) ) ;
#790 = ORIENTED_EDGE ( 'NONE', *, *, #1217, .T. ) ;
#791 = VERTEX_POINT ( 'NONE', #818 ) ;
#792 =( NAMED_UNIT ( * ) PLANE_ANGLE_UNIT ( ) SI_UNIT ( $, .RADIAN. ) );
#793 = CARTESIAN_POINT ( 'NONE',  ( 12.81334581156675867, -113.4041602925917118, 6.000000000000000000 ) ) ;
#794 = DESIGN_CONTEXT ( 'detailed design', #622, 'design' ) ;
#795 = CYLINDRICAL_SURFACE ( 'NONE', #142, 4.999999999999999112 ) ;
#796 = ORIENTED_EDGE ( 'NONE', *, *, #384, .T. ) ;
#797 = ORIENTED_EDGE ( 'NONE', *, *, #857, .T. ) ;
#798 = CARTESIAN_POINT ( 'NONE',  ( -60.00000000000128608, -153.4041602925916834, -14.00000000000000000 ) ) ;
#799 = DIRECTION ( 'NONE',  ( 1.000000000000000000, 0.000000000000000000, -0.000000000000000000 ) ) ;
#800 = AXIS2_PLACEMENT_3D ( 'NONE', #735, #1147, #447 ) ;
#801 = ORGANIZATION ( 'UNSPECIFIED', 'UNSPECIFIED', '' ) ;
#802 = ADVANCED_FACE ( 'NONE', ( #291 ), #501, .F. ) ;
#803 = VECTOR ( 'NONE', #123, 1000.000000000000000 ) ;
#804 = DIRECTION ( 'NONE',  ( -0.000000000000000000, -0.000000000000000000, -1.000000000000000000 ) ) ;
#805 = ORIENTED_EDGE ( 'NONE', *, *, #1036, .T. ) ;
#806 = ORIENTED_EDGE ( 'NONE', *, *, #369, .T. ) ;
#807 = AXIS2_PLACEMENT_3D ( 'NONE', #24, #920, #515 ) ;
#808 = CARTESIAN_POINT ( 'NONE',  ( -55.00000000000129319, -138.4041602925916834, -14.00000000000000000 ) ) ;
#809 = DIRECTION ( 'NONE',  ( 1.000000000000000000, 0.000000000000000000, 0.000000000000000000 ) ) ;
#810 = ADVANCED_FACE ( 'NONE', ( #624 ), #14, .F. ) ;
#811 = CARTESIAN_POINT ( 'NONE',  ( 10.11334581156675405, -113.4041602925917118, 0.000000000000000000 ) ) ;
#812 = EDGE_LOOP ( 'NONE', ( #538, #797, #603, #242, #1074, #193, #617, #406 ) ) ;
#813 = ORIENTED_EDGE ( 'NONE', *, *, #1217, .F. ) ;
#814 = DIRECTION ( 'NONE',  ( 0.000000000000000000, 0.000000000000000000, -1.000000000000000000 ) ) ;
#815 = DIRECTION ( 'NONE',  ( -1.000000000000000000, 0.000000000000000000, 0.000000000000000000 ) ) ;
#816 = ORIENTED_EDGE ( 'NONE', *, *, #742, .T. ) ;
#817 = ORIENTED_EDGE ( 'NONE', *, *, #65, .T. ) ;
#818 = CARTESIAN_POINT ( 'NONE',  ( -70.00000000000129319, -143.4041602925917118, -14.00000000000000000 ) ) ;
#819 = AXIS2_PLACEMENT_3D ( 'NONE', #1237, #1041, #351 ) ;
#820 = CARTESIAN_POINT ( 'NONE',  ( -32.81334581156931307, -113.4041602925917118, 6.000000000000000000 ) ) ;
#821 = DIRECTION ( 'NONE',  ( 1.000000000000000000, -0.000000000000000000, 0.000000000000000000 ) ) ;
#822 = AXIS2_PLACEMENT_3D ( 'NONE', #700, #207, #8 ) ;
#823 = AXIS2_PLACEMENT_3D ( 'NONE', #1102, #1081, #1197 ) ;
#824 = ORIENTED_EDGE ( 'NONE', *, *, #877, .F. ) ;
#825 = ADVANCED_FACE ( 'NONE', ( #1091, #912 ), #612, .F. ) ;
#826 = DATE_AND_TIME ( #345, #376 ) ;
#827 = VECTOR ( 'NONE', #111, 1000.000000000000000 ) ;
#828 = DIRECTION ( 'NONE',  ( 0.000000000000000000, -1.000000000000000000, 0.000000000000000000 ) ) ;
#829 = CARTESIAN_POINT ( 'NONE',  ( -32.81334581156931307, -113.4041602925917118, 6.000000000000000000 ) ) ;
#830 = DIRECTION ( 'NONE',  ( -0.000000000000000000, -0.000000000000000000, -1.000000000000000000 ) ) ;
#831 = VERTEX_POINT ( 'NONE', #303 ) ;
#832 = COORDINATED_UNIVERSAL_TIME_OFFSET ( 0, 0, .AHEAD. ) ;
#833 = DIRECTION ( 'NONE',  ( -1.000000000000000000, 0.000000000000000000, 0.000000000000000000 ) ) ;
#834 = DIRECTION ( 'NONE',  ( 1.000000000000000000, 0.000000000000000000, 0.000000000000000000 ) ) ;
#835 = DIRECTION ( 'NONE',  ( 1.000000000000000000, 0.000000000000000000, 0.000000000000000000 ) ) ;
#836 = ORIENTED_EDGE ( 'NONE', *, *, #852, .T. ) ;
#837 = COORDINATED_UNIVERSAL_TIME_OFFSET ( 0, 0, .AHEAD. ) ;
#838 = CARTESIAN_POINT ( 'NONE',  ( -27.41334581156929673, -113.4041602925917118, 0.000000000000000000 ) ) ;
#839 = LINE ( 'NONE', #955, #313 ) ;
#840 = CC_DESIGN_PERSON_AND_ORGANIZATION_ASSIGNMENT ( #533, #727, ( #1111 ) ) ;
#841 = CARTESIAN_POINT ( 'NONE',  ( -65.00000000000129319, -148.4041602925916834, -14.00000000000000000 ) ) ;
#842 = VECTOR ( 'NONE', #587, 1000.000000000000000 ) ;
#843 = ORIENTED_EDGE ( 'NONE', *, *, #169, .T. ) ;
#844 = CIRCLE ( 'NONE', #1205, 2.700000000000004619 ) ;
#845 = FACE_BOUND ( 'NONE', #453, .T. ) ;
#846 = DIRECTION ( 'NONE',  ( -0.000000000000000000, -0.000000000000000000, -1.000000000000000000 ) ) ;
#847 = LINE ( 'NONE', #686, #1248 ) ;
#848 = ORIENTED_EDGE ( 'NONE', *, *, #23, .F. ) ;
#849 = PLANE ( 'NONE',  #1048 ) ;
#850 = DIRECTION ( 'NONE',  ( 1.000000000000000000, 0.000000000000000000, 0.000000000000000000 ) ) ;
#851 = VERTEX_POINT ( 'NONE', #1006 ) ;
#852 = EDGE_CURVE ( 'NONE', #769, #1023, #707, .T. ) ;
#853 = VECTOR ( 'NONE', #830, 1000.000000000000000 ) ;
#854 = DIRECTION ( 'NONE',  ( 1.000000000000000000, 0.000000000000000000, 0.000000000000000000 ) ) ;
#855 = DIRECTION ( 'NONE',  ( -1.000000000000000000, 0.000000000000000000, 0.000000000000000000 ) ) ;
#856 = ORIENTED_EDGE ( 'NONE', *, *, #472, .F. ) ;
#857 = EDGE_CURVE ( 'NONE', #1194, #791, #1030, .T. ) ;
#858 = AXIS2_PLACEMENT_3D ( 'NONE', #976, #473, #563 ) ;
#859 = CIRCLE ( 'NONE', #138, 10.00000000000000178 ) ;
#860 = ORIENTED_EDGE ( 'NONE', *, *, #647, .F. ) ;
#861 = CIRCLE ( 'NONE', #461, 4.999999999999999112 ) ;
#862 = EDGE_CURVE ( 'NONE', #1139, #588, #899, .T. ) ;
#863 = DIRECTION ( 'NONE',  ( 0.000000000000000000, 0.000000000000000000, 1.000000000000000000 ) ) ;
#864 = PLANE ( 'NONE',  #674 ) ;
#865 = CIRCLE ( 'NONE', #425, 2.700000000000001066 ) ;
#866 = VERTEX_POINT ( 'NONE', #3 ) ;
#867 = EDGE_LOOP ( 'NONE', ( #598, #703, #1222, #895 ) ) ;
#868 = FACE_OUTER_BOUND ( 'NONE', #428, .T. ) ;
#869 = CYLINDRICAL_SURFACE ( 'NONE', #468, 5.000000000000002665 ) ;
#870 = CARTESIAN_POINT ( 'NONE',  ( -27.41334581156929673, -113.4041602925917118, 6.000000000000000000 ) ) ;
#871 = DIRECTION ( 'NONE',  ( 0.000000000000000000, 0.000000000000000000, -1.000000000000000000 ) ) ;
#872 = VERTEX_POINT ( 'NONE', #386 ) ;
#873 = EDGE_LOOP ( 'NONE', ( #31, #518 ) ) ;
#874 = CARTESIAN_POINT ( 'NONE',  ( -30.11334581156930312, -113.4041602925917118, 0.000000000000000000 ) ) ;
#875 = DIRECTION ( 'NONE',  ( 1.000000000000000000, 0.000000000000000000, 0.000000000000000000 ) ) ;
#876 = CARTESIAN_POINT ( 'NONE',  ( -55.00000000000129319, -148.4041602925916834, -14.00000000000000000 ) ) ;
#877 = EDGE_CURVE ( 'NONE', #1238, #267, #1185, .T. ) ;
#878 = DIRECTION ( 'NONE',  ( -0.000000000000000000, -0.000000000000000000, 1.000000000000000000 ) ) ;
#879 = ORIENTED_EDGE ( 'NONE', *, *, #353, .T. ) ;
#880 = ORIENTED_EDGE ( 'NONE', *, *, #729, .F. ) ;
#881 = VECTOR ( 'NONE', #1021, 1000.000000000000000 ) ;
#882 = DIRECTION ( 'NONE',  ( 1.000000000000000000, 0.000000000000000000, 0.000000000000000000 ) ) ;
#883 = DIRECTION ( 'NONE',  ( -1.000000000000000000, 0.000000000000000000, 0.000000000000000000 ) ) ;
#884 = CIRCLE ( 'NONE', #315, 4.999999999999999112 ) ;
#885 = AXIS2_PLACEMENT_3D ( 'NONE', #187, #666, #284 ) ;
#886 = CARTESIAN_POINT ( 'NONE',  ( -30.11334581156930312, -113.4041602925917118, -4.000000000000000000 ) ) ;
#887 = VERTEX_POINT ( 'NONE', #520 ) ;
#888 = AXIS2_PLACEMENT_3D ( 'NONE', #484, #1169, #174 ) ;
#889 = ORIENTED_EDGE ( 'NONE', *, *, #64, .T. ) ;
#890 = VECTOR ( 'NONE', #835, 1000.000000000000000 ) ;
#891 = DIRECTION ( 'NONE',  ( 0.000000000000000000, 0.000000000000000000, 1.000000000000000000 ) ) ;
#892 = DIRECTION ( 'NONE',  ( -1.000000000000000000, 0.000000000000000000, 0.000000000000000000 ) ) ;
#893 = CARTESIAN_POINT ( 'NONE',  ( -70.00000000000129319, -43.40416029259172603, 6.000000000000000000 ) ) ;
#894 = CARTESIAN_POINT ( 'NONE',  ( 10.11334581156675405, -113.4041602925917118, -4.000000000000000000 ) ) ;
#895 = ORIENTED_EDGE ( 'NONE', *, *, #1256, .F. ) ;
#896 = EDGE_LOOP ( 'NONE', ( #504, #1049, #659, #909, #1189, #475, #836, #901 ) ) ;
#897 = EDGE_CURVE ( 'NONE', #45, #383, #918, .T. ) ;
#898 = PRODUCT_DEFINITION ( 'UNKNOWN', '', #1111, #794 ) ;
#899 = LINE ( 'NONE', #395, #463 ) ;
#900 = FACE_OUTER_BOUND ( 'NONE', #1094, .T. ) ;
#901 = ORIENTED_EDGE ( 'NONE', *, *, #729, .T. ) ;
#902 = EDGE_CURVE ( 'NONE', #646, #1155, #416, .T. ) ;
#903 = ORIENTED_EDGE ( 'NONE', *, *, #1246, .F. ) ;
#904 = EDGE_CURVE ( 'NONE', #872, #25, #1203, .T. ) ;
#905 = DIRECTION ( 'NONE',  ( 0.000000000000000000, 0.000000000000000000, -1.000000000000000000 ) ) ;
#906 = VECTOR ( 'NONE', #1129, 1000.000000000000000 ) ;
#907 = VECTOR ( 'NONE', #160, 1000.000000000000000 ) ;
#908 = CARTESIAN_POINT ( 'NONE',  ( 7.413345811566749433, -113.4041602925917118, 0.000000000000000000 ) ) ;
#909 = ORIENTED_EDGE ( 'NONE', *, *, #1145, .T. ) ;
#910 = ORIENTED_EDGE ( 'NONE', *, *, #384, .F. ) ;
#911 = DIRECTION ( 'NONE',  ( -0.000000000000000000, 0.000000000000000000, 1.000000000000000000 ) ) ;
#912 = FACE_OUTER_BOUND ( 'NONE', #1029, .T. ) ;
#913 = CARTESIAN_POINT ( 'NONE',  ( -35.11334581156931023, -113.4041602925917118, 0.000000000000000000 ) ) ;
#914 = ORIENTED_EDGE ( 'NONE', *, *, #342, .F. ) ;
#915 = ORIENTED_EDGE ( 'NONE', *, *, #704, .T. ) ;
#916 = EDGE_CURVE ( 'NONE', #288, #170, #1180, .T. ) ;
#917 = PERSON_AND_ORGANIZATION ( #774, #801 ) ;
#918 = LINE ( 'NONE', #793, #34 ) ;
#919 = ADVANCED_FACE ( 'NONE', ( #741 ), #629, .F. ) ;
#920 = DIRECTION ( 'NONE',  ( -0.000000000000000000, -0.000000000000000000, 1.000000000000000000 ) ) ;
#921 = DIRECTION ( 'NONE',  ( -0.000000000000000000, -0.000000000000000000, 1.000000000000000000 ) ) ;
#922 = ADVANCED_FACE ( 'NONE', ( #1051, #932 ), #254, .F. ) ;
#923 = ORIENTED_EDGE ( 'NONE', *, *, #1212, .F. ) ;
#924 = CARTESIAN_POINT ( 'NONE',  ( -30.11334581156930312, -73.40416029259171182, -4.000000000000000000 ) ) ;
#925 = CIRCLE ( 'NONE', #1225, 2.700000000000008171 ) ;
#926 = DIRECTION ( 'NONE',  ( 0.000000000000000000, 0.000000000000000000, -1.000000000000000000 ) ) ;
#927 = ORIENTED_EDGE ( 'NONE', *, *, #1132, .T. ) ;
#928 = AXIS2_PLACEMENT_3D ( 'NONE', #924, #1146, #1232 ) ;
#929 = APPROVAL_PERSON_ORGANIZATION ( #1024, #431, #443 ) ;
#930 = EDGE_LOOP ( 'NONE', ( #548, #738, #658, #663 ) ) ;
#931 = PERSON_AND_ORGANIZATION_ROLE ( 'classification_officer' ) ;
#932 = FACE_OUTER_BOUND ( 'NONE', #293, .T. ) ;
#933 = DIRECTION ( 'NONE',  ( 0.000000000000000000, -0.000000000000000000, 1.000000000000000000 ) ) ;
#934 = FACE_OUTER_BOUND ( 'NONE', #1078, .T. ) ;
#935 = ORIENTED_EDGE ( 'NONE', *, *, #667, .T. ) ;
#936 = EDGE_CURVE ( 'NONE', #1106, #499, #446, .T. ) ;
#937 = EDGE_CURVE ( 'NONE', #769, #1114, #244, .T. ) ;
#938 = CARTESIAN_POINT ( 'NONE',  ( 34.99999999999869971, -138.4041602925916834, -14.00000000000000000 ) ) ;
#939 = CARTESIAN_POINT ( 'NONE',  ( 34.99999999999869971, -148.4041602925916834, -14.00000000000000000 ) ) ;
#940 = CARTESIAN_POINT ( 'NONE',  ( -55.00000000000129319, -148.4041602925916834, -4.000000000000000000 ) ) ;
#941 = EDGE_LOOP ( 'NONE', ( #197, #442, #311, #1273 ) ) ;
#942 = ADVANCED_FACE ( 'NONE', ( #749 ), #143, .F. ) ;
#943 = CARTESIAN_POINT ( 'NONE',  ( -25.11334581156929957, -73.40416029259171182, -4.000000000000000000 ) ) ;
#944 = EDGE_CURVE ( 'NONE', #990, #993, #754, .T. ) ;
#945 = FACE_OUTER_BOUND ( 'NONE', #1056, .T. ) ;
#946 = VERTEX_POINT ( 'NONE', #642 ) ;
#947 = VECTOR ( 'NONE', #43, 1000.000000000000000 ) ;
#948 = ORIENTED_EDGE ( 'NONE', *, *, #1195, .T. ) ;
#949 = AXIS2_PLACEMENT_3D ( 'NONE', #572, #1254, #280 ) ;
#950 = CARTESIAN_POINT ( 'NONE',  ( 49.99999999999869971, -143.4041602925917118, 6.000000000000000000 ) ) ;
#951 = PRODUCT ( 'PlantCarriageTop', 'PlantCarriageTop', '', ( #1174 ) ) ;
#952 = DIRECTION ( 'NONE',  ( 1.000000000000000000, 0.000000000000000000, 0.000000000000000000 ) ) ;
#953 = ORIENTED_EDGE ( 'NONE', *, *, #330, .F. ) ;
#954 = DIRECTION ( 'NONE',  ( 0.000000000000000000, 0.000000000000000000, -1.000000000000000000 ) ) ;
#955 = CARTESIAN_POINT ( 'NONE',  ( 7.413345811568043509, -73.40416029259174024, 6.000000000000000000 ) ) ;
#956 = ADVANCED_FACE ( 'NONE', ( #159 ), #33, .F. ) ;
#957 = ORIENTED_EDGE ( 'NONE', *, *, #647, .T. ) ;
#958 = CC_DESIGN_DATE_AND_TIME_ASSIGNMENT ( #430, #234, ( #35 ) ) ;
#959 = EDGE_LOOP ( 'NONE', ( #85, #1144 ) ) ;
#960 = CARTESIAN_POINT ( 'NONE',  ( 12.81334581156804298, -73.40416029259174024, 6.000000000000000000 ) ) ;
#961 = CARTESIAN_POINT ( 'NONE',  ( 10.11334581156804369, -73.40416029259174024, 0.000000000000000000 ) ) ;
#962 = FACE_OUTER_BOUND ( 'NONE', #930, .T. ) ;
#963 = EDGE_LOOP ( 'NONE', ( #983, #84, #365, #1126 ) ) ;
#964 = AXIS2_PLACEMENT_3D ( 'NONE', #961, #1255, #1083 ) ;
#965 = CC_DESIGN_APPROVAL ( #595, ( #898 ) ) ;
#966 = VERTEX_POINT ( 'NONE', #838 ) ;
#967 = AXIS2_PLACEMENT_3D ( 'NONE', #148, #1025, #637 ) ;
#968 = CARTESIAN_POINT ( 'NONE',  ( 39.99999999999869260, -33.40416029259169051, -14.00000000000000000 ) ) ;
#969 = DIRECTION ( 'NONE',  ( 0.000000000000000000, 0.000000000000000000, -1.000000000000000000 ) ) ;
#970 = CARTESIAN_POINT ( 'NONE',  ( 0.000000000000000000, 0.000000000000000000, -14.00000000000000000 ) ) ;
#971 = AXIS2_PLACEMENT_3D ( 'NONE', #477, #891, #875 ) ;
#972 = ORIENTED_EDGE ( 'NONE', *, *, #338, .T. ) ;
#973 = CARTESIAN_POINT ( 'NONE',  ( 10.11334581156804369, -73.40416029259174024, 0.000000000000000000 ) ) ;
#974 = DIRECTION ( 'NONE',  ( 0.000000000000000000, 0.000000000000000000, -1.000000000000000000 ) ) ;
#975 = EDGE_CURVE ( 'NONE', #466, #170, #648, .T. ) ;
#976 = CARTESIAN_POINT ( 'NONE',  ( 10.11334581156675405, -113.4041602925917118, -4.000000000000000000 ) ) ;
#977 = DIRECTION ( 'NONE',  ( -0.000000000000000000, -0.000000000000000000, 1.000000000000000000 ) ) ;
#978 = EDGE_LOOP ( 'NONE', ( #732, #2, #101, #113 ) ) ;
#979 = DIRECTION ( 'NONE',  ( -0.000000000000000000, -0.000000000000000000, 1.000000000000000000 ) ) ;
#980 = DIRECTION ( 'NONE',  ( -1.000000000000000000, 0.000000000000000000, 0.000000000000000000 ) ) ;
#981 = CARTESIAN_POINT ( 'NONE',  ( 44.99999999999869971, -38.40416029259168340, -14.00000000000000000 ) ) ;
#982 = VERTEX_POINT ( 'NONE', #1044 ) ;
#983 = ORIENTED_EDGE ( 'NONE', *, *, #665, .T. ) ;
#984 = VECTOR ( 'NONE', #1192, 1000.000000000000000 ) ;
#985 = CYLINDRICAL_SURFACE ( 'NONE', #698, 10.00000000000000178 ) ;
#986 = AXIS2_PLACEMENT_3D ( 'NONE', #1187, #127, #403 ) ;
#987 = APPROVAL_PERSON_ORGANIZATION ( #1223, #747, #324 ) ;
#988 = CARTESIAN_POINT ( 'NONE',  ( -65.00000000000129319, -48.40416029259169051, -4.000000000000000000 ) ) ;
#989 = FACE_BOUND ( 'NONE', #758, .T. ) ;
#990 = VERTEX_POINT ( 'NONE', #734 ) ;
#991 = ADVANCED_FACE ( 'NONE', ( #728 ), #325, .T. ) ;
#992 = AXIS2_PLACEMENT_3D ( 'NONE', #811, #1214, #1093 ) ;
#993 = VERTEX_POINT ( 'NONE', #152 ) ;
#994 = CARTESIAN_POINT ( 'NONE',  ( 10.11334581156804369, -73.40416029259174024, 0.000000000000000000 ) ) ;
#995 = FACE_OUTER_BOUND ( 'NONE', #266, .T. ) ;
#996 = CARTESIAN_POINT ( 'NONE',  ( 44.99999999999869971, -48.40416029259169051, -14.00000000000000000 ) ) ;
#997 = ORIENTED_EDGE ( 'NONE', *, *, #1055, .F. ) ;
#998 = ADVANCED_FACE ( 'NONE', ( #1127 ), #136, .F. ) ;
#999 = ORIENTED_EDGE ( 'NONE', *, *, #937, .F. ) ;
#1000 = CARTESIAN_POINT ( 'NONE',  ( 44.99999999999869971, -148.4041602925916834, -14.00000000000000000 ) ) ;
#1001 = DIRECTION ( 'NONE',  ( -1.000000000000000000, 0.000000000000000000, 0.000000000000000000 ) ) ;
#1002 = DIRECTION ( 'NONE',  ( 0.000000000000000000, 0.000000000000000000, -1.000000000000000000 ) ) ;
#1003 = ORIENTED_EDGE ( 'NONE', *, *, #265, .F. ) ;
#1004 = ORIENTED_EDGE ( 'NONE', *, *, #1143, .T. ) ;
#1005 = LINE ( 'NONE', #1000, #488 ) ;
#1006 = CARTESIAN_POINT ( 'NONE',  ( 34.99999999999869971, -38.40416029259168340, -4.000000000000000000 ) ) ;
#1007 = CIRCLE ( 'NONE', #294, 10.00000000000000178 ) ;
#1008 = FACE_OUTER_BOUND ( 'NONE', #1119, .T. ) ;
#1009 = VERTEX_POINT ( 'NONE', #950 ) ;
#1010 = ORIENTED_EDGE ( 'NONE', *, *, #1068, .T. ) ;
#1011 = AXIS2_PLACEMENT_3D ( 'NONE', #1228, #731, #327 ) ;
#1012 = EDGE_CURVE ( 'NONE', #20, #25, #884, .T. ) ;
#1013 = APPROVAL_STATUS ( 'not_yet_approved' ) ;
#1014 = DIRECTION ( 'NONE',  ( -0.000000000000000000, -0.000000000000000000, 1.000000000000000000 ) ) ;
#1015 = EDGE_CURVE ( 'NONE', #364, #259, #256, .T. ) ;
#1016 = DIRECTION ( 'NONE',  ( 0.000000000000000000, 0.000000000000000000, 1.000000000000000000 ) ) ;
#1017 = CARTESIAN_POINT ( 'NONE',  ( 44.99999999999869971, -38.40416029259168340, -14.00000000000000000 ) ) ;
#1018 = ORIENTED_EDGE ( 'NONE', *, *, #108, .F. ) ;
#1019 = PERSON_AND_ORGANIZATION_ROLE ( 'design_supplier' ) ;
#1020 = CARTESIAN_POINT ( 'NONE',  ( 15.11334581156804546, -73.40416029259174024, -4.000000000000000000 ) ) ;
#1021 = DIRECTION ( 'NONE',  ( 0.000000000000000000, 0.000000000000000000, 1.000000000000000000 ) ) ;
#1022 = DIRECTION ( 'NONE',  ( 0.000000000000000000, 1.000000000000000000, 0.000000000000000000 ) ) ;
#1023 = VERTEX_POINT ( 'NONE', #1224 ) ;
#1024 = PERSON_AND_ORGANIZATION ( #774, #801 ) ;
#1025 = DIRECTION ( 'NONE',  ( 0.000000000000000000, -1.000000000000000000, 0.000000000000000000 ) ) ;
#1026 = CIRCLE ( 'NONE', #1264, 4.999999999999999112 ) ;
#1027 = VECTOR ( 'NONE', #660, 1000.000000000000000 ) ;
#1028 = LINE ( 'NONE', #139, #842 ) ;
#1029 = EDGE_LOOP ( 'NONE', ( #277, #816 ) ) ;
#1030 = CIRCLE ( 'NONE', #1131, 10.00000000000000178 ) ;
#1031 = EDGE_LOOP ( 'NONE', ( #360, #1250, #6, #683 ) ) ;
#1032 = ADVANCED_FACE ( 'NONE', ( #1218, #47, #51, #845, #450 ), #849, .T. ) ;
#1033 = CIRCLE ( 'NONE', #639, 5.000000000000004441 ) ;
#1034 = CARTESIAN_POINT ( 'NONE',  ( 10.11334581156675405, -113.4041602925917118, 0.000000000000000000 ) ) ;
#1035 = CARTESIAN_POINT ( 'NONE',  ( -30.11334581156930312, -113.4041602925917118, 0.000000000000000000 ) ) ;
#1036 = EDGE_CURVE ( 'NONE', #966, #651, #594, .T. ) ;
#1037 = CARTESIAN_POINT ( 'NONE',  ( 12.81334581156675867, -113.4041602925917118, 6.000000000000000000 ) ) ;
#1038 = VERTEX_POINT ( 'NONE', #1058 ) ;
#1039 = EDGE_CURVE ( 'NONE', #112, #1155, #1150, .T. ) ;
#1040 = DIRECTION ( 'NONE',  ( 0.000000000000000000, 0.000000000000000000, -1.000000000000000000 ) ) ;
#1041 = DIRECTION ( 'NONE',  ( 0.000000000000000000, 0.000000000000000000, -1.000000000000000000 ) ) ;
#1042 = DIRECTION ( 'NONE',  ( 0.000000000000000000, 0.000000000000000000, -1.000000000000000000 ) ) ;
#1043 = ORIENTED_EDGE ( 'NONE', *, *, #633, .F. ) ;
#1044 = CARTESIAN_POINT ( 'NONE',  ( -65.00000000000129319, -138.4041602925916834, -4.000000000000000000 ) ) ;
#1045 = CARTESIAN_POINT ( 'NONE',  ( -55.00000000000129319, -48.40416029259169051, -4.000000000000000000 ) ) ;
#1046 = CARTESIAN_POINT ( 'NONE',  ( 39.99999999999869260, -153.4041602925917118, 6.000000000000000000 ) ) ;
#1047 = CIRCLE ( 'NONE', #858, 4.999999999999999112 ) ;
#1048 = AXIS2_PLACEMENT_3D ( 'NONE', #1236, #678, #557 ) ;
#1049 = ORIENTED_EDGE ( 'NONE', *, *, #454, .T. ) ;
#1050 = AXIS2_PLACEMENT_3D ( 'NONE', #483, #86, #882 ) ;
#1051 = FACE_BOUND ( 'NONE', #627, .T. ) ;
#1052 = EDGE_CURVE ( 'NONE', #831, #349, #1172, .T. ) ;
#1053 = CIRCLE ( 'NONE', #971, 2.699999999999999289 ) ;
#1054 = CARTESIAN_POINT ( 'NONE',  ( 10.11334581156675405, -113.4041602925917118, 0.000000000000000000 ) ) ;
#1055 = EDGE_CURVE ( 'NONE', #25, #20, #861, .T. ) ;
#1056 = EDGE_LOOP ( 'NONE', ( #574, #671, #141, #1161 ) ) ;
#1057 = EDGE_LOOP ( 'NONE', ( #824, #1229 ) ) ;
#1058 = CARTESIAN_POINT ( 'NONE',  ( -27.41334581156930383, -73.40416029259171182, 6.000000000000000000 ) ) ;
#1059 = DIRECTION ( 'NONE',  ( -1.000000000000000000, 0.000000000000000000, -0.000000000000000000 ) ) ;
#1060 = EDGE_CURVE ( 'NONE', #164, #271, #760, .T. ) ;
#1061 = ORIENTED_EDGE ( 'NONE', *, *, #1159, .T. ) ;
#1062 = ORIENTED_EDGE ( 'NONE', *, *, #1159, .F. ) ;
#1063 = CARTESIAN_POINT ( 'NONE',  ( 10.11334581156675405, -113.4041602925917118, 6.000000000000000000 ) ) ;
#1064 = CARTESIAN_POINT ( 'NONE',  ( 15.11334581156804546, -73.40416029259174024, 0.000000000000000000 ) ) ;
#1065 = CARTESIAN_POINT ( 'NONE',  ( -60.00000000000129319, -153.4041602925917118, 6.000000000000000000 ) ) ;
#1066 = ORIENTED_EDGE ( 'NONE', *, *, #783, .F. ) ;
#1067 = VECTOR ( 'NONE', #402, 1000.000000000000000 ) ;
#1068 = EDGE_CURVE ( 'NONE', #851, #990, #780, .T. ) ;
#1069 = ORIENTED_EDGE ( 'NONE', *, *, #1132, .F. ) ;
#1070 = CARTESIAN_POINT ( 'NONE',  ( 7.413345811566749433, -113.4041602925917118, 6.000000000000000000 ) ) ;
#1071 = DIRECTION ( 'NONE',  ( -1.000000000000000000, 0.000000000000000000, 0.000000000000000000 ) ) ;
#1072 = DIRECTION ( 'NONE',  ( -0.000000000000000000, -0.000000000000000000, 1.000000000000000000 ) ) ;
#1073 = ADVANCED_FACE ( 'NONE', ( #1245, #1075, #75, #469, #561 ), #67, .T. ) ;
#1074 = ORIENTED_EDGE ( 'NONE', *, *, #330, .T. ) ;
#1075 = FACE_BOUND ( 'NONE', #1149, .T. ) ;
#1076 = FACE_OUTER_BOUND ( 'NONE', #165, .T. ) ;
#1077 = FACE_OUTER_BOUND ( 'NONE', #941, .T. ) ;
#1078 = EDGE_LOOP ( 'NONE', ( #314, #420 ) ) ;
#1079 = CARTESIAN_POINT ( 'NONE',  ( -25.11334581156929957, -73.40416029259171182, -4.000000000000000000 ) ) ;
#1080 = CARTESIAN_POINT ( 'NONE',  ( -25.11334581156929957, -113.4041602925917118, 0.000000000000000000 ) ) ;
#1081 = DIRECTION ( 'NONE',  ( 0.000000000000000000, 0.000000000000000000, -1.000000000000000000 ) ) ;
#1082 = EDGE_CURVE ( 'NONE', #45, #831, #844, .T. ) ;
#1083 = DIRECTION ( 'NONE',  ( -1.000000000000000000, 0.000000000000000000, 0.000000000000000000 ) ) ;
#1084 = ORIENTED_EDGE ( 'NONE', *, *, #554, .T. ) ;
#1085 = AXIS2_PLACEMENT_3D ( 'NONE', #44, #125, #434 ) ;
#1086 = ORIENTED_EDGE ( 'NONE', *, *, #353, .F. ) ;
#1087 = VECTOR ( 'NONE', #828, 1000.000000000000000 ) ;
#1088 = CC_DESIGN_APPROVAL ( #431, ( #35 ) ) ;
#1089 = DIRECTION ( 'NONE',  ( 0.000000000000000000, 0.000000000000000000, 1.000000000000000000 ) ) ;
#1090 = ADVANCED_FACE ( 'NONE', ( #868 ), #366, .F. ) ;
#1091 = FACE_BOUND ( 'NONE', #959, .T. ) ;
#1092 = ADVANCED_FACE ( 'NONE', ( #766 ), #268, .T. ) ;
#1093 = DIRECTION ( 'NONE',  ( 1.000000000000000000, 0.000000000000000000, 0.000000000000000000 ) ) ;
#1094 = EDGE_LOOP ( 'NONE', ( #529, #972, #370, #1003 ) ) ;
#1095 = CIRCLE ( 'NONE', #807, 10.00000000000000178 ) ;
#1096 = EDGE_LOOP ( 'NONE', ( #119, #623, #1160, #1154 ) ) ;
#1097 = PERSON_AND_ORGANIZATION ( #774, #801 ) ;
#1098 = CARTESIAN_POINT ( 'NONE',  ( -30.11334581156930312, -113.4041602925917118, -4.000000000000000000 ) ) ;
#1099 = CARTESIAN_POINT ( 'NONE',  ( -30.11334581156930312, -73.40416029259171182, 0.000000000000000000 ) ) ;
#1100 = ORIENTED_EDGE ( 'NONE', *, *, #1219, .T. ) ;
#1101 = EDGE_LOOP ( 'NONE', ( #880, #597, #457, #664 ) ) ;
#1102 = CARTESIAN_POINT ( 'NONE',  ( -30.11334581156930312, -73.40416029259171182, -4.000000000000000000 ) ) ;
#1103 = CYLINDRICAL_SURFACE ( 'NONE', #986, 2.700000000000004619 ) ;
#1104 = ADVANCED_FACE ( 'NONE', ( #568 ), #685, .F. ) ;
#1105 = DIRECTION ( 'NONE',  ( 1.000000000000000000, 0.000000000000000000, -0.000000000000000000 ) ) ;
#1106 = VERTEX_POINT ( 'NONE', #1079 ) ;
#1107 = ORIENTED_EDGE ( 'NONE', *, *, #298, .T. ) ;
#1108 = DIRECTION ( 'NONE',  ( -1.000000000000000000, 0.000000000000000000, 0.000000000000000000 ) ) ;
#1109 = CARTESIAN_POINT ( 'NONE',  ( 0.000000000000000000, 0.000000000000000000, 0.000000000000000000 ) ) ;
#1110 = VECTOR ( 'NONE', #789, 1000.000000000000000 ) ;
#1111 = PRODUCT_DEFINITION_FORMATION_WITH_SPECIFIED_SOURCE ( 'ANY', '', #951, .NOT_KNOWN. ) ;
#1112 = DIRECTION ( 'NONE',  ( -0.000000000000000000, -0.000000000000000000, 1.000000000000000000 ) ) ;
#1113 = CARTESIAN_POINT ( 'NONE',  ( 15.11334581156675405, -113.4041602925917118, 0.000000000000000000 ) ) ;
#1114 = VERTEX_POINT ( 'NONE', #968 ) ;
#1115 = DATE_AND_TIME ( #740, #550 ) ;
#1116 = DIRECTION ( 'NONE',  ( -0.000000000000000000, -0.000000000000000000, 1.000000000000000000 ) ) ;
#1117 = PLANE ( 'NONE',  #419 ) ;
#1118 = LINE ( 'NONE', #341, #890 ) ;
#1119 = EDGE_LOOP ( 'NONE', ( #222, #435, #690, #999 ) ) ;
#1120 = PERSON_AND_ORGANIZATION ( #774, #801 ) ;
#1121 = DIRECTION ( 'NONE',  ( -0.000000000000000000, -0.000000000000000000, 1.000000000000000000 ) ) ;
#1122 = ADVANCED_FACE ( 'NONE', ( #771 ), #1162, .T. ) ;
#1123 = CARTESIAN_POINT ( 'NONE',  ( 10.11334581156675405, -113.4041602925917118, -4.000000000000000000 ) ) ;
#1124 = CC_DESIGN_PERSON_AND_ORGANIZATION_ASSIGNMENT ( #917, #1019, ( #1111 ) ) ;
#1125 = DIRECTION ( 'NONE',  ( 0.000000000000000000, -0.000000000000000000, 1.000000000000000000 ) ) ;
#1126 = ORIENTED_EDGE ( 'NONE', *, *, #387, .T. ) ;
#1127 = FACE_OUTER_BOUND ( 'NONE', #634, .T. ) ;
#1128 = AXIS2_PLACEMENT_3D ( 'NONE', #299, #804, #396 ) ;
#1129 = DIRECTION ( 'NONE',  ( 0.000000000000000000, -0.000000000000000000, -1.000000000000000000 ) ) ;
#1130 = PLANE ( 'NONE',  #1085 ) ;
#1131 = AXIS2_PLACEMENT_3D ( 'NONE', #619, #117, #410 ) ;
#1132 = EDGE_CURVE ( 'NONE', #378, #271, #571, .T. ) ;
#1133 = VERTEX_POINT ( 'NONE', #1268 ) ;
#1134 = SHAPE_DEFINITION_REPRESENTATION ( #618, #16 ) ;
#1135 = VECTOR ( 'NONE', #36, 1000.000000000000000 ) ;
#1136 = DIRECTION ( 'NONE',  ( -0.000000000000000000, -0.000000000000000000, 1.000000000000000000 ) ) ;
#1137 = LINE ( 'NONE', #245, #549 ) ;
#1138 = FACE_BOUND ( 'NONE', #746, .T. ) ;
#1139 = VERTEX_POINT ( 'NONE', #379 ) ;
#1140 = DIRECTION ( 'NONE',  ( 0.000000000000000000, -0.000000000000000000, 1.000000000000000000 ) ) ;
#1141 = CARTESIAN_POINT ( 'NONE',  ( -55.00000000000129319, -38.40416029259168340, -4.000000000000000000 ) ) ;
#1142 = CYLINDRICAL_SURFACE ( 'NONE', #39, 2.699999999999999289 ) ;
#1143 = EDGE_CURVE ( 'NONE', #283, #334, #509, .T. ) ;
#1144 = ORIENTED_EDGE ( 'NONE', *, *, #265, .T. ) ;
#1145 = EDGE_CURVE ( 'NONE', #170, #1009, #654, .T. ) ;
#1146 = DIRECTION ( 'NONE',  ( -0.000000000000000000, -0.000000000000000000, 1.000000000000000000 ) ) ;
#1147 = DIRECTION ( 'NONE',  ( -0.000000000000000000, -0.000000000000000000, -1.000000000000000000 ) ) ;
#1148 = AXIS2_PLACEMENT_3D ( 'NONE', #1098, #814, #513 ) ;
#1149 = EDGE_LOOP ( 'NONE', ( #914, #66 ) ) ;
#1150 = CIRCLE ( 'NONE', #718, 5.000000000000003553 ) ;
#1151 = DIRECTION ( 'NONE',  ( 1.000000000000000000, 0.000000000000000000, 0.000000000000000000 ) ) ;
#1152 = VECTOR ( 'NONE', #118, 1000.000000000000000 ) ;
#1153 = LINE ( 'NONE', #1065, #487 ) ;
#1154 = ORIENTED_EDGE ( 'NONE', *, *, #1039, .F. ) ;
#1155 = VERTEX_POINT ( 'NONE', #1064 ) ;
#1156 = DIRECTION ( 'NONE',  ( 0.000000000000000000, 0.000000000000000000, 1.000000000000000000 ) ) ;
#1157 = DIRECTION ( 'NONE',  ( 1.000000000000000000, 0.000000000000000000, 0.000000000000000000 ) ) ;
#1158 = CARTESIAN_POINT ( 'NONE',  ( 39.99999999999869971, -143.4041602925917118, -14.00000000000000000 ) ) ;
#1159 = EDGE_CURVE ( 'NONE', #283, #966, #167, .T. ) ;
#1160 = ORIENTED_EDGE ( 'NONE', *, *, #902, .T. ) ;
#1161 = ORIENTED_EDGE ( 'NONE', *, *, #498, .F. ) ;
#1162 = CYLINDRICAL_SURFACE ( 'NONE', #616, 10.00000000000000178 ) ;
#1163 = LINE ( 'NONE', #590, #555 ) ;
#1164 = CARTESIAN_POINT ( 'NONE',  ( 34.99999999999869971, -138.4041602925916834, -14.00000000000000000 ) ) ;
#1165 = VERTEX_POINT ( 'NONE', #263 ) ;
#1166 = ADVANCED_FACE ( 'NONE', ( #580 ), #175, .F. ) ;
#1167 = VERTEX_POINT ( 'NONE', #680 ) ;
#1168 = DIRECTION ( 'NONE',  ( 1.000000000000000000, 0.000000000000000000, 0.000000000000000000 ) ) ;
#1169 = DIRECTION ( 'NONE',  ( 0.000000000000000000, 0.000000000000000000, 1.000000000000000000 ) ) ;
#1170 = DIRECTION ( 'NONE',  ( 0.000000000000000000, 0.000000000000000000, -1.000000000000000000 ) ) ;
#1171 = ORIENTED_EDGE ( 'NONE', *, *, #937, .T. ) ;
#1172 = LINE ( 'NONE', #1070, #399 ) ;
#1173 = CARTESIAN_POINT ( 'NONE',  ( 10.11334581156804369, -73.40416029259174024, -4.000000000000000000 ) ) ;
#1174 = MECHANICAL_CONTEXT ( 'NONE', #643, 'mechanical' ) ;
#1175 = CARTESIAN_POINT ( 'NONE',  ( -55.00000000000129319, -148.4041602925916834, -4.000000000000000000 ) ) ;
#1176 = ORIENTED_EDGE ( 'NONE', *, *, #1039, .T. ) ;
#1177 = ORIENTED_EDGE ( 'NONE', *, *, #436, .T. ) ;
#1178 = CARTESIAN_POINT ( 'NONE',  ( 44.99999999999869971, -148.4041602925916834, -4.000000000000000000 ) ) ;
#1179 = EDGE_CURVE ( 'NONE', #1009, #588, #512, .T. ) ;
#1180 = LINE ( 'NONE', #693, #717 ) ;
#1181 = ORIENTED_EDGE ( 'NONE', *, *, #852, .F. ) ;
#1182 = EDGE_LOOP ( 'NONE', ( #107, #343, #856, #923 ) ) ;
#1183 = VECTOR ( 'NONE', #48, 1000.000000000000000 ) ;
#1184 = AXIS2_PLACEMENT_3D ( 'NONE', #1239, #462, #1157 ) ;
#1185 = CIRCLE ( 'NONE', #1148, 5.000000000000004441 ) ;
#1186 = DIRECTION ( 'NONE',  ( 1.000000000000000000, 0.000000000000000000, 0.000000000000000000 ) ) ;
#1187 = CARTESIAN_POINT ( 'NONE',  ( 10.11334581156675405, -113.4041602925917118, 6.000000000000000000 ) ) ;
#1188 = LINE ( 'NONE', #59, #357 ) ;
#1189 = ORIENTED_EDGE ( 'NONE', *, *, #761, .T. ) ;
#1190 = ORIENTED_EDGE ( 'NONE', *, *, #936, .F. ) ;
#1191 = DIRECTION ( 'NONE',  ( -0.000000000000000000, -0.000000000000000000, 1.000000000000000000 ) ) ;
#1192 = DIRECTION ( 'NONE',  ( -0.000000000000000000, -0.000000000000000000, 1.000000000000000000 ) ) ;
#1193 = DIRECTION ( 'NONE',  ( 1.000000000000000000, 0.000000000000000000, 0.000000000000000000 ) ) ;
#1194 = VERTEX_POINT ( 'NONE', #798 ) ;
#1195 = EDGE_CURVE ( 'NONE', #614, #1023, #500, .T. ) ;
#1196 = EDGE_LOOP ( 'NONE', ( #813, #583, #190, #1043 ) ) ;
#1197 = DIRECTION ( 'NONE',  ( -1.000000000000000000, 0.000000000000000000, 0.000000000000000000 ) ) ;
#1198 = DIRECTION ( 'NONE',  ( 0.000000000000000000, -0.000000000000000000, 1.000000000000000000 ) ) ;
#1199 = DIRECTION ( 'NONE',  ( -1.000000000000000000, 0.000000000000000000, 0.000000000000000000 ) ) ;
#1200 = CARTESIAN_POINT ( 'NONE',  ( 5.113345811566754939, -113.4041602925917118, 0.000000000000000000 ) ) ;
#1201 = ORIENTED_EDGE ( 'NONE', *, *, #1143, .F. ) ;
#1202 = AXIS2_PLACEMENT_3D ( 'NONE', #1164, #681, #274 ) ;
#1203 = LINE ( 'NONE', #319, #238 ) ;
#1204 = AXIS2_PLACEMENT_3D ( 'NONE', #874, #863, #1151 ) ;
#1205 = AXIS2_PLACEMENT_3D ( 'NONE', #1063, #1156, #1168 ) ;
#1206 = CARTESIAN_POINT ( 'NONE',  ( -30.11334581156930312, -73.40416029259171182, 6.000000000000000000 ) ) ;
#1207 = VERTEX_POINT ( 'NONE', #393 ) ;
#1208 = ORIENTED_EDGE ( 'NONE', *, *, #342, .T. ) ;
#1209 = AXIS2_PLACEMENT_3D ( 'NONE', #613, #17, #129 ) ;
#1210 = EDGE_CURVE ( 'NONE', #560, #724, #1005, .T. ) ;
#1211 = CALENDAR_DATE ( 2026, 22, 8 ) ;
#1212 = EDGE_CURVE ( 'NONE', #946, #1235, #600, .T. ) ;
#1213 = CARTESIAN_POINT ( 'NONE',  ( 39.99999999999869260, -153.4041602925917118, 6.000000000000000000 ) ) ;
#1214 = DIRECTION ( 'NONE',  ( 0.000000000000000000, 0.000000000000000000, 1.000000000000000000 ) ) ;
#1215 = PLANE ( 'NONE',  #733 ) ;
#1216 = ORIENTED_EDGE ( 'NONE', *, *, #862, .F. ) ;
#1217 = EDGE_CURVE ( 'NONE', #866, #724, #859, .T. ) ;
#1218 = FACE_OUTER_BOUND ( 'NONE', #523, .T. ) ;
#1219 = EDGE_CURVE ( 'NONE', #1106, #467, #236, .T. ) ;
#1220 = DIRECTION ( 'NONE',  ( 0.000000000000000000, -0.000000000000000000, 1.000000000000000000 ) ) ;
#1221 = DIRECTION ( 'NONE',  ( 0.000000000000000000, 0.000000000000000000, -1.000000000000000000 ) ) ;
#1222 = ORIENTED_EDGE ( 'NONE', *, *, #479, .T. ) ;
#1223 = PERSON_AND_ORGANIZATION ( #774, #801 ) ;
#1224 = CARTESIAN_POINT ( 'NONE',  ( -60.00000000000128608, -33.40416029259172603, 6.000000000000000000 ) ) ;
#1225 = AXIS2_PLACEMENT_3D ( 'NONE', #451, #331, #850 ) ;
#1226 = AXIS2_PLACEMENT_3D ( 'NONE', #808, #692, #892 ) ;
#1227 = LINE ( 'NONE', #156, #1183 ) ;
#1228 = CARTESIAN_POINT ( 'NONE',  ( 10.11334581156804369, -73.40416029259174024, -4.000000000000000000 ) ) ;
#1229 = ORIENTED_EDGE ( 'NONE', *, *, #332, .F. ) ;
#1230 = APPROVAL_ROLE ( '' ) ;
#1231 = CIRCLE ( 'NONE', #1209, 2.700000000000008171 ) ;
#1232 = DIRECTION ( 'NONE',  ( 1.000000000000000000, 0.000000000000000000, 0.000000000000000000 ) ) ;
#1233 = CYLINDRICAL_SURFACE ( 'NONE', #235, 2.700000000000008171 ) ;
#1234 = LINE ( 'NONE', #772, #361 ) ;
#1235 = VERTEX_POINT ( 'NONE', #988 ) ;
#1236 = CARTESIAN_POINT ( 'NONE',  ( 0.000000000000000000, 0.000000000000000000, -4.000000000000000000 ) ) ;
#1237 = CARTESIAN_POINT ( 'NONE',  ( 39.99999999999869971, -43.40416029259172603, -14.00000000000000000 ) ) ;
#1238 = VERTEX_POINT ( 'NONE', #307 ) ;
#1239 = CARTESIAN_POINT ( 'NONE',  ( 39.99999999999869971, -143.4041602925917118, 6.000000000000000000 ) ) ;
#1240 = DIRECTION ( 'NONE',  ( 0.000000000000000000, 0.000000000000000000, -1.000000000000000000 ) ) ;
#1241 = VECTOR ( 'NONE', #90, 1000.000000000000000 ) ;
#1242 = VECTOR ( 'NONE', #339, 1000.000000000000000 ) ;
#1243 = ORIENTED_EDGE ( 'NONE', *, *, #309, .F. ) ;
#1244 = CC_DESIGN_SECURITY_CLASSIFICATION ( #35, ( #1111 ) ) ;
#1245 = FACE_BOUND ( 'NONE', #873, .T. ) ;
#1246 = EDGE_CURVE ( 'NONE', #1133, #126, #712, .T. ) ;
#1247 = ADVANCED_FACE ( 'NONE', ( #408 ), #198, .F. ) ;
#1248 = VECTOR ( 'NONE', #76, 1000.000000000000000 ) ;
#1249 = FACE_BOUND ( 'NONE', #691, .T. ) ;
#1250 = ORIENTED_EDGE ( 'NONE', *, *, #670, .T. ) ;
#1251 = ORIENTED_EDGE ( 'NONE', *, *, #761, .F. ) ;
#1252 = DIRECTION ( 'NONE',  ( 1.000000000000000000, 0.000000000000000000, 0.000000000000000000 ) ) ;
#1253 = FACE_OUTER_BOUND ( 'NONE', #516, .T. ) ;
#1254 = DIRECTION ( 'NONE',  ( -0.000000000000000000, -0.000000000000000000, -1.000000000000000000 ) ) ;
#1255 = DIRECTION ( 'NONE',  ( 0.000000000000000000, 0.000000000000000000, -1.000000000000000000 ) ) ;
#1256 = EDGE_CURVE ( 'NONE', #271, #378, #115, .T. ) ;
#1257 = ORIENTED_EDGE ( 'NONE', *, *, #413, .T. ) ;
#1258 = ORIENTED_EDGE ( 'NONE', *, *, #292, .F. ) ;
#1259 = DIRECTION ( 'NONE',  ( -0.000000000000000000, -0.000000000000000000, -1.000000000000000000 ) ) ;
#1260 = CARTESIAN_POINT ( 'NONE',  ( -30.11334581156930312, -73.40416029259171182, 0.000000000000000000 ) ) ;
#1261 = DIRECTION ( 'NONE',  ( 0.000000000000000000, -0.000000000000000000, 1.000000000000000000 ) ) ;
#1262 = DIRECTION ( 'NONE',  ( 1.000000000000000000, 0.000000000000000000, 0.000000000000000000 ) ) ;
#1263 = VERTEX_POINT ( 'NONE', #611 ) ;
#1264 = AXIS2_PLACEMENT_3D ( 'NONE', #1123, #1240, #656 ) ;
#1265 = AXIS2_PLACEMENT_3D ( 'NONE', #970, #871, #1059 ) ;
#1266 = AXIS2_PLACEMENT_3D ( 'NONE', #372, #166, #173 ) ;
#1267 = ORIENTED_EDGE ( 'NONE', *, *, #539, .T. ) ;
#1268 = CARTESIAN_POINT ( 'NONE',  ( 34.99999999999869971, -148.4041602925916834, -4.000000000000000000 ) ) ;
#1269 = CARTESIAN_POINT ( 'NONE',  ( 10.11334581156804369, -73.40416029259174024, -4.000000000000000000 ) ) ;
#1270 = CARTESIAN_POINT ( 'NONE',  ( -65.00000000000129319, -48.40416029259169051, -4.000000000000000000 ) ) ;
#1271 = DIRECTION ( 'NONE',  ( -0.000000000000000000, -0.000000000000000000, 1.000000000000000000 ) ) ;
#1272 = AXIS2_PLACEMENT_3D ( 'NONE', #752, #1071, #87 ) ;
#1273 = ORIENTED_EDGE ( 'NONE', *, *, #1015, .F. ) ;
#1274 = AXIS2_PLACEMENT_3D ( 'NONE', #527, #49, #1125 ) ;
#1275 = EDGE_CURVE ( 'NONE', #887, #164, #422, .T. ) ;
ENDSEC;
END-ISO-10303-21;
