ISO-10303-21;
HEADER;
FILE_DESCRIPTION (( 'STEP AP203' ),
    '1' );
FILE_NAME ('StandMotor.step',
    '2026-08-22T11:38:58',
    ( '' ),
    ( '' ),
    'SwSTEP 2.0',
    'SolidWorks 2026',
    '' );
FILE_SCHEMA (( 'CONFIG_CONTROL_DESIGN' ));
ENDSEC;

DATA;
#1 = DIRECTION ( 'NONE',  ( 1.239088197126290570E-16, -1.000000000000000000, 0.000000000000000000 ) ) ;
#2 = EDGE_CURVE ( 'NONE', #223, #755, #275, .T. ) ;
#3 = ORIENTED_EDGE ( 'NONE', *, *, #158, .T. ) ;
#4 = ORIENTED_EDGE ( 'NONE', *, *, #420, .T. ) ;
#5 = CARTESIAN_POINT ( 'NONE',  ( -0.4999999999999935052, -25.50000000000000355, 20.00000000000000000 ) ) ;
#6 = DIRECTION ( 'NONE',  ( 1.000000000000000000, 1.360567432138672328E-16, -0.000000000000000000 ) ) ;
#7 = VERTEX_POINT ( 'NONE', #366 ) ;
#8 = EDGE_LOOP ( 'NONE', ( #22, #970, #1041, #795 ) ) ;
#9 = DIRECTION ( 'NONE',  ( -0.000000000000000000, -0.000000000000000000, 1.000000000000000000 ) ) ;
#10 = VECTOR ( 'NONE', #846, 1000.000000000000000 ) ;
#11 = VECTOR ( 'NONE', #917, 1000.000000000000000 ) ;
#12 = CARTESIAN_POINT ( 'NONE',  ( 45.50000000000000711, -25.50000000000000355, 40.00000000000000711 ) ) ;
#13 = VECTOR ( 'NONE', #946, 1000.000000000000000 ) ;
#14 = EDGE_LOOP ( 'NONE', ( #625, #789, #949, #332, #264, #1121, #839, #287 ) ) ;
#15 = EDGE_CURVE ( 'NONE', #18, #588, #722, .T. ) ;
#16 = CARTESIAN_POINT ( 'NONE',  ( 0.000000000000000000, -32.50000000000000000, 0.000000000000000000 ) ) ;
#17 = DIRECTION ( 'NONE',  ( -1.000000000000000000, 0.000000000000000000, 0.000000000000000000 ) ) ;
#18 = VERTEX_POINT ( 'NONE', #375 ) ;
#19 = FACE_OUTER_BOUND ( 'NONE', #1158, .T. ) ;
#20 = CC_DESIGN_PERSON_AND_ORGANIZATION_ASSIGNMENT ( #62, #240, ( #1071 ) ) ;
#21 = FACE_OUTER_BOUND ( 'NONE', #211, .T. ) ;
#22 = ORIENTED_EDGE ( 'NONE', *, *, #225, .T. ) ;
#23 = DIRECTION ( 'NONE',  ( -1.000000000000000000, 0.000000000000000000, 0.000000000000000000 ) ) ;
#24 = VERTEX_POINT ( 'NONE', #730 ) ;
#25 = VECTOR ( 'NONE', #144, 1000.000000000000000 ) ;
#26 = CARTESIAN_POINT ( 'NONE',  ( 30.50000000000000711, 7.450000000000000178, 10.00000000000000000 ) ) ;
#27 = EDGE_CURVE ( 'NONE', #742, #206, #182, .T. ) ;
#28 = VECTOR ( 'NONE', #1030, 1000.000000000000000 ) ;
#29 = AXIS2_PLACEMENT_3D ( 'NONE', #1088, #17, #114 ) ;
#30 = DIRECTION ( 'NONE',  ( 0.000000000000000000, 0.000000000000000000, -1.000000000000000000 ) ) ;
#31 = ORIENTED_EDGE ( 'NONE', *, *, #324, .F. ) ;
#32 = FACE_BOUND ( 'NONE', #1080, .T. ) ;
#33 = LINE ( 'NONE', #494, #10 ) ;
#34 = FACE_OUTER_BOUND ( 'NONE', #399, .T. ) ;
#35 = EDGE_CURVE ( 'NONE', #751, #700, #555, .T. ) ;
#36 = DIRECTION ( 'NONE',  ( 0.000000000000000000, 0.000000000000000000, 1.000000000000000000 ) ) ;
#37 = VERTEX_POINT ( 'NONE', #817 ) ;
#38 = DIRECTION ( 'NONE',  ( -1.239088197126290570E-16, 1.000000000000000000, 0.000000000000000000 ) ) ;
#39 = LINE ( 'NONE', #239, #337 ) ;
#40 = CARTESIAN_POINT ( 'NONE',  ( -20.49999999999999645, -2.000000000000008882, 20.00000000000000000 ) ) ;
#41 = ORIENTED_EDGE ( 'NONE', *, *, #774, .F. ) ;
#42 = APPLICATION_CONTEXT ( 'configuration controlled 3d designs of mechanical parts and assemblies' ) ;
#43 = LINE ( 'NONE', #217, #786 ) ;
#44 = LINE ( 'NONE', #1125, #167 ) ;
#45 = CIRCLE ( 'NONE', #746, 2.550000000000000266 ) ;
#46 = DIRECTION ( 'NONE',  ( -1.000000000000000000, 0.000000000000000000, 0.000000000000000000 ) ) ;
#47 = VECTOR ( 'NONE', #99, 1000.000000000000000 ) ;
#48 = ORIENTED_EDGE ( 'NONE', *, *, #1044, .T. ) ;
#49 = VECTOR ( 'NONE', #826, 1000.000000000000000 ) ;
#50 = AXIS2_PLACEMENT_3D ( 'NONE', #615, #522, #604 ) ;
#51 = CARTESIAN_POINT ( 'NONE',  ( -0.5000000000000004441, 9.999999999999994671, 10.00000000000000000 ) ) ;
#52 = CARTESIAN_POINT ( 'NONE',  ( 40.50000000000000711, -32.50000000000000000, 45.00000000000001421 ) ) ;
#53 = ADVANCED_FACE ( 'NONE', ( #1114, #412 ), #778, .F. ) ;
#54 = DIRECTION ( 'NONE',  ( -1.000000000000000000, -0.000000000000000000, -0.000000000000000000 ) ) ;
#55 = DIRECTION ( 'NONE',  ( 0.000000000000000000, 0.000000000000000000, -1.000000000000000000 ) ) ;
#56 = EDGE_LOOP ( 'NONE', ( #518, #616, #556, #873 ) ) ;
#57 = ORIENTED_EDGE ( 'NONE', *, *, #331, .F. ) ;
#58 = CARTESIAN_POINT ( 'NONE',  ( -0.4999999999999970024, 2.999999999999999112, 20.00000000000000000 ) ) ;
#59 = CARTESIAN_POINT ( 'NONE',  ( -0.5000000000000004441, 7.449999999999994849, 10.00000000000000000 ) ) ;
#60 = CARTESIAN_POINT ( 'NONE',  ( -10.49999999999999822, 9.999999999999994671, 10.00000000000000000 ) ) ;
#61 = CC_DESIGN_DATE_AND_TIME_ASSIGNMENT ( #521, #256, ( #1071 ) ) ;
#62 = PERSON_AND_ORGANIZATION ( #685, #531 ) ;
#63 = CARTESIAN_POINT ( 'NONE',  ( 45.50000000000000711, -35.50000000000000711, 130.0000000000000000 ) ) ;
#64 = ORIENTED_EDGE ( 'NONE', *, *, #1145, .T. ) ;
#65 = ORIENTED_EDGE ( 'NONE', *, *, #404, .F. ) ;
#66 = DIRECTION ( 'NONE',  ( -0.000000000000000000, -0.000000000000000000, 1.000000000000000000 ) ) ;
#67 = CALENDAR_DATE ( 2026, 22, 8 ) ;
#68 = DIRECTION ( 'NONE',  ( 1.734723475976807094E-16, -1.000000000000000000, 0.000000000000000000 ) ) ;
#69 = EDGE_CURVE ( 'NONE', #155, #135, #654, .T. ) ;
#70 = ORIENTED_EDGE ( 'NONE', *, *, #2, .T. ) ;
#71 = VECTOR ( 'NONE', #960, 1000.000000000000000 ) ;
#72 = AXIS2_PLACEMENT_3D ( 'NONE', #208, #1099, #191 ) ;
#73 = CIRCLE ( 'NONE', #244, 5.000000000000000888 ) ;
#74 = DIRECTION ( 'NONE',  ( 0.000000000000000000, 0.000000000000000000, -1.000000000000000000 ) ) ;
#75 = PERSON_AND_ORGANIZATION_ROLE ( 'design_supplier' ) ;
#76 = CARTESIAN_POINT ( 'NONE',  ( -20.49999999999999645, -2.000000000000008882, 32.00000000000000000 ) ) ;
#77 = VERTEX_POINT ( 'NONE', #419 ) ;
#78 = EDGE_CURVE ( 'NONE', #295, #742, #308, .T. ) ;
#79 = ORIENTED_EDGE ( 'NONE', *, *, #502, .F. ) ;
#80 = PLANE ( 'NONE',  #715 ) ;
#81 = LINE ( 'NONE', #872, #416 ) ;
#82 = EDGE_LOOP ( 'NONE', ( #655, #370, #431, #286, #550, #64, #1017, #452, #347 ) ) ;
#83 = ORIENTED_EDGE ( 'NONE', *, *, #585, .T. ) ;
#84 = EDGE_CURVE ( 'NONE', #498, #1050, #45, .T. ) ;
#85 = FACE_OUTER_BOUND ( 'NONE', #1019, .T. ) ;
#86 = MECHANICAL_CONTEXT ( 'NONE', #42, 'mechanical' ) ;
#87 = CARTESIAN_POINT ( 'NONE',  ( -20.49999999999999645, -7.000000000000011546, 0.000000000000000000 ) ) ;
#88 = EDGE_LOOP ( 'NONE', ( #200, #623, #813, #844 ) ) ;
#89 = ORIENTED_EDGE ( 'NONE', *, *, #496, .T. ) ;
#90 = VECTOR ( 'NONE', #845, 1000.000000000000000 ) ;
#91 = CARTESIAN_POINT ( 'NONE',  ( -0.4999999999999970024, -0.5000000000000004441, 20.00000000000000000 ) ) ;
#92 = EDGE_CURVE ( 'NONE', #1056, #295, #945, .T. ) ;
#93 = LOCAL_TIME ( 12, 38, 58.00000000000000000, #884 ) ;
#94 = CARTESIAN_POINT ( 'NONE',  ( -0.4999999999999935052, -25.50000000000000355, 32.00000000000000000 ) ) ;
#95 = VERTEX_POINT ( 'NONE', #757 ) ;
#96 = VERTEX_POINT ( 'NONE', #1130 ) ;
#97 = DIRECTION ( 'NONE',  ( -1.217349807703022609E-16, 1.000000000000000000, 0.000000000000000000 ) ) ;
#98 = FACE_OUTER_BOUND ( 'NONE', #360, .T. ) ;
#99 = DIRECTION ( 'NONE',  ( -0.000000000000000000, 1.000000000000000000, -0.000000000000000000 ) ) ;
#100 = VERTEX_POINT ( 'NONE', #500 ) ;
#101 = DIRECTION ( 'NONE',  ( -1.000000000000000000, 0.000000000000000000, 0.000000000000000000 ) ) ;
#102 = EDGE_CURVE ( 'NONE', #424, #1035, #39, .T. ) ;
#103 = CARTESIAN_POINT ( 'NONE',  ( -10.49999999999999645, -2.000000000000008882, 20.00000000000000000 ) ) ;
#104 = ORIENTED_EDGE ( 'NONE', *, *, #35, .F. ) ;
#105 = ADVANCED_FACE ( 'NONE', ( #669 ), #401, .F. ) ;
#106 = EDGE_LOOP ( 'NONE', ( #1105, #394, #263, #195, #1166, #1152 ) ) ;
#107 = CARTESIAN_POINT ( 'NONE',  ( 20.50000000000000000, 20.50000000000000000, 0.000000000000000000 ) ) ;
#108 = VECTOR ( 'NONE', #97, 1000.000000000000000 ) ;
#109 = LINE ( 'NONE', #1006, #769 ) ;
#110 = AXIS2_PLACEMENT_3D ( 'NONE', #821, #467, #812 ) ;
#111 = VERTEX_POINT ( 'NONE', #594 ) ;
#112 = ADVANCED_FACE ( 'NONE', ( #218 ), #226, .F. ) ;
#113 = DIRECTION ( 'NONE',  ( 0.000000000000000000, 1.000000000000000000, 0.000000000000000000 ) ) ;
#114 = DIRECTION ( 'NONE',  ( 0.000000000000000000, 0.000000000000000000, 1.000000000000000000 ) ) ;
#115 = EDGE_LOOP ( 'NONE', ( #417, #1133, #236, #808, #631, #906, #48 ) ) ;
#116 = DIRECTION ( 'NONE',  ( 0.000000000000000000, 0.000000000000000000, -1.000000000000000000 ) ) ;
#117 = EDGE_CURVE ( 'NONE', #710, #699, #44, .T. ) ;
#118 = CYLINDRICAL_SURFACE ( 'NONE', #148, 5.000000000000000888 ) ;
#119 = DIRECTION ( 'NONE',  ( 0.000000000000000000, -1.000000000000000000, 0.000000000000000000 ) ) ;
#120 = ORIENTED_EDGE ( 'NONE', *, *, #270, .F. ) ;
#121 = DIRECTION ( 'NONE',  ( -4.336808689942018352E-17, 0.000000000000000000, 1.000000000000000000 ) ) ;
#122 = DIRECTION ( 'NONE',  ( -1.000000000000000000, 0.000000000000000000, 0.000000000000000000 ) ) ;
#123 = EDGE_CURVE ( 'NONE', #1138, #686, #869, .T. ) ;
#124 = AXIS2_PLACEMENT_3D ( 'NONE', #695, #600, #590 ) ;
#125 = CARTESIAN_POINT ( 'NONE',  ( 30.50000000000000711, -35.50000000000000711, 20.00000000000000000 ) ) ;
#126 = VECTOR ( 'NONE', #1156, 1000.000000000000000 ) ;
#127 = VECTOR ( 'NONE', #681, 1000.000000000000000 ) ;
#128 = DIRECTION ( 'NONE',  ( -1.000000000000000000, 0.000000000000000000, 0.000000000000000000 ) ) ;
#129 = EDGE_CURVE ( 'NONE', #819, #37, #951, .T. ) ;
#130 = ORIENTED_EDGE ( 'NONE', *, *, #1040, .T. ) ;
#131 = DIRECTION ( 'NONE',  ( 1.000000000000000000, 1.239088197126290570E-16, -0.000000000000000000 ) ) ;
#132 = CARTESIAN_POINT ( 'NONE',  ( -5.499999999999998224, 20.50000000000000000, 0.000000000000000000 ) ) ;
#133 = LINE ( 'NONE', #843, #266 ) ;
#134 = FACE_OUTER_BOUND ( 'NONE', #8, .T. ) ;
#135 = VERTEX_POINT ( 'NONE', #132 ) ;
#136 = DIRECTION ( 'NONE',  ( -1.000000000000000000, 0.000000000000000000, -1.137523590804463576E-16 ) ) ;
#137 = FACE_OUTER_BOUND ( 'NONE', #468, .T. ) ;
#138 = DIRECTION ( 'NONE',  ( 0.000000000000000000, 0.000000000000000000, -1.000000000000000000 ) ) ;
#139 = CARTESIAN_POINT ( 'NONE',  ( 20.50000000000000000, 20.50000000000000000, 0.000000000000000000 ) ) ;
#140 = CARTESIAN_POINT ( 'NONE',  ( -20.49999999999999645, -32.50000000000000000, 45.00000000000000711 ) ) ;
#141 = ORIENTED_EDGE ( 'NONE', *, *, #27, .F. ) ;
#142 = EDGE_CURVE ( 'NONE', #1056, #686, #33, .T. ) ;
#143 = CARTESIAN_POINT ( 'NONE',  ( -25.49999999999999645, -25.50000000000000355, 130.0000000000000000 ) ) ;
#144 = DIRECTION ( 'NONE',  ( 0.000000000000000000, 0.000000000000000000, -1.000000000000000000 ) ) ;
#145 = DIRECTION ( 'NONE',  ( -1.000000000000000000, -1.360567432138672328E-16, -0.000000000000000000 ) ) ;
#146 = VECTOR ( 'NONE', #815, 1000.000000000000000 ) ;
#147 = ORIENTED_EDGE ( 'NONE', *, *, #207, .T. ) ;
#148 = AXIS2_PLACEMENT_3D ( 'NONE', #1016, #577, #55 ) ;
#149 = ADVANCED_FACE ( 'NONE', ( #862 ), #680, .F. ) ;
#150 = ORIENTED_EDGE ( 'NONE', *, *, #836, .T. ) ;
#151 = DIRECTION ( 'NONE',  ( 0.000000000000000000, -1.000000000000000000, 0.000000000000000000 ) ) ;
#152 = DIRECTION ( 'NONE',  ( -1.000000000000000000, -1.360567432138672328E-16, 0.000000000000000000 ) ) ;
#153 = DIRECTION ( 'NONE',  ( 1.000000000000000000, 0.000000000000000000, 0.000000000000000000 ) ) ;
#154 = DIRECTION ( 'NONE',  ( -1.000000000000000000, -1.734723475976807094E-16, 0.000000000000000000 ) ) ;
#155 = VERTEX_POINT ( 'NONE', #761 ) ;
#156 = CARTESIAN_POINT ( 'NONE',  ( -10.49999999999999112, -35.50000000000000711, 20.00000000000000000 ) ) ;
#157 = DIRECTION ( 'NONE',  ( 0.000000000000000000, -0.000000000000000000, 1.000000000000000000 ) ) ;
#158 = EDGE_CURVE ( 'NONE', #243, #988, #315, .T. ) ;
#159 = DIRECTION ( 'NONE',  ( 0.000000000000000000, 0.000000000000000000, 1.000000000000000000 ) ) ;
#160 = PLANE ( 'NONE',  #50 ) ;
#161 = EDGE_LOOP ( 'NONE', ( #1084, #409, #358, #437, #178 ) ) ;
#162 = FACE_OUTER_BOUND ( 'NONE', #510, .T. ) ;
#163 = COORDINATED_UNIVERSAL_TIME_OFFSET ( 0, 0, .AHEAD. ) ;
#164 = EDGE_CURVE ( 'NONE', #833, #100, #674, .T. ) ;
#165 = DIRECTION ( 'NONE',  ( -1.000000000000000000, 0.000000000000000000, -0.000000000000000000 ) ) ;
#166 = ORIENTED_EDGE ( 'NONE', *, *, #824, .F. ) ;
#167 = VECTOR ( 'NONE', #933, 1000.000000000000000 ) ;
#168 = ORIENTED_EDGE ( 'NONE', *, *, #447, .T. ) ;
#169 = AXIS2_PLACEMENT_3D ( 'NONE', #891, #165, #356 ) ;
#170 = PLANE ( 'NONE',  #1070 ) ;
#171 = PERSON_AND_ORGANIZATION ( #685, #531 ) ;
#172 = LINE ( 'NONE', #535, #1123 ) ;
#173 = ORIENTED_EDGE ( 'NONE', *, *, #1064, .F. ) ;
#174 = CARTESIAN_POINT ( 'NONE',  ( 20.50000000000000000, 12.54999999999999893, 10.00000000000000000 ) ) ;
#175 = APPROVAL_DATE_TIME ( #534, #927 ) ;
#176 = DIRECTION ( 'NONE',  ( -0.000000000000000000, -0.000000000000000000, -1.000000000000000000 ) ) ;
#177 = ORIENTED_EDGE ( 'NONE', *, *, #129, .T. ) ;
#178 = ORIENTED_EDGE ( 'NONE', *, *, #78, .T. ) ;
#179 = APPROVAL ( #689, 'UNSPECIFIED' ) ;
#180 = CARTESIAN_POINT ( 'NONE',  ( -10.49999999999999822, 9.999999999999994671, 10.00000000000000000 ) ) ;
#181 = CARTESIAN_POINT ( 'NONE',  ( -10.49999999999999822, 20.50000000000000000, 0.000000000000000000 ) ) ;
#182 = LINE ( 'NONE', #548, #1160 ) ;
#183 = ORIENTED_EDGE ( 'NONE', *, *, #254, .F. ) ;
#184 = VECTOR ( 'NONE', #552, 1000.000000000000000 ) ;
#185 = DIRECTION ( 'NONE',  ( 1.000000000000000000, 0.000000000000000000, 0.000000000000000000 ) ) ;
#186 = VECTOR ( 'NONE', #1, 1000.000000000000000 ) ;
#187 = PRODUCT_DEFINITION_FORMATION_WITH_SPECIFIED_SOURCE ( 'ANY', '', #1154, .NOT_KNOWN. ) ;
#188 = LINE ( 'NONE', #94, #319 ) ;
#189 = DIRECTION ( 'NONE',  ( -0.000000000000000000, -0.000000000000000000, -1.000000000000000000 ) ) ;
#190 = ORIENTED_EDGE ( 'NONE', *, *, #877, .F. ) ;
#191 = DIRECTION ( 'NONE',  ( 0.000000000000000000, 0.000000000000000000, 1.000000000000000000 ) ) ;
#192 = EDGE_CURVE ( 'NONE', #954, #77, #773, .T. ) ;
#193 = PLANE ( 'NONE',  #110 ) ;
#194 = ORIENTED_EDGE ( 'NONE', *, *, #563, .F. ) ;
#195 = ORIENTED_EDGE ( 'NONE', *, *, #858, .T. ) ;
#196 = UNCERTAINTY_MEASURE_WITH_UNIT (LENGTH_MEASURE( 1.000000000000000082E-05 ), #414, 'distance_accuracy_value', 'NONE');
#197 = CARTESIAN_POINT ( 'NONE',  ( 30.50000000000000711, -20.50000000000000000, 20.00000000000000000 ) ) ;
#198 = CARTESIAN_POINT ( 'NONE',  ( 45.50000000000001421, 10.00000000000000178, 10.00000000000000000 ) ) ;
#199 = EDGE_CURVE ( 'NONE', #755, #424, #267, .T. ) ;
#200 = ORIENTED_EDGE ( 'NONE', *, *, #1155, .T. ) ;
#201 = CARTESIAN_POINT ( 'NONE',  ( -10.49999999999999112, -35.50000000000000711, 130.0000000000000000 ) ) ;
#202 = AXIS2_PLACEMENT_3D ( 'NONE', #16, #1086, #739 ) ;
#203 = VECTOR ( 'NONE', #288, 1000.000000000000000 ) ;
#204 = DIRECTION ( 'NONE',  ( -1.000000000000000000, -0.000000000000000000, -0.000000000000000000 ) ) ;
#205 = VECTOR ( 'NONE', #729, 1000.000000000000000 ) ;
#206 = VERTEX_POINT ( 'NONE', #260 ) ;
#207 = EDGE_CURVE ( 'NONE', #791, #856, #538, .T. ) ;
#208 = CARTESIAN_POINT ( 'NONE',  ( 30.50000000000000355, -20.50000000000000000, 24.99999999999999289 ) ) ;
#209 = ADVANCED_FACE ( 'NONE', ( #368 ), #895, .F. ) ;
#210 = PLANE ( 'NONE',  #922 ) ;
#211 = EDGE_LOOP ( 'NONE', ( #458, #964, #237, #560 ) ) ;
#212 = ADVANCED_FACE ( 'NONE', ( #1069 ), #1058, .F. ) ;
#213 = LINE ( 'NONE', #599, #90 ) ;
#214 = CARTESIAN_POINT ( 'NONE',  ( -0.4999999999999970024, 2.999999999999999112, 20.00000000000000000 ) ) ;
#215 = FACE_OUTER_BOUND ( 'NONE', #1057, .T. ) ;
#216 = ORIENTED_EDGE ( 'NONE', *, *, #371, .F. ) ;
#217 = CARTESIAN_POINT ( 'NONE',  ( -20.49999999999999645, -25.50000000000000355, 20.00000000000000000 ) ) ;
#218 = FACE_OUTER_BOUND ( 'NONE', #14, .T. ) ;
#219 = VECTOR ( 'NONE', #426, 1000.000000000000000 ) ;
#220 = FACE_OUTER_BOUND ( 'NONE', #629, .T. ) ;
#221 = AXIS2_PLACEMENT_3D ( 'NONE', #1023, #131, #38 ) ;
#222 = CIRCLE ( 'NONE', #825, 2.550000000000000266 ) ;
#223 = VERTEX_POINT ( 'NONE', #900 ) ;
#224 = CARTESIAN_POINT ( 'NONE',  ( 45.50000000000000711, -25.50000000000000355, 130.0000000000000000 ) ) ;
#225 = EDGE_CURVE ( 'NONE', #635, #828, #438, .T. ) ;
#226 = PLANE ( 'NONE',  #316 ) ;
#227 = CARTESIAN_POINT ( 'NONE',  ( -0.4999999999999935052, -25.50000000000000355, 32.00000000000000000 ) ) ;
#228 = ADVANCED_FACE ( 'NONE', ( #85 ), #344, .F. ) ;
#229 = DIRECTION ( 'NONE',  ( 0.000000000000000000, 1.000000000000000000, 0.000000000000000000 ) ) ;
#230 = ORIENTED_EDGE ( 'NONE', *, *, #914, .T. ) ;
#231 = CARTESIAN_POINT ( 'NONE',  ( -10.49999999999999822, 20.50000000000000000, 20.00000000000000000 ) ) ;
#232 = CARTESIAN_POINT ( 'NONE',  ( 40.50000000000000711, -32.50000000000000000, 125.0000000000000000 ) ) ;
#233 = DIRECTION ( 'NONE',  ( -1.000000000000000000, -3.469446951953612217E-16, -0.000000000000000000 ) ) ;
#234 = EDGE_CURVE ( 'NONE', #18, #155, #875, .T. ) ;
#235 = CARTESIAN_POINT ( 'NONE',  ( -20.49999999999999645, -25.50000000000000355, 45.00000000000000711 ) ) ;
#236 = ORIENTED_EDGE ( 'NONE', *, *, #354, .F. ) ;
#237 = ORIENTED_EDGE ( 'NONE', *, *, #69, .F. ) ;
#238 = DIRECTION ( 'NONE',  ( 0.000000000000000000, 0.000000000000000000, 1.000000000000000000 ) ) ;
#239 = CARTESIAN_POINT ( 'NONE',  ( -10.49999999999999112, -25.50000000000000355, 130.0000000000000000 ) ) ;
#240 = PERSON_AND_ORGANIZATION_ROLE ( 'creator' ) ;
#241 = VECTOR ( 'NONE', #632, 1000.000000000000000 ) ;
#242 = VECTOR ( 'NONE', #924, 1000.000000000000000 ) ;
#243 = VERTEX_POINT ( 'NONE', #613 ) ;
#244 = AXIS2_PLACEMENT_3D ( 'NONE', #990, #649, #386 ) ;
#245 = CC_DESIGN_SECURITY_CLASSIFICATION ( #961, ( #187 ) ) ;
#246 = ORIENTED_EDGE ( 'NONE', *, *, #377, .F. ) ;
#247 = EDGE_CURVE ( 'NONE', #1167, #988, #618, .T. ) ;
#248 = LINE ( 'NONE', #58, #379 ) ;
#249 = DIRECTION ( 'NONE',  ( 0.000000000000000000, 0.000000000000000000, -1.000000000000000000 ) ) ;
#250 = PERSON_AND_ORGANIZATION ( #685, #531 ) ;
#251 = DIRECTION ( 'NONE',  ( -1.000000000000000000, 0.000000000000000000, 0.000000000000000000 ) ) ;
#252 = ORIENTED_EDGE ( 'NONE', *, *, #420, .F. ) ;
#253 = VERTEX_POINT ( 'NONE', #975 ) ;
#254 = EDGE_CURVE ( 'NONE', #898, #635, #702, .T. ) ;
#255 = DIRECTION ( 'NONE',  ( -0.000000000000000000, -1.000000000000000000, -0.000000000000000000 ) ) ;
#256 = DATE_TIME_ROLE ( 'creation_date' ) ;
#257 = LINE ( 'NONE', #1073, #586 ) ;
#258 = ORIENTED_EDGE ( 'NONE', *, *, #781, .T. ) ;
#259 = ORIENTED_EDGE ( 'NONE', *, *, #745, .T. ) ;
#260 = CARTESIAN_POINT ( 'NONE',  ( -0.4999999999999970024, 20.50000000000000000, 0.000000000000000000 ) ) ;
#261 = CARTESIAN_POINT ( 'NONE',  ( 0.000000000000000000, 0.000000000000000000, 0.000000000000000000 ) ) ;
#262 = DIRECTION ( 'NONE',  ( -0.000000000000000000, -0.000000000000000000, 1.000000000000000000 ) ) ;
#263 = ORIENTED_EDGE ( 'NONE', *, *, #123, .T. ) ;
#264 = ORIENTED_EDGE ( 'NONE', *, *, #919, .T. ) ;
#265 = VECTOR ( 'NONE', #66, 1000.000000000000000 ) ;
#266 = VECTOR ( 'NONE', #1101, 1000.000000000000000 ) ;
#267 = LINE ( 'NONE', #792, #357 ) ;
#268 = PERSON_AND_ORGANIZATION_ROLE ( 'creator' ) ;
#269 = CARTESIAN_POINT ( 'NONE',  ( 25.50000000000000355, 20.50000000000000355, 0.000000000000000000 ) ) ;
#270 = EDGE_CURVE ( 'NONE', #1050, #498, #861, .T. ) ;
#271 = ORIENTED_EDGE ( 'NONE', *, *, #1024, .T. ) ;
#272 = EDGE_LOOP ( 'NONE', ( #926, #597, #904, #1075, #147, #611, #1116 ) ) ;
#273 = DIRECTION ( 'NONE',  ( 0.000000000000000000, -0.000000000000000000, -1.000000000000000000 ) ) ;
#274 = LINE ( 'NONE', #1002, #657 ) ;
#275 = LINE ( 'NONE', #997, #804 ) ;
#276 = CC_DESIGN_DATE_AND_TIME_ASSIGNMENT ( #1065, #779, ( #961 ) ) ;
#277 = EDGE_LOOP ( 'NONE', ( #727, #1091, #1022, #311 ) ) ;
#278 = LINE ( 'NONE', #284, #146 ) ;
#279 = FACE_OUTER_BOUND ( 'NONE', #1078, .T. ) ;
#280 = ORIENTED_EDGE ( 'NONE', *, *, #528, .T. ) ;
#281 = ORIENTED_EDGE ( 'NONE', *, *, #575, .T. ) ;
#282 = ADVANCED_FACE ( 'NONE', ( #162 ), #170, .F. ) ;
#283 = AXIS2_PLACEMENT_3D ( 'NONE', #411, #151, #1118 ) ;
#284 = CARTESIAN_POINT ( 'NONE',  ( -20.49999999999999645, -2.000000000000008882, 0.000000000000000000 ) ) ;
#285 = LINE ( 'NONE', #1009, #733 ) ;
#286 = ORIENTED_EDGE ( 'NONE', *, *, #648, .F. ) ;
#287 = ORIENTED_EDGE ( 'NONE', *, *, #314, .T. ) ;
#288 = DIRECTION ( 'NONE',  ( 1.734723475976806848E-16, -1.000000000000000000, 0.000000000000000000 ) ) ;
#289 = EDGE_CURVE ( 'NONE', #771, #710, #1149, .T. ) ;
#290 = CARTESIAN_POINT ( 'NONE',  ( 45.50000000000000711, -35.50000000000000711, 40.00000000000000711 ) ) ;
#291 = VERTEX_POINT ( 'NONE', #174 ) ;
#292 = CARTESIAN_POINT ( 'NONE',  ( -0.4999999999999935052, -25.50000000000000355, 24.99999999999999289 ) ) ;
#293 = LINE ( 'NONE', #181, #186 ) ;
#294 = ADVANCED_FACE ( 'NONE', ( #533 ), #80, .T. ) ;
#295 = VERTEX_POINT ( 'NONE', #443 ) ;
#296 = CARTESIAN_POINT ( 'NONE',  ( -0.4999999999999952260, -25.50000000000000355, 24.99999999999999289 ) ) ;
#297 = VECTOR ( 'NONE', #1018, 1000.000000000000000 ) ;
#298 = VECTOR ( 'NONE', #621, 1000.000000000000000 ) ;
#299 = LINE ( 'NONE', #305, #395 ) ;
#300 = LOCAL_TIME ( 12, 38, 58.00000000000000000, #984 ) ;
#301 = CC_DESIGN_PERSON_AND_ORGANIZATION_ASSIGNMENT ( #250, #268, ( #187 ) ) ;
#302 = ORIENTED_EDGE ( 'NONE', *, *, #630, .T. ) ;
#303 = PLANE ( 'NONE',  #283 ) ;
#304 = ORIENTED_EDGE ( 'NONE', *, *, #92, .T. ) ;
#305 = CARTESIAN_POINT ( 'NONE',  ( 45.50000000000001421, 12.55000000000000249, 10.00000000000000000 ) ) ;
#306 = VERTEX_POINT ( 'NONE', #797 ) ;
#307 = CARTESIAN_POINT ( 'NONE',  ( 45.50000000000001421, 10.00000000000000178, 10.00000000000000000 ) ) ;
#308 = LINE ( 'NONE', #1135, #71 ) ;
#309 = DIRECTION ( 'NONE',  ( -0.000000000000000000, -0.000000000000000000, 1.000000000000000000 ) ) ;
#310 = LINE ( 'NONE', #482, #976 ) ;
#311 = ORIENTED_EDGE ( 'NONE', *, *, #740, .F. ) ;
#312 = DIRECTION ( 'NONE',  ( -1.000000000000000000, -0.000000000000000000, -0.000000000000000000 ) ) ;
#313 = DIRECTION ( 'NONE',  ( 1.217349807703022609E-16, -1.000000000000000000, 0.000000000000000000 ) ) ;
#314 = EDGE_CURVE ( 'NONE', #771, #588, #811, .T. ) ;
#315 = LINE ( 'NONE', #1037, #25 ) ;
#316 = AXIS2_PLACEMENT_3D ( 'NONE', #335, #576, #514 ) ;
#317 = LINE ( 'NONE', #139, #807 ) ;
#318 = VECTOR ( 'NONE', #865, 1000.000000000000000 ) ;
#319 = VECTOR ( 'NONE', #827, 1000.000000000000000 ) ;
#320 = LINE ( 'NONE', #422, #787 ) ;
#321 = ORIENTED_EDGE ( 'NONE', *, *, #781, .F. ) ;
#322 = CARTESIAN_POINT ( 'NONE',  ( -20.49999999999999645, -25.50000000000000355, 45.00000000000000711 ) ) ;
#323 = DIRECTION ( 'NONE',  ( 1.000000000000000000, 0.000000000000000000, 0.000000000000000000 ) ) ;
#324 = EDGE_CURVE ( 'NONE', #111, #306, #1168, .T. ) ;
#325 = CARTESIAN_POINT ( 'NONE',  ( -25.49999999999999289, -35.50000000000000711, 130.0000000000000000 ) ) ;
#326 = ORIENTED_EDGE ( 'NONE', *, *, #1011, .T. ) ;
#327 = DIRECTION ( 'NONE',  ( 0.000000000000000000, -1.000000000000000000, 0.000000000000000000 ) ) ;
#328 = DIRECTION ( 'NONE',  ( 1.000000000000000000, 0.000000000000000000, -0.000000000000000000 ) ) ;
#329 = DATE_AND_TIME ( #1046, #905 ) ;
#330 = CARTESIAN_POINT ( 'NONE',  ( -5.499999999999998224, 20.50000000000000000, 20.00000000000000000 ) ) ;
#331 = EDGE_CURVE ( 'NONE', #1147, #887, #363, .T. ) ;
#332 = ORIENTED_EDGE ( 'NONE', *, *, #377, .T. ) ;
#333 = EDGE_LOOP ( 'NONE', ( #326, #541, #559, #258 ) ) ;
#334 = LINE ( 'NONE', #156, #883 ) ;
#335 = CARTESIAN_POINT ( 'NONE',  ( -25.49999999999999645, -25.50000000000000355, 20.00000000000000000 ) ) ;
#336 = CALENDAR_DATE ( 2026, 22, 8 ) ;
#337 = VECTOR ( 'NONE', #54, 1000.000000000000000 ) ;
#338 = FACE_OUTER_BOUND ( 'NONE', #333, .T. ) ;
#339 = AXIS2_PLACEMENT_3D ( 'NONE', #596, #855, #46 ) ;
#340 = ORIENTED_EDGE ( 'NONE', *, *, #899, .T. ) ;
#341 = EDGE_CURVE ( 'NONE', #291, #887, #995, .T. ) ;
#342 = AXIS2_PLACEMENT_3D ( 'NONE', #198, #546, #461 ) ;
#343 = ORIENTED_EDGE ( 'NONE', *, *, #462, .F. ) ;
#344 = PLANE ( 'NONE',  #1100 ) ;
#345 = PERSON_AND_ORGANIZATION ( #685, #531 ) ;
#346 = LINE ( 'NONE', #1165, #567 ) ;
#347 = ORIENTED_EDGE ( 'NONE', *, *, #428, .F. ) ;
#348 = ORIENTED_EDGE ( 'NONE', *, *, #486, .F. ) ;
#349 = DIRECTION ( 'NONE',  ( 0.000000000000000000, -1.000000000000000000, 0.000000000000000000 ) ) ;
#350 = COORDINATED_UNIVERSAL_TIME_OFFSET ( 0, 0, .AHEAD. ) ;
#351 = CARTESIAN_POINT ( 'NONE',  ( 45.50000000000000711, -35.50000000000000711, 40.00000000000000711 ) ) ;
#352 = ORIENTED_EDGE ( 'NONE', *, *, #404, .T. ) ;
#353 = CARTESIAN_POINT ( 'NONE',  ( 30.50000000000000711, -35.50000000000000711, 0.000000000000000000 ) ) ;
#354 = EDGE_CURVE ( 'NONE', #436, #569, #1015, .T. ) ;
#355 = PERSON_AND_ORGANIZATION ( #685, #531 ) ;
#356 = DIRECTION ( 'NONE',  ( -0.000000000000000000, 0.000000000000000000, 1.000000000000000000 ) ) ;
#357 = VECTOR ( 'NONE', #971, 1000.000000000000000 ) ;
#358 = ORIENTED_EDGE ( 'NONE', *, *, #15, .T. ) ;
#359 = VECTOR ( 'NONE', #928, 1000.000000000000000 ) ;
#360 = EDGE_LOOP ( 'NONE', ( #732, #738, #666, #1083 ) ) ;
#361 = AXIS2_PLACEMENT_3D ( 'NONE', #929, #864, #591 ) ;
#362 = VECTOR ( 'NONE', #762, 1000.000000000000000 ) ;
#363 = LINE ( 'NONE', #1076, #958 ) ;
#364 = CC_DESIGN_PERSON_AND_ORGANIZATION_ASSIGNMENT ( #977, #75, ( #187 ) ) ;
#365 = CARTESIAN_POINT ( 'NONE',  ( -25.49999999999999645, 2.999999999999996891, 20.00000000000000000 ) ) ;
#366 = CARTESIAN_POINT ( 'NONE',  ( -20.49999999999999645, -7.000000000000009770, 20.00000000000000000 ) ) ;
#367 = VERTEX_POINT ( 'NONE', #1005 ) ;
#368 = FACE_OUTER_BOUND ( 'NONE', #1007, .T. ) ;
#369 = PLANE ( 'NONE',  #885 ) ;
#370 = ORIENTED_EDGE ( 'NONE', *, *, #234, .T. ) ;
#371 = EDGE_CURVE ( 'NONE', #897, #306, #601, .T. ) ;
#372 = ORIENTED_EDGE ( 'NONE', *, *, #894, .T. ) ;
#373 = PLANE ( 'NONE',  #202 ) ;
#374 = CARTESIAN_POINT ( 'NONE',  ( -10.49999999999999645, -2.000000000000008882, 32.00000000000000000 ) ) ;
#375 = CARTESIAN_POINT ( 'NONE',  ( -10.49999999999999822, 15.50000000000000000, 20.00000000000000000 ) ) ;
#376 = ORIENTED_EDGE ( 'NONE', *, *, #102, .F. ) ;
#377 = EDGE_CURVE ( 'NONE', #7, #835, #460, .T. ) ;
#378 = VECTOR ( 'NONE', #506, 1000.000000000000000 ) ;
#379 = VECTOR ( 'NONE', #313, 1000.000000000000000 ) ;
#380 = CARTESIAN_POINT ( 'NONE',  ( 40.50000000000000711, -32.50000000000000000, 45.00000000000001421 ) ) ;
#381 = CIRCLE ( 'NONE', #29, 2.550000000000000266 ) ;
#382 = DIRECTION ( 'NONE',  ( -1.000000000000000000, 0.000000000000000000, 0.000000000000000000 ) ) ;
#383 = ORIENTED_EDGE ( 'NONE', *, *, #389, .T. ) ;
#384 = EDGE_CURVE ( 'NONE', #423, #1056, #561, .T. ) ;
#385 = CARTESIAN_POINT ( 'NONE',  ( -10.49999999999999289, -25.50000000000000355, 20.00000000000000000 ) ) ;
#386 = DIRECTION ( 'NONE',  ( 0.000000000000000000, 0.000000000000000000, 1.000000000000000000 ) ) ;
#387 = ORIENTED_EDGE ( 'NONE', *, *, #389, .F. ) ;
#388 = CARTESIAN_POINT ( 'NONE',  ( -0.4999999999999970024, -0.5000000000000004441, 20.00000000000000000 ) ) ;
#389 = EDGE_CURVE ( 'NONE', #1062, #833, #278, .T. ) ;
#390 = LINE ( 'NONE', #125, #362 ) ;
#391 = ORIENTED_EDGE ( 'NONE', *, *, #745, .F. ) ;
#392 = DIRECTION ( 'NONE',  ( -1.000000000000000000, -1.360567432138672328E-16, -0.000000000000000000 ) ) ;
#393 = VECTOR ( 'NONE', #959, 1000.000000000000000 ) ;
#394 = ORIENTED_EDGE ( 'NONE', *, *, #563, .T. ) ;
#395 = VECTOR ( 'NONE', #145, 1000.000000000000000 ) ;
#396 = LINE ( 'NONE', #676, #1104 ) ;
#397 = CC_DESIGN_APPROVAL ( #179, ( #187 ) ) ;
#398 = CARTESIAN_POINT ( 'NONE',  ( -0.4999999999999970024, 20.50000000000000000, 20.00000000000000000 ) ) ;
#399 = EDGE_LOOP ( 'NONE', ( #726, #810, #935, #867 ) ) ;
#400 = LINE ( 'NONE', #485, #805 ) ;
#401 = PLANE ( 'NONE',  #484 ) ;
#402 = DIRECTION ( 'NONE',  ( 0.000000000000000000, 0.000000000000000000, 1.000000000000000000 ) ) ;
#403 = ORIENTED_EDGE ( 'NONE', *, *, #1096, .F. ) ;
#404 = EDGE_CURVE ( 'NONE', #463, #423, #658, .T. ) ;
#405 = LINE ( 'NONE', #672, #28 ) ;
#406 = DIRECTION ( 'NONE',  ( 0.000000000000000000, 0.000000000000000000, -1.000000000000000000 ) ) ;
#407 = DIRECTION ( 'NONE',  ( -1.000000000000000000, 0.000000000000000000, -0.000000000000000000 ) ) ;
#408 = CARTESIAN_POINT ( 'NONE',  ( 45.50000000000000711, 0.000000000000000000, 0.000000000000000000 ) ) ;
#409 = ORIENTED_EDGE ( 'NONE', *, *, #803, .T. ) ;
#410 = EDGE_CURVE ( 'NONE', #436, #96, #1087, .T. ) ;
#411 = CARTESIAN_POINT ( 'NONE',  ( -10.49999999999999822, 20.50000000000000000, 20.00000000000000000 ) ) ;
#412 = FACE_OUTER_BOUND ( 'NONE', #115, .T. ) ;
#413 = CLOSED_SHELL ( 'NONE', ( #553, #707, #620, #212, #209, #53, #544, #579, #282, #923, #753, #228, #1085, #1148, #1079, #790, #105, #735, #646, #667, #149, #456, #294, #1117, #112, #993, #1001, #908, #980, #818, #1102, #957, #682 ) ) ;
#414 =( LENGTH_UNIT ( ) NAMED_UNIT ( * ) SI_UNIT ( .MILLI., .METRE. ) );
#415 = AXIS2_PLACEMENT_3D ( 'NONE', #642, #724, #113 ) ;
#416 = VECTOR ( 'NONE', #896, 1000.000000000000000 ) ;
#417 = ORIENTED_EDGE ( 'NONE', *, *, #324, .T. ) ;
#418 = CARTESIAN_POINT ( 'NONE',  ( 45.50000000000000711, -35.50000000000000711, 40.00000000000000711 ) ) ;
#419 = CARTESIAN_POINT ( 'NONE',  ( -10.49999999999999645, -2.000000000000008882, 32.00000000000000000 ) ) ;
#420 = EDGE_CURVE ( 'NONE', #699, #828, #637, .T. ) ;
#421 = LINE ( 'NONE', #595, #551 ) ;
#422 = CARTESIAN_POINT ( 'NONE',  ( 45.50000000000000711, -35.50000000000000711, 130.0000000000000000 ) ) ;
#423 = VERTEX_POINT ( 'NONE', #471 ) ;
#424 = VERTEX_POINT ( 'NONE', #830 ) ;
#425 = CARTESIAN_POINT ( 'NONE',  ( 20.50000000000000355, -0.5000000000000004441, 0.000000000000000000 ) ) ;
#426 = DIRECTION ( 'NONE',  ( -1.217349807703022609E-16, 1.000000000000000000, -0.000000000000000000 ) ) ;
#427 = SECURITY_CLASSIFICATION_LEVEL ( 'unclassified' ) ;
#428 = EDGE_CURVE ( 'NONE', #588, #954, #647, .T. ) ;
#429 = LINE ( 'NONE', #1060, #1012 ) ;
#430 = ORIENTED_EDGE ( 'NONE', *, *, #877, .T. ) ;
#431 = ORIENTED_EDGE ( 'NONE', *, *, #966, .T. ) ;
#432 = DIRECTION ( 'NONE',  ( -1.000000000000000000, 0.000000000000000000, -0.000000000000000000 ) ) ;
#433 =( NAMED_UNIT ( * ) SI_UNIT ( $, .STERADIAN. ) SOLID_ANGLE_UNIT ( ) );
#434 = CARTESIAN_POINT ( 'NONE',  ( -10.49999999999999645, -7.000000000000007994, 20.00000000000000000 ) ) ;
#435 = AXIS2_PLACEMENT_3D ( 'NONE', #180, #712, #349 ) ;
#436 = VERTEX_POINT ( 'NONE', #197 ) ;
#437 = ORIENTED_EDGE ( 'NONE', *, *, #630, .F. ) ;
#438 = LINE ( 'NONE', #1142, #955 ) ;
#439 = PERSON_AND_ORGANIZATION_ROLE ( 'classification_officer' ) ;
#440 = CARTESIAN_POINT ( 'NONE',  ( -0.4999999999999970024, -0.5000000000000004441, 0.000000000000000000 ) ) ;
#441 = VERTEX_POINT ( 'NONE', #107 ) ;
#442 = EDGE_CURVE ( 'NONE', #306, #569, #994, .T. ) ;
#443 = CARTESIAN_POINT ( 'NONE',  ( -0.4999999999999970024, 2.999999999999999112, 20.00000000000000000 ) ) ;
#444 = CARTESIAN_POINT ( 'NONE',  ( 30.50000000000000355, -20.50000000000000000, 20.00000000000000000 ) ) ;
#445 = ORIENTED_EDGE ( 'NONE', *, *, #941, .T. ) ;
#446 = ORIENTED_EDGE ( 'NONE', *, *, #690, .F. ) ;
#447 = EDGE_CURVE ( 'NONE', #96, #463, #912, .T. ) ;
#448 = DIRECTION ( 'NONE',  ( 0.000000000000000000, 1.000000000000000000, 0.000000000000000000 ) ) ;
#449 = CARTESIAN_POINT ( 'NONE',  ( -20.49999999999999645, -32.50000000000000000, 45.00000000000000711 ) ) ;
#450 = ORIENTED_EDGE ( 'NONE', *, *, #84, .F. ) ;
#451 = CIRCLE ( 'NONE', #507, 5.000000000000000888 ) ;
#452 = ORIENTED_EDGE ( 'NONE', *, *, #192, .F. ) ;
#453 = AXIS2_PLACEMENT_3D ( 'NONE', #940, #758, #407 ) ;
#454 = LOCAL_TIME ( 12, 38, 58.00000000000000000, #350 ) ;
#455 = DIRECTION ( 'NONE',  ( -1.360567432138672328E-16, 1.000000000000000000, 0.000000000000000000 ) ) ;
#456 = ADVANCED_FACE ( 'NONE', ( #19 ), #373, .T. ) ;
#457 = CARTESIAN_POINT ( 'NONE',  ( -5.499999999999998224, 15.50000000000000000, 20.00000000000000000 ) ) ;
#458 = ORIENTED_EDGE ( 'NONE', *, *, #803, .F. ) ;
#459 = VERTEX_POINT ( 'NONE', #728 ) ;
#460 = LINE ( 'NONE', #479, #11 ) ;
#461 = DIRECTION ( 'NONE',  ( 0.000000000000000000, -1.000000000000000000, 0.000000000000000000 ) ) ;
#462 = EDGE_CURVE ( 'NONE', #880, #892, #1095, .T. ) ;
#463 = VERTEX_POINT ( 'NONE', #292 ) ;
#464 = FACE_OUTER_BOUND ( 'NONE', #717, .T. ) ;
#465 = ORIENTED_EDGE ( 'NONE', *, *, #598, .T. ) ;
#466 = CARTESIAN_POINT ( 'NONE',  ( 25.50000000000000355, 15.50000000000000178, 20.00000000000000000 ) ) ;
#467 = DIRECTION ( 'NONE',  ( -0.000000000000000000, 1.000000000000000000, 0.000000000000000000 ) ) ;
#468 = EDGE_LOOP ( 'NONE', ( #89, #104, #543, #973 ) ) ;
#469 = ORIENTED_EDGE ( 'NONE', *, *, #858, .F. ) ;
#470 = AXIS2_PLACEMENT_3D ( 'NONE', #1021, #1047, #119 ) ;
#471 = CARTESIAN_POINT ( 'NONE',  ( -0.4999999999999935052, -25.50000000000000355, 32.00000000000000000 ) ) ;
#472 = AXIS2_PLACEMENT_3D ( 'NONE', #1137, #154, #68 ) ;
#473 = CARTESIAN_POINT ( 'NONE',  ( -25.49999999999999645, -25.50000000000000355, 130.0000000000000000 ) ) ;
#474 = ORIENTED_EDGE ( 'NONE', *, *, #662, .F. ) ;
#475 = EDGE_CURVE ( 'NONE', #37, #96, #743, .T. ) ;
#476 = CARTESIAN_POINT ( 'NONE',  ( 30.50000000000000711, -35.50000000000000711, 20.00000000000000000 ) ) ;
#477 = DIRECTION ( 'NONE',  ( 3.469446951953612217E-16, -1.000000000000000000, 0.000000000000000000 ) ) ;
#478 = ORIENTED_EDGE ( 'NONE', *, *, #713, .F. ) ;
#479 = CARTESIAN_POINT ( 'NONE',  ( -25.50000000000000355, -7.000000000000013323, 20.00000000000000000 ) ) ;
#480 = EDGE_CURVE ( 'NONE', #459, #671, #1010, .T. ) ;
#481 = LINE ( 'NONE', #837, #13 ) ;
#482 = CARTESIAN_POINT ( 'NONE',  ( -0.4999999999999970024, 20.50000000000000000, 0.000000000000000000 ) ) ;
#483 = ORIENTED_EDGE ( 'NONE', *, *, #1131, .T. ) ;
#484 = AXIS2_PLACEMENT_3D ( 'NONE', #1025, #853, #328 ) ;
#485 = CARTESIAN_POINT ( 'NONE',  ( 40.50000000000000711, -25.50000000000000355, 45.00000000000001421 ) ) ;
#486 = EDGE_CURVE ( 'NONE', #569, #791, #451, .T. ) ;
#487 = VECTOR ( 'NONE', #608, 1000.000000000000000 ) ;
#488 = DIRECTION ( 'NONE',  ( -0.000000000000000000, -0.000000000000000000, -1.000000000000000000 ) ) ;
#489 = LINE ( 'NONE', #770, #127 ) ;
#490 = EDGE_CURVE ( 'NONE', #1167, #751, #834, .T. ) ;
#491 = CARTESIAN_POINT ( 'NONE',  ( -0.4999999999999970024, -0.5000000000000004441, 20.00000000000000000 ) ) ;
#492 = ORIENTED_EDGE ( 'NONE', *, *, #78, .F. ) ;
#493 = CARTESIAN_POINT ( 'NONE',  ( 40.50000000000000711, -32.50000000000000000, 125.0000000000000000 ) ) ;
#494 = CARTESIAN_POINT ( 'NONE',  ( -0.4999999999999970024, 2.999999999999999112, 32.00000000000000000 ) ) ;
#495 = FACE_BOUND ( 'NONE', #850, .T. ) ;
#496 = EDGE_CURVE ( 'NONE', #988, #700, #400, .T. ) ;
#497 = LINE ( 'NONE', #930, #822 ) ;
#498 = VERTEX_POINT ( 'NONE', #503 ) ;
#499 = CARTESIAN_POINT ( 'NONE',  ( 0.000000000000000000, 0.000000000000000000, 20.00000000000000000 ) ) ;
#500 = CARTESIAN_POINT ( 'NONE',  ( -20.49999999999999645, -7.000000000000011546, 32.00000000000000000 ) ) ;
#501 = ORIENTED_EDGE ( 'NONE', *, *, #894, .F. ) ;
#502 = EDGE_CURVE ( 'NONE', #223, #1167, #589, .T. ) ;
#503 = CARTESIAN_POINT ( 'NONE',  ( -10.49999999999999822, 12.54999999999999538, 10.00000000000000000 ) ) ;
#504 = PLANE ( 'NONE',  #529 ) ;
#505 = AXIS2_PLACEMENT_3D ( 'NONE', #785, #989, #273 ) ;
#506 = DIRECTION ( 'NONE',  ( 0.000000000000000000, -1.000000000000000000, 0.000000000000000000 ) ) ;
#507 = AXIS2_PLACEMENT_3D ( 'NONE', #466, #9, #1008 ) ;
#508 = PLANE ( 'NONE',  #1029 ) ;
#509 = LINE ( 'NONE', #491, #318 ) ;
#510 = EDGE_LOOP ( 'NONE', ( #271, #532, #430, #617, #963, #645, #252, #592 ) ) ;
#511 = CARTESIAN_POINT ( 'NONE',  ( -10.49999999999999645, -7.000000000000007994, 32.00000000000000000 ) ) ;
#512 = MANIFOLD_SOLID_BREP ( 'Fillet1', #413 ) ;
#513 = EDGE_CURVE ( 'NONE', #671, #459, #673, .T. ) ;
#514 = DIRECTION ( 'NONE',  ( 1.000000000000000000, 0.000000000000000000, -0.000000000000000000 ) ) ;
#515 = APPROVAL_STATUS ( 'not_yet_approved' ) ;
#516 = PLANE ( 'NONE',  #169 ) ;
#517 = EDGE_LOOP ( 'NONE', ( #70, #692, #823, #446, #4, #1048, #888, #372 ) ) ;
#518 = ORIENTED_EDGE ( 'NONE', *, *, #537, .F. ) ;
#519 = DIRECTION ( 'NONE',  ( -0.000000000000000000, -0.000000000000000000, -1.000000000000000000 ) ) ;
#520 = CARTESIAN_POINT ( 'NONE',  ( -0.4999999999999970024, 2.999999999999999112, 20.00000000000000000 ) ) ;
#521 = DATE_AND_TIME ( #1150, #93 ) ;
#522 = DIRECTION ( 'NONE',  ( 1.000000000000000000, 1.652117596168387756E-16, -0.000000000000000000 ) ) ;
#523 = EDGE_LOOP ( 'NONE', ( #1146, #83, #1132, #246 ) ) ;
#524 = DIRECTION ( 'NONE',  ( 0.000000000000000000, 1.000000000000000000, 0.000000000000000000 ) ) ;
#525 = APPROVAL_DATE_TIME ( #329, #179 ) ;
#526 = VECTOR ( 'NONE', #1045, 1000.000000000000000 ) ;
#527 = CARTESIAN_POINT ( 'NONE',  ( 30.50000000000000711, -35.50000000000000711, 40.00000000000000711 ) ) ;
#528 = EDGE_CURVE ( 'NONE', #999, #819, #944, .T. ) ;
#529 = AXIS2_PLACEMENT_3D ( 'NONE', #52, #1031, #1129 ) ;
#530 = ORIENTED_EDGE ( 'NONE', *, *, #462, .T. ) ;
#531 = ORGANIZATION ( 'UNSPECIFIED', 'UNSPECIFIED', '' ) ;
#532 = ORIENTED_EDGE ( 'NONE', *, *, #648, .T. ) ;
#533 = FACE_OUTER_BOUND ( 'NONE', #782, .T. ) ;
#534 = DATE_AND_TIME ( #67, #454 ) ;
#535 = CARTESIAN_POINT ( 'NONE',  ( -25.49999999999999645, 2.999999999999996891, 20.00000000000000000 ) ) ;
#536 = VERTEX_POINT ( 'NONE', #574 ) ;
#537 = EDGE_CURVE ( 'NONE', #459, #498, #213, .T. ) ;
#538 = LINE ( 'NONE', #719, #241 ) ;
#539 = SHAPE_DEFINITION_REPRESENTATION ( #542, #848 ) ;
#540 = DIRECTION ( 'NONE',  ( -0.000000000000000000, -0.000000000000000000, 1.000000000000000000 ) ) ;
#541 = ORIENTED_EDGE ( 'NONE', *, *, #870, .F. ) ;
#542 = PRODUCT_DEFINITION_SHAPE ( 'NONE', 'NONE',  #1071 ) ;
#543 = ORIENTED_EDGE ( 'NONE', *, *, #490, .F. ) ;
#544 = ADVANCED_FACE ( 'NONE', ( #1043 ), #950, .F. ) ;
#545 = DIRECTION ( 'NONE',  ( 1.217349807703022609E-16, -1.000000000000000000, 0.000000000000000000 ) ) ;
#546 = DIRECTION ( 'NONE',  ( -1.000000000000000000, -1.360567432138672328E-16, -0.000000000000000000 ) ) ;
#547 = AXIS2_PLACEMENT_3D ( 'NONE', #882, #74, #432 ) ;
#548 = CARTESIAN_POINT ( 'NONE',  ( -0.4999999999999970024, 20.50000000000000000, 20.00000000000000000 ) ) ;
#549 = AXIS2_PLACEMENT_3D ( 'NONE', #756, #582, #938 ) ;
#550 = ORIENTED_EDGE ( 'NONE', *, *, #919, .F. ) ;
#551 = VECTOR ( 'NONE', #309, 1000.000000000000000 ) ;
#552 = DIRECTION ( 'NONE',  ( -0.000000000000000000, -0.000000000000000000, 1.000000000000000000 ) ) ;
#553 = ADVANCED_FACE ( 'NONE', ( #868 ), #852, .F. ) ;
#554 = CYLINDRICAL_SURFACE ( 'NONE', #840, 2.550000000000000266 ) ;
#555 = LINE ( 'NONE', #910, #47 ) ;
#556 = ORIENTED_EDGE ( 'NONE', *, *, #740, .T. ) ;
#557 = DIRECTION ( 'NONE',  ( 0.000000000000000000, 1.000000000000000000, 0.000000000000000000 ) ) ;
#558 = DIRECTION ( 'NONE',  ( 1.734723475976806848E-16, -1.000000000000000000, 0.000000000000000000 ) ) ;
#559 = ORIENTED_EDGE ( 'NONE', *, *, #1112, .F. ) ;
#560 = ORIENTED_EDGE ( 'NONE', *, *, #234, .F. ) ;
#561 = LINE ( 'NONE', #1081, #108 ) ;
#562 = LINE ( 'NONE', #374, #205 ) ;
#563 = EDGE_CURVE ( 'NONE', #1035, #1138, #1036, .T. ) ;
#564 = ORIENTED_EDGE ( 'NONE', *, *, #35, .T. ) ;
#565 = VECTOR ( 'NONE', #557, 1000.000000000000000 ) ;
#566 = DIRECTION ( 'NONE',  ( -1.000000000000000000, 0.000000000000000000, -1.137523590804463576E-16 ) ) ;
#567 = VECTOR ( 'NONE', #704, 1000.000000000000000 ) ;
#568 = DIRECTION ( 'NONE',  ( 0.000000000000000000, -1.000000000000000000, 0.000000000000000000 ) ) ;
#569 = VERTEX_POINT ( 'NONE', #860 ) ;
#570 = EDGE_CURVE ( 'NONE', #1062, #7, #43, .T. ) ;
#571 = CARTESIAN_POINT ( 'NONE',  ( 30.50000000000000355, -25.50000000000000355, 130.0000000000000000 ) ) ;
#572 = CARTESIAN_POINT ( 'NONE',  ( 40.50000000000000711, -32.50000000000000000, 45.00000000000001421 ) ) ;
#573 = ORIENTED_EDGE ( 'NONE', *, *, #1033, .F. ) ;
#574 = CARTESIAN_POINT ( 'NONE',  ( -10.49999999999999112, -35.50000000000000711, 0.000000000000000000 ) ) ;
#575 = EDGE_CURVE ( 'NONE', #1147, #253, #1051, .T. ) ;
#576 = DIRECTION ( 'NONE',  ( 0.000000000000000000, 0.000000000000000000, 1.000000000000000000 ) ) ;
#577 = DIRECTION ( 'NONE',  ( 1.000000000000000000, 0.000000000000000000, 0.000000000000000000 ) ) ;
#578 = DIRECTION ( 'NONE',  ( -0.000000000000000000, 1.000000000000000000, -0.000000000000000000 ) ) ;
#579 = ADVANCED_FACE ( 'NONE', ( #668 ), #303, .F. ) ;
#580 = ORIENTED_EDGE ( 'NONE', *, *, #192, .T. ) ;
#581 = AXIS2_PLACEMENT_3D ( 'NONE', #768, #138, #122 ) ;
#582 = DIRECTION ( 'NONE',  ( -1.000000000000000000, 0.000000000000000000, 0.000000000000000000 ) ) ;
#583 = AXIS2_PLACEMENT_3D ( 'NONE', #307, #392, #327 ) ;
#584 = DIRECTION ( 'NONE',  ( 0.000000000000000000, 1.000000000000000000, 0.000000000000000000 ) ) ;
#585 = EDGE_CURVE ( 'NONE', #100, #911, #765, .T. ) ;
#586 = VECTOR ( 'NONE', #176, 1000.000000000000000 ) ;
#587 = PLANE ( 'NONE',  #453 ) ;
#588 = VERTEX_POINT ( 'NONE', #932 ) ;
#589 = LINE ( 'NONE', #493, #297 ) ;
#590 = DIRECTION ( 'NONE',  ( 0.000000000000000000, 0.000000000000000000, 1.000000000000000000 ) ) ;
#591 = DIRECTION ( 'NONE',  ( -1.000000000000000000, 0.000000000000000000, -0.000000000000000000 ) ) ;
#592 = ORIENTED_EDGE ( 'NONE', *, *, #117, .F. ) ;
#593 = CARTESIAN_POINT ( 'NONE',  ( -10.49999999999999112, -25.50000000000000355, 130.0000000000000000 ) ) ;
#594 = CARTESIAN_POINT ( 'NONE',  ( 30.50000000000000711, -35.50000000000000711, 0.000000000000000000 ) ) ;
#595 = CARTESIAN_POINT ( 'NONE',  ( -10.49999999999999645, -7.000000000000007994, 0.000000000000000000 ) ) ;
#596 = CARTESIAN_POINT ( 'NONE',  ( 25.50000000000000355, 15.50000000000000178, 20.00000000000000000 ) ) ;
#597 = ORIENTED_EDGE ( 'NONE', *, *, #851, .T. ) ;
#598 = EDGE_CURVE ( 'NONE', #700, #424, #663, .T. ) ;
#599 = CARTESIAN_POINT ( 'NONE',  ( 45.50000000000001421, 12.55000000000000249, 10.00000000000000000 ) ) ;
#600 = DIRECTION ( 'NONE',  ( -1.000000000000000000, 0.000000000000000000, 0.000000000000000000 ) ) ;
#601 = CIRCLE ( 'NONE', #656, 5.000000000000000888 ) ;
#602 = VECTOR ( 'NONE', #1109, 1000.000000000000000 ) ;
#603 = CC_DESIGN_APPROVAL ( #927, ( #961 ) ) ;
#604 = DIRECTION ( 'NONE',  ( -1.652117596168387756E-16, 1.000000000000000000, 0.000000000000000000 ) ) ;
#605 = ORIENTED_EDGE ( 'NONE', *, *, #836, .F. ) ;
#606 = ORIENTED_EDGE ( 'NONE', *, *, #570, .F. ) ;
#607 = FACE_OUTER_BOUND ( 'NONE', #783, .T. ) ;
#608 = DIRECTION ( 'NONE',  ( -0.000000000000000000, 1.000000000000000000, -0.000000000000000000 ) ) ;
#609 = APPLICATION_PROTOCOL_DEFINITION ( 'international standard', 'config_control_design', 1994, #734 ) ;
#610 = LINE ( 'NONE', #444, #298 ) ;
#611 = ORIENTED_EDGE ( 'NONE', *, *, #1112, .T. ) ;
#612 = ORIENTED_EDGE ( 'NONE', *, *, #410, .F. ) ;
#613 = CARTESIAN_POINT ( 'NONE',  ( 40.50000000000000711, -25.50000000000000355, 130.0000000000000000 ) ) ;
#614 = EDGE_CURVE ( 'NONE', #742, #705, #841, .T. ) ;
#615 = CARTESIAN_POINT ( 'NONE',  ( 20.50000000000000000, 20.50000000000000000, 20.00000000000000000 ) ) ;
#616 = ORIENTED_EDGE ( 'NONE', *, *, #513, .F. ) ;
#617 = ORIENTED_EDGE ( 'NONE', *, *, #1044, .F. ) ;
#618 = LINE ( 'NONE', #1162, #487 ) ;
#619 = APPROVAL_ROLE ( '' ) ;
#620 = ADVANCED_FACE ( 'NONE', ( #1124, #32 ), #1113, .F. ) ;
#621 = DIRECTION ( 'NONE',  ( 1.000000000000000000, -0.000000000000000000, -0.000000000000000000 ) ) ;
#622 = VECTOR ( 'NONE', #312, 1000.000000000000000 ) ;
#623 = ORIENTED_EDGE ( 'NONE', *, *, #1164, .T. ) ;
#624 = AXIS2_PLACEMENT_3D ( 'NONE', #1066, #262, #251 ) ;
#625 = ORIENTED_EDGE ( 'NONE', *, *, #428, .T. ) ;
#626 = DIRECTION ( 'NONE',  ( -1.000000000000000000, -1.360567432138672328E-16, 0.000000000000000000 ) ) ;
#627 = PERSON_AND_ORGANIZATION_ROLE ( 'design_owner' ) ;
#628 = CARTESIAN_POINT ( 'NONE',  ( 20.50000000000000000, 20.50000000000000000, 20.00000000000000000 ) ) ;
#629 = EDGE_LOOP ( 'NONE', ( #639, #974, #879, #478, #166, #893, #764, #801, #31, #190 ) ) ;
#630 = EDGE_CURVE ( 'NONE', #295, #588, #405, .T. ) ;
#631 = ORIENTED_EDGE ( 'NONE', *, *, #475, .F. ) ;
#632 = DIRECTION ( 'NONE',  ( -1.000000000000000000, -3.469446951953612217E-16, -0.000000000000000000 ) ) ;
#633 = CYLINDRICAL_SURFACE ( 'NONE', #342, 2.550000000000000266 ) ;
#634 = CARTESIAN_POINT ( 'NONE',  ( -10.49999999999999822, 20.50000000000000000, 20.00000000000000000 ) ) ;
#635 = VERTEX_POINT ( 'NONE', #224 ) ;
#636 = EDGE_CURVE ( 'NONE', #635, #243, #679, .T. ) ;
#637 = LINE ( 'NONE', #201, #767 ) ;
#638 = FACE_OUTER_BOUND ( 'NONE', #523, .T. ) ;
#639 = ORIENTED_EDGE ( 'NONE', *, *, #966, .F. ) ;
#640 = VERTEX_POINT ( 'NONE', #425 ) ;
#641 = VECTOR ( 'NONE', #979, 1000.000000000000000 ) ;
#642 = CARTESIAN_POINT ( 'NONE',  ( 20.50000000000000000, 9.999999999999998224, 10.00000000000000000 ) ) ;
#643 = PLANE ( 'NONE',  #978 ) ;
#644 = ORIENTED_EDGE ( 'NONE', *, *, #636, .F. ) ;
#645 = ORIENTED_EDGE ( 'NONE', *, *, #716, .F. ) ;
#646 = ADVANCED_FACE ( 'NONE', ( #607 ), #1134, .F. ) ;
#647 = LINE ( 'NONE', #385, #203 ) ;
#648 = EDGE_CURVE ( 'NONE', #24, #536, #334, .T. ) ;
#649 = DIRECTION ( 'NONE',  ( 1.000000000000000000, -0.000000000000000000, -0.000000000000000000 ) ) ;
#650 = ORIENTED_EDGE ( 'NONE', *, *, #713, .T. ) ;
#651 = CARTESIAN_POINT ( 'NONE',  ( -0.5000000000000004441, 9.999999999999994671, 10.00000000000000000 ) ) ;
#652 = CARTESIAN_POINT ( 'NONE',  ( 20.50000000000000000, 20.50000000000000000, 20.00000000000000000 ) ) ;
#653 = APPROVAL ( #515, 'UNSPECIFIED' ) ;
#654 = CIRCLE ( 'NONE', #581, 5.000000000000000888 ) ;
#655 = ORIENTED_EDGE ( 'NONE', *, *, #15, .F. ) ;
#656 = AXIS2_PLACEMENT_3D ( 'NONE', #1092, #116, #23 ) ;
#657 = VECTOR ( 'NONE', #558, 1000.000000000000000 ) ;
#658 = LINE ( 'NONE', #5, #242 ) ;
#659 = APPROVAL_PERSON_ORGANIZATION ( #355, #179, #968 ) ;
#660 = FACE_OUTER_BOUND ( 'NONE', #517, .T. ) ;
#661 = ORIENTED_EDGE ( 'NONE', *, *, #502, .T. ) ;
#662 = EDGE_CURVE ( 'NONE', #880, #95, #248, .T. ) ;
#663 = LINE ( 'NONE', #322, #731 ) ;
#664 = ORIENTED_EDGE ( 'NONE', *, *, #207, .F. ) ;
#665 = PLANE ( 'NONE',  #361 ) ;
#666 = ORIENTED_EDGE ( 'NONE', *, *, #331, .T. ) ;
#667 = ADVANCED_FACE ( 'NONE', ( #137 ), #504, .F. ) ;
#668 = FACE_OUTER_BOUND ( 'NONE', #88, .T. ) ;
#669 = FACE_OUTER_BOUND ( 'NONE', #1139, .T. ) ;
#670 = FACE_BOUND ( 'NONE', #1042, .T. ) ;
#671 = VERTEX_POINT ( 'NONE', #59 ) ;
#672 = CARTESIAN_POINT ( 'NONE',  ( -0.4999999999999970024, 2.999999999999999112, 20.00000000000000000 ) ) ;
#673 = CIRCLE ( 'NONE', #1122, 2.550000000000000266 ) ;
#674 = LINE ( 'NONE', #1032, #378 ) ;
#675 = APPROVAL_PERSON_ORGANIZATION ( #798, #653, #619 ) ;
#676 = CARTESIAN_POINT ( 'NONE',  ( -10.49999999999999822, 20.50000000000000000, 0.000000000000000000 ) ) ;
#677 = CARTESIAN_POINT ( 'NONE',  ( 20.50000000000000000, 9.999999999999998224, 10.00000000000000000 ) ) ;
#678 = ORIENTED_EDGE ( 'NONE', *, *, #496, .F. ) ;
#679 = LINE ( 'NONE', #593, #1028 ) ;
#680 = PLANE ( 'NONE',  #857 ) ;
#681 = DIRECTION ( 'NONE',  ( -1.000000000000000000, -0.000000000000000000, 0.000000000000000000 ) ) ;
#682 = ADVANCED_FACE ( 'NONE', ( #464 ), #1110, .T. ) ;
#683 = CYLINDRICAL_SURFACE ( 'NONE', #470, 2.550000000000000266 ) ;
#684 = ORIENTED_EDGE ( 'NONE', *, *, #199, .F. ) ;
#685 = PERSON ( 'UNSPECIFIED', 'UNSPECIFIED', 'UNSPECIFIED', ('UNSPECIFIED'), ('UNSPECIFIED'), ('UNSPECIFIED') ) ;
#686 = VERTEX_POINT ( 'NONE', #1126 ) ;
#687 = DIRECTION ( 'NONE',  ( 0.000000000000000000, 0.000000000000000000, -1.000000000000000000 ) ) ;
#688 = CARTESIAN_POINT ( 'NONE',  ( -10.49999999999999645, -2.000000000000008882, 0.000000000000000000 ) ) ;
#689 = APPROVAL_STATUS ( 'not_yet_approved' ) ;
#690 = EDGE_CURVE ( 'NONE', #699, #1035, #497, .T. ) ;
#691 = ORIENTED_EDGE ( 'NONE', *, *, #92, .F. ) ;
#692 = ORIENTED_EDGE ( 'NONE', *, *, #199, .T. ) ;
#693 = DIRECTION ( 'NONE',  ( -1.000000000000000000, -0.000000000000000000, -0.000000000000000000 ) ) ;
#694 = VECTOR ( 'NONE', #249, 1000.000000000000000 ) ;
#695 = CARTESIAN_POINT ( 'NONE',  ( 30.50000000000000711, -35.50000000000000711, 20.00000000000000000 ) ) ;
#696 = AXIS2_PLACEMENT_3D ( 'NONE', #1052, #965, #777 ) ;
#697 = VECTOR ( 'NONE', #953, 1000.000000000000000 ) ;
#698 = CARTESIAN_POINT ( 'NONE',  ( 25.50000000000000355, 20.50000000000000355, 20.00000000000000000 ) ) ;
#699 = VERTEX_POINT ( 'NONE', #325 ) ;
#700 = VERTEX_POINT ( 'NONE', #235 ) ;
#701 = EDGE_CURVE ( 'NONE', #367, #880, #509, .T. ) ;
#702 = LINE ( 'NONE', #967, #265 ) ;
#703 = DATE_AND_TIME ( #336, #998 ) ;
#704 = DIRECTION ( 'NONE',  ( 1.000000000000000000, 0.000000000000000000, 0.000000000000000000 ) ) ;
#705 = VERTEX_POINT ( 'NONE', #330 ) ;
#706 = EDGE_LOOP ( 'NONE', ( #3, #1003, #79, #501 ) ) ;
#707 = ADVANCED_FACE ( 'NONE', ( #942 ), #683, .F. ) ;
#708 = CARTESIAN_POINT ( 'NONE',  ( -25.49999999999999645, 2.999999999999996891, 20.00000000000000000 ) ) ;
#709 = FACE_BOUND ( 'NONE', #1111, .T. ) ;
#710 = VERTEX_POINT ( 'NONE', #948 ) ;
#711 = ORIENTED_EDGE ( 'NONE', *, *, #585, .F. ) ;
#712 = DIRECTION ( 'NONE',  ( -1.000000000000000000, -1.360567432138672328E-16, 0.000000000000000000 ) ) ;
#713 = EDGE_CURVE ( 'NONE', #892, #206, #310, .T. ) ;
#714 = LINE ( 'NONE', #87, #1014 ) ;
#715 = AXIS2_PLACEMENT_3D ( 'NONE', #520, #455, #626 ) ;
#716 = EDGE_CURVE ( 'NONE', #828, #999, #320, .T. ) ;
#717 = EDGE_LOOP ( 'NONE', ( #348, #1067, #216, #1027 ) ) ;
#718 = ORIENTED_EDGE ( 'NONE', *, *, #1096, .T. ) ;
#719 = CARTESIAN_POINT ( 'NONE',  ( 20.50000000000000000, 20.50000000000000000, 20.00000000000000000 ) ) ;
#720 = CARTESIAN_POINT ( 'NONE',  ( -0.4999999999999970024, -0.5000000000000004441, 20.00000000000000000 ) ) ;
#721 = PRODUCT_RELATED_PRODUCT_CATEGORY ( 'detail', '', ( #1154 ) ) ;
#722 = LINE ( 'NONE', #634, #1068 ) ;
#723 = ORIENTED_EDGE ( 'NONE', *, *, #447, .F. ) ;
#724 = DIRECTION ( 'NONE',  ( 1.000000000000000000, 1.652117596168387756E-16, -0.000000000000000000 ) ) ;
#725 = DIRECTION ( 'NONE',  ( 1.000000000000000000, 3.469446951953614189E-16, 0.000000000000000000 ) ) ;
#726 = ORIENTED_EDGE ( 'NONE', *, *, #142, .T. ) ;
#727 = ORIENTED_EDGE ( 'NONE', *, *, #480, .F. ) ;
#728 = CARTESIAN_POINT ( 'NONE',  ( -0.5000000000000004441, 12.54999999999999538, 10.00000000000000000 ) ) ;
#729 = DIRECTION ( 'NONE',  ( -0.000000000000000000, 1.000000000000000000, -0.000000000000000000 ) ) ;
#730 = CARTESIAN_POINT ( 'NONE',  ( -10.49999999999999112, -35.50000000000000711, 20.00000000000000000 ) ) ;
#731 = VECTOR ( 'NONE', #121, 1000.000000000000000 ) ;
#732 = ORIENTED_EDGE ( 'NONE', *, *, #1049, .F. ) ;
#733 = VECTOR ( 'NONE', #744, 1000.000000000000000 ) ;
#734 = APPLICATION_CONTEXT ( 'configuration controlled 3d designs of mechanical parts and assemblies' ) ;
#735 = ADVANCED_FACE ( 'NONE', ( #134 ), #849, .F. ) ;
#736 = DIRECTION ( 'NONE',  ( -1.000000000000000000, -1.360567432138672328E-16, -0.000000000000000000 ) ) ;
#737 = CARTESIAN_POINT ( 'NONE',  ( -10.49999999999999645, -7.000000000000007994, 0.000000000000000000 ) ) ;
#738 = ORIENTED_EDGE ( 'NONE', *, *, #575, .F. ) ;
#739 = DIRECTION ( 'NONE',  ( 0.000000000000000000, -0.000000000000000000, 1.000000000000000000 ) ) ;
#740 = EDGE_CURVE ( 'NONE', #671, #1050, #763, .T. ) ;
#741 = FACE_OUTER_BOUND ( 'NONE', #992, .T. ) ;
#742 = VERTEX_POINT ( 'NONE', #398 ) ;
#743 = LINE ( 'NONE', #571, #359 ) ;
#744 = DIRECTION ( 'NONE',  ( 1.652117596168387756E-16, -1.000000000000000000, 0.000000000000000000 ) ) ;
#745 = EDGE_CURVE ( 'NONE', #887, #291, #222, .T. ) ;
#746 = AXIS2_PLACEMENT_3D ( 'NONE', #60, #152, #842 ) ;
#747 = EDGE_LOOP ( 'NONE', ( #281, #130 ) ) ;
#748 = VECTOR ( 'NONE', #545, 1000.000000000000000 ) ;
#749 = VECTOR ( 'NONE', #985, 1000.000000000000000 ) ;
#750 = DIRECTION ( 'NONE',  ( -1.000000000000000000, -0.000000000000000000, -0.000000000000000000 ) ) ;
#751 = VERTEX_POINT ( 'NONE', #140 ) ;
#752 = CARTESIAN_POINT ( 'NONE',  ( -5.499999999999998224, 20.50000000000000000, 20.00000000000000000 ) ) ;
#753 = ADVANCED_FACE ( 'NONE', ( #709, #338 ), #160, .F. ) ;
#754 = DIRECTION ( 'NONE',  ( 1.000000000000000000, 1.652117596168387756E-16, -0.000000000000000000 ) ) ;
#755 = VERTEX_POINT ( 'NONE', #878 ) ;
#756 = CARTESIAN_POINT ( 'NONE',  ( 30.50000000000000711, 10.00000000000000000, 10.00000000000000000 ) ) ;
#757 = CARTESIAN_POINT ( 'NONE',  ( -0.4999999999999941713, -20.49999999999999289, 20.00000000000000000 ) ) ;
#758 = DIRECTION ( 'NONE',  ( 0.000000000000000000, 0.000000000000000000, -1.000000000000000000 ) ) ;
#759 = ORIENTED_EDGE ( 'NONE', *, *, #870, .T. ) ;
#760 = DIRECTION ( 'NONE',  ( 0.000000000000000000, -1.000000000000000000, 0.000000000000000000 ) ) ;
#761 = CARTESIAN_POINT ( 'NONE',  ( -10.49999999999999822, 15.50000000000000000, 0.000000000000000000 ) ) ;
#762 = DIRECTION ( 'NONE',  ( -0.000000000000000000, -0.000000000000000000, -1.000000000000000000 ) ) ;
#763 = LINE ( 'NONE', #1039, #697 ) ;
#764 = ORIENTED_EDGE ( 'NONE', *, *, #1131, .F. ) ;
#765 = LINE ( 'NONE', #511, #936 ) ;
#766 = EDGE_CURVE ( 'NONE', #999, #898, #780, .T. ) ;
#767 = VECTOR ( 'NONE', #185, 1000.000000000000000 ) ;
#768 = CARTESIAN_POINT ( 'NONE',  ( -5.499999999999998224, 15.50000000000000000, 0.000000000000000000 ) ) ;
#769 = VECTOR ( 'NONE', #204, 1000.000000000000000 ) ;
#770 = CARTESIAN_POINT ( 'NONE',  ( -25.49999999999999645, -2.000000000000008882, 20.00000000000000000 ) ) ;
#771 = VERTEX_POINT ( 'NONE', #365 ) ;
#772 = DIRECTION ( 'NONE',  ( -1.000000000000000000, 0.000000000000000000, -0.000000000000000000 ) ) ;
#773 = LINE ( 'NONE', #688, #526 ) ;
#774 = EDGE_CURVE ( 'NONE', #7, #100, #714, .T. ) ;
#775 = APPROVAL_DATE_TIME ( #703, #653 ) ;
#776 = ORIENTED_EDGE ( 'NONE', *, *, #1049, .T. ) ;
#777 = DIRECTION ( 'NONE',  ( -4.336808689942018352E-17, 0.000000000000000000, 1.000000000000000000 ) ) ;
#778 = PLANE ( 'NONE',  #124 ) ;
#779 = DATE_TIME_ROLE ( 'classification_date' ) ;
#780 = LINE ( 'NONE', #351, #749 ) ;
#781 = EDGE_CURVE ( 'NONE', #856, #441, #1151, .T. ) ;
#782 = EDGE_LOOP ( 'NONE', ( #302, #986, #469, #1061, #304 ) ) ;
#783 = EDGE_LOOP ( 'NONE', ( #465, #684, #605, #564 ) ) ;
#784 = VECTOR ( 'NONE', #488, 1000.000000000000000 ) ;
#785 = CARTESIAN_POINT ( 'NONE',  ( -10.49999999999999112, -25.50000000000000355, 130.0000000000000000 ) ) ;
#786 = VECTOR ( 'NONE', #760, 1000.000000000000000 ) ;
#787 = VECTOR ( 'NONE', #30, 1000.000000000000000 ) ;
#788 = LINE ( 'NONE', #449, #1072 ) ;
#789 = ORIENTED_EDGE ( 'NONE', *, *, #1064, .T. ) ;
#790 = ADVANCED_FACE ( 'NONE', ( #1157 ), #972, .T. ) ;
#791 = VERTEX_POINT ( 'NONE', #698 ) ;
#792 = CARTESIAN_POINT ( 'NONE',  ( -20.49999999999998934, 0.000000000000000000, 130.0000000000000000 ) ) ;
#793 = APPROVAL_ROLE ( '' ) ;
#794 = DIRECTION ( 'NONE',  ( 0.000000000000000000, -1.000000000000000000, 0.000000000000000000 ) ) ;
#795 = ORIENTED_EDGE ( 'NONE', *, *, #254, .T. ) ;
#796 = ORIENTED_EDGE ( 'NONE', *, *, #1040, .F. ) ;
#797 = CARTESIAN_POINT ( 'NONE',  ( 30.50000000000000711, 15.50000000000000000, 0.000000000000000000 ) ) ;
#798 = PERSON_AND_ORGANIZATION ( #685, #531 ) ;
#799 = FACE_OUTER_BOUND ( 'NONE', #866, .T. ) ;
#800 = DIRECTION ( 'NONE',  ( -1.000000000000000000, 0.000000000000000000, 0.000000000000000000 ) ) ;
#801 = ORIENTED_EDGE ( 'NONE', *, *, #371, .T. ) ;
#802 = DIRECTION ( 'NONE',  ( 0.000000000000000000, -1.000000000000000000, 0.000000000000000000 ) ) ;
#803 = EDGE_CURVE ( 'NONE', #705, #18, #903, .T. ) ;
#804 = VECTOR ( 'NONE', #800, 1000.000000000000000 ) ;
#805 = VECTOR ( 'NONE', #136, 1000.000000000000000 ) ;
#806 = DIRECTION ( 'NONE',  ( -0.000000000000000000, -0.000000000000000000, -1.000000000000000000 ) ) ;
#807 = VECTOR ( 'NONE', #233, 1000.000000000000000 ) ;
#808 = ORIENTED_EDGE ( 'NONE', *, *, #410, .T. ) ;
#809 = APPROVAL_PERSON_ORGANIZATION ( #1136, #927, #793 ) ;
#810 = ORIENTED_EDGE ( 'NONE', *, *, #123, .F. ) ;
#811 = LINE ( 'NONE', #983, #126 ) ;
#812 = DIRECTION ( 'NONE',  ( 0.000000000000000000, -0.000000000000000000, 1.000000000000000000 ) ) ;
#813 = ORIENTED_EDGE ( 'NONE', *, *, #614, .F. ) ;
#814 = EDGE_LOOP ( 'NONE', ( #65, #340, #474, #530, #650, #141, #492, #691, #1094 ) ) ;
#815 = DIRECTION ( 'NONE',  ( -0.000000000000000000, -0.000000000000000000, 1.000000000000000000 ) ) ;
#816 = CARTESIAN_POINT ( 'NONE',  ( -25.49999999999999289, -35.50000000000000711, 20.00000000000000000 ) ) ;
#817 = CARTESIAN_POINT ( 'NONE',  ( 30.50000000000000711, -25.50000000000000355, 40.00000000000000711 ) ) ;
#818 = ADVANCED_FACE ( 'NONE', ( #799 ), #516, .F. ) ;
#819 = VERTEX_POINT ( 'NONE', #527 ) ;
#820 = CARTESIAN_POINT ( 'NONE',  ( 30.50000000000000711, 15.50000000000000000, 20.00000000000000000 ) ) ;
#821 = CARTESIAN_POINT ( 'NONE',  ( -20.49999999999999645, -2.000000000000008882, 0.000000000000000000 ) ) ;
#822 = VECTOR ( 'NONE', #838, 1000.000000000000000 ) ;
#823 = ORIENTED_EDGE ( 'NONE', *, *, #102, .T. ) ;
#824 = EDGE_CURVE ( 'NONE', #640, #892, #81, .T. ) ;
#825 = AXIS2_PLACEMENT_3D ( 'NONE', #677, #754, #229 ) ;
#826 = DIRECTION ( 'NONE',  ( -1.000000000000000000, 0.000000000000000000, 0.000000000000000000 ) ) ;
#827 = DIRECTION ( 'NONE',  ( -1.000000000000000000, -1.360567432138672328E-16, 0.000000000000000000 ) ) ;
#828 = VERTEX_POINT ( 'NONE', #63 ) ;
#829 = DESIGN_CONTEXT ( 'detailed design', #734, 'design' ) ;
#830 = CARTESIAN_POINT ( 'NONE',  ( -20.49999999999998934, -25.50000000000000355, 130.0000000000000000 ) ) ;
#831 = EDGE_CURVE ( 'NONE', #791, #897, #1055, .T. ) ;
#832 = CYLINDRICAL_SURFACE ( 'NONE', #1053, 5.000000000000000888 ) ;
#833 = VERTEX_POINT ( 'NONE', #76 ) ;
#834 = LINE ( 'NONE', #380, #1161 ) ;
#835 = VERTEX_POINT ( 'NONE', #434 ) ;
#836 = EDGE_CURVE ( 'NONE', #751, #755, #788, .T. ) ;
#837 = CARTESIAN_POINT ( 'NONE',  ( 20.50000000000000000, 20.50000000000000000, 20.00000000000000000 ) ) ;
#838 = DIRECTION ( 'NONE',  ( -1.734723475976806848E-16, 1.000000000000000000, 0.000000000000000000 ) ) ;
#839 = ORIENTED_EDGE ( 'NONE', *, *, #289, .F. ) ;
#840 = AXIS2_PLACEMENT_3D ( 'NONE', #918, #909, #568 ) ;
#841 = LINE ( 'NONE', #231, #622 ) ;
#842 = DIRECTION ( 'NONE',  ( 0.000000000000000000, -1.000000000000000000, 0.000000000000000000 ) ) ;
#843 = CARTESIAN_POINT ( 'NONE',  ( -20.49999999999999645, -2.000000000000008882, 32.00000000000000000 ) ) ;
#844 = ORIENTED_EDGE ( 'NONE', *, *, #27, .T. ) ;
#845 = DIRECTION ( 'NONE',  ( -1.000000000000000000, -1.360567432138672328E-16, -0.000000000000000000 ) ) ;
#846 = DIRECTION ( 'NONE',  ( -1.000000000000000000, -1.360567432138672328E-16, 0.000000000000000000 ) ) ;
#847 = DIRECTION ( 'NONE',  ( -1.000000000000000000, -0.000000000000000000, -0.000000000000000000 ) ) ;
#848 = ADVANCED_BREP_SHAPE_REPRESENTATION ( 'StandMotor', ( #512, #937 ), #1141 ) ;
#849 = PLANE ( 'NONE',  #1089 ) ;
#850 = EDGE_LOOP ( 'NONE', ( #403, #573, #711, #981 ) ) ;
#851 = EDGE_CURVE ( 'NONE', #95, #436, #610, .T. ) ;
#852 = CYLINDRICAL_SURFACE ( 'NONE', #583, 2.550000000000000266 ) ;
#853 = DIRECTION ( 'NONE',  ( 0.000000000000000000, 0.000000000000000000, 1.000000000000000000 ) ) ;
#854 = DIRECTION ( 'NONE',  ( 1.000000000000000000, 0.000000000000000000, -0.000000000000000000 ) ) ;
#855 = DIRECTION ( 'NONE',  ( 0.000000000000000000, 0.000000000000000000, -1.000000000000000000 ) ) ;
#856 = VERTEX_POINT ( 'NONE', #969 ) ;
#857 = AXIS2_PLACEMENT_3D ( 'NONE', #232, #323, #406 ) ;
#858 = EDGE_CURVE ( 'NONE', #686, #771, #172, .T. ) ;
#859 = VECTOR ( 'NONE', #907, 1000.000000000000000 ) ;
#860 = CARTESIAN_POINT ( 'NONE',  ( 30.50000000000000711, 15.50000000000000000, 20.00000000000000000 ) ) ;
#861 = CIRCLE ( 'NONE', #435, 2.550000000000000266 ) ;
#862 = FACE_OUTER_BOUND ( 'NONE', #706, .T. ) ;
#863 = VECTOR ( 'NONE', #6, 1000.000000000000000 ) ;
#864 = DIRECTION ( 'NONE',  ( 0.000000000000000000, 0.000000000000000000, -1.000000000000000000 ) ) ;
#865 = DIRECTION ( 'NONE',  ( -1.000000000000000000, -0.000000000000000000, -0.000000000000000000 ) ) ;
#866 = EDGE_LOOP ( 'NONE', ( #383, #1108, #41, #606 ) ) ;
#867 = ORIENTED_EDGE ( 'NONE', *, *, #384, .T. ) ;
#868 = FACE_OUTER_BOUND ( 'NONE', #1090, .T. ) ;
#869 = LINE ( 'NONE', #939, #219 ) ;
#870 = EDGE_CURVE ( 'NONE', #367, #640, #257, .T. ) ;
#871 = COORDINATED_UNIVERSAL_TIME_OFFSET ( 0, 0, .AHEAD. ) ;
#872 = CARTESIAN_POINT ( 'NONE',  ( -0.4999999999999970024, -0.5000000000000004441, 0.000000000000000000 ) ) ;
#873 = ORIENTED_EDGE ( 'NONE', *, *, #270, .T. ) ;
#874 = ORIENTED_EDGE ( 'NONE', *, *, #158, .F. ) ;
#875 = LINE ( 'NONE', #889, #694 ) ;
#876 = APPROVAL_STATUS ( 'not_yet_approved' ) ;
#877 = EDGE_CURVE ( 'NONE', #536, #111, #346, .T. ) ;
#878 = CARTESIAN_POINT ( 'NONE',  ( -20.49999999999998934, -32.50000000000000000, 130.0000000000000000 ) ) ;
#879 = ORIENTED_EDGE ( 'NONE', *, *, #1155, .F. ) ;
#880 = VERTEX_POINT ( 'NONE', #720 ) ;
#881 = VECTOR ( 'NONE', #584, 1000.000000000000000 ) ;
#882 = CARTESIAN_POINT ( 'NONE',  ( 0.000000000000000000, 0.000000000000000000, 20.00000000000000000 ) ) ;
#883 = VECTOR ( 'NONE', #519, 1000.000000000000000 ) ;
#884 = COORDINATED_UNIVERSAL_TIME_OFFSET ( 0, 0, .AHEAD. ) ;
#885 = AXIS2_PLACEMENT_3D ( 'NONE', #737, #1093, #725 ) ;
#886 = CARTESIAN_POINT ( 'NONE',  ( 25.50000000000000355, 20.50000000000000355, 20.00000000000000000 ) ) ;
#887 = VERTEX_POINT ( 'NONE', #1077 ) ;
#888 = ORIENTED_EDGE ( 'NONE', *, *, #636, .T. ) ;
#889 = CARTESIAN_POINT ( 'NONE',  ( -10.49999999999999822, 15.50000000000000000, 20.00000000000000000 ) ) ;
#890 = CALENDAR_DATE ( 2026, 22, 8 ) ;
#891 = CARTESIAN_POINT ( 'NONE',  ( -20.49999999999999645, -2.000000000000008882, 0.000000000000000000 ) ) ;
#892 = VERTEX_POINT ( 'NONE', #440 ) ;
#893 = ORIENTED_EDGE ( 'NONE', *, *, #1011, .F. ) ;
#894 = EDGE_CURVE ( 'NONE', #243, #223, #429, .T. ) ;
#895 = PLANE ( 'NONE',  #505 ) ;
#896 = DIRECTION ( 'NONE',  ( -1.000000000000000000, -0.000000000000000000, -0.000000000000000000 ) ) ;
#897 = VERTEX_POINT ( 'NONE', #269 ) ;
#898 = VERTEX_POINT ( 'NONE', #12 ) ;
#899 = EDGE_CURVE ( 'NONE', #463, #95, #73, .T. ) ;
#900 = CARTESIAN_POINT ( 'NONE',  ( 40.50000000000000711, -32.50000000000000000, 130.0000000000000000 ) ) ;
#901 = AXIS2_PLACEMENT_3D ( 'NONE', #499, #687, #772 ) ;
#902 = CARTESIAN_POINT ( 'NONE',  ( -10.49999999999999645, -7.000000000000007994, 32.00000000000000000 ) ) ;
#903 = CIRCLE ( 'NONE', #624, 5.000000000000000888 ) ;
#904 = ORIENTED_EDGE ( 'NONE', *, *, #354, .T. ) ;
#905 = LOCAL_TIME ( 12, 38, 58.00000000000000000, #163 ) ;
#906 = ORIENTED_EDGE ( 'NONE', *, *, #129, .F. ) ;
#907 = DIRECTION ( 'NONE',  ( -0.000000000000000000, -0.000000000000000000, -1.000000000000000000 ) ) ;
#908 = ADVANCED_FACE ( 'NONE', ( #279 ), #193, .F. ) ;
#909 = DIRECTION ( 'NONE',  ( -1.000000000000000000, -1.360567432138672328E-16, -0.000000000000000000 ) ) ;
#910 = CARTESIAN_POINT ( 'NONE',  ( -20.49999999999999645, -32.50000000000000000, 45.00000000000000711 ) ) ;
#911 = VERTEX_POINT ( 'NONE', #902 ) ;
#912 = LINE ( 'NONE', #296, #49 ) ;
#913 = DIRECTION ( 'NONE',  ( 1.000000000000000000, 3.469446951953612217E-16, 0.000000000000000000 ) ) ;
#914 = EDGE_CURVE ( 'NONE', #423, #1138, #188, .T. ) ;
#915 = ORIENTED_EDGE ( 'NONE', *, *, #824, .T. ) ;
#916 = ORIENTED_EDGE ( 'NONE', *, *, #2, .F. ) ;
#917 = DIRECTION ( 'NONE',  ( 1.000000000000000000, 3.469446951953614189E-16, -0.000000000000000000 ) ) ;
#918 = CARTESIAN_POINT ( 'NONE',  ( 45.50000000000001421, 10.00000000000000178, 10.00000000000000000 ) ) ;
#919 = EDGE_CURVE ( 'NONE', #835, #24, #274, .T. ) ;
#920 = VECTOR ( 'NONE', #448, 1000.000000000000000 ) ;
#921 = ORIENTED_EDGE ( 'NONE', *, *, #766, .F. ) ;
#922 = AXIS2_PLACEMENT_3D ( 'NONE', #227, #1026, #854 ) ;
#923 = ADVANCED_FACE ( 'NONE', ( #741 ), #643, .F. ) ;
#924 = DIRECTION ( 'NONE',  ( 0.000000000000000000, 0.000000000000000000, 1.000000000000000000 ) ) ;
#925 = LINE ( 'NONE', #816, #863 ) ;
#926 = ORIENTED_EDGE ( 'NONE', *, *, #662, .T. ) ;
#927 = APPROVAL ( #876, 'UNSPECIFIED' ) ;
#928 = DIRECTION ( 'NONE',  ( -0.000000000000000000, -0.000000000000000000, -1.000000000000000000 ) ) ;
#929 = CARTESIAN_POINT ( 'NONE',  ( 0.000000000000000000, 0.000000000000000000, 130.0000000000000000 ) ) ;
#930 = CARTESIAN_POINT ( 'NONE',  ( -25.49999999999999289, -35.50000000000000711, 130.0000000000000000 ) ) ;
#931 = ORIENTED_EDGE ( 'NONE', *, *, #475, .T. ) ;
#932 = CARTESIAN_POINT ( 'NONE',  ( -10.49999999999999645, 2.999999999999999112, 20.00000000000000000 ) ) ;
#933 = DIRECTION ( 'NONE',  ( -0.000000000000000000, -0.000000000000000000, 1.000000000000000000 ) ) ;
#934 = FACE_OUTER_BOUND ( 'NONE', #814, .T. ) ;
#935 = ORIENTED_EDGE ( 'NONE', *, *, #914, .F. ) ;
#936 = VECTOR ( 'NONE', #1107, 1000.000000000000000 ) ;
#937 = AXIS2_PLACEMENT_3D ( 'NONE', #261, #159, #153 ) ;
#938 = DIRECTION ( 'NONE',  ( 0.000000000000000000, 0.000000000000000000, 1.000000000000000000 ) ) ;
#939 = CARTESIAN_POINT ( 'NONE',  ( -25.49999999999999645, 2.999999999999996891, 32.00000000000000000 ) ) ;
#940 = CARTESIAN_POINT ( 'NONE',  ( 0.000000000000000000, 0.000000000000000000, 0.000000000000000000 ) ) ;
#941 = EDGE_CURVE ( 'NONE', #898, #37, #109, .T. ) ;
#942 = FACE_OUTER_BOUND ( 'NONE', #277, .T. ) ;
#943 = ORIENTED_EDGE ( 'NONE', *, *, #851, .F. ) ;
#944 = LINE ( 'NONE', #418, #1103 ) ;
#945 = LINE ( 'NONE', #214, #784 ) ;
#946 = DIRECTION ( 'NONE',  ( 1.652117596168387756E-16, -1.000000000000000000, 0.000000000000000000 ) ) ;
#947 = CC_DESIGN_PERSON_AND_ORGANIZATION_ASSIGNMENT ( #345, #627, ( #1154 ) ) ;
#948 = CARTESIAN_POINT ( 'NONE',  ( -25.49999999999999289, -35.50000000000000711, 20.00000000000000000 ) ) ;
#949 = ORIENTED_EDGE ( 'NONE', *, *, #570, .T. ) ;
#950 = PLANE ( 'NONE',  #901 ) ;
#951 = LINE ( 'NONE', #1119, #881 ) ;
#952 = CARTESIAN_POINT ( 'NONE',  ( -25.49999999999999645, -25.50000000000000355, 32.00000000000000000 ) ) ;
#953 = DIRECTION ( 'NONE',  ( -1.000000000000000000, -1.360567432138672328E-16, -0.000000000000000000 ) ) ;
#954 = VERTEX_POINT ( 'NONE', #103 ) ;
#955 = VECTOR ( 'NONE', #255, 1000.000000000000000 ) ;
#956 = ORIENTED_EDGE ( 'NONE', *, *, #598, .F. ) ;
#957 = ADVANCED_FACE ( 'NONE', ( #21 ), #832, .T. ) ;
#958 = VECTOR ( 'NONE', #736, 1000.000000000000000 ) ;
#959 = DIRECTION ( 'NONE',  ( 0.000000000000000000, 0.000000000000000000, -1.000000000000000000 ) ) ;
#960 = DIRECTION ( 'NONE',  ( -0.000000000000000000, 1.000000000000000000, -0.000000000000000000 ) ) ;
#961 = SECURITY_CLASSIFICATION ( '', '', #427 ) ;
#962 = DIRECTION ( 'NONE',  ( -0.000000000000000000, -0.000000000000000000, -1.000000000000000000 ) ) ;
#963 = ORIENTED_EDGE ( 'NONE', *, *, #528, .F. ) ;
#964 = ORIENTED_EDGE ( 'NONE', *, *, #1164, .F. ) ;
#965 = DIRECTION ( 'NONE',  ( -1.000000000000000000, 0.000000000000000000, -4.336808689942018352E-17 ) ) ;
#966 = EDGE_CURVE ( 'NONE', #155, #536, #293, .T. ) ;
#967 = CARTESIAN_POINT ( 'NONE',  ( 45.50000000000000711, -25.50000000000000355, 130.0000000000000000 ) ) ;
#968 = APPROVAL_ROLE ( '' ) ;
#969 = CARTESIAN_POINT ( 'NONE',  ( 20.50000000000000000, 20.50000000000000000, 20.00000000000000000 ) ) ;
#970 = ORIENTED_EDGE ( 'NONE', *, *, #716, .T. ) ;
#971 = DIRECTION ( 'NONE',  ( 0.000000000000000000, 1.000000000000000000, 0.000000000000000000 ) ) ;
#972 = PLANE ( 'NONE',  #472 ) ;
#973 = ORIENTED_EDGE ( 'NONE', *, *, #247, .T. ) ;
#974 = ORIENTED_EDGE ( 'NONE', *, *, #69, .T. ) ;
#975 = CARTESIAN_POINT ( 'NONE',  ( 30.50000000000000711, 12.55000000000000071, 10.00000000000000000 ) ) ;
#976 = VECTOR ( 'NONE', #578, 1000.000000000000000 ) ;
#977 = PERSON_AND_ORGANIZATION ( #685, #531 ) ;
#978 = AXIS2_PLACEMENT_3D ( 'NONE', #652, #477, #913 ) ;
#979 = DIRECTION ( 'NONE',  ( 0.000000000000000000, 0.000000000000000000, -1.000000000000000000 ) ) ;
#980 = ADVANCED_FACE ( 'NONE', ( #638 ), #369, .F. ) ;
#981 = ORIENTED_EDGE ( 'NONE', *, *, #164, .F. ) ;
#982 = ORIENTED_EDGE ( 'NONE', *, *, #480, .T. ) ;
#983 = CARTESIAN_POINT ( 'NONE',  ( -25.49999999999999645, 2.999999999999996891, 20.00000000000000000 ) ) ;
#984 = COORDINATED_UNIVERSAL_TIME_OFFSET ( 0, 0, .AHEAD. ) ;
#985 = DIRECTION ( 'NONE',  ( 0.000000000000000000, 1.000000000000000000, 0.000000000000000000 ) ) ;
#986 = ORIENTED_EDGE ( 'NONE', *, *, #314, .F. ) ;
#987 = CC_DESIGN_PERSON_AND_ORGANIZATION_ASSIGNMENT ( #171, #439, ( #961 ) ) ;
#988 = VERTEX_POINT ( 'NONE', #1082 ) ;
#989 = DIRECTION ( 'NONE',  ( 0.000000000000000000, -1.000000000000000000, 0.000000000000000000 ) ) ;
#990 = CARTESIAN_POINT ( 'NONE',  ( -0.4999999999999970024, -20.50000000000000000, 24.99999999999999289 ) ) ;
#991 = DIRECTION ( 'NONE',  ( 1.239088197126290570E-16, -1.000000000000000000, 0.000000000000000000 ) ) ;
#992 = EDGE_LOOP ( 'NONE', ( #664, #1153, #483, #321 ) ) ;
#993 = ADVANCED_FACE ( 'NONE', ( #996 ), #554, .F. ) ;
#994 = LINE ( 'NONE', #820, #184 ) ;
#995 = CIRCLE ( 'NONE', #415, 2.550000000000000266 ) ;
#996 = FACE_OUTER_BOUND ( 'NONE', #56, .T. ) ;
#997 = CARTESIAN_POINT ( 'NONE',  ( 0.000000000000000000, -32.50000000000000000, 130.0000000000000000 ) ) ;
#998 = LOCAL_TIME ( 12, 38, 58.00000000000000000, #871 ) ;
#999 = VERTEX_POINT ( 'NONE', #290 ) ;
#1000 = DIRECTION ( 'NONE',  ( 0.000000000000000000, 0.000000000000000000, 1.000000000000000000 ) ) ;
#1001 = ADVANCED_FACE ( 'NONE', ( #98 ), #633, .F. ) ;
#1002 = CARTESIAN_POINT ( 'NONE',  ( -10.49999999999999289, -25.50000000000000355, 20.00000000000000000 ) ) ;
#1003 = ORIENTED_EDGE ( 'NONE', *, *, #247, .F. ) ;
#1004 = ORIENTED_EDGE ( 'NONE', *, *, #701, .F. ) ;
#1005 = CARTESIAN_POINT ( 'NONE',  ( 20.50000000000000355, -0.5000000000000004441, 20.00000000000000000 ) ) ;
#1006 = CARTESIAN_POINT ( 'NONE',  ( 45.50000000000000711, -25.50000000000000355, 40.00000000000000711 ) ) ;
#1007 = EDGE_LOOP ( 'NONE', ( #931, #168, #352, #230, #194, #376, #956, #678, #874, #644, #183, #445 ) ) ;
#1008 = DIRECTION ( 'NONE',  ( -1.000000000000000000, 0.000000000000000000, 0.000000000000000000 ) ) ;
#1009 = CARTESIAN_POINT ( 'NONE',  ( 20.50000000000000000, 20.50000000000000000, 0.000000000000000000 ) ) ;
#1010 = CIRCLE ( 'NONE', #1140, 2.550000000000000266 ) ;
#1011 = EDGE_CURVE ( 'NONE', #441, #640, #285, .T. ) ;
#1012 = VECTOR ( 'NONE', #794, 1000.000000000000000 ) ;
#1013 = ORIENTED_EDGE ( 'NONE', *, *, #513, .T. ) ;
#1014 = VECTOR ( 'NONE', #540, 1000.000000000000000 ) ;
#1015 = LINE ( 'NONE', #476, #565 ) ;
#1016 = CARTESIAN_POINT ( 'NONE',  ( -10.49999999999999112, -20.50000000000000000, 24.99999999999999289 ) ) ;
#1017 = ORIENTED_EDGE ( 'NONE', *, *, #1033, .T. ) ;
#1018 = DIRECTION ( 'NONE',  ( 0.000000000000000000, 0.000000000000000000, -1.000000000000000000 ) ) ;
#1019 = EDGE_LOOP ( 'NONE', ( #915, #343, #1004, #759 ) ) ;
#1020 = CARTESIAN_POINT ( 'NONE',  ( -0.4999999999999970024, 2.999999999999999112, 32.00000000000000000 ) ) ;
#1021 = CARTESIAN_POINT ( 'NONE',  ( 45.50000000000001421, 10.00000000000000178, 10.00000000000000000 ) ) ;
#1022 = ORIENTED_EDGE ( 'NONE', *, *, #84, .T. ) ;
#1023 = CARTESIAN_POINT ( 'NONE',  ( -10.49999999999999822, 20.50000000000000000, 20.00000000000000000 ) ) ;
#1024 = EDGE_CURVE ( 'NONE', #710, #24, #925, .T. ) ;
#1025 = CARTESIAN_POINT ( 'NONE',  ( 45.50000000000000711, -35.50000000000000711, 40.00000000000000711 ) ) ;
#1026 = DIRECTION ( 'NONE',  ( 0.000000000000000000, 0.000000000000000000, 1.000000000000000000 ) ) ;
#1027 = ORIENTED_EDGE ( 'NONE', *, *, #831, .F. ) ;
#1028 = VECTOR ( 'NONE', #693, 1000.000000000000000 ) ;
#1029 = AXIS2_PLACEMENT_3D ( 'NONE', #1038, #1120, #402 ) ;
#1030 = DIRECTION ( 'NONE',  ( -1.000000000000000000, -1.360567432138672328E-16, 0.000000000000000000 ) ) ;
#1031 = DIRECTION ( 'NONE',  ( 1.137523590804463576E-16, 0.000000000000000000, -1.000000000000000000 ) ) ;
#1032 = CARTESIAN_POINT ( 'NONE',  ( -20.49999999999999645, -2.000000000000008882, 32.00000000000000000 ) ) ;
#1033 = EDGE_CURVE ( 'NONE', #911, #77, #562, .T. ) ;
#1034 = LINE ( 'NONE', #752, #602 ) ;
#1035 = VERTEX_POINT ( 'NONE', #473 ) ;
#1036 = LINE ( 'NONE', #143, #393 ) ;
#1037 = CARTESIAN_POINT ( 'NONE',  ( 40.50000000000000711, -25.50000000000000355, 125.0000000000000000 ) ) ;
#1038 = CARTESIAN_POINT ( 'NONE',  ( -0.4999999999999970024, 20.50000000000000000, 20.00000000000000000 ) ) ;
#1039 = CARTESIAN_POINT ( 'NONE',  ( 45.50000000000001421, 7.450000000000001954, 10.00000000000000000 ) ) ;
#1040 = EDGE_CURVE ( 'NONE', #253, #1147, #381, .T. ) ;
#1041 = ORIENTED_EDGE ( 'NONE', *, *, #766, .T. ) ;
#1042 = EDGE_LOOP ( 'NONE', ( #1013, #982 ) ) ;
#1043 = FACE_OUTER_BOUND ( 'NONE', #161, .T. ) ;
#1044 = EDGE_CURVE ( 'NONE', #819, #111, #390, .T. ) ;
#1045 = DIRECTION ( 'NONE',  ( -0.000000000000000000, -0.000000000000000000, 1.000000000000000000 ) ) ;
#1046 = CALENDAR_DATE ( 2026, 22, 8 ) ;
#1047 = DIRECTION ( 'NONE',  ( -1.000000000000000000, -1.360567432138672328E-16, -0.000000000000000000 ) ) ;
#1048 = ORIENTED_EDGE ( 'NONE', *, *, #225, .F. ) ;
#1049 = EDGE_CURVE ( 'NONE', #253, #291, #299, .T. ) ;
#1050 = VERTEX_POINT ( 'NONE', #1115 ) ;
#1051 = CIRCLE ( 'NONE', #549, 2.550000000000000266 ) ;
#1052 = CARTESIAN_POINT ( 'NONE',  ( -20.49999999999999645, -32.50000000000000000, 45.00000000000000711 ) ) ;
#1053 = AXIS2_PLACEMENT_3D ( 'NONE', #457, #1097, #382 ) ;
#1054 = DIRECTION ( 'NONE',  ( 0.000000000000000000, -0.000000000000000000, -1.000000000000000000 ) ) ;
#1055 = LINE ( 'NONE', #886, #641 ) ;
#1056 = VERTEX_POINT ( 'NONE', #1020 ) ;
#1057 = EDGE_LOOP ( 'NONE', ( #612, #943, #1127, #723 ) ) ;
#1058 = PLANE ( 'NONE',  #547 ) ;
#1059 = APPLICATION_PROTOCOL_DEFINITION ( 'international standard', 'config_control_design', 1994, #42 ) ;
#1060 = CARTESIAN_POINT ( 'NONE',  ( 40.50000000000000711, 0.000000000000000000, 130.0000000000000000 ) ) ;
#1061 = ORIENTED_EDGE ( 'NONE', *, *, #142, .F. ) ;
#1062 = VERTEX_POINT ( 'NONE', #40 ) ;
#1063 = CARTESIAN_POINT ( 'NONE',  ( -10.49999999999999112, -35.50000000000000711, 20.00000000000000000 ) ) ;
#1064 = EDGE_CURVE ( 'NONE', #954, #1062, #489, .T. ) ;
#1065 = DATE_AND_TIME ( #890, #300 ) ;
#1066 = CARTESIAN_POINT ( 'NONE',  ( -5.499999999999998224, 15.50000000000000000, 20.00000000000000000 ) ) ;
#1067 = ORIENTED_EDGE ( 'NONE', *, *, #442, .F. ) ;
#1068 = VECTOR ( 'NONE', #991, 1000.000000000000000 ) ;
#1069 = FACE_OUTER_BOUND ( 'NONE', #272, .T. ) ;
#1070 = AXIS2_PLACEMENT_3D ( 'NONE', #1063, #524, #157 ) ;
#1071 = PRODUCT_DEFINITION ( 'UNKNOWN', '', #187, #829 ) ;
#1072 = VECTOR ( 'NONE', #1144, 1000.000000000000000 ) ;
#1073 = CARTESIAN_POINT ( 'NONE',  ( 20.50000000000000355, -0.5000000000000004441, 20.00000000000000000 ) ) ;
#1074 = ORIENTED_EDGE ( 'NONE', *, *, #490, .T. ) ;
#1075 = ORIENTED_EDGE ( 'NONE', *, *, #486, .T. ) ;
#1076 = CARTESIAN_POINT ( 'NONE',  ( 45.50000000000001421, 7.450000000000001954, 10.00000000000000000 ) ) ;
#1077 = CARTESIAN_POINT ( 'NONE',  ( 20.50000000000000000, 7.449999999999998401, 10.00000000000000000 ) ) ;
#1078 = EDGE_LOOP ( 'NONE', ( #580, #718, #387, #173 ) ) ;
#1079 = ADVANCED_FACE ( 'NONE', ( #660 ), #665, .F. ) ;
#1080 = EDGE_LOOP ( 'NONE', ( #120, #450 ) ) ;
#1081 = CARTESIAN_POINT ( 'NONE',  ( -0.4999999999999935052, -25.50000000000000355, 32.00000000000000000 ) ) ;
#1082 = CARTESIAN_POINT ( 'NONE',  ( 40.50000000000000711, -25.50000000000000355, 45.00000000000001421 ) ) ;
#1083 = ORIENTED_EDGE ( 'NONE', *, *, #341, .F. ) ;
#1084 = ORIENTED_EDGE ( 'NONE', *, *, #614, .T. ) ;
#1085 = ADVANCED_FACE ( 'NONE', ( #670, #934 ), #508, .F. ) ;
#1086 = DIRECTION ( 'NONE',  ( 0.000000000000000000, 1.000000000000000000, 0.000000000000000000 ) ) ;
#1087 = CIRCLE ( 'NONE', #72, 5.000000000000000888 ) ;
#1088 = CARTESIAN_POINT ( 'NONE',  ( 30.50000000000000711, 10.00000000000000000, 10.00000000000000000 ) ) ;
#1089 = AXIS2_PLACEMENT_3D ( 'NONE', #408, #128, #36 ) ;
#1090 = EDGE_LOOP ( 'NONE', ( #796, #776, #391, #57 ) ) ;
#1091 = ORIENTED_EDGE ( 'NONE', *, *, #537, .T. ) ;
#1092 = CARTESIAN_POINT ( 'NONE',  ( 25.50000000000000355, 15.50000000000000178, 0.000000000000000000 ) ) ;
#1093 = DIRECTION ( 'NONE',  ( 3.469446951953614189E-16, -1.000000000000000000, 0.000000000000000000 ) ) ;
#1094 = ORIENTED_EDGE ( 'NONE', *, *, #384, .F. ) ;
#1095 = LINE ( 'NONE', #388, #859 ) ;
#1096 = EDGE_CURVE ( 'NONE', #77, #833, #133, .T. ) ;
#1097 = DIRECTION ( 'NONE',  ( 0.000000000000000000, 0.000000000000000000, -1.000000000000000000 ) ) ;
#1098 = ORIENTED_EDGE ( 'NONE', *, *, #341, .T. ) ;
#1099 = DIRECTION ( 'NONE',  ( -1.000000000000000000, 0.000000000000000000, 0.000000000000000000 ) ) ;
#1100 = AXIS2_PLACEMENT_3D ( 'NONE', #91, #802, #1054 ) ;
#1101 = DIRECTION ( 'NONE',  ( -1.000000000000000000, -0.000000000000000000, -0.000000000000000000 ) ) ;
#1102 = ADVANCED_FACE ( 'NONE', ( #215 ), #118, .F. ) ;
#1103 = VECTOR ( 'NONE', #750, 1000.000000000000000 ) ;
#1104 = VECTOR ( 'NONE', #847, 1000.000000000000000 ) ;
#1105 = ORIENTED_EDGE ( 'NONE', *, *, #690, .T. ) ;
#1106 = CC_DESIGN_APPROVAL ( #653, ( #1071 ) ) ;
#1107 = DIRECTION ( 'NONE',  ( 1.000000000000000000, 3.469446951953614189E-16, -0.000000000000000000 ) ) ;
#1108 = ORIENTED_EDGE ( 'NONE', *, *, #164, .T. ) ;
#1109 = DIRECTION ( 'NONE',  ( -0.000000000000000000, -0.000000000000000000, 1.000000000000000000 ) ) ;
#1110 = CYLINDRICAL_SURFACE ( 'NONE', #339, 5.000000000000000888 ) ;
#1111 = EDGE_LOOP ( 'NONE', ( #259, #1098 ) ) ;
#1112 = EDGE_CURVE ( 'NONE', #856, #367, #481, .T. ) ;
#1113 = PLANE ( 'NONE',  #221 ) ;
#1114 = FACE_BOUND ( 'NONE', #747, .T. ) ;
#1115 = CARTESIAN_POINT ( 'NONE',  ( -10.49999999999999822, 7.449999999999994849, 10.00000000000000000 ) ) ;
#1116 = ORIENTED_EDGE ( 'NONE', *, *, #701, .T. ) ;
#1117 = ADVANCED_FACE ( 'NONE', ( #495, #34 ), #210, .T. ) ;
#1118 = DIRECTION ( 'NONE',  ( 0.000000000000000000, -0.000000000000000000, -1.000000000000000000 ) ) ;
#1119 = CARTESIAN_POINT ( 'NONE',  ( 30.50000000000000711, -35.50000000000000711, 40.00000000000000711 ) ) ;
#1120 = DIRECTION ( 'NONE',  ( -1.000000000000000000, 0.000000000000000000, 0.000000000000000000 ) ) ;
#1121 = ORIENTED_EDGE ( 'NONE', *, *, #1024, .F. ) ;
#1122 = AXIS2_PLACEMENT_3D ( 'NONE', #51, #1128, #238 ) ;
#1123 = VECTOR ( 'NONE', #806, 1000.000000000000000 ) ;
#1124 = FACE_OUTER_BOUND ( 'NONE', #82, .T. ) ;
#1125 = CARTESIAN_POINT ( 'NONE',  ( -25.49999999999999289, -35.50000000000000711, 130.0000000000000000 ) ) ;
#1126 = CARTESIAN_POINT ( 'NONE',  ( -25.49999999999999645, 2.999999999999996891, 32.00000000000000000 ) ) ;
#1127 = ORIENTED_EDGE ( 'NONE', *, *, #899, .F. ) ;
#1128 = DIRECTION ( 'NONE',  ( -1.000000000000000000, 0.000000000000000000, 0.000000000000000000 ) ) ;
#1129 = DIRECTION ( 'NONE',  ( -1.000000000000000000, 0.000000000000000000, -1.137523590804463576E-16 ) ) ;
#1130 = CARTESIAN_POINT ( 'NONE',  ( 30.50000000000000355, -25.50000000000000355, 24.99999999999999289 ) ) ;
#1131 = EDGE_CURVE ( 'NONE', #897, #441, #317, .T. ) ;
#1132 = ORIENTED_EDGE ( 'NONE', *, *, #1145, .F. ) ;
#1133 = ORIENTED_EDGE ( 'NONE', *, *, #442, .T. ) ;
#1134 = PLANE ( 'NONE',  #696 ) ;
#1135 = CARTESIAN_POINT ( 'NONE',  ( -0.4999999999999970024, 20.50000000000000000, 20.00000000000000000 ) ) ;
#1136 = PERSON_AND_ORGANIZATION ( #685, #531 ) ;
#1137 = CARTESIAN_POINT ( 'NONE',  ( -25.50000000000000000, -3.862310797983655842E-15, 0.000000000000000000 ) ) ;
#1138 = VERTEX_POINT ( 'NONE', #952 ) ;
#1139 = EDGE_LOOP ( 'NONE', ( #177, #1159, #921, #280 ) ) ;
#1140 = AXIS2_PLACEMENT_3D ( 'NONE', #651, #101, #1000 ) ;
#1141 =( GEOMETRIC_REPRESENTATION_CONTEXT ( 3 ) GLOBAL_UNCERTAINTY_ASSIGNED_CONTEXT ( ( #196 ) ) GLOBAL_UNIT_ASSIGNED_CONTEXT ( ( #414, #1143, #433 ) ) REPRESENTATION_CONTEXT ( 'NONE', 'WORKASPACE' ) );
#1142 = CARTESIAN_POINT ( 'NONE',  ( 45.50000000000000711, -35.50000000000000711, 130.0000000000000000 ) ) ;
#1143 =( NAMED_UNIT ( * ) PLANE_ANGLE_UNIT ( ) SI_UNIT ( $, .RADIAN. ) );
#1144 = DIRECTION ( 'NONE',  ( -4.336808689942018352E-17, 0.000000000000000000, 1.000000000000000000 ) ) ;
#1145 = EDGE_CURVE ( 'NONE', #835, #911, #421, .T. ) ;
#1146 = ORIENTED_EDGE ( 'NONE', *, *, #774, .T. ) ;
#1147 = VERTEX_POINT ( 'NONE', #26 ) ;
#1148 = ADVANCED_FACE ( 'NONE', ( #220 ), #587, .T. ) ;
#1149 = LINE ( 'NONE', #708, #748 ) ;
#1150 = CALENDAR_DATE ( 2026, 22, 8 ) ;
#1151 = LINE ( 'NONE', #628, #1163 ) ;
#1152 = ORIENTED_EDGE ( 'NONE', *, *, #117, .T. ) ;
#1153 = ORIENTED_EDGE ( 'NONE', *, *, #831, .T. ) ;
#1154 = PRODUCT ( 'StandMotor', 'StandMotor', '', ( #86 ) ) ;
#1155 = EDGE_CURVE ( 'NONE', #206, #135, #396, .T. ) ;
#1156 = DIRECTION ( 'NONE',  ( 1.000000000000000000, 1.360567432138672328E-16, -0.000000000000000000 ) ) ;
#1157 = FACE_OUTER_BOUND ( 'NONE', #106, .T. ) ;
#1158 = EDGE_LOOP ( 'NONE', ( #150, #916, #661, #1074 ) ) ;
#1159 = ORIENTED_EDGE ( 'NONE', *, *, #941, .F. ) ;
#1160 = VECTOR ( 'NONE', #189, 1000.000000000000000 ) ;
#1161 = VECTOR ( 'NONE', #566, 1000.000000000000000 ) ;
#1162 = CARTESIAN_POINT ( 'NONE',  ( 40.50000000000000711, -32.50000000000000000, 45.00000000000001421 ) ) ;
#1163 = VECTOR ( 'NONE', #962, 1000.000000000000000 ) ;
#1164 = EDGE_CURVE ( 'NONE', #135, #705, #1034, .T. ) ;
#1165 = CARTESIAN_POINT ( 'NONE',  ( -10.49999999999999112, -35.50000000000000711, 0.000000000000000000 ) ) ;
#1166 = ORIENTED_EDGE ( 'NONE', *, *, #289, .T. ) ;
#1167 = VERTEX_POINT ( 'NONE', #572 ) ;
#1168 = LINE ( 'NONE', #353, #920 ) ;
ENDSEC;
END-ISO-10303-21;
