ISO-10303-21;
HEADER;
FILE_DESCRIPTION (( 'STEP AP203' ),
    '1' );
FILE_NAME ('StandIdler.step',
    '2026-08-22T11:38:56',
    ( '' ),
    ( '' ),
    'SwSTEP 2.0',
    'SolidWorks 2026',
    '' );
FILE_SCHEMA (( 'CONFIG_CONTROL_DESIGN' ));
ENDSEC;

DATA;
#1 = LOCAL_TIME ( 12, 38, 56.00000000000000000, #801 ) ;
#2 = CARTESIAN_POINT ( 'NONE',  ( -10.50000000000000178, 10.24999999999999467, 9.999999999999998224 ) ) ;
#3 = CARTESIAN_POINT ( 'NONE',  ( 30.50000000000000711, -35.50000000000000000, -20.00000000000000000 ) ) ;
#4 = ORIENTED_EDGE ( 'NONE', *, *, #481, .T. ) ;
#5 = CARTESIAN_POINT ( 'NONE',  ( -10.49999999999999822, 15.50000000000000000, 20.00000000000000000 ) ) ;
#6 = LINE ( 'NONE', #131, #844 ) ;
#7 = ADVANCED_FACE ( 'NONE', ( #12 ), #365, .F. ) ;
#8 = VERTEX_POINT ( 'NONE', #456 ) ;
#9 = CIRCLE ( 'NONE', #755, 5.000000000000000000 ) ;
#10 = DIRECTION ( 'NONE',  ( -1.000000000000000000, -0.000000000000000000, 0.000000000000000000 ) ) ;
#11 = DIRECTION ( 'NONE',  ( -1.000000000000000000, 0.000000000000000000, 0.000000000000000000 ) ) ;
#12 = FACE_OUTER_BOUND ( 'NONE', #89, .T. ) ;
#13 = ORIENTED_EDGE ( 'NONE', *, *, #781, .F. ) ;
#14 = AXIS2_PLACEMENT_3D ( 'NONE', #698, #753, #195 ) ;
#15 = LINE ( 'NONE', #858, #545 ) ;
#16 = CARTESIAN_POINT ( 'NONE',  ( 30.50000000000000711, -20.49999999999999645, 20.00000000000000000 ) ) ;
#17 = ORIENTED_EDGE ( 'NONE', *, *, #590, .T. ) ;
#18 = DIRECTION ( 'NONE',  ( 1.000000000000000000, 0.000000000000000000, -0.000000000000000000 ) ) ;
#19 = CARTESIAN_POINT ( 'NONE',  ( 20.50000000000000000, -0.5000000000000004441, 20.00000000000000000 ) ) ;
#20 = DIRECTION ( 'NONE',  ( 0.000000000000000000, 0.000000000000000000, 1.000000000000000000 ) ) ;
#21 = VERTEX_POINT ( 'NONE', #97 ) ;
#22 = LINE ( 'NONE', #298, #555 ) ;
#23 = EDGE_CURVE ( 'NONE', #597, #667, #157, .T. ) ;
#24 = PERSON ( 'UNSPECIFIED', 'UNSPECIFIED', 'UNSPECIFIED', ('UNSPECIFIED'), ('UNSPECIFIED'), ('UNSPECIFIED') ) ;
#25 = AXIS2_PLACEMENT_3D ( 'NONE', #677, #605, #389 ) ;
#26 = CARTESIAN_POINT ( 'NONE',  ( 30.50000000000000711, 10.24999999999999467, -10.00000000000000178 ) ) ;
#27 = DIRECTION ( 'NONE',  ( -0.000000000000000000, 0.000000000000000000, 1.000000000000000000 ) ) ;
#28 = PERSON_AND_ORGANIZATION ( #24, #198 ) ;
#29 = AXIS2_PLACEMENT_3D ( 'NONE', #770, #130, #837 ) ;
#30 = CARTESIAN_POINT ( 'NONE',  ( -0.5000000000000004441, -20.49999999999998579, -5.000000000000000888 ) ) ;
#31 = FACE_OUTER_BOUND ( 'NONE', #83, .T. ) ;
#32 = VERTEX_POINT ( 'NONE', #441 ) ;
#33 = APPROVAL_STATUS ( 'not_yet_approved' ) ;
#34 = CARTESIAN_POINT ( 'NONE',  ( 30.50000000000000711, 10.24999999999999467, -7.450000000000001954 ) ) ;
#35 = APPROVAL ( #747, 'UNSPECIFIED' ) ;
#36 = CARTESIAN_POINT ( 'NONE',  ( 20.50000000000000000, 10.24999999999999467, 9.999999999999998224 ) ) ;
#37 = ORIENTED_EDGE ( 'NONE', *, *, #509, .F. ) ;
#38 = APPROVAL_ROLE ( '' ) ;
#39 = DIRECTION ( 'NONE',  ( 1.000000000000000000, -0.000000000000000000, -0.000000000000000000 ) ) ;
#40 = VECTOR ( 'NONE', #599, 1000.000000000000000 ) ;
#41 = CARTESIAN_POINT ( 'NONE',  ( -0.5000000000000004441, -35.49999999999999289, -20.00000000000000000 ) ) ;
#42 = CARTESIAN_POINT ( 'NONE',  ( -10.50000000000000178, 10.24999999999999467, 7.449999999999999289 ) ) ;
#43 = ORIENTED_EDGE ( 'NONE', *, *, #219, .T. ) ;
#44 = CARTESIAN_POINT ( 'NONE',  ( 30.50000000000000711, 10.24999999999999467, -10.00000000000000178 ) ) ;
#45 = VECTOR ( 'NONE', #756, 1000.000000000000000 ) ;
#46 = ORIENTED_EDGE ( 'NONE', *, *, #331, .F. ) ;
#47 = DIRECTION ( 'NONE',  ( 0.000000000000000000, 0.000000000000000000, 1.000000000000000000 ) ) ;
#48 = ADVANCED_FACE ( 'NONE', ( #814 ), #376, .T. ) ;
#49 = CARTESIAN_POINT ( 'NONE',  ( -10.50000000000000178, 10.24999999999999467, 12.54999999999999893 ) ) ;
#50 = VERTEX_POINT ( 'NONE', #880 ) ;
#51 = ADVANCED_FACE ( 'NONE', ( #31 ), #446, .F. ) ;
#52 = CARTESIAN_POINT ( 'NONE',  ( 20.50000000000000000, 10.24999999999999467, 12.54999999999999893 ) ) ;
#53 = CIRCLE ( 'NONE', #596, 2.550000000000000266 ) ;
#54 = ORIENTED_EDGE ( 'NONE', *, *, #646, .T. ) ;
#55 = PLANE ( 'NONE',  #396 ) ;
#56 = DIRECTION ( 'NONE',  ( 1.000000000000000000, 0.000000000000000000, -0.000000000000000000 ) ) ;
#57 = VECTOR ( 'NONE', #320, 1000.000000000000000 ) ;
#58 = ORIENTED_EDGE ( 'NONE', *, *, #295, .F. ) ;
#59 = DIRECTION ( 'NONE',  ( 0.000000000000000000, 0.000000000000000000, 1.000000000000000000 ) ) ;
#60 = CARTESIAN_POINT ( 'NONE',  ( 30.50000000000000711, 10.24999999999999467, -10.00000000000000178 ) ) ;
#61 = ORIENTED_EDGE ( 'NONE', *, *, #182, .F. ) ;
#62 = DIRECTION ( 'NONE',  ( 0.000000000000000000, 0.000000000000000000, -1.000000000000000000 ) ) ;
#63 = LINE ( 'NONE', #280, #564 ) ;
#64 = VERTEX_POINT ( 'NONE', #519 ) ;
#65 = AXIS2_PLACEMENT_3D ( 'NONE', #299, #227, #579 ) ;
#66 = FACE_OUTER_BOUND ( 'NONE', #505, .T. ) ;
#67 = PLANE ( 'NONE',  #832 ) ;
#68 = VERTEX_POINT ( 'NONE', #311 ) ;
#69 = AXIS2_PLACEMENT_3D ( 'NONE', #813, #245, #732 ) ;
#70 = LOCAL_TIME ( 12, 38, 56.00000000000000000, #105 ) ;
#71 = LINE ( 'NONE', #615, #790 ) ;
#72 = EDGE_CURVE ( 'NONE', #391, #697, #666, .T. ) ;
#73 = CYLINDRICAL_SURFACE ( 'NONE', #819, 5.000000000000000888 ) ;
#74 = ORIENTED_EDGE ( 'NONE', *, *, #752, .T. ) ;
#75 = ORIENTED_EDGE ( 'NONE', *, *, #144, .F. ) ;
#76 = CARTESIAN_POINT ( 'NONE',  ( -0.5000000000000004441, 20.50000000000000000, 15.00000000000000000 ) ) ;
#77 = CARTESIAN_POINT ( 'NONE',  ( 20.50000000000000000, 15.50000000000000178, 20.00000000000000000 ) ) ;
#78 = EDGE_LOOP ( 'NONE', ( #788, #385 ) ) ;
#79 = ORIENTED_EDGE ( 'NONE', *, *, #144, .T. ) ;
#80 = VECTOR ( 'NONE', #702, 1000.000000000000000 ) ;
#81 = CARTESIAN_POINT ( 'NONE',  ( 20.50000000000000000, -25.49999999999998934, -5.000000000000000888 ) ) ;
#82 = FACE_OUTER_BOUND ( 'NONE', #805, .T. ) ;
#83 = EDGE_LOOP ( 'NONE', ( #300, #285, #428, #745 ) ) ;
#84 = ORIENTED_EDGE ( 'NONE', *, *, #414, .T. ) ;
#85 = AXIS2_PLACEMENT_3D ( 'NONE', #416, #903, #62 ) ;
#86 = CC_DESIGN_APPROVAL ( #35, ( #202 ) ) ;
#87 = CARTESIAN_POINT ( 'NONE',  ( -10.49999999999999822, 20.50000000000000000, 20.00000000000000000 ) ) ;
#88 = DIRECTION ( 'NONE',  ( 0.000000000000000000, 0.000000000000000000, 1.000000000000000000 ) ) ;
#89 = EDGE_LOOP ( 'NONE', ( #290, #571, #287, #554 ) ) ;
#90 = EDGE_CURVE ( 'NONE', #511, #457, #804, .T. ) ;
#91 = VERTEX_POINT ( 'NONE', #240 ) ;
#92 =( LENGTH_UNIT ( ) NAMED_UNIT ( * ) SI_UNIT ( .MILLI., .METRE. ) );
#93 = CARTESIAN_POINT ( 'NONE',  ( -10.50000000000000178, 10.24999999999999467, 9.999999999999998224 ) ) ;
#94 = DIRECTION ( 'NONE',  ( 1.000000000000000000, 0.000000000000000000, -0.000000000000000000 ) ) ;
#95 = LINE ( 'NONE', #76, #306 ) ;
#96 = CARTESIAN_POINT ( 'NONE',  ( -10.49999999999999289, 10.24999999999999467, -7.450000000000001954 ) ) ;
#97 = CARTESIAN_POINT ( 'NONE',  ( -0.5000000000000004441, -0.5000000000000004441, 20.00000000000000000 ) ) ;
#98 = ORIENTED_EDGE ( 'NONE', *, *, #182, .T. ) ;
#99 = DIRECTION ( 'NONE',  ( 1.000000000000000000, 0.000000000000000000, 0.000000000000000000 ) ) ;
#100 = AXIS2_PLACEMENT_3D ( 'NONE', #443, #361, #642 ) ;
#101 = ADVANCED_FACE ( 'NONE', ( #730 ), #515, .F. ) ;
#102 = CARTESIAN_POINT ( 'NONE',  ( -0.5000000000000004441, 15.50000000000000000, 15.00000000000000000 ) ) ;
#103 = CARTESIAN_POINT ( 'NONE',  ( 20.50000000000000000, -35.49999999999999289, 0.000000000000000000 ) ) ;
#104 = ORIENTED_EDGE ( 'NONE', *, *, #23, .T. ) ;
#105 = COORDINATED_UNIVERSAL_TIME_OFFSET ( 0, 0, .AHEAD. ) ;
#106 = FACE_OUTER_BOUND ( 'NONE', #618, .T. ) ;
#107 = DIRECTION ( 'NONE',  ( 0.000000000000000000, 0.000000000000000000, -1.000000000000000000 ) ) ;
#108 = ORIENTED_EDGE ( 'NONE', *, *, #863, .F. ) ;
#109 = APPROVAL_STATUS ( 'not_yet_approved' ) ;
#110 = CARTESIAN_POINT ( 'NONE',  ( 20.50000000000000000, 20.50000000000000000, 15.00000000000000000 ) ) ;
#111 = CIRCLE ( 'NONE', #433, 2.550000000000000266 ) ;
#112 = ORIENTED_EDGE ( 'NONE', *, *, #472, .F. ) ;
#113 = DATE_TIME_ROLE ( 'classification_date' ) ;
#114 = DIRECTION ( 'NONE',  ( -1.000000000000000000, 0.000000000000000000, 0.000000000000000000 ) ) ;
#115 = CIRCLE ( 'NONE', #29, 2.549999999999999378 ) ;
#116 = ADVANCED_FACE ( 'NONE', ( #595 ), #656, .F. ) ;
#117 = ORIENTED_EDGE ( 'NONE', *, *, #542, .F. ) ;
#118 = PERSON_AND_ORGANIZATION ( #24, #198 ) ;
#119 = AXIS2_PLACEMENT_3D ( 'NONE', #103, #460, #316 ) ;
#120 = DIRECTION ( 'NONE',  ( -0.000000000000000000, -0.000000000000000000, -1.000000000000000000 ) ) ;
#121 = VERTEX_POINT ( 'NONE', #733 ) ;
#122 = CARTESIAN_POINT ( 'NONE',  ( 20.49999999999999645, -25.49999999999999289, -20.00000000000000000 ) ) ;
#123 = DIRECTION ( 'NONE',  ( 1.000000000000000000, 0.000000000000000000, 0.000000000000000000 ) ) ;
#124 = EDGE_LOOP ( 'NONE', ( #777, #874, #763, #79 ) ) ;
#125 = CARTESIAN_POINT ( 'NONE',  ( -10.49999999999999289, 15.50000000000000178, -20.00000000000000000 ) ) ;
#126 = EDGE_CURVE ( 'NONE', #317, #121, #384, .T. ) ;
#127 = LINE ( 'NONE', #620, #406 ) ;
#128 = VECTOR ( 'NONE', #654, 1000.000000000000000 ) ;
#129 = ORIENTED_EDGE ( 'NONE', *, *, #72, .T. ) ;
#130 = DIRECTION ( 'NONE',  ( 1.000000000000000000, 0.000000000000000000, 0.000000000000000000 ) ) ;
#131 = CARTESIAN_POINT ( 'NONE',  ( 20.50000000000000000, -35.49999999999999289, 0.000000000000000000 ) ) ;
#132 = ORIENTED_EDGE ( 'NONE', *, *, #891, .T. ) ;
#133 = DIRECTION ( 'NONE',  ( 1.000000000000000000, -0.000000000000000000, -0.000000000000000000 ) ) ;
#134 = DIRECTION ( 'NONE',  ( 0.000000000000000000, 0.000000000000000000, 1.000000000000000000 ) ) ;
#135 = VERTEX_POINT ( 'NONE', #253 ) ;
#136 = EDGE_CURVE ( 'NONE', #592, #645, #351, .T. ) ;
#137 = DIRECTION ( 'NONE',  ( 0.000000000000000000, 0.000000000000000000, 1.000000000000000000 ) ) ;
#138 = FACE_OUTER_BOUND ( 'NONE', #162, .T. ) ;
#139 = ORIENTED_EDGE ( 'NONE', *, *, #648, .F. ) ;
#140 = EDGE_CURVE ( 'NONE', #371, #457, #436, .T. ) ;
#141 = VECTOR ( 'NONE', #120, 1000.000000000000000 ) ;
#142 = DIRECTION ( 'NONE',  ( -1.000000000000000000, -0.000000000000000000, 0.000000000000000000 ) ) ;
#143 = CARTESIAN_POINT ( 'NONE',  ( 20.50000000000000000, 20.50000000000000000, 20.00000000000000000 ) ) ;
#144 = EDGE_CURVE ( 'NONE', #708, #566, #809, .T. ) ;
#145 = VERTEX_POINT ( 'NONE', #173 ) ;
#146 = ORIENTED_EDGE ( 'NONE', *, *, #646, .F. ) ;
#147 = DIRECTION ( 'NONE',  ( 0.000000000000000000, 0.000000000000000000, 1.000000000000000000 ) ) ;
#148 = CARTESIAN_POINT ( 'NONE',  ( -0.5000000000000004441, -25.49999999999999289, -20.00000000000000000 ) ) ;
#149 = ORIENTED_EDGE ( 'NONE', *, *, #590, .F. ) ;
#150 = CIRCLE ( 'NONE', #504, 2.549999999999999378 ) ;
#151 = DIRECTION ( 'NONE',  ( -0.000000000000000000, 1.000000000000000000, -0.000000000000000000 ) ) ;
#152 = CARTESIAN_POINT ( 'NONE',  ( 30.50000000000000711, 10.24999999999999467, -12.55000000000000249 ) ) ;
#153 = ORIENTED_EDGE ( 'NONE', *, *, #768, .F. ) ;
#154 = AXIS2_PLACEMENT_3D ( 'NONE', #594, #737, #535 ) ;
#155 = DIRECTION ( 'NONE',  ( 1.000000000000000000, 0.000000000000000000, 0.000000000000000000 ) ) ;
#156 = DIRECTION ( 'NONE',  ( -1.000000000000000000, -0.000000000000000000, 0.000000000000000000 ) ) ;
#157 = CIRCLE ( 'NONE', #278, 2.549999999999999378 ) ;
#158 = ORIENTED_EDGE ( 'NONE', *, *, #302, .T. ) ;
#159 = DIRECTION ( 'NONE',  ( -1.000000000000000000, 0.000000000000000000, 0.000000000000000000 ) ) ;
#160 = DIRECTION ( 'NONE',  ( 1.000000000000000000, -0.000000000000000000, -0.000000000000000000 ) ) ;
#161 = CARTESIAN_POINT ( 'NONE',  ( -10.49999999999999289, -35.50000000000000000, 20.00000000000000000 ) ) ;
#162 = EDGE_LOOP ( 'NONE', ( #867, #357, #587, #881, #112, #293 ) ) ;
#163 = EDGE_CURVE ( 'NONE', #667, #400, #672, .T. ) ;
#164 = APPLICATION_PROTOCOL_DEFINITION ( 'international standard', 'config_control_design', 1994, #508 ) ;
#165 = DIRECTION ( 'NONE',  ( -1.000000000000000000, -0.000000000000000000, -0.000000000000000000 ) ) ;
#166 = DIRECTION ( 'NONE',  ( 1.000000000000000000, 0.000000000000000000, 0.000000000000000000 ) ) ;
#167 = EDGE_CURVE ( 'NONE', #667, #597, #673, .T. ) ;
#168 = ORIENTED_EDGE ( 'NONE', *, *, #244, .F. ) ;
#169 = AXIS2_PLACEMENT_3D ( 'NONE', #36, #94, #107 ) ;
#170 = DATE_AND_TIME ( #517, #603 ) ;
#171 = AXIS2_PLACEMENT_3D ( 'NONE', #44, #165, #727 ) ;
#172 = CARTESIAN_POINT ( 'NONE',  ( -0.5000000000000004441, 15.50000000000000000, -20.00000000000000000 ) ) ;
#173 = CARTESIAN_POINT ( 'NONE',  ( 20.50000000000000000, -0.5000000000000004441, 0.000000000000000000 ) ) ;
#174 = VERTEX_POINT ( 'NONE', #328 ) ;
#175 = DATE_AND_TIME ( #821, #629 ) ;
#176 = DIRECTION ( 'NONE',  ( 0.000000000000000000, 5.204170427930420494E-15, 1.000000000000000000 ) ) ;
#177 = CARTESIAN_POINT ( 'NONE',  ( 0.000000000000000000, 0.000000000000000000, 20.00000000000000000 ) ) ;
#178 = ORIENTED_EDGE ( 'NONE', *, *, #838, .T. ) ;
#179 = PERSON_AND_ORGANIZATION ( #24, #198 ) ;
#180 = FACE_OUTER_BOUND ( 'NONE', #652, .T. ) ;
#181 = CIRCLE ( 'NONE', #477, 5.000000000000000888 ) ;
#182 = EDGE_CURVE ( 'NONE', #391, #183, #671, .T. ) ;
#183 = VERTEX_POINT ( 'NONE', #252 ) ;
#184 = CYLINDRICAL_SURFACE ( 'NONE', #171, 2.550000000000000266 ) ;
#185 = VECTOR ( 'NONE', #854, 1000.000000000000000 ) ;
#186 = SECURITY_CLASSIFICATION ( '', '', #538 ) ;
#187 = ORIENTED_EDGE ( 'NONE', *, *, #651, .F. ) ;
#188 = CARTESIAN_POINT ( 'NONE',  ( -0.5000000000000004441, 10.24999999999999467, -10.00000000000000178 ) ) ;
#189 = EDGE_LOOP ( 'NONE', ( #403, #437, #575, #465, #889, #686, #885, #497, #500 ) ) ;
#190 = EDGE_CURVE ( 'NONE', #121, #145, #884, .T. ) ;
#191 = DIRECTION ( 'NONE',  ( 0.000000000000000000, 0.000000000000000000, -1.000000000000000000 ) ) ;
#192 = CARTESIAN_POINT ( 'NONE',  ( -10.50000000000000178, 10.24999999999999467, 7.449999999999999289 ) ) ;
#193 = AXIS2_PLACEMENT_3D ( 'NONE', #791, #869, #502 ) ;
#194 = ORIENTED_EDGE ( 'NONE', *, *, #751, .T. ) ;
#195 = DIRECTION ( 'NONE',  ( 0.000000000000000000, -0.000000000000000000, -1.000000000000000000 ) ) ;
#196 = CARTESIAN_POINT ( 'NONE',  ( 30.50000000000000711, 10.24999999999999467, -12.55000000000000249 ) ) ;
#197 = CIRCLE ( 'NONE', #808, 5.000000000000000888 ) ;
#198 = ORGANIZATION ( 'UNSPECIFIED', 'UNSPECIFIED', '' ) ;
#199 = EDGE_LOOP ( 'NONE', ( #380, #349, #794, #843 ) ) ;
#200 = DIRECTION ( 'NONE',  ( -0.000000000000000000, 0.000000000000000000, -1.000000000000000000 ) ) ;
#201 = DIRECTION ( 'NONE',  ( 0.000000000000000000, -1.000000000000000000, 0.000000000000000000 ) ) ;
#202 = PRODUCT_DEFINITION ( 'UNKNOWN', '', #397, #494 ) ;
#203 = EDGE_LOOP ( 'NONE', ( #194, #340 ) ) ;
#204 = DIRECTION ( 'NONE',  ( 0.000000000000000000, 0.000000000000000000, 1.000000000000000000 ) ) ;
#205 = EDGE_CURVE ( 'NONE', #645, #592, #623, .T. ) ;
#206 = FACE_BOUND ( 'NONE', #329, .T. ) ;
#207 = UNCERTAINTY_MEASURE_WITH_UNIT (LENGTH_MEASURE( 1.000000000000000082E-05 ), #92, 'distance_accuracy_value', 'NONE');
#208 = ORIENTED_EDGE ( 'NONE', *, *, #779, .T. ) ;
#209 = EDGE_CURVE ( 'NONE', #91, #400, #319, .T. ) ;
#210 = DIRECTION ( 'NONE',  ( -1.000000000000000000, 0.000000000000000000, 0.000000000000000000 ) ) ;
#211 = LINE ( 'NONE', #192, #80 ) ;
#212 = VERTEX_POINT ( 'NONE', #565 ) ;
#213 = VECTOR ( 'NONE', #568, 1000.000000000000000 ) ;
#214 = VERTEX_POINT ( 'NONE', #904 ) ;
#215 = FACE_BOUND ( 'NONE', #395, .T. ) ;
#216 = DIRECTION ( 'NONE',  ( 0.000000000000000000, 0.000000000000000000, 1.000000000000000000 ) ) ;
#217 = VERTEX_POINT ( 'NONE', #616 ) ;
#218 = LINE ( 'NONE', #81, #128 ) ;
#219 = EDGE_CURVE ( 'NONE', #212, #50, #482, .T. ) ;
#220 = DIRECTION ( 'NONE',  ( 1.000000000000000000, 0.000000000000000000, 0.000000000000000000 ) ) ;
#221 = ADVANCED_FACE ( 'NONE', ( #352 ), #897, .T. ) ;
#222 = ORIENTED_EDGE ( 'NONE', *, *, #323, .T. ) ;
#223 = EDGE_CURVE ( 'NONE', #21, #772, #421, .T. ) ;
#224 = EDGE_LOOP ( 'NONE', ( #871, #857, #54, #521 ) ) ;
#225 = VECTOR ( 'NONE', #710, 1000.000000000000000 ) ;
#226 = LINE ( 'NONE', #506, #423 ) ;
#227 = DIRECTION ( 'NONE',  ( 0.000000000000000000, -1.000000000000000000, 0.000000000000000000 ) ) ;
#228 = ORIENTED_EDGE ( 'NONE', *, *, #360, .T. ) ;
#229 = AXIS2_PLACEMENT_3D ( 'NONE', #261, #546, #59 ) ;
#230 =( GEOMETRIC_REPRESENTATION_CONTEXT ( 3 ) GLOBAL_UNCERTAINTY_ASSIGNED_CONTEXT ( ( #207 ) ) GLOBAL_UNIT_ASSIGNED_CONTEXT ( ( #92, #742, #682 ) ) REPRESENTATION_CONTEXT ( 'NONE', 'WORKASPACE' ) );
#231 = DIRECTION ( 'NONE',  ( 1.000000000000000000, -0.000000000000000000, -0.000000000000000000 ) ) ;
#232 = CYLINDRICAL_SURFACE ( 'NONE', #581, 2.550000000000000266 ) ;
#233 = PRODUCT_RELATED_PRODUCT_CATEGORY ( 'detail', '', ( #894 ) ) ;
#234 = VECTOR ( 'NONE', #585, 1000.000000000000000 ) ;
#235 = DIRECTION ( 'NONE',  ( 0.000000000000000000, 0.000000000000000000, -1.000000000000000000 ) ) ;
#236 = VERTEX_POINT ( 'NONE', #834 ) ;
#237 = APPROVAL_ROLE ( '' ) ;
#238 = CARTESIAN_POINT ( 'NONE',  ( 0.000000000000000000, 15.50000000000000000, -15.00000000000000000 ) ) ;
#239 = EDGE_CURVE ( 'NONE', #787, #708, #63, .T. ) ;
#240 = CARTESIAN_POINT ( 'NONE',  ( -0.5000000000000004441, 10.24999999999999467, 12.54999999999999893 ) ) ;
#241 = ORIENTED_EDGE ( 'NONE', *, *, #766, .F. ) ;
#242 = PERSON_AND_ORGANIZATION_ROLE ( 'creator' ) ;
#243 = CIRCLE ( 'NONE', #358, 2.550000000000000266 ) ;
#244 = EDGE_CURVE ( 'NONE', #457, #371, #740, .T. ) ;
#245 = DIRECTION ( 'NONE',  ( 1.000000000000000000, -0.000000000000000000, -0.000000000000000000 ) ) ;
#246 = DIRECTION ( 'NONE',  ( -1.000000000000000000, 0.000000000000000000, 0.000000000000000000 ) ) ;
#247 = ORIENTED_EDGE ( 'NONE', *, *, #72, .F. ) ;
#248 = PERSON_AND_ORGANIZATION ( #24, #198 ) ;
#249 = AXIS2_PLACEMENT_3D ( 'NONE', #774, #18, #582 ) ;
#250 = AXIS2_PLACEMENT_3D ( 'NONE', #272, #473, #622 ) ;
#251 = LINE ( 'NONE', #398, #141 ) ;
#252 = CARTESIAN_POINT ( 'NONE',  ( -0.5000000000000004441, 15.49999999999998579, -20.00000000000000000 ) ) ;
#253 = CARTESIAN_POINT ( 'NONE',  ( 20.50000000000000000, -20.49999999999998934, 0.000000000000000000 ) ) ;
#254 = ORIENTED_EDGE ( 'NONE', *, *, #781, .T. ) ;
#255 = ADVANCED_FACE ( 'NONE', ( #488 ), #73, .T. ) ;
#256 = LINE ( 'NONE', #822, #601 ) ;
#257 = VERTEX_POINT ( 'NONE', #339 ) ;
#258 = APPROVAL_DATE_TIME ( #392, #536 ) ;
#259 = DIRECTION ( 'NONE',  ( 1.000000000000000000, -0.000000000000000000, -0.000000000000000000 ) ) ;
#260 = ORIENTED_EDGE ( 'NONE', *, *, #313, .F. ) ;
#261 = CARTESIAN_POINT ( 'NONE',  ( -0.5000000000000004441, 10.24999999999999467, 9.999999999999998224 ) ) ;
#262 = VECTOR ( 'NONE', #498, 1000.000000000000000 ) ;
#263 = ADVANCED_FACE ( 'NONE', ( #549, #206, #138 ), #67, .F. ) ;
#264 = VERTEX_POINT ( 'NONE', #196 ) ;
#265 = DIRECTION ( 'NONE',  ( -1.000000000000000000, -0.000000000000000000, 0.000000000000000000 ) ) ;
#266 = DIRECTION ( 'NONE',  ( -1.000000000000000000, 0.000000000000000000, 0.000000000000000000 ) ) ;
#267 = ORIENTED_EDGE ( 'NONE', *, *, #360, .F. ) ;
#268 = DIRECTION ( 'NONE',  ( 1.000000000000000000, -0.000000000000000000, -0.000000000000000000 ) ) ;
#269 = DIRECTION ( 'NONE',  ( 0.000000000000000000, 1.000000000000000000, 0.000000000000000000 ) ) ;
#270 = AXIS2_PLACEMENT_3D ( 'NONE', #284, #336, #696 ) ;
#271 = ORIENTED_EDGE ( 'NONE', *, *, #530, .T. ) ;
#272 = CARTESIAN_POINT ( 'NONE',  ( -0.5000000000000004441, 20.50000000000000000, 20.00000000000000000 ) ) ;
#273 = CARTESIAN_POINT ( 'NONE',  ( -0.5000000000000004441, -0.5000000000000004441, 20.00000000000000000 ) ) ;
#274 = CIRCLE ( 'NONE', #85, 2.550000000000000266 ) ;
#275 = APPROVAL_PERSON_ORGANIZATION ( #118, #372, #462 ) ;
#276 = ORIENTED_EDGE ( 'NONE', *, *, #309, .F. ) ;
#277 = DIRECTION ( 'NONE',  ( 0.000000000000000000, 1.000000000000000000, 0.000000000000000000 ) ) ;
#278 = AXIS2_PLACEMENT_3D ( 'NONE', #724, #600, #379 ) ;
#279 = EDGE_CURVE ( 'NONE', #645, #236, #211, .T. ) ;
#280 = CARTESIAN_POINT ( 'NONE',  ( 30.50000000000000711, 20.49999999999999645, 20.00000000000000000 ) ) ;
#281 = EDGE_CURVE ( 'NONE', #625, #50, #706, .T. ) ;
#282 = EDGE_LOOP ( 'NONE', ( #74, #486, #731, #415 ) ) ;
#283 = CARTESIAN_POINT ( 'NONE',  ( 20.49999999999999645, 15.49999999999998579, -20.00000000000000000 ) ) ;
#284 = CARTESIAN_POINT ( 'NONE',  ( -0.5000000000000004441, 10.24999999999999467, 9.999999999999998224 ) ) ;
#285 = ORIENTED_EDGE ( 'NONE', *, *, #302, .F. ) ;
#286 = AXIS2_PLACEMENT_3D ( 'NONE', #238, #378, #375 ) ;
#287 = ORIENTED_EDGE ( 'NONE', *, *, #445, .F. ) ;
#288 = CARTESIAN_POINT ( 'NONE',  ( 30.50000000000000711, 20.50000000000000000, 15.00000000000000000 ) ) ;
#289 = FACE_OUTER_BOUND ( 'NONE', #282, .T. ) ;
#290 = ORIENTED_EDGE ( 'NONE', *, *, #323, .F. ) ;
#291 = CIRCLE ( 'NONE', #324, 5.000000000000000888 ) ;
#292 = EDGE_CURVE ( 'NONE', #135, #145, #6, .T. ) ;
#293 = ORIENTED_EDGE ( 'NONE', *, *, #540, .F. ) ;
#294 = FACE_BOUND ( 'NONE', #725, .T. ) ;
#295 = EDGE_CURVE ( 'NONE', #264, #297, #111, .T. ) ;
#296 = DIRECTION ( 'NONE',  ( -1.000000000000000000, 0.000000000000000000, 0.000000000000000000 ) ) ;
#297 = VERTEX_POINT ( 'NONE', #347 ) ;
#298 = CARTESIAN_POINT ( 'NONE',  ( -10.49999999999999822, 15.50000000000000000, 20.00000000000000000 ) ) ;
#299 = CARTESIAN_POINT ( 'NONE',  ( 20.50000000000000000, -0.5000000000000004441, 20.00000000000000000 ) ) ;
#300 = ORIENTED_EDGE ( 'NONE', *, *, #540, .T. ) ;
#301 = LINE ( 'NONE', #354, #823 ) ;
#302 = EDGE_CURVE ( 'NONE', #50, #580, #560, .T. ) ;
#303 = DIRECTION ( 'NONE',  ( 0.000000000000000000, 0.000000000000000000, -1.000000000000000000 ) ) ;
#304 = CARTESIAN_POINT ( 'NONE',  ( -10.50000000000000178, 10.24999999999999467, 9.999999999999998224 ) ) ;
#305 = ORIENTED_EDGE ( 'NONE', *, *, #279, .T. ) ;
#306 = VECTOR ( 'NONE', #231, 1000.000000000000000 ) ;
#307 = AXIS2_PLACEMENT_3D ( 'NONE', #882, #47, #99 ) ;
#308 = PERSON_AND_ORGANIZATION_ROLE ( 'design_owner' ) ;
#309 = EDGE_CURVE ( 'NONE', #697, #631, #127, .T. ) ;
#310 = LINE ( 'NONE', #143, #225 ) ;
#311 = CARTESIAN_POINT ( 'NONE',  ( -0.5000000000000004441, 20.50000000000000000, -15.00000000000000355 ) ) ;
#312 = VERTEX_POINT ( 'NONE', #410 ) ;
#313 = EDGE_CURVE ( 'NONE', #297, #264, #243, .T. ) ;
#314 = MECHANICAL_CONTEXT ( 'NONE', #508, 'mechanical' ) ;
#315 = DIRECTION ( 'NONE',  ( -1.000000000000000000, -0.000000000000000000, -0.000000000000000000 ) ) ;
#316 = DIRECTION ( 'NONE',  ( 1.000000000000000000, 0.000000000000000000, -0.000000000000000000 ) ) ;
#317 = VERTEX_POINT ( 'NONE', #77 ) ;
#318 = COORDINATED_UNIVERSAL_TIME_OFFSET ( 0, 0, .AHEAD. ) ;
#319 = CIRCLE ( 'NONE', #270, 2.550000000000000266 ) ;
#320 = DIRECTION ( 'NONE',  ( -0.000000000000000000, -0.000000000000000000, -1.000000000000000000 ) ) ;
#321 = DIRECTION ( 'NONE',  ( 1.000000000000000000, -0.000000000000000000, -0.000000000000000000 ) ) ;
#322 = ORIENTED_EDGE ( 'NONE', *, *, #664, .F. ) ;
#323 = EDGE_CURVE ( 'NONE', #214, #32, #9, .T. ) ;
#324 = AXIS2_PLACEMENT_3D ( 'NONE', #405, #556, #690 ) ;
#325 = CARTESIAN_POINT ( 'NONE',  ( 20.50000000000000000, 20.50000000000000000, -15.00000000000000355 ) ) ;
#326 = ORIENTED_EDGE ( 'NONE', *, *, #490, .F. ) ;
#327 = DIRECTION ( 'NONE',  ( -1.000000000000000000, 0.000000000000000000, -0.000000000000000000 ) ) ;
#328 = CARTESIAN_POINT ( 'NONE',  ( 20.49999999999999645, 10.24999999999999467, -12.55000000000000249 ) ) ;
#329 = EDGE_LOOP ( 'NONE', ( #750, #104 ) ) ;
#330 = FACE_OUTER_BOUND ( 'NONE', #124, .T. ) ;
#331 = EDGE_CURVE ( 'NONE', #562, #371, #860, .T. ) ;
#332 = ORIENTED_EDGE ( 'NONE', *, *, #509, .T. ) ;
#333 = LINE ( 'NONE', #412, #694 ) ;
#334 = EDGE_CURVE ( 'NONE', #236, #831, #150, .T. ) ;
#335 = VECTOR ( 'NONE', #114, 1000.000000000000000 ) ;
#336 = DIRECTION ( 'NONE',  ( -1.000000000000000000, 0.000000000000000000, 0.000000000000000000 ) ) ;
#337 = ORIENTED_EDGE ( 'NONE', *, *, #812, .T. ) ;
#338 = CARTESIAN_POINT ( 'NONE',  ( 20.50000000000000000, 10.24999999999999467, 7.449999999999999289 ) ) ;
#339 = CARTESIAN_POINT ( 'NONE',  ( -10.49999999999999289, -35.50000000000000000, 20.00000000000000000 ) ) ;
#340 = ORIENTED_EDGE ( 'NONE', *, *, #209, .T. ) ;
#341 = CARTESIAN_POINT ( 'NONE',  ( 30.50000000000000711, 10.24999999999999467, -10.00000000000000178 ) ) ;
#342 = CARTESIAN_POINT ( 'NONE',  ( -10.49999999999999289, 10.24999999999999467, -10.00000000000000178 ) ) ;
#343 = VECTOR ( 'NONE', #201, 1000.000000000000000 ) ;
#344 = ORIENTED_EDGE ( 'NONE', *, *, #163, .T. ) ;
#345 = ADVANCED_FACE ( 'NONE', ( #427 ), #786, .T. ) ;
#346 = FACE_OUTER_BOUND ( 'NONE', #224, .T. ) ;
#347 = CARTESIAN_POINT ( 'NONE',  ( 30.50000000000000711, 10.24999999999999467, -7.450000000000001954 ) ) ;
#348 = AXIS2_PLACEMENT_3D ( 'NONE', #341, #476, #204 ) ;
#349 = ORIENTED_EDGE ( 'NONE', *, *, #758, .T. ) ;
#350 = PLANE ( 'NONE',  #250 ) ;
#351 = CIRCLE ( 'NONE', #169, 2.549999999999999378 ) ;
#352 = FACE_OUTER_BOUND ( 'NONE', #533, .T. ) ;
#353 = ORIENTED_EDGE ( 'NONE', *, *, #126, .T. ) ;
#354 = CARTESIAN_POINT ( 'NONE',  ( -0.5000000000000004441, -25.49999999999998934, -20.00000000000000000 ) ) ;
#355 = DIRECTION ( 'NONE',  ( -1.000000000000000000, -0.000000000000000000, -0.000000000000000000 ) ) ;
#356 = EDGE_CURVE ( 'NONE', #503, #566, #310, .T. ) ;
#357 = ORIENTED_EDGE ( 'NONE', *, *, #815, .T. ) ;
#358 = AXIS2_PLACEMENT_3D ( 'NONE', #60, #900, #865 ) ;
#359 = ORIENTED_EDGE ( 'NONE', *, *, #752, .F. ) ;
#360 = EDGE_CURVE ( 'NONE', #264, #174, #439, .T. ) ;
#361 = DIRECTION ( 'NONE',  ( -1.000000000000000000, -0.000000000000000000, 1.734723475976807587E-16 ) ) ;
#362 = ADVANCED_BREP_SHAPE_REPRESENTATION ( 'StandIdler', ( #659, #307 ), #230 ) ;
#363 = CYLINDRICAL_SURFACE ( 'NONE', #493, 2.549999999999999378 ) ;
#364 = CIRCLE ( 'NONE', #100, 2.550000000000000266 ) ;
#365 = CYLINDRICAL_SURFACE ( 'NONE', #684, 5.000000000000000000 ) ;
#366 = EDGE_LOOP ( 'NONE', ( #489, #4, #353, #693, #711, #606, #337, #132 ) ) ;
#367 = ADVANCED_FACE ( 'NONE', ( #431, #444, #780 ), #723, .F. ) ;
#368 = PLANE ( 'NONE',  #892 ) ;
#369 = DIRECTION ( 'NONE',  ( 0.000000000000000000, 0.000000000000000000, 1.000000000000000000 ) ) ;
#370 = ORIENTED_EDGE ( 'NONE', *, *, #768, .T. ) ;
#371 = VERTEX_POINT ( 'NONE', #96 ) ;
#372 = APPROVAL ( #33, 'UNSPECIFIED' ) ;
#373 = VECTOR ( 'NONE', #532, 1000.000000000000000 ) ;
#374 = LINE ( 'NONE', #87, #262 ) ;
#375 = DIRECTION ( 'NONE',  ( 0.000000000000000000, 0.000000000000000000, 1.000000000000000000 ) ) ;
#376 = PLANE ( 'NONE',  #795 ) ;
#377 = DIRECTION ( 'NONE',  ( 1.000000000000000000, 0.000000000000000000, 0.000000000000000000 ) ) ;
#378 = DIRECTION ( 'NONE',  ( -1.000000000000000000, 0.000000000000000000, 0.000000000000000000 ) ) ;
#379 = DIRECTION ( 'NONE',  ( 0.000000000000000000, 0.000000000000000000, -1.000000000000000000 ) ) ;
#380 = ORIENTED_EDGE ( 'NONE', *, *, #90, .F. ) ;
#381 = VECTOR ( 'NONE', #683, 1000.000000000000000 ) ;
#382 = DATE_AND_TIME ( #449, #1 ) ;
#383 = CARTESIAN_POINT ( 'NONE',  ( -0.5000000000000004441, 10.24999999999999467, -7.450000000000001954 ) ) ;
#384 = LINE ( 'NONE', #873, #234 ) ;
#385 = ORIENTED_EDGE ( 'NONE', *, *, #758, .F. ) ;
#386 = PERSON_AND_ORGANIZATION ( #24, #198 ) ;
#387 = DIRECTION ( 'NONE',  ( 0.000000000000000000, 0.000000000000000000, 1.000000000000000000 ) ) ;
#388 = APPLICATION_CONTEXT ( 'configuration controlled 3d designs of mechanical parts and assemblies' ) ;
#389 = DIRECTION ( 'NONE',  ( 0.000000000000000000, 0.000000000000000000, -1.000000000000000000 ) ) ;
#390 = CARTESIAN_POINT ( 'NONE',  ( 20.49999999999999645, 20.50000000000000000, -15.00000000000000000 ) ) ;
#391 = VERTEX_POINT ( 'NONE', #148 ) ;
#392 = DATE_AND_TIME ( #817, #70 ) ;
#393 = AXIS2_PLACEMENT_3D ( 'NONE', #485, #123, #699 ) ;
#394 = CARTESIAN_POINT ( 'NONE',  ( 20.50000000000000000, 15.50000000000000000, 20.00000000000000000 ) ) ;
#395 = EDGE_LOOP ( 'NONE', ( #550, #408 ) ) ;
#396 = AXIS2_PLACEMENT_3D ( 'NONE', #420, #200, #895 ) ;
#397 = PRODUCT_DEFINITION_FORMATION_WITH_SPECIFIED_SOURCE ( 'ANY', '', #894, .NOT_KNOWN. ) ;
#398 = CARTESIAN_POINT ( 'NONE',  ( -10.49999999999999822, 20.50000000000000000, 20.00000000000000000 ) ) ;
#399 = AXIS2_PLACEMENT_3D ( 'NONE', #161, #799, #661 ) ;
#400 = VERTEX_POINT ( 'NONE', #658 ) ;
#401 = CC_DESIGN_PERSON_AND_ORGANIZATION_ASSIGNMENT ( #248, #806, ( #397 ) ) ;
#402 = LINE ( 'NONE', #807, #728 ) ;
#403 = ORIENTED_EDGE ( 'NONE', *, *, #126, .F. ) ;
#404 = EDGE_CURVE ( 'NONE', #121, #21, #583, .T. ) ;
#405 = CARTESIAN_POINT ( 'NONE',  ( 20.50000000000000000, 15.50000000000000000, 15.00000000000000000 ) ) ;
#406 = VECTOR ( 'NONE', #771, 1000.000000000000000 ) ;
#407 = DIRECTION ( 'NONE',  ( -0.000000000000000000, 1.000000000000000000, -0.000000000000000000 ) ) ;
#408 = ORIENTED_EDGE ( 'NONE', *, *, #136, .T. ) ;
#409 = FACE_OUTER_BOUND ( 'NONE', #199, .T. ) ;
#410 = CARTESIAN_POINT ( 'NONE',  ( -0.5000000000000004441, 20.50000000000000000, 15.00000000000000000 ) ) ;
#411 = ORIENTED_EDGE ( 'NONE', *, *, #738, .T. ) ;
#412 = CARTESIAN_POINT ( 'NONE',  ( 30.50000000000000711, -35.50000000000000000, 20.00000000000000000 ) ) ;
#413 = CARTESIAN_POINT ( 'NONE',  ( 20.50000000000000000, 10.24999999999999467, 9.999999999999998224 ) ) ;
#414 = EDGE_CURVE ( 'NONE', #562, #511, #53, .T. ) ;
#415 = ORIENTED_EDGE ( 'NONE', *, *, #190, .T. ) ;
#416 = CARTESIAN_POINT ( 'NONE',  ( 20.49999999999999645, 10.24999999999999467, -10.00000000000000178 ) ) ;
#417 = CARTESIAN_POINT ( 'NONE',  ( 30.50000000000000711, 20.49999999999999645, -20.00000000000000000 ) ) ;
#418 = VECTOR ( 'NONE', #762, 1000.000000000000000 ) ;
#419 = EDGE_LOOP ( 'NONE', ( #117, #153, #835, #241 ) ) ;
#420 = CARTESIAN_POINT ( 'NONE',  ( 0.000000000000000000, 0.000000000000000000, -20.00000000000000000 ) ) ;
#421 = LINE ( 'NONE', #273, #447 ) ;
#422 = CIRCLE ( 'NONE', #744, 2.550000000000000266 ) ;
#423 = VECTOR ( 'NONE', #155, 1000.000000000000000 ) ;
#424 = ORIENTED_EDGE ( 'NONE', *, *, #496, .F. ) ;
#425 = CARTESIAN_POINT ( 'NONE',  ( -10.49999999999999822, 20.50000000000000000, 15.00000000000000000 ) ) ;
#426 = ADVANCED_FACE ( 'NONE', ( #655 ), #232, .F. ) ;
#427 = FACE_OUTER_BOUND ( 'NONE', #741, .T. ) ;
#428 = ORIENTED_EDGE ( 'NONE', *, *, #281, .F. ) ;
#429 = ORIENTED_EDGE ( 'NONE', *, *, #23, .F. ) ;
#430 = CARTESIAN_POINT ( 'NONE',  ( -0.5000000000000004441, 15.49999999999999289, 20.00000000000000000 ) ) ;
#431 = FACE_BOUND ( 'NONE', #576, .T. ) ;
#432 = ORIENTED_EDGE ( 'NONE', *, *, #522, .T. ) ;
#433 = AXIS2_PLACEMENT_3D ( 'NONE', #692, #757, #134 ) ;
#434 = LINE ( 'NONE', #845, #185 ) ;
#435 = CARTESIAN_POINT ( 'NONE',  ( -0.5000000000000004441, 10.24999999999999467, -10.00000000000000178 ) ) ;
#436 = CIRCLE ( 'NONE', #526, 2.550000000000000266 ) ;
#437 = ORIENTED_EDGE ( 'NONE', *, *, #664, .T. ) ;
#438 = EDGE_LOOP ( 'NONE', ( #558, #168 ) ) ;
#439 = LINE ( 'NONE', #152, #803 ) ;
#440 = ADVANCED_FACE ( 'NONE', ( #650 ), #640, .T. ) ;
#441 = CARTESIAN_POINT ( 'NONE',  ( -0.5000000000000004441, -25.49999999999998934, -5.000000000000000888 ) ) ;
#442 = ADVANCED_FACE ( 'NONE', ( #289 ), #713, .F. ) ;
#443 = CARTESIAN_POINT ( 'NONE',  ( 20.49999999999999645, 10.24999999999999467, -10.00000000000000178 ) ) ;
#444 = FACE_BOUND ( 'NONE', #674, .T. ) ;
#445 = EDGE_CURVE ( 'NONE', #631, #135, #181, .T. ) ;
#446 = PLANE ( 'NONE',  #399 ) ;
#447 = VECTOR ( 'NONE', #269, 1000.000000000000000 ) ;
#448 = ORIENTED_EDGE ( 'NONE', *, *, #295, .T. ) ;
#449 = CALENDAR_DATE ( 2026, 22, 8 ) ;
#450 = LINE ( 'NONE', #49, #678 ) ;
#451 = CARTESIAN_POINT ( 'NONE',  ( 30.50000000000000711, 10.24999999999999467, -12.55000000000000249 ) ) ;
#452 = EDGE_LOOP ( 'NONE', ( #641, #432, #898, #359 ) ) ;
#453 = AXIS2_PLACEMENT_3D ( 'NONE', #619, #133, #137 ) ;
#454 = CC_DESIGN_PERSON_AND_ORGANIZATION_ASSIGNMENT ( #726, #811, ( #186 ) ) ;
#455 = CYLINDRICAL_SURFACE ( 'NONE', #69, 2.549999999999999378 ) ;
#456 = CARTESIAN_POINT ( 'NONE',  ( 30.50000000000000711, 15.50000000000000000, 20.00000000000000000 ) ) ;
#457 = VERTEX_POINT ( 'NONE', #719 ) ;
#458 = PERSON_AND_ORGANIZATION_ROLE ( 'creator' ) ;
#459 = CARTESIAN_POINT ( 'NONE',  ( -10.49999999999999289, -35.50000000000000000, -20.00000000000000000 ) ) ;
#460 = DIRECTION ( 'NONE',  ( 0.000000000000000000, 0.000000000000000000, 1.000000000000000000 ) ) ;
#461 = ORIENTED_EDGE ( 'NONE', *, *, #219, .F. ) ;
#462 = APPROVAL_ROLE ( '' ) ;
#463 = CARTESIAN_POINT ( 'NONE',  ( -10.50000000000000178, 10.24999999999999467, 12.54999999999999893 ) ) ;
#464 = ADVANCED_FACE ( 'NONE', ( #82 ), #363, .F. ) ;
#465 = ORIENTED_EDGE ( 'NONE', *, *, #848, .T. ) ;
#466 = APPLICATION_PROTOCOL_DEFINITION ( 'international standard', 'config_control_design', 1994, #388 ) ;
#467 = CIRCLE ( 'NONE', #453, 5.000000000000000888 ) ;
#468 = APPROVAL_PERSON_ORGANIZATION ( #386, #35, #237 ) ;
#469 = CARTESIAN_POINT ( 'NONE',  ( 30.50000000000000711, 15.50000000000000000, 15.00000000000000000 ) ) ;
#470 = VECTOR ( 'NONE', #720, 1000.000000000000000 ) ;
#471 = EDGE_LOOP ( 'NONE', ( #424, #370, #527, #479 ) ) ;
#472 = EDGE_CURVE ( 'NONE', #580, #754, #514, .T. ) ;
#473 = DIRECTION ( 'NONE',  ( 0.000000000000000000, -1.000000000000000000, 0.000000000000000000 ) ) ;
#474 = EDGE_CURVE ( 'NONE', #697, #852, #402, .T. ) ;
#475 = ORIENTED_EDGE ( 'NONE', *, *, #90, .T. ) ;
#476 = DIRECTION ( 'NONE',  ( -1.000000000000000000, -0.000000000000000000, -0.000000000000000000 ) ) ;
#477 = AXIS2_PLACEMENT_3D ( 'NONE', #569, #156, #499 ) ;
#478 = CARTESIAN_POINT ( 'NONE',  ( 30.50000000000000711, -35.50000000000000000, 20.00000000000000000 ) ) ;
#479 = ORIENTED_EDGE ( 'NONE', *, *, #765, .T. ) ;
#480 = CARTESIAN_POINT ( 'NONE',  ( 30.50000000000000711, 10.24999999999999467, -10.00000000000000178 ) ) ;
#481 = EDGE_CURVE ( 'NONE', #8, #317, #872, .T. ) ;
#482 = LINE ( 'NONE', #417, #343 ) ;
#483 = ORIENTED_EDGE ( 'NONE', *, *, #668, .F. ) ;
#484 = CYLINDRICAL_SURFACE ( 'NONE', #528, 2.549999999999999378 ) ;
#485 = CARTESIAN_POINT ( 'NONE',  ( 0.000000000000000000, 15.50000000000000000, 15.00000000000000000 ) ) ;
#486 = ORIENTED_EDGE ( 'NONE', *, *, #738, .F. ) ;
#487 = DIRECTION ( 'NONE',  ( 1.000000000000000000, 0.000000000000000000, 0.000000000000000000 ) ) ;
#488 = FACE_OUTER_BOUND ( 'NONE', #419, .T. ) ;
#489 = ORIENTED_EDGE ( 'NONE', *, *, #651, .T. ) ;
#490 = EDGE_CURVE ( 'NONE', #183, #68, #570, .T. ) ;
#491 = CARTESIAN_POINT ( 'NONE',  ( -10.49999999999999289, 15.50000000000000000, 15.00000000000000000 ) ) ;
#492 = DIRECTION ( 'NONE',  ( -0.000000000000000000, -0.000000000000000000, -1.000000000000000000 ) ) ;
#493 = AXIS2_PLACEMENT_3D ( 'NONE', #93, #643, #303 ) ;
#494 = DESIGN_CONTEXT ( 'detailed design', #388, 'design' ) ;
#495 = ORIENTED_EDGE ( 'NONE', *, *, #657, .T. ) ;
#496 = EDGE_CURVE ( 'NONE', #828, #547, #251, .T. ) ;
#497 = ORIENTED_EDGE ( 'NONE', *, *, #292, .T. ) ;
#498 = DIRECTION ( 'NONE',  ( 1.269309860470834724E-16, -1.000000000000000000, 0.000000000000000000 ) ) ;
#499 = DIRECTION ( 'NONE',  ( 0.000000000000000000, 0.000000000000000000, -1.000000000000000000 ) ) ;
#500 = ORIENTED_EDGE ( 'NONE', *, *, #190, .F. ) ;
#501 = FACE_BOUND ( 'NONE', #78, .T. ) ;
#502 = DIRECTION ( 'NONE',  ( 0.000000000000000000, 0.000000000000000000, 1.000000000000000000 ) ) ;
#503 = VERTEX_POINT ( 'NONE', #110 ) ;
#504 = AXIS2_PLACEMENT_3D ( 'NONE', #855, #851, #574 ) ;
#505 = EDGE_LOOP ( 'NONE', ( #820, #271, #61, #129, #647, #495, #43, #158 ) ) ;
#506 = CARTESIAN_POINT ( 'NONE',  ( -10.49999999999999289, -35.50000000000000000, 20.00000000000000000 ) ) ;
#507 = DIRECTION ( 'NONE',  ( -1.000000000000000000, -0.000000000000000000, -0.000000000000000000 ) ) ;
#508 = APPLICATION_CONTEXT ( 'configuration controlled 3d designs of mechanical parts and assemblies' ) ;
#509 = EDGE_CURVE ( 'NONE', #787, #8, #197, .T. ) ;
#510 = AXIS2_PLACEMENT_3D ( 'NONE', #102, #609, #176 ) ;
#511 = VERTEX_POINT ( 'NONE', #604 ) ;
#512 = CARTESIAN_POINT ( 'NONE',  ( 30.50000000000000711, 20.49999999999999645, 15.00000000000000000 ) ) ;
#513 = VECTOR ( 'NONE', #870, 1000.000000000000000 ) ;
#514 = LINE ( 'NONE', #797, #626 ) ;
#515 = PLANE ( 'NONE',  #119 ) ;
#516 = ORIENTED_EDGE ( 'NONE', *, *, #530, .F. ) ;
#517 = CALENDAR_DATE ( 2026, 22, 8 ) ;
#518 = CARTESIAN_POINT ( 'NONE',  ( -0.5000000000000004441, 15.50000000000000000, -15.00000000000000000 ) ) ;
#519 = CARTESIAN_POINT ( 'NONE',  ( 20.49999999999999645, 10.24999999999999467, -7.450000000000001954 ) ) ;
#520 = AXIS2_PLACEMENT_3D ( 'NONE', #16, #296, #88 ) ;
#521 = ORIENTED_EDGE ( 'NONE', *, *, #279, .F. ) ;
#522 = EDGE_CURVE ( 'NONE', #135, #214, #256, .T. ) ;
#523 = DIRECTION ( 'NONE',  ( 0.000000000000000000, 1.734723475976806700E-15, 1.000000000000000000 ) ) ;
#524 = ADVANCED_FACE ( 'NONE', ( #676 ), #184, .F. ) ;
#525 = DIRECTION ( 'NONE',  ( 0.000000000000000000, 0.000000000000000000, 1.000000000000000000 ) ) ;
#526 = AXIS2_PLACEMENT_3D ( 'NONE', #866, #246, #525 ) ;
#527 = ORIENTED_EDGE ( 'NONE', *, *, #607, .T. ) ;
#528 = AXIS2_PLACEMENT_3D ( 'NONE', #2, #268, #191 ) ;
#529 = LINE ( 'NONE', #687, #381 ) ;
#530 = EDGE_CURVE ( 'NONE', #754, #183, #818, .T. ) ;
#531 = CARTESIAN_POINT ( 'NONE',  ( 20.50000000000000000, -0.5000000000000004441, 20.00000000000000000 ) ) ;
#532 = DIRECTION ( 'NONE',  ( -1.000000000000000000, -0.000000000000000000, 0.000000000000000000 ) ) ;
#533 = EDGE_LOOP ( 'NONE', ( #37, #108, #322, #893 ) ) ;
#534 = CALENDAR_DATE ( 2026, 22, 8 ) ;
#535 = DIRECTION ( 'NONE',  ( 0.000000000000000000, 0.000000000000000000, -1.000000000000000000 ) ) ;
#536 = APPROVAL ( #109, 'UNSPECIFIED' ) ;
#537 = EDGE_LOOP ( 'NONE', ( #84, #475, #679, #46 ) ) ;
#538 = SECURITY_CLASSIFICATION_LEVEL ( 'unclassified' ) ;
#539 = VECTOR ( 'NONE', #842, 1000.000000000000000 ) ;
#540 = EDGE_CURVE ( 'NONE', #257, #580, #529, .T. ) ;
#541 = CARTESIAN_POINT ( 'NONE',  ( 20.50000000000000000, -25.49999999999998934, -5.000000000000000888 ) ) ;
#542 = EDGE_CURVE ( 'NONE', #312, #772, #836, .T. ) ;
#543 = ORIENTED_EDGE ( 'NONE', *, *, #657, .F. ) ;
#544 = AXIS2_PLACEMENT_3D ( 'NONE', #841, #265, #705 ) ;
#545 = VECTOR ( 'NONE', #715, 1000.000000000000000 ) ;
#546 = DIRECTION ( 'NONE',  ( -1.000000000000000000, 0.000000000000000000, 0.000000000000000000 ) ) ;
#547 = VERTEX_POINT ( 'NONE', #612 ) ;
#548 = DIRECTION ( 'NONE',  ( -0.000000000000000000, -0.000000000000000000, -1.000000000000000000 ) ) ;
#549 = FACE_BOUND ( 'NONE', #438, .T. ) ;
#550 = ORIENTED_EDGE ( 'NONE', *, *, #205, .T. ) ;
#551 = FACE_OUTER_BOUND ( 'NONE', #688, .T. ) ;
#552 = AXIS2_PLACEMENT_3D ( 'NONE', #342, #266, #624 ) ;
#553 = DIRECTION ( 'NONE',  ( -0.000000000000000000, 0.000000000000000000, -1.000000000000000000 ) ) ;
#554 = ORIENTED_EDGE ( 'NONE', *, *, #779, .F. ) ;
#555 = VECTOR ( 'NONE', #210, 1000.000000000000000 ) ;
#556 = DIRECTION ( 'NONE',  ( -1.000000000000000000, -0.000000000000000000, 0.000000000000000000 ) ) ;
#557 = CARTESIAN_POINT ( 'NONE',  ( 0.000000000000000000, 15.50000000000000000, 15.00000000000000000 ) ) ;
#558 = ORIENTED_EDGE ( 'NONE', *, *, #140, .F. ) ;
#559 = CARTESIAN_POINT ( 'NONE',  ( 30.50000000000000711, 20.49999999999999645, -15.00000000000000355 ) ) ;
#560 = LINE ( 'NONE', #3, #539 ) ;
#561 = CC_DESIGN_DATE_AND_TIME_ASSIGNMENT ( #170, #113, ( #186 ) ) ;
#562 = VERTEX_POINT ( 'NONE', #383 ) ;
#563 = LINE ( 'NONE', #288, #213 ) ;
#564 = VECTOR ( 'NONE', #492, 1000.000000000000000 ) ;
#565 = CARTESIAN_POINT ( 'NONE',  ( 30.50000000000000711, 15.50000000000000178, -20.00000000000000000 ) ) ;
#566 = VERTEX_POINT ( 'NONE', #325 ) ;
#567 = EDGE_LOOP ( 'NONE', ( #905, #800, #305, #810 ) ) ;
#568 = DIRECTION ( 'NONE',  ( 1.000000000000000000, -0.000000000000000000, -0.000000000000000000 ) ) ;
#569 = CARTESIAN_POINT ( 'NONE',  ( 20.50000000000000000, -20.49999999999998579, -5.000000000000000888 ) ) ;
#570 = CIRCLE ( 'NONE', #704, 5.000000000000000888 ) ;
#571 = ORIENTED_EDGE ( 'NONE', *, *, #522, .F. ) ;
#572 = ORIENTED_EDGE ( 'NONE', *, *, #209, .F. ) ;
#573 = PLANE ( 'NONE',  #249 ) ;
#574 = DIRECTION ( 'NONE',  ( 0.000000000000000000, 0.000000000000000000, -1.000000000000000000 ) ) ;
#575 = ORIENTED_EDGE ( 'NONE', *, *, #356, .T. ) ;
#576 = EDGE_LOOP ( 'NONE', ( #825, #448 ) ) ;
#577 = CARTESIAN_POINT ( 'NONE',  ( 20.50000000000000000, 15.50000000000000000, -15.00000000000000000 ) ) ;
#578 = ADVANCED_FACE ( 'NONE', ( #180 ), #455, .F. ) ;
#579 = DIRECTION ( 'NONE',  ( 0.000000000000000000, -0.000000000000000000, -1.000000000000000000 ) ) ;
#580 = VERTEX_POINT ( 'NONE', #459 ) ;
#581 = AXIS2_PLACEMENT_3D ( 'NONE', #26, #507, #369 ) ;
#582 = DIRECTION ( 'NONE',  ( -0.000000000000000000, 0.000000000000000000, -1.000000000000000000 ) ) ;
#583 = LINE ( 'NONE', #19, #859 ) ;
#584 = CIRCLE ( 'NONE', #229, 2.550000000000000266 ) ;
#585 = DIRECTION ( 'NONE',  ( 0.000000000000000000, -1.000000000000000000, 0.000000000000000000 ) ) ;
#586 = APPROVAL_PERSON_ORGANIZATION ( #179, #536, #38 ) ;
#587 = ORIENTED_EDGE ( 'NONE', *, *, #496, .T. ) ;
#588 = APPROVAL_DATE_TIME ( #175, #35 ) ;
#589 = DIRECTION ( 'NONE',  ( -1.000000000000000000, -0.000000000000000000, -0.000000000000000000 ) ) ;
#590 = EDGE_CURVE ( 'NONE', #297, #64, #665, .T. ) ;
#591 = CARTESIAN_POINT ( 'NONE',  ( 20.50000000000000000, -25.49999999999998934, -20.00000000000000000 ) ) ;
#592 = VERTEX_POINT ( 'NONE', #52 ) ;
#593 = DATE_AND_TIME ( #534, #680 ) ;
#594 = CARTESIAN_POINT ( 'NONE',  ( 20.50000000000000000, -25.49999999999998934, -20.00000000000000000 ) ) ;
#595 = FACE_OUTER_BOUND ( 'NONE', #567, .T. ) ;
#596 = AXIS2_PLACEMENT_3D ( 'NONE', #435, #220, #216 ) ;
#597 = VERTEX_POINT ( 'NONE', #463 ) ;
#598 = PLANE ( 'NONE',  #154 ) ;
#599 = DIRECTION ( 'NONE',  ( -0.000000000000000000, 1.000000000000000000, -0.000000000000000000 ) ) ;
#600 = DIRECTION ( 'NONE',  ( 1.000000000000000000, 0.000000000000000000, 0.000000000000000000 ) ) ;
#601 = VECTOR ( 'NONE', #327, 1000.000000000000000 ) ;
#602 = EDGE_LOOP ( 'NONE', ( #267, #260, #17, #178 ) ) ;
#603 = LOCAL_TIME ( 12, 38, 56.00000000000000000, #868 ) ;
#604 = CARTESIAN_POINT ( 'NONE',  ( -0.5000000000000004441, 10.24999999999999467, -12.55000000000000249 ) ) ;
#605 = DIRECTION ( 'NONE',  ( 1.000000000000000000, 0.000000000000000000, 0.000000000000000000 ) ) ;
#606 = ORIENTED_EDGE ( 'NONE', *, *, #766, .T. ) ;
#607 = EDGE_CURVE ( 'NONE', #312, #68, #887, .T. ) ;
#608 = CC_DESIGN_PERSON_AND_ORGANIZATION_ASSIGNMENT ( #886, #458, ( #202 ) ) ;
#609 = DIRECTION ( 'NONE',  ( 1.000000000000000000, -0.000000000000000000, -0.000000000000000000 ) ) ;
#610 = ORIENTED_EDGE ( 'NONE', *, *, #223, .F. ) ;
#611 = ADVANCED_FACE ( 'NONE', ( #106 ), #598, .F. ) ;
#612 = CARTESIAN_POINT ( 'NONE',  ( -10.49999999999999822, 20.50000000000000000, -15.00000000000000355 ) ) ;
#613 = ORIENTED_EDGE ( 'NONE', *, *, #668, .T. ) ;
#614 = AXIS2_PLACEMENT_3D ( 'NONE', #577, #10, #649 ) ;
#615 = CARTESIAN_POINT ( 'NONE',  ( 30.50000000000000711, 15.50000000000000000, -20.00000000000000000 ) ) ;
#616 = CARTESIAN_POINT ( 'NONE',  ( -0.5000000000000004441, -0.5000000000000143219, 0.000000000000000000 ) ) ;
#617 = CC_DESIGN_DATE_AND_TIME_ASSIGNMENT ( #593, #669, ( #202 ) ) ;
#618 = EDGE_LOOP ( 'NONE', ( #254, #208, #276, #247 ) ) ;
#619 = CARTESIAN_POINT ( 'NONE',  ( 30.50000000000000711, 15.50000000000000000, -15.00000000000000000 ) ) ;
#620 = CARTESIAN_POINT ( 'NONE',  ( 20.50000000000000000, -25.49999999999998934, -20.00000000000000000 ) ) ;
#621 = ORIENTED_EDGE ( 'NONE', *, *, #648, .T. ) ;
#622 = DIRECTION ( 'NONE',  ( 0.000000000000000000, -0.000000000000000000, -1.000000000000000000 ) ) ;
#623 = CIRCLE ( 'NONE', #689, 2.549999999999999378 ) ;
#624 = DIRECTION ( 'NONE',  ( 0.000000000000000000, 0.000000000000000000, 1.000000000000000000 ) ) ;
#625 = VERTEX_POINT ( 'NONE', #802 ) ;
#626 = VECTOR ( 'NONE', #743, 1000.000000000000000 ) ;
#627 = DIRECTION ( 'NONE',  ( 0.000000000000000000, 0.000000000000000000, 1.000000000000000000 ) ) ;
#628 = EDGE_CURVE ( 'NONE', #597, #91, #450, .T. ) ;
#629 = LOCAL_TIME ( 12, 38, 56.00000000000000000, #318 ) ;
#630 = CARTESIAN_POINT ( 'NONE',  ( -10.49999999999999289, -20.49999999999999645, 20.00000000000000000 ) ) ;
#631 = VERTEX_POINT ( 'NONE', #541 ) ;
#632 = ADVANCED_FACE ( 'NONE', ( #330 ), #890, .F. ) ;
#633 = ADVANCED_FACE ( 'NONE', ( #409 ), #764, .F. ) ;
#634 = CARTESIAN_POINT ( 'NONE',  ( -0.5000000000000004441, -0.5000000000000004441, 20.00000000000000000 ) ) ;
#635 = DIRECTION ( 'NONE',  ( -0.000000000000000000, -0.000000000000000000, -1.000000000000000000 ) ) ;
#636 = ORIENTED_EDGE ( 'NONE', *, *, #848, .F. ) ;
#637 = ADVANCED_FACE ( 'NONE', ( #695 ), #350, .F. ) ;
#638 = DIRECTION ( 'NONE',  ( 0.000000000000000000, 0.000000000000000000, -1.000000000000000000 ) ) ;
#639 = VECTOR ( 'NONE', #321, 1000.000000000000000 ) ;
#640 = CYLINDRICAL_SURFACE ( 'NONE', #193, 5.000000000000000888 ) ;
#641 = ORIENTED_EDGE ( 'NONE', *, *, #292, .F. ) ;
#642 = DIRECTION ( 'NONE',  ( 0.000000000000000000, 0.000000000000000000, -1.000000000000000000 ) ) ;
#643 = DIRECTION ( 'NONE',  ( 1.000000000000000000, -0.000000000000000000, -0.000000000000000000 ) ) ;
#644 = AXIS2_PLACEMENT_3D ( 'NONE', #480, #701, #627 ) ;
#645 = VERTEX_POINT ( 'NONE', #338 ) ;
#646 = EDGE_CURVE ( 'NONE', #831, #236, #115, .T. ) ;
#647 = ORIENTED_EDGE ( 'NONE', *, *, #474, .T. ) ;
#648 = EDGE_CURVE ( 'NONE', #174, #64, #274, .T. ) ;
#649 = DIRECTION ( 'NONE',  ( 0.000000000000000000, 9.020562075079395313E-15, -1.000000000000000000 ) ) ;
#650 = FACE_OUTER_BOUND ( 'NONE', #718, .T. ) ;
#651 = EDGE_CURVE ( 'NONE', #625, #8, #333, .T. ) ;
#652 = EDGE_LOOP ( 'NONE', ( #429, #769, #703, #714 ) ) ;
#653 = ORIENTED_EDGE ( 'NONE', *, *, #765, .F. ) ;
#654 = DIRECTION ( 'NONE',  ( 1.000000000000000000, 0.000000000000000000, 0.000000000000000000 ) ) ;
#655 = FACE_OUTER_BOUND ( 'NONE', #537, .T. ) ;
#656 = CYLINDRICAL_SURFACE ( 'NONE', #749, 2.549999999999999378 ) ;
#657 = EDGE_CURVE ( 'NONE', #852, #212, #71, .T. ) ;
#658 = CARTESIAN_POINT ( 'NONE',  ( -0.5000000000000004441, 10.24999999999999467, 7.449999999999999289 ) ) ;
#659 = MANIFOLD_SOLID_BREP ( 'Fillet1', #896 ) ;
#660 = CIRCLE ( 'NONE', #544, 5.000000000000000888 ) ;
#661 = DIRECTION ( 'NONE',  ( 0.000000000000000000, -0.000000000000000000, 1.000000000000000000 ) ) ;
#662 = ORIENTED_EDGE ( 'NONE', *, *, #334, .F. ) ;
#663 = SHAPE_DEFINITION_REPRESENTATION ( #735, #362 ) ;
#664 = EDGE_CURVE ( 'NONE', #317, #503, #291, .T. ) ;
#665 = LINE ( 'NONE', #34, #849 ) ;
#666 = LINE ( 'NONE', #591, #470 ) ;
#667 = VERTEX_POINT ( 'NONE', #899 ) ;
#668 = EDGE_CURVE ( 'NONE', #212, #708, #467, .T. ) ;
#669 = DATE_TIME_ROLE ( 'creation_date' ) ;
#670 = DIRECTION ( 'NONE',  ( 1.000000000000000000, -0.000000000000000000, -0.000000000000000000 ) ) ;
#671 = LINE ( 'NONE', #41, #40 ) ;
#672 = LINE ( 'NONE', #42, #639 ) ;
#673 = CIRCLE ( 'NONE', #25, 2.549999999999999378 ) ;
#674 = EDGE_LOOP ( 'NONE', ( #662, #146 ) ) ;
#675 = APPROVAL_DATE_TIME ( #382, #372 ) ;
#676 = FACE_OUTER_BOUND ( 'NONE', #602, .T. ) ;
#677 = CARTESIAN_POINT ( 'NONE',  ( -10.50000000000000178, 10.24999999999999467, 9.999999999999998224 ) ) ;
#678 = VECTOR ( 'NONE', #259, 1000.000000000000000 ) ;
#679 = ORIENTED_EDGE ( 'NONE', *, *, #244, .T. ) ;
#680 = LOCAL_TIME ( 12, 38, 56.00000000000000000, #736 ) ;
#681 = ADVANCED_FACE ( 'NONE', ( #66 ), #55, .T. ) ;
#682 =( NAMED_UNIT ( * ) SI_UNIT ( $, .STERADIAN. ) SOLID_ANGLE_UNIT ( ) );
#683 = DIRECTION ( 'NONE',  ( -0.000000000000000000, -0.000000000000000000, -1.000000000000000000 ) ) ;
#684 = AXIS2_PLACEMENT_3D ( 'NONE', #782, #717, #20 ) ;
#685 = ADVANCED_FACE ( 'NONE', ( #346 ), #484, .F. ) ;
#686 = ORIENTED_EDGE ( 'NONE', *, *, #309, .T. ) ;
#687 = CARTESIAN_POINT ( 'NONE',  ( -10.49999999999999289, -35.50000000000000000, 20.00000000000000000 ) ) ;
#688 = EDGE_LOOP ( 'NONE', ( #58, #228, #621, #149 ) ) ;
#689 = AXIS2_PLACEMENT_3D ( 'NONE', #413, #56, #846 ) ;
#690 = DIRECTION ( 'NONE',  ( 0.000000000000000000, 0.000000000000000000, -1.000000000000000000 ) ) ;
#691 = ADVANCED_FACE ( 'NONE', ( #551 ), #833, .F. ) ;
#692 = CARTESIAN_POINT ( 'NONE',  ( 30.50000000000000711, 10.24999999999999467, -10.00000000000000178 ) ) ;
#693 = ORIENTED_EDGE ( 'NONE', *, *, #404, .T. ) ;
#694 = VECTOR ( 'NONE', #277, 1000.000000000000000 ) ;
#695 = FACE_OUTER_BOUND ( 'NONE', #471, .T. ) ;
#696 = DIRECTION ( 'NONE',  ( 0.000000000000000000, 0.000000000000000000, 1.000000000000000000 ) ) ;
#697 = VERTEX_POINT ( 'NONE', #122 ) ;
#698 = CARTESIAN_POINT ( 'NONE',  ( -0.5000000000000004441, 20.50000000000000000, 20.00000000000000000 ) ) ;
#699 = DIRECTION ( 'NONE',  ( 0.000000000000000000, 0.000000000000000000, -1.000000000000000000 ) ) ;
#700 = ORIENTED_EDGE ( 'NONE', *, *, #729, .F. ) ;
#701 = DIRECTION ( 'NONE',  ( -1.000000000000000000, -0.000000000000000000, -0.000000000000000000 ) ) ;
#702 = DIRECTION ( 'NONE',  ( 1.000000000000000000, -0.000000000000000000, -0.000000000000000000 ) ) ;
#703 = ORIENTED_EDGE ( 'NONE', *, *, #751, .F. ) ;
#704 = AXIS2_PLACEMENT_3D ( 'NONE', #518, #670, #523 ) ;
#705 = DIRECTION ( 'NONE',  ( 0.000000000000000000, -1.040834085586084059E-15, -1.000000000000000000 ) ) ;
#706 = LINE ( 'NONE', #478, #418 ) ;
#707 = ORIENTED_EDGE ( 'NONE', *, *, #239, .F. ) ;
#708 = VERTEX_POINT ( 'NONE', #559 ) ;
#709 = CARTESIAN_POINT ( 'NONE',  ( 30.50000000000000711, 10.24999999999999467, 12.54999999999999893 ) ) ;
#710 = DIRECTION ( 'NONE',  ( -0.000000000000000000, -0.000000000000000000, -1.000000000000000000 ) ) ;
#711 = ORIENTED_EDGE ( 'NONE', *, *, #223, .T. ) ;
#712 = CARTESIAN_POINT ( 'NONE',  ( -0.5000000000000004441, -35.49999999999999289, 0.000000000000000000 ) ) ;
#713 = PLANE ( 'NONE',  #65 ) ;
#714 = ORIENTED_EDGE ( 'NONE', *, *, #163, .F. ) ;
#715 = DIRECTION ( 'NONE',  ( 1.000000000000000000, -0.000000000000000000, -0.000000000000000000 ) ) ;
#716 = CARTESIAN_POINT ( 'NONE',  ( 30.50000000000000711, 10.24999999999999467, -7.450000000000001954 ) ) ;
#717 = DIRECTION ( 'NONE',  ( -1.000000000000000000, 0.000000000000000000, 0.000000000000000000 ) ) ;
#718 = EDGE_LOOP ( 'NONE', ( #700, #653, #326, #516 ) ) ;
#719 = CARTESIAN_POINT ( 'NONE',  ( -10.49999999999999289, 10.24999999999999467, -12.55000000000000249 ) ) ;
#720 = DIRECTION ( 'NONE',  ( 1.000000000000000000, -0.000000000000000000, -0.000000000000000000 ) ) ;
#721 = CC_DESIGN_PERSON_AND_ORGANIZATION_ASSIGNMENT ( #28, #308, ( #894 ) ) ;
#722 = DIRECTION ( 'NONE',  ( 0.000000000000000000, 0.000000000000000000, 1.000000000000000000 ) ) ;
#723 = PLANE ( 'NONE',  #520 ) ;
#724 = CARTESIAN_POINT ( 'NONE',  ( -10.50000000000000178, 10.24999999999999467, 9.999999999999998224 ) ) ;
#725 = EDGE_LOOP ( 'NONE', ( #759, #139 ) ) ;
#726 = PERSON_AND_ORGANIZATION ( #24, #198 ) ;
#727 = DIRECTION ( 'NONE',  ( 0.000000000000000000, 0.000000000000000000, 1.000000000000000000 ) ) ;
#728 = VECTOR ( 'NONE', #877, 1000.000000000000000 ) ;
#729 = EDGE_CURVE ( 'NONE', #547, #754, #660, .T. ) ;
#730 = FACE_OUTER_BOUND ( 'NONE', #452, .T. ) ;
#731 = ORIENTED_EDGE ( 'NONE', *, *, #404, .F. ) ;
#732 = DIRECTION ( 'NONE',  ( 0.000000000000000000, 0.000000000000000000, -1.000000000000000000 ) ) ;
#733 = CARTESIAN_POINT ( 'NONE',  ( 20.50000000000000000, -0.5000000000000004441, 20.00000000000000000 ) ) ;
#734 = ORIENTED_EDGE ( 'NONE', *, *, #542, .T. ) ;
#735 = PRODUCT_DEFINITION_SHAPE ( 'NONE', 'NONE',  #202 ) ;
#736 = COORDINATED_UNIVERSAL_TIME_OFFSET ( 0, 0, .AHEAD. ) ;
#737 = DIRECTION ( 'NONE',  ( 0.000000000000000000, -1.000000000000000000, -0.000000000000000000 ) ) ;
#738 = EDGE_CURVE ( 'NONE', #21, #217, #761, .T. ) ;
#739 = DIRECTION ( 'NONE',  ( 1.000000000000000000, -0.000000000000000000, -0.000000000000000000 ) ) ;
#740 = CIRCLE ( 'NONE', #552, 2.550000000000000266 ) ;
#741 = EDGE_LOOP ( 'NONE', ( #636, #75, #483, #543 ) ) ;
#742 =( NAMED_UNIT ( * ) PLANE_ANGLE_UNIT ( ) SI_UNIT ( $, .RADIAN. ) );
#743 = DIRECTION ( 'NONE',  ( -0.000000000000000000, 1.000000000000000000, -0.000000000000000000 ) ) ;
#744 = AXIS2_PLACEMENT_3D ( 'NONE', #188, #377, #722 ) ;
#745 = ORIENTED_EDGE ( 'NONE', *, *, #891, .F. ) ;
#746 = CC_DESIGN_APPROVAL ( #372, ( #186 ) ) ;
#747 = APPROVAL_STATUS ( 'not_yet_approved' ) ;
#748 = DIRECTION ( 'NONE',  ( 1.000000000000000000, 0.000000000000000000, 0.000000000000000000 ) ) ;
#749 = AXIS2_PLACEMENT_3D ( 'NONE', #304, #739, #235 ) ;
#750 = ORIENTED_EDGE ( 'NONE', *, *, #167, .T. ) ;
#751 = EDGE_CURVE ( 'NONE', #400, #91, #584, .T. ) ;
#752 = EDGE_CURVE ( 'NONE', #145, #217, #827, .T. ) ;
#753 = DIRECTION ( 'NONE',  ( 0.000000000000000000, -1.000000000000000000, 0.000000000000000000 ) ) ;
#754 = VERTEX_POINT ( 'NONE', #125 ) ;
#755 = AXIS2_PLACEMENT_3D ( 'NONE', #30, #160, #775 ) ;
#756 = DIRECTION ( 'NONE',  ( -1.000000000000000000, 0.000000000000000000, 0.000000000000000000 ) ) ;
#757 = DIRECTION ( 'NONE',  ( -1.000000000000000000, 0.000000000000000000, 0.000000000000000000 ) ) ;
#758 = EDGE_CURVE ( 'NONE', #511, #562, #422, .T. ) ;
#759 = ORIENTED_EDGE ( 'NONE', *, *, #838, .F. ) ;
#760 = CIRCLE ( 'NONE', #773, 5.000000000000000888 ) ;
#761 = LINE ( 'NONE', #634, #906 ) ;
#762 = DIRECTION ( 'NONE',  ( -0.000000000000000000, -0.000000000000000000, -1.000000000000000000 ) ) ;
#763 = ORIENTED_EDGE ( 'NONE', *, *, #239, .T. ) ;
#764 = CYLINDRICAL_SURFACE ( 'NONE', #348, 2.550000000000000266 ) ;
#765 = EDGE_CURVE ( 'NONE', #68, #547, #434, .T. ) ;
#766 = EDGE_CURVE ( 'NONE', #772, #847, #22, .T. ) ;
#767 = DIRECTION ( 'NONE',  ( 0.000000000000000000, 0.000000000000000000, -1.000000000000000000 ) ) ;
#768 = EDGE_CURVE ( 'NONE', #828, #312, #95, .T. ) ;
#769 = ORIENTED_EDGE ( 'NONE', *, *, #628, .T. ) ;
#770 = CARTESIAN_POINT ( 'NONE',  ( 30.50000000000000711, 10.24999999999999467, 9.999999999999998224 ) ) ;
#771 = DIRECTION ( 'NONE',  ( -0.000000000000000000, -0.000000000000000000, 1.000000000000000000 ) ) ;
#772 = VERTEX_POINT ( 'NONE', #430 ) ;
#773 = AXIS2_PLACEMENT_3D ( 'NONE', #491, #142, #638 ) ;
#774 = CARTESIAN_POINT ( 'NONE',  ( 20.50000000000000000, 20.50000000000000000, 20.00000000000000000 ) ) ;
#775 = DIRECTION ( 'NONE',  ( 0.000000000000000000, -6.938893903907228378E-16, 1.000000000000000000 ) ) ;
#776 = ORIENTED_EDGE ( 'NONE', *, *, #281, .T. ) ;
#777 = ORIENTED_EDGE ( 'NONE', *, *, #356, .F. ) ;
#778 = CARTESIAN_POINT ( 'NONE',  ( -0.5000000000000004441, -0.5000000000000004441, 20.00000000000000000 ) ) ;
#779 = EDGE_CURVE ( 'NONE', #32, #631, #218, .T. ) ;
#780 = FACE_OUTER_BOUND ( 'NONE', #840, .T. ) ;
#781 = EDGE_CURVE ( 'NONE', #391, #32, #301, .T. ) ;
#782 = CARTESIAN_POINT ( 'NONE',  ( 20.50000000000000000, -20.49999999999998579, -5.000000000000000888 ) ) ;
#783 = ORIENTED_EDGE ( 'NONE', *, *, #490, .T. ) ;
#784 = FACE_BOUND ( 'NONE', #203, .T. ) ;
#785 = VECTOR ( 'NONE', #635, 1000.000000000000000 ) ;
#786 = CYLINDRICAL_SURFACE ( 'NONE', #286, 5.000000000000000888 ) ;
#787 = VERTEX_POINT ( 'NONE', #512 ) ;
#788 = ORIENTED_EDGE ( 'NONE', *, *, #414, .F. ) ;
#789 = FACE_OUTER_BOUND ( 'NONE', #853, .T. ) ;
#790 = VECTOR ( 'NONE', #487, 1000.000000000000000 ) ;
#791 = CARTESIAN_POINT ( 'NONE',  ( 0.000000000000000000, 15.50000000000000000, -15.00000000000000000 ) ) ;
#792 = CC_DESIGN_APPROVAL ( #536, ( #397 ) ) ;
#793 = CC_DESIGN_PERSON_AND_ORGANIZATION_ASSIGNMENT ( #876, #242, ( #397 ) ) ;
#794 = ORIENTED_EDGE ( 'NONE', *, *, #331, .T. ) ;
#795 = AXIS2_PLACEMENT_3D ( 'NONE', #177, #27, #166 ) ;
#796 = FACE_OUTER_BOUND ( 'NONE', #189, .T. ) ;
#797 = CARTESIAN_POINT ( 'NONE',  ( -10.49999999999999289, 20.49999999999999645, -20.00000000000000000 ) ) ;
#798 = ADVANCED_FACE ( 'NONE', ( #294, #215, #796 ), #573, .F. ) ;
#799 = DIRECTION ( 'NONE',  ( 0.000000000000000000, 1.000000000000000000, 0.000000000000000000 ) ) ;
#800 = ORIENTED_EDGE ( 'NONE', *, *, #205, .F. ) ;
#801 = COORDINATED_UNIVERSAL_TIME_OFFSET ( 0, 0, .AHEAD. ) ;
#802 = CARTESIAN_POINT ( 'NONE',  ( 30.50000000000000711, -35.50000000000000000, 20.00000000000000000 ) ) ;
#803 = VECTOR ( 'NONE', #355, 1000.000000000000000 ) ;
#804 = LINE ( 'NONE', #451, #513 ) ;
#805 = EDGE_LOOP ( 'NONE', ( #901, #816, #344, #572 ) ) ;
#806 = PERSON_AND_ORGANIZATION_ROLE ( 'design_supplier' ) ;
#807 = CARTESIAN_POINT ( 'NONE',  ( 20.49999999999999645, -35.49999999999999289, -20.00000000000000000 ) ) ;
#808 = AXIS2_PLACEMENT_3D ( 'NONE', #469, #39, #387 ) ;
#809 = LINE ( 'NONE', #390, #373 ) ;
#810 = ORIENTED_EDGE ( 'NONE', *, *, #334, .T. ) ;
#811 = PERSON_AND_ORGANIZATION_ROLE ( 'classification_officer' ) ;
#812 = EDGE_CURVE ( 'NONE', #847, #257, #374, .T. ) ;
#813 = CARTESIAN_POINT ( 'NONE',  ( -10.50000000000000178, 10.24999999999999467, 9.999999999999998224 ) ) ;
#814 = FACE_OUTER_BOUND ( 'NONE', #366, .T. ) ;
#815 = EDGE_CURVE ( 'NONE', #847, #828, #760, .T. ) ;
#816 = ORIENTED_EDGE ( 'NONE', *, *, #167, .F. ) ;
#817 = CALENDAR_DATE ( 2026, 22, 8 ) ;
#818 = LINE ( 'NONE', #172, #864 ) ;
#819 = AXIS2_PLACEMENT_3D ( 'NONE', #557, #839, #767 ) ;
#820 = ORIENTED_EDGE ( 'NONE', *, *, #472, .T. ) ;
#821 = CALENDAR_DATE ( 2026, 22, 8 ) ;
#822 = CARTESIAN_POINT ( 'NONE',  ( -0.5000000000000004441, -20.49999999999998579, 0.000000000000000000 ) ) ;
#823 = VECTOR ( 'NONE', #862, 1000.000000000000000 ) ;
#824 = ADVANCED_FACE ( 'NONE', ( #501, #784, #789 ), #368, .F. ) ;
#825 = ORIENTED_EDGE ( 'NONE', *, *, #313, .T. ) ;
#826 = CC_DESIGN_SECURITY_CLASSIFICATION ( #186, ( #397 ) ) ;
#827 = LINE ( 'NONE', #829, #45 ) ;
#828 = VERTEX_POINT ( 'NONE', #425 ) ;
#829 = CARTESIAN_POINT ( 'NONE',  ( 20.50000000000000000, -0.5000000000000004441, 0.000000000000000000 ) ) ;
#830 = DIRECTION ( 'NONE',  ( 1.000000000000000000, 0.000000000000000000, -0.000000000000000000 ) ) ;
#831 = VERTEX_POINT ( 'NONE', #709 ) ;
#832 = AXIS2_PLACEMENT_3D ( 'NONE', #630, #830, #553 ) ;
#833 = CYLINDRICAL_SURFACE ( 'NONE', #644, 2.550000000000000266 ) ;
#834 = CARTESIAN_POINT ( 'NONE',  ( 30.50000000000000711, 10.24999999999999467, 7.449999999999999289 ) ) ;
#835 = ORIENTED_EDGE ( 'NONE', *, *, #815, .F. ) ;
#836 = CIRCLE ( 'NONE', #510, 5.000000000000000888 ) ;
#837 = DIRECTION ( 'NONE',  ( 0.000000000000000000, 0.000000000000000000, -1.000000000000000000 ) ) ;
#838 = EDGE_CURVE ( 'NONE', #64, #174, #364, .T. ) ;
#839 = DIRECTION ( 'NONE',  ( 1.000000000000000000, 0.000000000000000000, 0.000000000000000000 ) ) ;
#840 = EDGE_LOOP ( 'NONE', ( #707, #332, #187, #776, #461, #613 ) ) ;
#841 = CARTESIAN_POINT ( 'NONE',  ( -10.49999999999999289, 15.50000000000000000, -15.00000000000000000 ) ) ;
#842 = DIRECTION ( 'NONE',  ( -1.000000000000000000, 0.000000000000000000, 0.000000000000000000 ) ) ;
#843 = ORIENTED_EDGE ( 'NONE', *, *, #140, .T. ) ;
#844 = VECTOR ( 'NONE', #407, 1000.000000000000000 ) ;
#845 = CARTESIAN_POINT ( 'NONE',  ( -10.49999999999999289, 20.50000000000000000, -15.00000000000000000 ) ) ;
#846 = DIRECTION ( 'NONE',  ( 0.000000000000000000, 0.000000000000000000, -1.000000000000000000 ) ) ;
#847 = VERTEX_POINT ( 'NONE', #5 ) ;
#848 = EDGE_CURVE ( 'NONE', #566, #852, #878, .T. ) ;
#849 = VECTOR ( 'NONE', #315, 1000.000000000000000 ) ;
#850 = LINE ( 'NONE', #712, #879 ) ;
#851 = DIRECTION ( 'NONE',  ( 1.000000000000000000, 0.000000000000000000, 0.000000000000000000 ) ) ;
#852 = VERTEX_POINT ( 'NONE', #283 ) ;
#853 = EDGE_LOOP ( 'NONE', ( #856, #734, #610, #411, #861, #222, #13, #98, #783 ) ) ;
#854 = DIRECTION ( 'NONE',  ( -1.000000000000000000, -0.000000000000000000, 0.000000000000000000 ) ) ;
#855 = CARTESIAN_POINT ( 'NONE',  ( 30.50000000000000711, 10.24999999999999467, 9.999999999999998224 ) ) ;
#856 = ORIENTED_EDGE ( 'NONE', *, *, #607, .F. ) ;
#857 = ORIENTED_EDGE ( 'NONE', *, *, #888, .T. ) ;
#858 = CARTESIAN_POINT ( 'NONE',  ( -10.50000000000000178, 10.24999999999999467, 12.54999999999999893 ) ) ;
#859 = VECTOR ( 'NONE', #11, 1000.000000000000000 ) ;
#860 = LINE ( 'NONE', #716, #902 ) ;
#861 = ORIENTED_EDGE ( 'NONE', *, *, #875, .F. ) ;
#862 = DIRECTION ( 'NONE',  ( -0.000000000000000000, -0.000000000000000000, 1.000000000000000000 ) ) ;
#863 = EDGE_CURVE ( 'NONE', #503, #787, #563, .T. ) ;
#864 = VECTOR ( 'NONE', #748, 1000.000000000000000 ) ;
#865 = DIRECTION ( 'NONE',  ( 0.000000000000000000, 0.000000000000000000, 1.000000000000000000 ) ) ;
#866 = CARTESIAN_POINT ( 'NONE',  ( -10.49999999999999289, 10.24999999999999467, -10.00000000000000178 ) ) ;
#867 = ORIENTED_EDGE ( 'NONE', *, *, #812, .F. ) ;
#868 = COORDINATED_UNIVERSAL_TIME_OFFSET ( 0, 0, .AHEAD. ) ;
#869 = DIRECTION ( 'NONE',  ( -1.000000000000000000, 0.000000000000000000, 0.000000000000000000 ) ) ;
#870 = DIRECTION ( 'NONE',  ( -1.000000000000000000, -0.000000000000000000, -0.000000000000000000 ) ) ;
#871 = ORIENTED_EDGE ( 'NONE', *, *, #136, .F. ) ;
#872 = LINE ( 'NONE', #394, #335 ) ;
#873 = CARTESIAN_POINT ( 'NONE',  ( 20.50000000000000000, 20.50000000000000000, 20.00000000000000000 ) ) ;
#874 = ORIENTED_EDGE ( 'NONE', *, *, #863, .T. ) ;
#875 = EDGE_CURVE ( 'NONE', #214, #217, #850, .T. ) ;
#876 = PERSON_AND_ORGANIZATION ( #24, #198 ) ;
#877 = DIRECTION ( 'NONE',  ( -0.000000000000000000, 1.000000000000000000, -0.000000000000000000 ) ) ;
#878 = CIRCLE ( 'NONE', #614, 5.000000000000000888 ) ;
#879 = VECTOR ( 'NONE', #151, 1000.000000000000000 ) ;
#880 = CARTESIAN_POINT ( 'NONE',  ( 30.50000000000000711, -35.50000000000000000, -20.00000000000000000 ) ) ;
#881 = ORIENTED_EDGE ( 'NONE', *, *, #729, .T. ) ;
#882 = CARTESIAN_POINT ( 'NONE',  ( 0.000000000000000000, 0.000000000000000000, 0.000000000000000000 ) ) ;
#883 = CARTESIAN_POINT ( 'NONE',  ( -0.5000000000000004441, 20.50000000000000000, 20.00000000000000000 ) ) ;
#884 = LINE ( 'NONE', #531, #785 ) ;
#885 = ORIENTED_EDGE ( 'NONE', *, *, #445, .T. ) ;
#886 = PERSON_AND_ORGANIZATION ( #24, #198 ) ;
#887 = LINE ( 'NONE', #883, #57 ) ;
#888 = EDGE_CURVE ( 'NONE', #592, #831, #15, .T. ) ;
#889 = ORIENTED_EDGE ( 'NONE', *, *, #474, .F. ) ;
#890 = PLANE ( 'NONE',  #14 ) ;
#891 = EDGE_CURVE ( 'NONE', #257, #625, #226, .T. ) ;
#892 = AXIS2_PLACEMENT_3D ( 'NONE', #778, #159, #147 ) ;
#893 = ORIENTED_EDGE ( 'NONE', *, *, #481, .F. ) ;
#894 = PRODUCT ( 'StandIdler', 'StandIdler', '', ( #314 ) ) ;
#895 = DIRECTION ( 'NONE',  ( -1.000000000000000000, 0.000000000000000000, 0.000000000000000000 ) ) ;
#896 = CLOSED_SHELL ( 'NONE', ( #691, #578, #685, #426, #798, #824, #101, #637, #633, #442, #632, #263, #51, #367, #48, #116, #464, #681, #524, #611, #221, #255, #440, #345, #7 ) ) ;
#897 = CYLINDRICAL_SURFACE ( 'NONE', #393, 5.000000000000000888 ) ;
#898 = ORIENTED_EDGE ( 'NONE', *, *, #875, .T. ) ;
#899 = CARTESIAN_POINT ( 'NONE',  ( -10.50000000000000178, 10.24999999999999467, 7.449999999999999289 ) ) ;
#900 = DIRECTION ( 'NONE',  ( -1.000000000000000000, 0.000000000000000000, 0.000000000000000000 ) ) ;
#901 = ORIENTED_EDGE ( 'NONE', *, *, #628, .F. ) ;
#902 = VECTOR ( 'NONE', #589, 1000.000000000000000 ) ;
#903 = DIRECTION ( 'NONE',  ( -1.000000000000000000, -0.000000000000000000, 1.734723475976807587E-16 ) ) ;
#904 = CARTESIAN_POINT ( 'NONE',  ( -0.5000000000000004441, -20.49999999999998934, 0.000000000000000000 ) ) ;
#905 = ORIENTED_EDGE ( 'NONE', *, *, #888, .F. ) ;
#906 = VECTOR ( 'NONE', #548, 1000.000000000000000 ) ;
ENDSEC;
END-ISO-10303-21;
