ISO-10303-21;
HEADER;
FILE_DESCRIPTION (( 'STEP AP203' ),
    '1' );
FILE_NAME ('VWheel.step',
    '2026-08-22T11:39:01',
    ( '' ),
    ( '' ),
    'SwSTEP 2.0',
    'SolidWorks 2026',
    '' );
FILE_SCHEMA (( 'CONFIG_CONTROL_DESIGN' ));
ENDSEC;

DATA;
#1 = DIRECTION ( 'NONE',  ( 1.000000000000000000, 0.000000000000000000, 0.000000000000000000 ) ) ;
#2 = DIRECTION ( 'NONE',  ( 1.000000000000000000, 0.000000000000000000, 0.000000000000000000 ) ) ;
#3 = ORIENTED_EDGE ( 'NONE', *, *, #146, .F. ) ;
#4 = DIRECTION ( 'NONE',  ( 1.000000000000000000, 0.000000000000000000, 0.000000000000000000 ) ) ;
#5 = EDGE_CURVE ( 'NONE', #292, #395, #519, .T. ) ;
#6 = FACE_OUTER_BOUND ( 'NONE', #1176, .T. ) ;
#7 = APPROVAL_DATE_TIME ( #1056, #530 ) ;
#8 = ORIENTED_EDGE ( 'NONE', *, *, #192, .F. ) ;
#9 = DIRECTION ( 'NONE',  ( 1.000000000000000000, 0.000000000000000000, 0.000000000000000000 ) ) ;
#10 = AXIS2_PLACEMENT_3D ( 'NONE', #361, #656, #744 ) ;
#11 = CARTESIAN_POINT ( 'NONE',  ( 5.299999999999999822, 7.654042494670957606E-16, 6.250000000000000000 ) ) ;
#12 = EDGE_CURVE ( 'NONE', #407, #468, #1225, .T. ) ;
#13 = DIRECTION ( 'NONE',  ( 0.000000000000000000, 0.000000000000000000, 1.000000000000000000 ) ) ;
#14 = DATE_AND_TIME ( #201, #318 ) ;
#15 = CIRCLE ( 'NONE', #357, 8.000000000000000000 ) ;
#16 = ORIENTED_EDGE ( 'NONE', *, *, #141, .T. ) ;
#17 = CARTESIAN_POINT ( 'NONE',  ( 5.500000000000000000, 0.000000000000000000, 0.000000000000000000 ) ) ;
#18 = CARTESIAN_POINT ( 'NONE',  ( 5.500000000000000000, 0.000000000000000000, 0.000000000000000000 ) ) ;
#19 = CARTESIAN_POINT ( 'NONE',  ( 5.500000000000000000, 9.674709713264090115E-16, -7.799999999999999822 ) ) ;
#20 = ADVANCED_FACE ( 'NONE', ( #583, #6 ), #955, .T. ) ;
#21 = ORIENTED_EDGE ( 'NONE', *, *, #428, .F. ) ;
#22 = CARTESIAN_POINT ( 'NONE',  ( 5.299999999999999822, 7.654042494670957606E-16, 6.250000000000000000 ) ) ;
#23 = DIRECTION ( 'NONE',  ( -1.000000000000000000, 0.000000000000000000, 0.000000000000000000 ) ) ;
#24 = ORIENTED_EDGE ( 'NONE', *, *, #850, .T. ) ;
#25 = APPROVAL_DATE_TIME ( #507, #1173 ) ;
#26 = CC_DESIGN_PERSON_AND_ORGANIZATION_ASSIGNMENT ( #1155, #121, ( #542 ) ) ;
#27 = VERTEX_POINT ( 'NONE', #693 ) ;
#28 = LINE ( 'NONE', #787, #657 ) ;
#29 = DIRECTION ( 'NONE',  ( 1.000000000000000000, 0.000000000000000000, 0.000000000000000000 ) ) ;
#30 = VECTOR ( 'NONE', #372, 999.9999999999998863 ) ;
#31 = VECTOR ( 'NONE', #871, 1000.000000000000000 ) ;
#32 = DIRECTION ( 'NONE',  ( -1.000000000000000000, 0.000000000000000000, 0.000000000000000000 ) ) ;
#33 = ORIENTED_EDGE ( 'NONE', *, *, #555, .F. ) ;
#34 = DIRECTION ( 'NONE',  ( -1.000000000000000000, 0.000000000000000000, 0.000000000000000000 ) ) ;
#35 = DIRECTION ( 'NONE',  ( -1.000000000000000000, 0.000000000000000000, 0.000000000000000000 ) ) ;
#36 = EDGE_CURVE ( 'NONE', #910, #1151, #868, .T. ) ;
#37 = CARTESIAN_POINT ( 'NONE',  ( 5.299999999999999822, 0.000000000000000000, 0.000000000000000000 ) ) ;
#38 = ORIENTED_EDGE ( 'NONE', *, *, #41, .F. ) ;
#39 = CARTESIAN_POINT ( 'NONE',  ( -5.500000000000000000, 3.306546357697853733E-16, -2.700000000000000178 ) ) ;
#40 = DIRECTION ( 'NONE',  ( 1.000000000000000000, 0.000000000000000000, 0.000000000000000000 ) ) ;
#41 = EDGE_CURVE ( 'NONE', #843, #553, #341, .T. ) ;
#42 = DIRECTION ( 'NONE',  ( -1.000000000000000000, 0.000000000000000000, 0.000000000000000000 ) ) ;
#43 = EDGE_LOOP ( 'NONE', ( #510, #122 ) ) ;
#44 = DIRECTION ( 'NONE',  ( -0.7071067811865410224, 0.000000000000000000, 0.7071067811865540120 ) ) ;
#45 = EDGE_CURVE ( 'NONE', #976, #572, #699, .T. ) ;
#46 = DIRECTION ( 'NONE',  ( 1.000000000000000000, 0.000000000000000000, 0.000000000000000000 ) ) ;
#47 = AXIS2_PLACEMENT_3D ( 'NONE', #260, #628, #1012 ) ;
#48 = CIRCLE ( 'NONE', #147, 8.000000000000000000 ) ;
#49 = CARTESIAN_POINT ( 'NONE',  ( -2.774999999999999911, 1.494069094959772239E-15, 12.20000000000000995 ) ) ;
#50 = AXIS2_PLACEMENT_3D ( 'NONE', #946, #767, #90 ) ;
#51 = EDGE_CURVE ( 'NONE', #466, #1194, #400, .T. ) ;
#52 = ORIENTED_EDGE ( 'NONE', *, *, #464, .T. ) ;
#53 = DIRECTION ( 'NONE',  ( 0.000000000000000000, 0.000000000000000000, -1.000000000000000000 ) ) ;
#54 = FACE_OUTER_BOUND ( 'NONE', #1100, .T. ) ;
#55 = CIRCLE ( 'NONE', #719, 6.450000000000000178 ) ;
#56 = CC_DESIGN_APPROVAL ( #1173, ( #328 ) ) ;
#57 = CARTESIAN_POINT ( 'NONE',  ( 5.500000000000000000, 9.552245033349354572E-16, -7.799999999999999822 ) ) ;
#58 = EDGE_CURVE ( 'NONE', #420, #167, #1171, .T. ) ;
#59 = ORIENTED_EDGE ( 'NONE', *, *, #973, .F. ) ;
#60 = DIRECTION ( 'NONE',  ( 0.000000000000000000, 0.000000000000000000, 1.000000000000000000 ) ) ;
#61 = DIRECTION ( 'NONE',  ( -1.000000000000000000, 0.000000000000000000, 0.000000000000000000 ) ) ;
#62 = AXIS2_PLACEMENT_3D ( 'NONE', #460, #375, #284 ) ;
#63 = DIRECTION ( 'NONE',  ( -1.000000000000000000, 0.000000000000000000, 0.000000000000000000 ) ) ;
#64 = ORIENTED_EDGE ( 'NONE', *, *, #775, .T. ) ;
#65 = DIRECTION ( 'NONE',  ( 1.000000000000000000, 0.000000000000000000, 0.000000000000000000 ) ) ;
#66 = APPROVAL ( #316, 'UNSPECIFIED' ) ;
#67 = DIRECTION ( 'NONE',  ( 1.000000000000000000, 0.000000000000000000, 0.000000000000000000 ) ) ;
#68 = LOCAL_TIME ( 12, 39, 1.000000000000000000, #784 ) ;
#69 = DIRECTION ( 'NONE',  ( 0.000000000000000000, 0.000000000000000000, 1.000000000000000000 ) ) ;
#70 = ORIENTED_EDGE ( 'NONE', *, *, #406, .T. ) ;
#71 =( LENGTH_UNIT ( ) NAMED_UNIT ( * ) SI_UNIT ( .MILLI., .METRE. ) );
#72 = CIRCLE ( 'NONE', #374, 6.450000000000000178 ) ;
#73 = EDGE_LOOP ( 'NONE', ( #752, #236, #1188, #809 ) ) ;
#74 = CYLINDRICAL_SURFACE ( 'NONE', #203, 6.250000000000000000 ) ;
#75 = EDGE_CURVE ( 'NONE', #27, #453, #92, .T. ) ;
#76 = DIRECTION ( 'NONE',  ( 1.000000000000000000, 0.000000000000000000, 0.000000000000000000 ) ) ;
#77 = VERTEX_POINT ( 'NONE', #783 ) ;
#78 = ORIENTED_EDGE ( 'NONE', *, *, #51, .F. ) ;
#79 = DIRECTION ( 'NONE',  ( 1.000000000000000000, 0.000000000000000000, 0.000000000000000000 ) ) ;
#80 = CARTESIAN_POINT ( 'NONE',  ( 5.299999999999999822, 0.000000000000000000, 0.000000000000000000 ) ) ;
#81 = VERTEX_POINT ( 'NONE', #1154 ) ;
#82 = CARTESIAN_POINT ( 'NONE',  ( -5.500000000000000000, 0.000000000000000000, 0.000000000000000000 ) ) ;
#83 = ORIENTED_EDGE ( 'NONE', *, *, #1075, .F. ) ;
#84 = LINE ( 'NONE', #861, #695 ) ;
#85 = VERTEX_POINT ( 'NONE', #1061 ) ;
#86 = ADVANCED_FACE ( 'NONE', ( #966 ), #115, .T. ) ;
#87 = CIRCLE ( 'NONE', #1024, 4.250000000000000000 ) ;
#88 = AXIS2_PLACEMENT_3D ( 'NONE', #865, #4, #1134 ) ;
#89 = VERTEX_POINT ( 'NONE', #19 ) ;
#90 = DIRECTION ( 'NONE',  ( 0.000000000000000000, 0.000000000000000000, 1.000000000000000000 ) ) ;
#91 = VECTOR ( 'NONE', #689, 1000.000000000000000 ) ;
#92 = CIRCLE ( 'NONE', #1150, 2.700000000000000178 ) ;
#93 = AXIS2_PLACEMENT_3D ( 'NONE', #491, #63, #1122 ) ;
#94 = DIRECTION ( 'NONE',  ( 0.000000000000000000, 1.000000000000000000, 0.000000000000000000 ) ) ;
#95 = APPLICATION_PROTOCOL_DEFINITION ( 'international standard', 'config_control_design', 1994, #621 ) ;
#96 = ADVANCED_FACE ( 'NONE', ( #405 ), #991, .T. ) ;
#97 = VERTEX_POINT ( 'NONE', #1099 ) ;
#98 = LINE ( 'NONE', #181, #1187 ) ;
#99 = DIRECTION ( 'NONE',  ( 1.000000000000000000, 0.000000000000000000, 0.000000000000000000 ) ) ;
#100 = ORIENTED_EDGE ( 'NONE', *, *, #775, .F. ) ;
#101 = DIRECTION ( 'NONE',  ( 0.000000000000000000, 0.000000000000000000, 1.000000000000000000 ) ) ;
#102 = CC_DESIGN_DATE_AND_TIME_ASSIGNMENT ( #14, #968, ( #1074 ) ) ;
#103 = CYLINDRICAL_SURFACE ( 'NONE', #582, 8.000000000000000000 ) ;
#104 = EDGE_CURVE ( 'NONE', #572, #976, #417, .T. ) ;
#105 = VECTOR ( 'NONE', #2, 1000.000000000000000 ) ;
#106 = ADVANCED_FACE ( 'NONE', ( #1081, #513 ), #1193, .F. ) ;
#107 = ORIENTED_EDGE ( 'NONE', *, *, #376, .F. ) ;
#108 = CALENDAR_DATE ( 2026, 22, 8 ) ;
#109 = ORIENTED_EDGE ( 'NONE', *, *, #1231, .F. ) ;
#110 = DIRECTION ( 'NONE',  ( 0.000000000000000000, 0.000000000000000000, 1.000000000000000000 ) ) ;
#111 = AXIS2_PLACEMENT_3D ( 'NONE', #1086, #23, #136 ) ;
#112 = CARTESIAN_POINT ( 'NONE',  ( 2.774999999999999911, 0.000000000000000000, 0.000000000000000000 ) ) ;
#113 = AXIS2_PLACEMENT_3D ( 'NONE', #916, #151, #53 ) ;
#114 = EDGE_CURVE ( 'NONE', #631, #442, #15, .T. ) ;
#115 = CYLINDRICAL_SURFACE ( 'NONE', #252, 12.20000000000000107 ) ;
#116 = VERTEX_POINT ( 'NONE', #914 ) ;
#117 = DIRECTION ( 'NONE',  ( 1.000000000000000000, 0.000000000000000000, 0.000000000000000000 ) ) ;
#118 = DIRECTION ( 'NONE',  ( 0.000000000000000000, 0.000000000000000000, -1.000000000000000000 ) ) ;
#119 = PRODUCT_RELATED_PRODUCT_CATEGORY ( 'detail', '', ( #471 ) ) ;
#120 = VERTEX_POINT ( 'NONE', #337 ) ;
#121 = PERSON_AND_ORGANIZATION_ROLE ( 'design_supplier' ) ;
#122 = ORIENTED_EDGE ( 'NONE', *, *, #958, .T. ) ;
#123 = LINE ( 'NONE', #22, #313 ) ;
#124 = DIRECTION ( 'NONE',  ( 0.000000000000000000, 0.000000000000000000, -1.000000000000000000 ) ) ;
#125 = DIRECTION ( 'NONE',  ( 1.000000000000000000, 0.000000000000000000, 0.000000000000000000 ) ) ;
#126 = EDGE_CURVE ( 'NONE', #89, #1222, #903, .T. ) ;
#127 = ORIENTED_EDGE ( 'NONE', *, *, #973, .T. ) ;
#128 = CARTESIAN_POINT ( 'NONE',  ( 5.500000000000000000, 7.898971854500433622E-16, 6.450000000000005507 ) ) ;
#129 = PLANE ( 'NONE',  #794 ) ;
#130 = AXIS2_PLACEMENT_3D ( 'NONE', #990, #1159, #524 ) ;
#131 = CIRCLE ( 'NONE', #50, 8.000000000000000000 ) ;
#132 = DIRECTION ( 'NONE',  ( -1.000000000000000000, 0.000000000000000000, 0.000000000000000000 ) ) ;
#133 = ORIENTED_EDGE ( 'NONE', *, *, #126, .F. ) ;
#134 = DIRECTION ( 'NONE',  ( 0.7071067811865460184, 0.000000000000000000, -0.7071067811865489050 ) ) ;
#135 = ADVANCED_FACE ( 'NONE', ( #808 ), #248, .F. ) ;
#136 = DIRECTION ( 'NONE',  ( 0.000000000000000000, 0.000000000000000000, 1.000000000000000000 ) ) ;
#137 = CARTESIAN_POINT ( 'NONE',  ( -5.299999999999999822, 0.000000000000000000, 0.000000000000000000 ) ) ;
#138 = ORIENTED_EDGE ( 'NONE', *, *, #58, .T. ) ;
#139 = FACE_OUTER_BOUND ( 'NONE', #566, .T. ) ;
#140 = CARTESIAN_POINT ( 'NONE',  ( 2.774999999999999911, 0.000000000000000000, 0.000000000000000000 ) ) ;
#141 = EDGE_CURVE ( 'NONE', #453, #27, #455, .T. ) ;
#142 = DIRECTION ( 'NONE',  ( 0.000000000000000000, 0.000000000000000000, 1.000000000000000000 ) ) ;
#143 = VERTEX_POINT ( 'NONE', #979 ) ;
#144 = DIRECTION ( 'NONE',  ( 1.000000000000000000, 0.000000000000000000, 0.000000000000000000 ) ) ;
#145 = FACE_OUTER_BOUND ( 'NONE', #604, .T. ) ;
#146 = EDGE_CURVE ( 'NONE', #143, #116, #931, .T. ) ;
#147 = AXIS2_PLACEMENT_3D ( 'NONE', #384, #1054, #378 ) ;
#148 = CARTESIAN_POINT ( 'NONE',  ( -5.100000000000000533, 0.000000000000000000, 0.000000000000000000 ) ) ;
#149 = AXIS2_PLACEMENT_3D ( 'NONE', #672, #1078, #305 ) ;
#150 = ORIENTED_EDGE ( 'NONE', *, *, #1090, .F. ) ;
#151 = DIRECTION ( 'NONE',  ( 1.000000000000000000, 0.000000000000000000, 0.000000000000000000 ) ) ;
#152 = CIRCLE ( 'NONE', #171, 8.000000000000000000 ) ;
#153 = DIRECTION ( 'NONE',  ( 1.000000000000000000, 0.000000000000000000, 0.000000000000000000 ) ) ;
#154 = DIRECTION ( 'NONE',  ( 0.000000000000000000, 0.000000000000000000, -1.000000000000000000 ) ) ;
#155 = ORIENTED_EDGE ( 'NONE', *, *, #674, .T. ) ;
#156 = DIRECTION ( 'NONE',  ( -1.000000000000000000, 0.000000000000000000, 0.000000000000000000 ) ) ;
#157 = LINE ( 'NONE', #548, #1004 ) ;
#158 = FACE_OUTER_BOUND ( 'NONE', #459, .T. ) ;
#159 = VERTEX_POINT ( 'NONE', #908 ) ;
#160 = CARTESIAN_POINT ( 'NONE',  ( 0.000000000000000000, 9.797174393178825657E-16, 8.000000000000000000 ) ) ;
#161 = EDGE_CURVE ( 'NONE', #506, #939, #1094, .T. ) ;
#162 = ORIENTED_EDGE ( 'NONE', *, *, #1090, .T. ) ;
#163 = CYLINDRICAL_SURFACE ( 'NONE', #716, 8.000000000000000000 ) ;
#164 = CC_DESIGN_APPROVAL ( #66, ( #1074 ) ) ;
#165 = CARTESIAN_POINT ( 'NONE',  ( 5.299999999999999822, 0.000000000000000000, 0.000000000000000000 ) ) ;
#166 = AXIS2_PLACEMENT_3D ( 'NONE', #691, #321, #427 ) ;
#167 = VERTEX_POINT ( 'NONE', #725 ) ;
#168 = ORIENTED_EDGE ( 'NONE', *, *, #1009, .T. ) ;
#169 = DIRECTION ( 'NONE',  ( 1.000000000000000000, 0.000000000000000000, 0.000000000000000000 ) ) ;
#170 = EDGE_CURVE ( 'NONE', #77, #1169, #612, .T. ) ;
#171 = AXIS2_PLACEMENT_3D ( 'NONE', #997, #132, #142 ) ;
#172 = FACE_OUTER_BOUND ( 'NONE', #740, .T. ) ;
#173 = ORIENTED_EDGE ( 'NONE', *, *, #423, .F. ) ;
#174 = EDGE_LOOP ( 'NONE', ( #1033, #495, #70, #614 ) ) ;
#175 = PLANE ( 'NONE',  #594 ) ;
#176 = EDGE_CURVE ( 'NONE', #167, #442, #1198, .T. ) ;
#177 = CARTESIAN_POINT ( 'NONE',  ( -5.500000000000000000, 0.000000000000000000, 0.000000000000000000 ) ) ;
#178 = ORIENTED_EDGE ( 'NONE', *, *, #887, .F. ) ;
#179 = FACE_OUTER_BOUND ( 'NONE', #1096, .T. ) ;
#180 = ORIENTED_EDGE ( 'NONE', *, *, #636, .F. ) ;
#181 = CARTESIAN_POINT ( 'NONE',  ( 0.000000000000000000, 9.797174393178825657E-16, -8.000000000000000000 ) ) ;
#182 = EDGE_CURVE ( 'NONE', #839, #1021, #55, .T. ) ;
#183 = ORIENTED_EDGE ( 'NONE', *, *, #414, .T. ) ;
#184 = DIRECTION ( 'NONE',  ( 0.000000000000000000, 0.000000000000000000, 1.000000000000000000 ) ) ;
#185 = AXIS2_PLACEMENT_3D ( 'NONE', #906, #1093, #333 ) ;
#186 = ORIENTED_EDGE ( 'NONE', *, *, #555, .T. ) ;
#187 = FACE_BOUND ( 'NONE', #461, .T. ) ;
#188 = CIRCLE ( 'NONE', #229, 4.049999999999999822 ) ;
#189 = AXIS2_PLACEMENT_3D ( 'NONE', #637, #452, #1008 ) ;
#190 = CARTESIAN_POINT ( 'NONE',  ( 5.299999999999999822, 0.000000000000000000, 0.000000000000000000 ) ) ;
#191 = PERSON_AND_ORGANIZATION ( #238, #1192 ) ;
#192 = EDGE_CURVE ( 'NONE', #279, #466, #152, .T. ) ;
#193 = ORIENTED_EDGE ( 'NONE', *, *, #813, .F. ) ;
#194 = CARTESIAN_POINT ( 'NONE',  ( 0.000000000000000000, 0.000000000000000000, 0.000000000000000000 ) ) ;
#195 = CARTESIAN_POINT ( 'NONE',  ( 0.000000000000000000, 0.000000000000000000, 8.000000000000000000 ) ) ;
#196 = VERTEX_POINT ( 'NONE', #49 ) ;
#197 = FACE_OUTER_BOUND ( 'NONE', #1131, .T. ) ;
#198 = ADVANCED_FACE ( 'NONE', ( #1180, #424 ), #329, .T. ) ;
#199 = FACE_OUTER_BOUND ( 'NONE', #1215, .T. ) ;
#200 = ORIENTED_EDGE ( 'NONE', *, *, #801, .F. ) ;
#201 = CALENDAR_DATE ( 2026, 22, 8 ) ;
#202 = ORIENTED_EDGE ( 'NONE', *, *, #314, .F. ) ;
#203 = AXIS2_PLACEMENT_3D ( 'NONE', #729, #1007, #350 ) ;
#204 = CYLINDRICAL_SURFACE ( 'NONE', #912, 4.250000000000000000 ) ;
#205 = CARTESIAN_POINT ( 'NONE',  ( -5.100000000000000533, 0.000000000000000000, 0.000000000000000000 ) ) ;
#206 = CIRCLE ( 'NONE', #327, 9.875000000000000000 ) ;
#207 = CARTESIAN_POINT ( 'NONE',  ( 0.000000000000000000, 0.000000000000000000, 0.000000000000000000 ) ) ;
#208 = COORDINATED_UNIVERSAL_TIME_OFFSET ( 0, 0, .AHEAD. ) ;
#209 = AXIS2_PLACEMENT_3D ( 'NONE', #230, #32, #720 ) ;
#210 = CC_DESIGN_APPROVAL ( #530, ( #542 ) ) ;
#211 = ORIENTED_EDGE ( 'NONE', *, *, #114, .T. ) ;
#212 = CARTESIAN_POINT ( 'NONE',  ( -5.500000000000000000, 0.000000000000000000, 2.700000000000000178 ) ) ;
#213 = CARTESIAN_POINT ( 'NONE',  ( 5.299999999999999822, 0.000000000000000000, -2.500000000000000000 ) ) ;
#214 = ADVANCED_FACE ( 'NONE', ( #731 ), #541, .F. ) ;
#215 = EDGE_CURVE ( 'NONE', #726, #1133, #812, .T. ) ;
#216 = ORIENTED_EDGE ( 'NONE', *, *, #958, .F. ) ;
#217 = PERSON_AND_ORGANIZATION_ROLE ( 'creator' ) ;
#218 = ORIENTED_EDGE ( 'NONE', *, *, #1140, .F. ) ;
#219 = FACE_OUTER_BOUND ( 'NONE', #878, .T. ) ;
#220 = CIRCLE ( 'NONE', #389, 8.000000000000000000 ) ;
#221 = DIRECTION ( 'NONE',  ( 0.000000000000000000, 0.000000000000000000, -1.000000000000000000 ) ) ;
#222 = VECTOR ( 'NONE', #289, 1000.000000000000114 ) ;
#223 = DIRECTION ( 'NONE',  ( 1.000000000000000000, 0.000000000000000000, 0.000000000000000000 ) ) ;
#224 = ADVANCED_FACE ( 'NONE', ( #435, #565 ), #458, .T. ) ;
#225 = ORIENTED_EDGE ( 'NONE', *, *, #745, .T. ) ;
#226 = DIRECTION ( 'NONE',  ( -1.000000000000000000, 0.000000000000000000, 0.000000000000000000 ) ) ;
#227 = DIRECTION ( 'NONE',  ( -1.000000000000000000, 0.000000000000000000, 0.000000000000000000 ) ) ;
#228 = VECTOR ( 'NONE', #983, 1000.000000000000114 ) ;
#229 = AXIS2_PLACEMENT_3D ( 'NONE', #17, #988, #403 ) ;
#230 = CARTESIAN_POINT ( 'NONE',  ( -5.500000000000000000, 0.000000000000000000, 0.000000000000000000 ) ) ;
#231 = ORIENTED_EDGE ( 'NONE', *, *, #161, .F. ) ;
#232 = CARTESIAN_POINT ( 'NONE',  ( 5.500000000000000000, 0.000000000000000000, 0.000000000000000000 ) ) ;
#233 = EDGE_CURVE ( 'NONE', #596, #308, #1038, .T. ) ;
#234 = DIRECTION ( 'NONE',  ( 0.000000000000000000, 0.000000000000000000, 1.000000000000000000 ) ) ;
#235 = DIRECTION ( 'NONE',  ( 0.000000000000000000, 1.000000000000000000, 0.000000000000000000 ) ) ;
#236 = ORIENTED_EDGE ( 'NONE', *, *, #834, .T. ) ;
#237 = DIRECTION ( 'NONE',  ( 0.000000000000000000, 0.000000000000000000, 1.000000000000000000 ) ) ;
#238 = PERSON ( 'UNSPECIFIED', 'UNSPECIFIED', 'UNSPECIFIED', ('UNSPECIFIED'), ('UNSPECIFIED'), ('UNSPECIFIED') ) ;
#239 = PLANE ( 'NONE',  #947 ) ;
#240 = EDGE_CURVE ( 'NONE', #468, #939, #269, .T. ) ;
#241 = DIRECTION ( 'NONE',  ( 0.000000000000000000, 0.000000000000000000, -1.000000000000000000 ) ) ;
#242 = EDGE_LOOP ( 'NONE', ( #650, #355, #974, #107 ) ) ;
#243 = DIRECTION ( 'NONE',  ( -1.000000000000000000, 0.000000000000000000, 0.000000000000000000 ) ) ;
#244 = ORIENTED_EDGE ( 'NONE', *, *, #834, .F. ) ;
#245 = DIRECTION ( 'NONE',  ( 0.000000000000000000, 0.000000000000000000, -1.000000000000000000 ) ) ;
#246 = AXIS2_PLACEMENT_3D ( 'NONE', #205, #35, #885 ) ;
#247 = AXIS2_PLACEMENT_3D ( 'NONE', #1144, #1127, #1223 ) ;
#248 = CYLINDRICAL_SURFACE ( 'NONE', #781, 2.500000000000000000 ) ;
#249 = VECTOR ( 'NONE', #805, 999.9999999999998863 ) ;
#250 = ORIENTED_EDGE ( 'NONE', *, *, #636, .T. ) ;
#251 = CARTESIAN_POINT ( 'NONE',  ( 5.500000000000000000, 0.000000000000000000, 7.799999999999999822 ) ) ;
#252 = AXIS2_PLACEMENT_3D ( 'NONE', #207, #502, #881 ) ;
#253 = DIRECTION ( 'NONE',  ( -1.000000000000000000, 0.000000000000000000, 0.000000000000000000 ) ) ;
#254 = AXIS2_PLACEMENT_3D ( 'NONE', #872, #1219, #463 ) ;
#255 = DIRECTION ( 'NONE',  ( 0.000000000000000000, 0.000000000000000000, -1.000000000000000000 ) ) ;
#256 = ADVANCED_FACE ( 'NONE', ( #557 ), #103, .T. ) ;
#257 = ORIENTED_EDGE ( 'NONE', *, *, #1057, .F. ) ;
#258 = DIRECTION ( 'NONE',  ( 0.000000000000000000, 0.000000000000000000, -1.000000000000000000 ) ) ;
#259 = ORIENTED_EDGE ( 'NONE', *, *, #712, .F. ) ;
#260 = CARTESIAN_POINT ( 'NONE',  ( 5.500000000000000000, 0.000000000000000000, 0.000000000000000000 ) ) ;
#261 = FACE_OUTER_BOUND ( 'NONE', #713, .T. ) ;
#262 = EDGE_CURVE ( 'NONE', #116, #143, #700, .T. ) ;
#263 = EDGE_LOOP ( 'NONE', ( #319, #250, #721, #960 ) ) ;
#264 = LINE ( 'NONE', #765, #222 ) ;
#265 = AXIS2_PLACEMENT_3D ( 'NONE', #560, #1022, #184 ) ;
#266 = ORIENTED_EDGE ( 'NONE', *, *, #215, .T. ) ;
#267 = LINE ( 'NONE', #773, #635 ) ;
#268 = CONICAL_SURFACE ( 'NONE', #47, 4.049999999999999822, 0.7853981633974440602 ) ;
#269 = LINE ( 'NONE', #663, #953 ) ;
#270 = CIRCLE ( 'NONE', #1204, 2.500000000000000000 ) ;
#271 = ORIENTED_EDGE ( 'NONE', *, *, #668, .F. ) ;
#272 = MECHANICAL_CONTEXT ( 'NONE', #297, 'mechanical' ) ;
#273 = EDGE_LOOP ( 'NONE', ( #38, #377, #178, #59 ) ) ;
#274 = CARTESIAN_POINT ( 'NONE',  ( -5.100000000000000533, 0.000000000000000000, 0.000000000000000000 ) ) ;
#275 = ADVANCED_FACE ( 'NONE', ( #829 ), #1172, .F. ) ;
#276 = AXIS2_PLACEMENT_3D ( 'NONE', #148, #891, #235 ) ;
#277 = APPROVAL_PERSON_ORGANIZATION ( #392, #530, #877 ) ;
#278 = DIRECTION ( 'NONE',  ( -0.7071067811865470176, 8.659560562354939021E-17, -0.7071067811865480168 ) ) ;
#279 = VERTEX_POINT ( 'NONE', #544 ) ;
#280 = ORIENTED_EDGE ( 'NONE', *, *, #1156, .T. ) ;
#281 = FACE_OUTER_BOUND ( 'NONE', #567, .T. ) ;
#282 = ADVANCED_FACE ( 'NONE', ( #941 ), #640, .F. ) ;
#283 = ORIENTED_EDGE ( 'NONE', *, *, #450, .F. ) ;
#284 = DIRECTION ( 'NONE',  ( 0.000000000000000000, 0.000000000000000000, -1.000000000000000000 ) ) ;
#285 = ORIENTED_EDGE ( 'NONE', *, *, #613, .F. ) ;
#286 = LINE ( 'NONE', #852, #817 ) ;
#287 = CC_DESIGN_DATE_AND_TIME_ASSIGNMENT ( #1062, #603, ( #328 ) ) ;
#288 = DIRECTION ( 'NONE',  ( -1.000000000000000000, 0.000000000000000000, 0.000000000000000000 ) ) ;
#289 = DIRECTION ( 'NONE',  ( -0.7071067811865505703, 8.659560562354895880E-17, -0.7071067811865444641 ) ) ;
#290 = CONICAL_SURFACE ( 'NONE', #412, 6.250000000000000000, 0.7853981633974610466 ) ;
#291 = CIRCLE ( 'NONE', #88, 2.500000000000000000 ) ;
#292 = VERTEX_POINT ( 'NONE', #11 ) ;
#293 = CARTESIAN_POINT ( 'NONE',  ( -5.500000000000000000, 0.000000000000000000, 0.000000000000000000 ) ) ;
#294 = CIRCLE ( 'NONE', #986, 6.250000000000000000 ) ;
#295 = EDGE_LOOP ( 'NONE', ( #1058, #848, #1123, #981 ) ) ;
#296 = ADVANCED_FACE ( 'NONE', ( #835, #158 ), #1203, .T. ) ;
#297 = APPLICATION_CONTEXT ( 'configuration controlled 3d designs of mechanical parts and assemblies' ) ;
#298 = VERTEX_POINT ( 'NONE', #353 ) ;
#299 = CARTESIAN_POINT ( 'NONE',  ( 5.100000000000000533, 0.000000000000000000, 0.000000000000000000 ) ) ;
#300 = FACE_OUTER_BOUND ( 'NONE', #804, .T. ) ;
#301 = VERTEX_POINT ( 'NONE', #1153 ) ;
#302 = COORDINATED_UNIVERSAL_TIME_OFFSET ( 0, 0, .AHEAD. ) ;
#303 = CC_DESIGN_PERSON_AND_ORGANIZATION_ASSIGNMENT ( #1149, #593, ( #1074 ) ) ;
#304 = ORIENTED_EDGE ( 'NONE', *, *, #1082, .F. ) ;
#305 = DIRECTION ( 'NONE',  ( 0.000000000000000000, 0.000000000000000000, -1.000000000000000000 ) ) ;
#306 = LINE ( 'NONE', #312, #814 ) ;
#307 = ORIENTED_EDGE ( 'NONE', *, *, #785, .T. ) ;
#308 = VERTEX_POINT ( 'NONE', #738 ) ;
#309 = CONICAL_SURFACE ( 'NONE', #1002, 2.500000000000000000, 0.7853981633974503884 ) ;
#310 = CARTESIAN_POINT ( 'NONE',  ( 5.000000000000000000, 7.654042494670957606E-16, 6.250000000000000000 ) ) ;
#311 = AXIS2_PLACEMENT_3D ( 'NONE', #1109, #253, #1197 ) ;
#312 = CARTESIAN_POINT ( 'NONE',  ( 0.000000000000000000, 7.654042494670957606E-16, 6.250000000000000000 ) ) ;
#313 = VECTOR ( 'NONE', #511, 1000.000000000000000 ) ;
#314 = EDGE_CURVE ( 'NONE', #167, #420, #1111, .T. ) ;
#315 = CARTESIAN_POINT ( 'NONE',  ( 5.000000000000000000, 0.000000000000000000, 0.000000000000000000 ) ) ;
#316 = APPROVAL_STATUS ( 'not_yet_approved' ) ;
#317 = AXIS2_PLACEMENT_3D ( 'NONE', #782, #569, #69 ) ;
#318 = LOCAL_TIME ( 12, 39, 1.000000000000000000, #302 ) ;
#319 = ORIENTED_EDGE ( 'NONE', *, *, #1014, .T. ) ;
#320 = CARTESIAN_POINT ( 'NONE',  ( 0.000000000000000000, 3.061616997868383141E-16, 2.500000000000000000 ) ) ;
#321 = DIRECTION ( 'NONE',  ( 1.000000000000000000, 0.000000000000000000, 0.000000000000000000 ) ) ;
#322 = EDGE_CURVE ( 'NONE', #1010, #1151, #359, .T. ) ;
#323 = CARTESIAN_POINT ( 'NONE',  ( 5.500000000000000000, 0.000000000000000000, 0.000000000000000000 ) ) ;
#324 = EDGE_LOOP ( 'NONE', ( #150, #366 ) ) ;
#325 = DIRECTION ( 'NONE',  ( 0.000000000000000000, 0.000000000000000000, 1.000000000000000000 ) ) ;
#326 = DIRECTION ( 'NONE',  ( 1.000000000000000000, 0.000000000000000000, 0.000000000000000000 ) ) ;
#327 = AXIS2_PLACEMENT_3D ( 'NONE', #816, #905, #632 ) ;
#328 = PRODUCT_DEFINITION ( 'UNKNOWN', '', #542, #1029 ) ;
#329 = PLANE ( 'NONE',  #379 ) ;
#330 = EDGE_CURVE ( 'NONE', #952, #1222, #1053, .T. ) ;
#331 = ORIENTED_EDGE ( 'NONE', *, *, #858, .T. ) ;
#332 = DIRECTION ( 'NONE',  ( 0.000000000000000000, 0.000000000000000000, 1.000000000000000000 ) ) ;
#333 = DIRECTION ( 'NONE',  ( 0.000000000000000000, 0.000000000000000000, -1.000000000000000000 ) ) ;
#334 = AXIS2_PLACEMENT_3D ( 'NONE', #743, #46, #245 ) ;
#335 = CIRCLE ( 'NONE', #1186, 6.450000000000000178 ) ;
#336 = CIRCLE ( 'NONE', #113, 4.250000000000000000 ) ;
#337 = CARTESIAN_POINT ( 'NONE',  ( 5.500000000000000000, 5.082284216461514170E-16, -4.049999999999999822 ) ) ;
#338 = ADVANCED_FACE ( 'NONE', ( #1013 ), #984, .T. ) ;
#339 = VERTEX_POINT ( 'NONE', #1116 ) ;
#340 = DIRECTION ( 'NONE',  ( 0.000000000000000000, 0.000000000000000000, -1.000000000000000000 ) ) ;
#341 = CIRCLE ( 'NONE', #477, 6.250000000000000000 ) ;
#342 = CARTESIAN_POINT ( 'NONE',  ( -5.299999999999999822, 9.797174393178825657E-16, 8.000000000000000000 ) ) ;
#343 = DIRECTION ( 'NONE',  ( -0.7071067811865410224, 8.659560562355012977E-17, -0.7071067811865540120 ) ) ;
#344 = ORIENTED_EDGE ( 'NONE', *, *, #1214, .T. ) ;
#345 = CARTESIAN_POINT ( 'NONE',  ( 5.299999999999999822, 0.000000000000000000, -6.250000000000000000 ) ) ;
#346 = CARTESIAN_POINT ( 'NONE',  ( -5.000000000000000000, 4.250000000000000000, 0.000000000000000000 ) ) ;
#347 = DIRECTION ( 'NONE',  ( 1.000000000000000000, 0.000000000000000000, 0.000000000000000000 ) ) ;
#348 = ORIENTED_EDGE ( 'NONE', *, *, #841, .F. ) ;
#349 = CARTESIAN_POINT ( 'NONE',  ( -5.500000000000000000, 0.000000000000000000, 0.000000000000000000 ) ) ;
#350 = DIRECTION ( 'NONE',  ( 0.000000000000000000, 0.000000000000000000, -1.000000000000000000 ) ) ;
#351 = ADVANCED_FACE ( 'NONE', ( #261 ), #309, .F. ) ;
#352 = CONICAL_SURFACE ( 'NONE', #692, 12.20000000000000107, 0.7853981633974490562 ) ;
#353 = CARTESIAN_POINT ( 'NONE',  ( -5.500000000000000000, 7.898971854500428692E-16, -6.450000000000000178 ) ) ;
#354 = AXIS2_PLACEMENT_3D ( 'NONE', #889, #962, #1170 ) ;
#355 = ORIENTED_EDGE ( 'NONE', *, *, #841, .T. ) ;
#356 = CARTESIAN_POINT ( 'NONE',  ( 5.500000000000000000, 0.000000000000000000, 7.799999999999999822 ) ) ;
#357 = AXIS2_PLACEMENT_3D ( 'NONE', #137, #125, #1001 ) ;
#358 = CARTESIAN_POINT ( 'NONE',  ( -2.774999999999999911, 0.000000000000000000, 0.000000000000000000 ) ) ;
#359 = CIRCLE ( 'NONE', #897, 4.250000000000000000 ) ;
#360 = ADVANCED_FACE ( 'NONE', ( #172 ), #290, .F. ) ;
#361 = CARTESIAN_POINT ( 'NONE',  ( -5.299999999999999822, 0.000000000000000000, 0.000000000000000000 ) ) ;
#362 = ORIENTED_EDGE ( 'NONE', *, *, #682, .T. ) ;
#363 = ORIENTED_EDGE ( 'NONE', *, *, #1125, .F. ) ;
#364 = CYLINDRICAL_SURFACE ( 'NONE', #247, 8.000000000000000000 ) ;
#365 = LINE ( 'NONE', #936, #30 ) ;
#366 = ORIENTED_EDGE ( 'NONE', *, *, #584, .F. ) ;
#367 = CARTESIAN_POINT ( 'NONE',  ( 0.000000000000000000, 0.000000000000000000, 0.000000000000000000 ) ) ;
#368 = EDGE_CURVE ( 'NONE', #143, #97, #365, .T. ) ;
#369 = ORIENTED_EDGE ( 'NONE', *, *, #902, .F. ) ;
#370 = FACE_OUTER_BOUND ( 'NONE', #43, .T. ) ;
#371 = CIRCLE ( 'NONE', #1067, 4.250000000000000000 ) ;
#372 = DIRECTION ( 'NONE',  ( 0.7071067811865441310, 0.000000000000000000, -0.7071067811865510144 ) ) ;
#373 = ORIENTED_EDGE ( 'NONE', *, *, #182, .F. ) ;
#374 = AXIS2_PLACEMENT_3D ( 'NONE', #1177, #504, #325 ) ;
#375 = DIRECTION ( 'NONE',  ( 1.000000000000000000, 0.000000000000000000, 0.000000000000000000 ) ) ;
#376 = EDGE_CURVE ( 'NONE', #1169, #196, #756, .T. ) ;
#377 = ORIENTED_EDGE ( 'NONE', *, *, #668, .T. ) ;
#378 = DIRECTION ( 'NONE',  ( 0.000000000000000000, 0.000000000000000000, 1.000000000000000000 ) ) ;
#379 = AXIS2_PLACEMENT_3D ( 'NONE', #711, #347, #1088 ) ;
#380 = VECTOR ( 'NONE', #1141, 1000.000000000000000 ) ;
#381 = EDGE_LOOP ( 'NONE', ( #8, #482, #926, #78 ) ) ;
#382 = DIRECTION ( 'NONE',  ( 1.000000000000000000, 0.000000000000000000, 0.000000000000000000 ) ) ;
#383 = ORIENTED_EDGE ( 'NONE', *, *, #895, .F. ) ;
#384 = CARTESIAN_POINT ( 'NONE',  ( -5.100000000000000533, 0.000000000000000000, 0.000000000000000000 ) ) ;
#385 = DIRECTION ( 'NONE',  ( 0.000000000000000000, 0.000000000000000000, 1.000000000000000000 ) ) ;
#386 = CARTESIAN_POINT ( 'NONE',  ( 0.000000000000000000, 0.000000000000000000, 0.000000000000000000 ) ) ;
#387 = ORIENTED_EDGE ( 'NONE', *, *, #895, .T. ) ;
#388 = DIRECTION ( 'NONE',  ( 1.000000000000000000, 0.000000000000000000, 0.000000000000000000 ) ) ;
#389 = AXIS2_PLACEMENT_3D ( 'NONE', #670, #659, #938 ) ;
#390 = EDGE_CURVE ( 'NONE', #85, #120, #432, .T. ) ;
#391 = DIRECTION ( 'NONE',  ( 1.000000000000000000, 0.000000000000000000, 0.000000000000000000 ) ) ;
#392 = PERSON_AND_ORGANIZATION ( #238, #1192 ) ;
#393 = CONICAL_SURFACE ( 'NONE', #1087, 4.250000000000000000, 0.7853981633974532750 ) ;
#394 = AXIS2_PLACEMENT_3D ( 'NONE', #957, #469, #101 ) ;
#395 = VERTEX_POINT ( 'NONE', #788 ) ;
#396 = DIRECTION ( 'NONE',  ( 0.000000000000000000, 0.000000000000000000, 1.000000000000000000 ) ) ;
#397 = DIRECTION ( 'NONE',  ( 0.000000000000000000, 0.000000000000000000, 1.000000000000000000 ) ) ;
#398 = AXIS2_PLACEMENT_3D ( 'NONE', #37, #520, #625 ) ;
#399 = EDGE_CURVE ( 'NONE', #395, #292, #615, .T. ) ;
#400 = LINE ( 'NONE', #195, #951 ) ;
#401 = DATE_AND_TIME ( #493, #68 ) ;
#402 = ORIENTED_EDGE ( 'NONE', *, *, #1214, .F. ) ;
#403 = DIRECTION ( 'NONE',  ( 0.000000000000000000, 0.000000000000000000, -1.000000000000000000 ) ) ;
#404 = CARTESIAN_POINT ( 'NONE',  ( 5.000000000000000000, 0.000000000000000000, -4.250000000000000000 ) ) ;
#405 = FACE_OUTER_BOUND ( 'NONE', #1227, .T. ) ;
#406 = EDGE_CURVE ( 'NONE', #620, #27, #1073, .T. ) ;
#407 = VERTEX_POINT ( 'NONE', #978 ) ;
#408 = LINE ( 'NONE', #320, #518 ) ;
#409 = FACE_OUTER_BOUND ( 'NONE', #1117, .T. ) ;
#410 = EDGE_LOOP ( 'NONE', ( #675, #837, #772, #845 ) ) ;
#411 = ORIENTED_EDGE ( 'NONE', *, *, #233, .T. ) ;
#412 = AXIS2_PLACEMENT_3D ( 'NONE', #165, #842, #1213 ) ;
#413 = DIRECTION ( 'NONE',  ( -0.7071067811865505703, 0.000000000000000000, 0.7071067811865444641 ) ) ;
#414 = EDGE_CURVE ( 'NONE', #308, #1169, #774, .T. ) ;
#415 = DIRECTION ( 'NONE',  ( 1.000000000000000000, 0.000000000000000000, 0.000000000000000000 ) ) ;
#416 = VECTOR ( 'NONE', #9, 1000.000000000000000 ) ;
#417 = CIRCLE ( 'NONE', #680, 6.250000000000000000 ) ;
#418 = DIRECTION ( 'NONE',  ( 0.000000000000000000, 0.000000000000000000, -1.000000000000000000 ) ) ;
#419 = AXIS2_PLACEMENT_3D ( 'NONE', #924, #930, #397 ) ;
#420 = VERTEX_POINT ( 'NONE', #1060 ) ;
#421 = CARTESIAN_POINT ( 'NONE',  ( 0.000000000000000000, 1.494069094959771056E-15, -12.20000000000000107 ) ) ;
#422 = LINE ( 'NONE', #901, #228 ) ;
#423 = EDGE_CURVE ( 'NONE', #976, #292, #306, .T. ) ;
#424 = FACE_OUTER_BOUND ( 'NONE', #585, .T. ) ;
#425 = ORIENTED_EDGE ( 'NONE', *, *, #423, .T. ) ;
#426 = CARTESIAN_POINT ( 'NONE',  ( 0.000000000000000000, 0.000000000000000000, 0.000000000000000000 ) ) ;
#427 = DIRECTION ( 'NONE',  ( 0.000000000000000000, 0.000000000000000000, -1.000000000000000000 ) ) ;
#428 = EDGE_CURVE ( 'NONE', #1021, #839, #754, .T. ) ;
#429 = DIRECTION ( 'NONE',  ( 0.000000000000000000, 0.000000000000000000, 1.000000000000000000 ) ) ;
#430 = ORIENTED_EDGE ( 'NONE', *, *, #1119, .T. ) ;
#431 = DIRECTION ( 'NONE',  ( 1.000000000000000000, 0.000000000000000000, 0.000000000000000000 ) ) ;
#432 = CIRCLE ( 'NONE', #673, 4.049999999999999822 ) ;
#433 = FACE_OUTER_BOUND ( 'NONE', #324, .T. ) ;
#434 = VECTOR ( 'NONE', #523, 1000.000000000000000 ) ;
#435 = FACE_BOUND ( 'NONE', #760, .T. ) ;
#436 = EDGE_LOOP ( 'NONE', ( #750, #747 ) ) ;
#437 = DIRECTION ( 'NONE',  ( 0.000000000000000000, 0.000000000000000000, -1.000000000000000000 ) ) ;
#438 = CLOSED_SHELL ( 'NONE', ( #86, #623, #1037, #96, #20, #106, #768, #706, #508, #763 ) ) ;
#439 = APPROVAL_PERSON_ORGANIZATION ( #869, #66, #514 ) ;
#440 = DIRECTION ( 'NONE',  ( 0.000000000000000000, 0.000000000000000000, -1.000000000000000000 ) ) ;
#441 = CARTESIAN_POINT ( 'NONE',  ( -5.299999999999999822, 0.000000000000000000, -8.000000000000000000 ) ) ;
#442 = VERTEX_POINT ( 'NONE', #685 ) ;
#443 = FACE_OUTER_BOUND ( 'NONE', #1043, .T. ) ;
#444 = EDGE_CURVE ( 'NONE', #1041, #301, #909, .T. ) ;
#445 = DIRECTION ( 'NONE',  ( 0.000000000000000000, 0.000000000000000000, 1.000000000000000000 ) ) ;
#446 = CARTESIAN_POINT ( 'NONE',  ( 0.000000000000000000, 0.000000000000000000, 0.000000000000000000 ) ) ;
#447 = ORIENTED_EDGE ( 'NONE', *, *, #390, .F. ) ;
#448 = DIRECTION ( 'NONE',  ( 0.000000000000000000, 0.000000000000000000, -1.000000000000000000 ) ) ;
#449 = CARTESIAN_POINT ( 'NONE',  ( 5.100000000000000533, 1.351703904558891209E-15, -9.875000000000000000 ) ) ;
#450 = EDGE_CURVE ( 'NONE', #97, #910, #1165, .T. ) ;
#451 = AXIS2_PLACEMENT_3D ( 'NONE', #112, #800, #963 ) ;
#452 = DIRECTION ( 'NONE',  ( -1.000000000000000000, 0.000000000000000000, 0.000000000000000000 ) ) ;
#453 = VERTEX_POINT ( 'NONE', #517 ) ;
#454 = EDGE_LOOP ( 'NONE', ( #216, #280, #231, #100 ) ) ;
#455 = CIRCLE ( 'NONE', #601, 2.700000000000000178 ) ;
#456 = CYLINDRICAL_SURFACE ( 'NONE', #1166, 6.250000000000000000 ) ;
#457 = EDGE_CURVE ( 'NONE', #939, #506, #87, .T. ) ;
#458 = PLANE ( 'NONE',  #254 ) ;
#459 = EDGE_LOOP ( 'NONE', ( #503, #626 ) ) ;
#460 = CARTESIAN_POINT ( 'NONE',  ( 5.299999999999999822, 0.000000000000000000, 0.000000000000000000 ) ) ;
#461 = EDGE_LOOP ( 'NONE', ( #851, #16 ) ) ;
#462 = DIRECTION ( 'NONE',  ( 0.000000000000000000, 0.000000000000000000, -1.000000000000000000 ) ) ;
#463 = DIRECTION ( 'NONE',  ( 0.000000000000000000, 0.000000000000000000, 1.000000000000000000 ) ) ;
#464 = EDGE_CURVE ( 'NONE', #301, #196, #422, .T. ) ;
#465 = MANIFOLD_SOLID_BREP ( 'K\X\F6rper2[1]', #438 ) ;
#466 = VERTEX_POINT ( 'NONE', #793 ) ;
#467 = CARTESIAN_POINT ( 'NONE',  ( -5.100000000000000533, 0.000000000000000000, 8.000000000000000000 ) ) ;
#468 = VERTEX_POINT ( 'NONE', #404 ) ;
#469 = DIRECTION ( 'NONE',  ( 1.000000000000000000, 0.000000000000000000, 0.000000000000000000 ) ) ;
#470 = AXIS2_PLACEMENT_3D ( 'NONE', #1178, #1164, #118 ) ;
#471 = PRODUCT ( 'VWheel', 'VWheel', '', ( #272 ) ) ;
#472 = ORIENTED_EDGE ( 'NONE', *, *, #1075, .T. ) ;
#473 = CIRCLE ( 'NONE', #797, 7.799999999999999822 ) ;
#474 = PERSON_AND_ORGANIZATION ( #238, #1192 ) ;
#475 = EDGE_LOOP ( 'NONE', ( #383, #666, #703, #155 ) ) ;
#476 = CYLINDRICAL_SURFACE ( 'NONE', #149, 4.250000000000000000 ) ;
#477 = AXIS2_PLACEMENT_3D ( 'NONE', #1148, #1076, #13 ) ;
#478 = AXIS2_PLACEMENT_3D ( 'NONE', #992, #42, #429 ) ;
#479 = ADVANCED_FACE ( 'NONE', ( #505, #199 ), #129, .T. ) ;
#480 = DIRECTION ( 'NONE',  ( 0.000000000000000000, 0.000000000000000000, -1.000000000000000000 ) ) ;
#481 = PERSON_AND_ORGANIZATION ( #238, #1192 ) ;
#482 = ORIENTED_EDGE ( 'NONE', *, *, #807, .T. ) ;
#483 = DIRECTION ( 'NONE',  ( -1.000000000000000000, 0.000000000000000000, 0.000000000000000000 ) ) ;
#484 = EDGE_CURVE ( 'NONE', #596, #77, #853, .T. ) ;
#485 = ORIENTED_EDGE ( 'NONE', *, *, #399, .T. ) ;
#486 = COORDINATED_UNIVERSAL_TIME_OFFSET ( 0, 0, .AHEAD. ) ;
#487 = ORIENTED_EDGE ( 'NONE', *, *, #858, .F. ) ;
#488 = LINE ( 'NONE', #212, #249 ) ;
#489 = AXIS2_PLACEMENT_3D ( 'NONE', #82, #577, #1118 ) ;
#490 = ADVANCED_FACE ( 'NONE', ( #409 ), #617, .T. ) ;
#491 = CARTESIAN_POINT ( 'NONE',  ( -5.500000000000000000, 0.000000000000000000, 0.000000000000000000 ) ) ;
#492 = DIRECTION ( 'NONE',  ( 0.000000000000000000, 0.000000000000000000, -1.000000000000000000 ) ) ;
#493 = CALENDAR_DATE ( 2026, 22, 8 ) ;
#494 = CONICAL_SURFACE ( 'NONE', #451, 12.20000000000000107, 0.7853981633974490562 ) ;
#495 = ORIENTED_EDGE ( 'NONE', *, *, #674, .F. ) ;
#496 = LINE ( 'NONE', #605, #416 ) ;
#497 = VECTOR ( 'NONE', #667, 1000.000000000000114 ) ;
#498 = DIRECTION ( 'NONE',  ( 1.000000000000000000, 0.000000000000000000, 0.000000000000000000 ) ) ;
#499 = AXIS2_PLACEMENT_3D ( 'NONE', #592, #862, #385 ) ;
#500 = AXIS2_PLACEMENT_3D ( 'NONE', #386, #571, #944 ) ;
#501 = ADVANCED_FACE ( 'NONE', ( #300 ), #393, .T. ) ;
#502 = DIRECTION ( 'NONE',  ( -1.000000000000000000, 0.000000000000000000, 0.000000000000000000 ) ) ;
#503 = ORIENTED_EDGE ( 'NONE', *, *, #146, .T. ) ;
#504 = DIRECTION ( 'NONE',  ( 1.000000000000000000, 0.000000000000000000, 0.000000000000000000 ) ) ;
#505 = FACE_BOUND ( 'NONE', #1044, .T. ) ;
#506 = VERTEX_POINT ( 'NONE', #1065 ) ;
#507 = DATE_AND_TIME ( #778, #820 ) ;
#508 = ADVANCED_FACE ( 'NONE', ( #599 ), #494, .T. ) ;
#509 = MANIFOLD_SOLID_BREP ( 'K\X\F6rper1[1]', #1031 ) ;
#510 = ORIENTED_EDGE ( 'NONE', *, *, #390, .T. ) ;
#511 = DIRECTION ( 'NONE',  ( 0.7071067811865385799, 8.659560562355042559E-17, 0.7071067811865565655 ) ) ;
#512 = CARTESIAN_POINT ( 'NONE',  ( 5.299999999999999822, 0.000000000000000000, 0.000000000000000000 ) ) ;
#513 = FACE_OUTER_BOUND ( 'NONE', #1017, .T. ) ;
#514 = APPROVAL_ROLE ( '' ) ;
#515 = ORIENTED_EDGE ( 'NONE', *, *, #942, .F. ) ;
#516 = CARTESIAN_POINT ( 'NONE',  ( 0.000000000000000000, 0.000000000000000000, 0.000000000000000000 ) ) ;
#517 = CARTESIAN_POINT ( 'NONE',  ( 5.500000000000000000, 3.306546357697854226E-16, 2.700000000000000622 ) ) ;
#518 = VECTOR ( 'NONE', #117, 1000.000000000000000 ) ;
#519 = CIRCLE ( 'NONE', #836, 6.250000000000000000 ) ;
#520 = DIRECTION ( 'NONE',  ( -1.000000000000000000, 0.000000000000000000, 0.000000000000000000 ) ) ;
#521 = AXIS2_PLACEMENT_3D ( 'NONE', #80, #642, #847 ) ;
#522 = ORIENTED_EDGE ( 'NONE', *, *, #322, .F. ) ;
#523 = DIRECTION ( 'NONE',  ( 0.7071067811865385799, 0.000000000000000000, -0.7071067811865565655 ) ) ;
#524 = DIRECTION ( 'NONE',  ( 0.000000000000000000, 0.000000000000000000, 1.000000000000000000 ) ) ;
#525 = EDGE_CURVE ( 'NONE', #442, #631, #574, .T. ) ;
#526 = DIRECTION ( 'NONE',  ( 1.000000000000000000, 0.000000000000000000, 0.000000000000000000 ) ) ;
#527 = ORIENTED_EDGE ( 'NONE', *, *, #907, .F. ) ;
#528 = DIRECTION ( 'NONE',  ( 1.000000000000000000, 0.000000000000000000, 0.000000000000000000 ) ) ;
#529 = CARTESIAN_POINT ( 'NONE',  ( -5.299999999999999822, 7.654042494670957606E-16, 6.250000000000000000 ) ) ;
#530 = APPROVAL ( #882, 'UNSPECIFIED' ) ;
#531 = CARTESIAN_POINT ( 'NONE',  ( -5.500000000000000000, 3.306546357697853733E-16, -2.700000000000000178 ) ) ;
#532 = ORIENTED_EDGE ( 'NONE', *, *, #322, .T. ) ;
#533 = CARTESIAN_POINT ( 'NONE',  ( -5.299999999999999822, 0.000000000000000000, 0.000000000000000000 ) ) ;
#534 = DIRECTION ( 'NONE',  ( -1.000000000000000000, 0.000000000000000000, 0.000000000000000000 ) ) ;
#535 = CONICAL_SURFACE ( 'NONE', #311, 7.799999999999999822, 0.7853981633974574939 ) ;
#536 = AXIS2_PLACEMENT_3D ( 'NONE', #194, #753, #840 ) ;
#537 = CARTESIAN_POINT ( 'NONE',  ( 5.000000000000000000, 0.000000000000000000, 0.000000000000000000 ) ) ;
#538 = ADVANCED_FACE ( 'NONE', ( #1102, #433 ), #239, .T. ) ;
#539 = ORIENTED_EDGE ( 'NONE', *, *, #45, .T. ) ;
#540 = CYLINDRICAL_SURFACE ( 'NONE', #1068, 8.000000000000000000 ) ;
#541 = CONICAL_SURFACE ( 'NONE', #478, 2.700000000000000178, 0.7853981633974419507 ) ;
#542 = PRODUCT_DEFINITION_FORMATION_WITH_SPECIFIED_SOURCE ( 'ANY', '', #471, .NOT_KNOWN. ) ;
#543 = DIRECTION ( 'NONE',  ( 0.000000000000000000, 0.000000000000000000, 1.000000000000000000 ) ) ;
#544 = CARTESIAN_POINT ( 'NONE',  ( 5.100000000000000533, 9.797174393178825657E-16, -8.000000000000000000 ) ) ;
#545 = ADVANCED_FACE ( 'NONE', ( #1207 ), #734, .T. ) ;
#546 = EDGE_LOOP ( 'NONE', ( #257, #266, #789, #487 ) ) ;
#547 = DIRECTION ( 'NONE',  ( 0.000000000000000000, 0.000000000000000000, 1.000000000000000000 ) ) ;
#548 = CARTESIAN_POINT ( 'NONE',  ( 0.000000000000000000, 5.204748896376250699E-16, 4.250000000000000000 ) ) ;
#549 = DIRECTION ( 'NONE',  ( 1.000000000000000000, 0.000000000000000000, 0.000000000000000000 ) ) ;
#550 = AXIS2_PLACEMENT_3D ( 'NONE', #1200, #994, #258 ) ;
#551 = ORIENTED_EDGE ( 'NONE', *, *, #5, .F. ) ;
#552 = DIRECTION ( 'NONE',  ( 1.000000000000000000, 0.000000000000000000, 0.000000000000000000 ) ) ;
#553 = VERTEX_POINT ( 'NONE', #529 ) ;
#554 = DIRECTION ( 'NONE',  ( 0.000000000000000000, 0.000000000000000000, -1.000000000000000000 ) ) ;
#555 = EDGE_CURVE ( 'NONE', #81, #620, #270, .T. ) ;
#556 = AXIS2_PLACEMENT_3D ( 'NONE', #358, #1190, #445 ) ;
#557 = FACE_OUTER_BOUND ( 'NONE', #1106, .T. ) ;
#558 = AXIS2_PLACEMENT_3D ( 'NONE', #1183, #65, #1092 ) ;
#559 = ORIENTED_EDGE ( 'NONE', *, *, #314, .T. ) ;
#560 = CARTESIAN_POINT ( 'NONE',  ( -5.100000000000000533, 0.000000000000000000, 0.000000000000000000 ) ) ;
#561 = ORIENTED_EDGE ( 'NONE', *, *, #759, .T. ) ;
#562 = VECTOR ( 'NONE', #825, 1000.000000000000000 ) ;
#563 = FACE_OUTER_BOUND ( 'NONE', #295, .T. ) ;
#564 = EDGE_CURVE ( 'NONE', #159, #196, #874, .T. ) ;
#565 = FACE_OUTER_BOUND ( 'NONE', #870, .T. ) ;
#566 = EDGE_LOOP ( 'NONE', ( #1084, #904, #1199, #1035 ) ) ;
#567 = EDGE_LOOP ( 'NONE', ( #348, #183, #864, #786 ) ) ;
#568 = LINE ( 'NONE', #940, #497 ) ;
#569 = DIRECTION ( 'NONE',  ( -1.000000000000000000, 0.000000000000000000, 0.000000000000000000 ) ) ;
#570 = ORIENTED_EDGE ( 'NONE', *, *, #921, .F. ) ;
#571 = DIRECTION ( 'NONE',  ( 0.000000000000000000, 0.000000000000000000, 1.000000000000000000 ) ) ;
#572 = VERTEX_POINT ( 'NONE', #1115 ) ;
#573 = DIRECTION ( 'NONE',  ( -1.000000000000000000, 0.000000000000000000, 0.000000000000000000 ) ) ;
#574 = CIRCLE ( 'NONE', #1145, 8.000000000000000000 ) ;
#575 = ORIENTED_EDGE ( 'NONE', *, *, #690, .T. ) ;
#576 = AXIS2_PLACEMENT_3D ( 'NONE', #274, #79, #462 ) ;
#577 = DIRECTION ( 'NONE',  ( 1.000000000000000000, 0.000000000000000000, 0.000000000000000000 ) ) ;
#578 = ADVANCED_FACE ( 'NONE', ( #717 ), #268, .T. ) ;
#579 = EDGE_LOOP ( 'NONE', ( #133, #932, #430, #671 ) ) ;
#580 = CYLINDRICAL_SURFACE ( 'NONE', #536, 12.20000000000000107 ) ;
#581 = AXIS2_PLACEMENT_3D ( 'NONE', #1168, #391, #492 ) ;
#582 = AXIS2_PLACEMENT_3D ( 'NONE', #446, #549, #154 ) ;
#583 = FACE_BOUND ( 'NONE', #436, .T. ) ;
#584 = EDGE_CURVE ( 'NONE', #855, #795, #1124, .T. ) ;
#585 = EDGE_LOOP ( 'NONE', ( #766, #24 ) ) ;
#586 = CARTESIAN_POINT ( 'NONE',  ( -2.774999999999999911, 0.000000000000000000, 0.000000000000000000 ) ) ;
#587 = DIRECTION ( 'NONE',  ( -1.000000000000000000, 0.000000000000000000, 0.000000000000000000 ) ) ;
#588 = ORIENTED_EDGE ( 'NONE', *, *, #1163, .T. ) ;
#589 = CARTESIAN_POINT ( 'NONE',  ( 2.774999999999999911, 0.000000000000000000, 0.000000000000000000 ) ) ;
#590 = DIRECTION ( 'NONE',  ( 0.000000000000000000, 0.000000000000000000, -1.000000000000000000 ) ) ;
#591 = ADVANCED_FACE ( 'NONE', ( #624 ), #74, .F. ) ;
#592 = CARTESIAN_POINT ( 'NONE',  ( -5.500000000000000000, 0.000000000000000000, 0.000000000000000000 ) ) ;
#593 = PERSON_AND_ORGANIZATION_ROLE ( 'classification_officer' ) ;
#594 = AXIS2_PLACEMENT_3D ( 'NONE', #679, #169, #654 ) ;
#595 = CONICAL_SURFACE ( 'NONE', #354, 6.250000000000000000, 0.7853981633974610466 ) ;
#596 = VERTEX_POINT ( 'NONE', #449 ) ;
#597 = LINE ( 'NONE', #610, #1108 ) ;
#598 = AXIS2_PLACEMENT_3D ( 'NONE', #727, #639, #340 ) ;
#599 = FACE_OUTER_BOUND ( 'NONE', #410, .T. ) ;
#600 = ADVANCED_FACE ( 'NONE', ( #995 ), #1000, .F. ) ;
#601 = AXIS2_PLACEMENT_3D ( 'NONE', #323, #803, #1095 ) ;
#602 = CARTESIAN_POINT ( 'NONE',  ( -5.100000000000000533, 0.000000000000000000, 0.000000000000000000 ) ) ;
#603 = DATE_TIME_ROLE ( 'creation_date' ) ;
#604 = EDGE_LOOP ( 'NONE', ( #919, #411, #369, #1229 ) ) ;
#605 = CARTESIAN_POINT ( 'NONE',  ( 0.000000000000000000, 0.000000000000000000, -4.250000000000000000 ) ) ;
#606 = CARTESIAN_POINT ( 'NONE',  ( -5.299999999999999822, 0.000000000000000000, 0.000000000000000000 ) ) ;
#607 = EDGE_LOOP ( 'NONE', ( #653, #1157 ) ) ;
#608 = AXIS2_PLACEMENT_3D ( 'NONE', #367, #382, #1216 ) ;
#609 = EDGE_LOOP ( 'NONE', ( #575, #678 ) ) ;
#610 = CARTESIAN_POINT ( 'NONE',  ( 0.000000000000000000, 7.654042494670957606E-16, 6.250000000000000000 ) ) ;
#611 = DIRECTION ( 'NONE',  ( 1.000000000000000000, 0.000000000000000000, 0.000000000000000000 ) ) ;
#612 = LINE ( 'NONE', #630, #1072 ) ;
#613 = EDGE_CURVE ( 'NONE', #910, #97, #371, .T. ) ;
#614 = ORIENTED_EDGE ( 'NONE', *, *, #141, .F. ) ;
#615 = CIRCLE ( 'NONE', #1046, 6.250000000000000000 ) ;
#616 = CARTESIAN_POINT ( 'NONE',  ( 5.299999999999999822, 9.797174393178825657E-16, 8.000000000000000000 ) ) ;
#617 = CYLINDRICAL_SURFACE ( 'NONE', #166, 4.250000000000000000 ) ;
#618 = CIRCLE ( 'NONE', #598, 4.250000000000000000 ) ;
#619 = DIRECTION ( 'NONE',  ( 1.000000000000000000, 0.000000000000000000, 0.000000000000000000 ) ) ;
#620 = VERTEX_POINT ( 'NONE', #917 ) ;
#621 = APPLICATION_CONTEXT ( 'configuration controlled 3d designs of mechanical parts and assemblies' ) ;
#622 = LINE ( 'NONE', #345, #434 ) ;
#623 = ADVANCED_FACE ( 'NONE', ( #145 ), #352, .T. ) ;
#624 = FACE_OUTER_BOUND ( 'NONE', #643, .T. ) ;
#625 = DIRECTION ( 'NONE',  ( 0.000000000000000000, 0.000000000000000000, -1.000000000000000000 ) ) ;
#626 = ORIENTED_EDGE ( 'NONE', *, *, #262, .T. ) ;
#627 = DIRECTION ( 'NONE',  ( -1.000000000000000000, 0.000000000000000000, 0.000000000000000000 ) ) ;
#628 = DIRECTION ( 'NONE',  ( -1.000000000000000000, 0.000000000000000000, 0.000000000000000000 ) ) ;
#629 = ADVANCED_FACE ( 'NONE', ( #1201 ), #535, .T. ) ;
#630 = CARTESIAN_POINT ( 'NONE',  ( 2.774999999999999911, 0.000000000000000000, 12.20000000000000107 ) ) ;
#631 = VERTEX_POINT ( 'NONE', #342 ) ;
#632 = DIRECTION ( 'NONE',  ( 0.000000000000000000, 0.000000000000000000, 1.000000000000000000 ) ) ;
#633 = AXIS2_PLACEMENT_3D ( 'NONE', #606, #40, #698 ) ;
#634 = DIRECTION ( 'NONE',  ( 1.000000000000000000, 0.000000000000000000, 0.000000000000000000 ) ) ;
#635 = VECTOR ( 'NONE', #761, 1000.000000000000114 ) ;
#636 = EDGE_CURVE ( 'NONE', #407, #506, #157, .T. ) ;
#637 = CARTESIAN_POINT ( 'NONE',  ( -5.500000000000000000, 0.000000000000000000, 0.000000000000000000 ) ) ;
#638 = ORIENTED_EDGE ( 'NONE', *, *, #723, .T. ) ;
#639 = DIRECTION ( 'NONE',  ( 1.000000000000000000, 0.000000000000000000, 0.000000000000000000 ) ) ;
#640 = CONICAL_SURFACE ( 'NONE', #93, 6.450000000000000178, 0.7853981633974440602 ) ;
#641 = DIRECTION ( 'NONE',  ( 1.000000000000000000, 0.000000000000000000, 0.000000000000000000 ) ) ;
#642 = DIRECTION ( 'NONE',  ( -1.000000000000000000, 0.000000000000000000, 0.000000000000000000 ) ) ;
#643 = EDGE_LOOP ( 'NONE', ( #1138, #425, #925, #798 ) ) ;
#644 = CARTESIAN_POINT ( 'NONE',  ( 0.000000000000000000, 0.000000000000000000, -6.250000000000000000 ) ) ;
#645 = ADVANCED_FACE ( 'NONE', ( #54 ), #163, .T. ) ;
#646 = EDGE_LOOP ( 'NONE', ( #1220, #387, #186, #746 ) ) ;
#647 = CARTESIAN_POINT ( 'NONE',  ( 0.000000000000000000, 0.000000000000000000, 0.000000000000000000 ) ) ;
#648 = DIRECTION ( 'NONE',  ( 0.000000000000000000, 0.000000000000000000, -1.000000000000000000 ) ) ;
#649 = VECTOR ( 'NONE', #44, 1000.000000000000000 ) ;
#650 = ORIENTED_EDGE ( 'NONE', *, *, #902, .T. ) ;
#651 = LINE ( 'NONE', #856, #105 ) ;
#652 = ADVANCED_FACE ( 'NONE', ( #927 ), #456, .F. ) ;
#653 = ORIENTED_EDGE ( 'NONE', *, *, #428, .T. ) ;
#654 = DIRECTION ( 'NONE',  ( 0.000000000000000000, 1.000000000000000000, 0.000000000000000000 ) ) ;
#655 = AXIS2_PLACEMENT_3D ( 'NONE', #647, #153, #818 ) ;
#656 = DIRECTION ( 'NONE',  ( 1.000000000000000000, 0.000000000000000000, 0.000000000000000000 ) ) ;
#657 = VECTOR ( 'NONE', #413, 1000.000000000000114 ) ;
#658 = ORIENTED_EDGE ( 'NONE', *, *, #36, .F. ) ;
#659 = DIRECTION ( 'NONE',  ( -1.000000000000000000, 0.000000000000000000, 0.000000000000000000 ) ) ;
#660 = VERTEX_POINT ( 'NONE', #824 ) ;
#661 = CARTESIAN_POINT ( 'NONE',  ( -5.299999999999999822, 0.000000000000000000, -2.500000000000000000 ) ) ;
#662 = APPROVAL_PERSON_ORGANIZATION ( #481, #1173, #863 ) ;
#663 = CARTESIAN_POINT ( 'NONE',  ( 0.000000000000000000, 0.000000000000000000, -4.250000000000000000 ) ) ;
#664 = ORIENTED_EDGE ( 'NONE', *, *, #907, .T. ) ;
#665 =( NAMED_UNIT ( * ) PLANE_ANGLE_UNIT ( ) SI_UNIT ( $, .RADIAN. ) );
#666 = ORIENTED_EDGE ( 'NONE', *, *, #1231, .T. ) ;
#667 = DIRECTION ( 'NONE',  ( 0.7071067811865460184, 8.659560562354951347E-17, 0.7071067811865489050 ) ) ;
#668 = EDGE_CURVE ( 'NONE', #843, #298, #267, .T. ) ;
#669 = ORIENTED_EDGE ( 'NONE', *, *, #457, .T. ) ;
#670 = CARTESIAN_POINT ( 'NONE',  ( 5.299999999999999822, 0.000000000000000000, 0.000000000000000000 ) ) ;
#671 = ORIENTED_EDGE ( 'NONE', *, *, #1163, .F. ) ;
#672 = CARTESIAN_POINT ( 'NONE',  ( 0.000000000000000000, 0.000000000000000000, 0.000000000000000000 ) ) ;
#673 = AXIS2_PLACEMENT_3D ( 'NONE', #18, #29, #221 ) ;
#674 = EDGE_CURVE ( 'NONE', #620, #81, #291, .T. ) ;
#675 = ORIENTED_EDGE ( 'NONE', *, *, #233, .F. ) ;
#676 = AXIS2_PLACEMENT_3D ( 'NONE', #426, #722, #1114 ) ;
#677 = PERSON_AND_ORGANIZATION_ROLE ( 'creator' ) ;
#678 = ORIENTED_EDGE ( 'NONE', *, *, #1140, .T. ) ;
#679 = CARTESIAN_POINT ( 'NONE',  ( 5.500000000000000000, 2.500000000000000000, 0.000000000000000000 ) ) ;
#680 = AXIS2_PLACEMENT_3D ( 'NONE', #537, #223, #241 ) ;
#681 = DIRECTION ( 'NONE',  ( 1.000000000000000000, 0.000000000000000000, 0.000000000000000000 ) ) ;
#682 = EDGE_CURVE ( 'NONE', #196, #159, #892, .T. ) ;
#683 = ORIENTED_EDGE ( 'NONE', *, *, #723, .F. ) ;
#684 = DIRECTION ( 'NONE',  ( 1.000000000000000000, 0.000000000000000000, 0.000000000000000000 ) ) ;
#685 = CARTESIAN_POINT ( 'NONE',  ( -5.299999999999999822, 0.000000000000000000, -8.000000000000000000 ) ) ;
#686 = ORIENTED_EDGE ( 'NONE', *, *, #12, .T. ) ;
#687 = SHAPE_DEFINITION_REPRESENTATION ( #1105, #854 ) ;
#688 = ORIENTED_EDGE ( 'NONE', *, *, #745, .F. ) ;
#689 = DIRECTION ( 'NONE',  ( -1.000000000000000000, 0.000000000000000000, 0.000000000000000000 ) ) ;
#690 = EDGE_CURVE ( 'NONE', #660, #1133, #1047, .T. ) ;
#691 = CARTESIAN_POINT ( 'NONE',  ( 0.000000000000000000, 0.000000000000000000, 0.000000000000000000 ) ) ;
#692 = AXIS2_PLACEMENT_3D ( 'NONE', #140, #534, #828 ) ;
#693 = CARTESIAN_POINT ( 'NONE',  ( 5.500000000000000000, 0.000000000000000000, -2.700000000000000622 ) ) ;
#694 = SECURITY_CLASSIFICATION_LEVEL ( 'unclassified' ) ;
#695 = VECTOR ( 'NONE', #1042, 999.9999999999998863 ) ;
#696 = ORIENTED_EDGE ( 'NONE', *, *, #215, .F. ) ;
#697 = DIRECTION ( 'NONE',  ( 0.000000000000000000, 0.000000000000000000, -1.000000000000000000 ) ) ;
#698 = DIRECTION ( 'NONE',  ( 0.000000000000000000, 0.000000000000000000, 1.000000000000000000 ) ) ;
#699 = CIRCLE ( 'NONE', #857, 6.250000000000000000 ) ;
#700 = CIRCLE ( 'NONE', #317, 4.049999999999999822 ) ;
#701 = CIRCLE ( 'NONE', #1226, 2.500000000000000000 ) ;
#702 = DIRECTION ( 'NONE',  ( 0.000000000000000000, 0.000000000000000000, -1.000000000000000000 ) ) ;
#703 = ORIENTED_EDGE ( 'NONE', *, *, #1179, .T. ) ;
#704 = CARTESIAN_POINT ( 'NONE',  ( 5.500000000000000000, 0.000000000000000000, 0.000000000000000000 ) ) ;
#705 = DIRECTION ( 'NONE',  ( 0.7071067811865460184, 0.000000000000000000, -0.7071067811865489050 ) ) ;
#706 = ADVANCED_FACE ( 'NONE', ( #1121 ), #364, .F. ) ;
#707 = CARTESIAN_POINT ( 'NONE',  ( 5.500000000000000000, 0.000000000000000000, 0.000000000000000000 ) ) ;
#708 = ORIENTED_EDGE ( 'NONE', *, *, #457, .F. ) ;
#709 = DIRECTION ( 'NONE',  ( -1.000000000000000000, 0.000000000000000000, 0.000000000000000000 ) ) ;
#710 = DIRECTION ( 'NONE',  ( 0.000000000000000000, 0.000000000000000000, -1.000000000000000000 ) ) ;
#711 = CARTESIAN_POINT ( 'NONE',  ( 5.500000000000000000, 6.250000000000000000, 0.000000000000000000 ) ) ;
#712 = EDGE_CURVE ( 'NONE', #298, #339, #335, .T. ) ;
#713 = EDGE_LOOP ( 'NONE', ( #33, #307, #1210, #1126 ) ) ;
#714 = VECTOR ( 'NONE', #705, 1000.000000000000114 ) ;
#715 = CYLINDRICAL_SURFACE ( 'NONE', #676, 6.250000000000000000 ) ;
#716 = AXIS2_PLACEMENT_3D ( 'NONE', #922, #67, #554 ) ;
#717 = FACE_OUTER_BOUND ( 'NONE', #454, .T. ) ;
#718 = CONICAL_SURFACE ( 'NONE', #1129, 6.450000000000000178, 0.7853981633974440602 ) ;
#719 = AXIS2_PLACEMENT_3D ( 'NONE', #707, #898, #418 ) ;
#720 = DIRECTION ( 'NONE',  ( 0.000000000000000000, 0.000000000000000000, 1.000000000000000000 ) ) ;
#721 = ORIENTED_EDGE ( 'NONE', *, *, #161, .T. ) ;
#722 = DIRECTION ( 'NONE',  ( 1.000000000000000000, 0.000000000000000000, 0.000000000000000000 ) ) ;
#723 = EDGE_CURVE ( 'NONE', #843, #795, #286, .T. ) ;
#724 = CARTESIAN_POINT ( 'NONE',  ( 0.000000000000000000, 0.000000000000000000, 0.000000000000000000 ) ) ;
#725 = CARTESIAN_POINT ( 'NONE',  ( -5.500000000000000000, 0.000000000000000000, -7.799999999999999822 ) ) ;
#726 = VERTEX_POINT ( 'NONE', #661 ) ;
#727 = CARTESIAN_POINT ( 'NONE',  ( 5.000000000000000000, 0.000000000000000000, 0.000000000000000000 ) ) ;
#728 = ORIENTED_EDGE ( 'NONE', *, *, #525, .T. ) ;
#729 = CARTESIAN_POINT ( 'NONE',  ( 0.000000000000000000, 0.000000000000000000, 0.000000000000000000 ) ) ;
#730 = ADVANCED_FACE ( 'NONE', ( #187, #370 ), #175, .T. ) ;
#731 = FACE_OUTER_BOUND ( 'NONE', #546, .T. ) ;
#732 = ORIENTED_EDGE ( 'NONE', *, *, #928, .T. ) ;
#733 = CARTESIAN_POINT ( 'NONE',  ( 5.500000000000000000, 0.000000000000000000, -6.450000000000005507 ) ) ;
#734 = CONICAL_SURFACE ( 'NONE', #185, 8.000000000000000000, 0.7853981633974574939 ) ;
#735 = DIRECTION ( 'NONE',  ( 0.000000000000000000, 0.000000000000000000, 1.000000000000000000 ) ) ;
#736 = CC_DESIGN_PERSON_AND_ORGANIZATION_ASSIGNMENT ( #191, #677, ( #328 ) ) ;
#737 = AXIS2_PLACEMENT_3D ( 'NONE', #299, #226, #396 ) ;
#738 = CARTESIAN_POINT ( 'NONE',  ( 2.774999999999999911, 1.494069094959771056E-15, -12.20000000000000107 ) ) ;
#739 = AXIS2_PLACEMENT_3D ( 'NONE', #776, #99, #94 ) ;
#740 = EDGE_LOOP ( 'NONE', ( #886, #998, #472, #373 ) ) ;
#741 = LINE ( 'NONE', #900, #1019 ) ;
#742 = VECTOR ( 'NONE', #278, 1000.000000000000000 ) ;
#743 = CARTESIAN_POINT ( 'NONE',  ( -5.000000000000000000, 0.000000000000000000, 0.000000000000000000 ) ) ;
#744 = DIRECTION ( 'NONE',  ( 0.000000000000000000, 0.000000000000000000, -1.000000000000000000 ) ) ;
#745 = EDGE_CURVE ( 'NONE', #1194, #956, #48, .T. ) ;
#746 = ORIENTED_EDGE ( 'NONE', *, *, #1179, .F. ) ;
#747 = ORIENTED_EDGE ( 'NONE', *, *, #192, .T. ) ;
#748 = DIRECTION ( 'NONE',  ( 0.000000000000000000, 0.000000000000000000, 1.000000000000000000 ) ) ;
#749 = DIRECTION ( 'NONE',  ( 1.000000000000000000, 0.000000000000000000, 0.000000000000000000 ) ) ;
#750 = ORIENTED_EDGE ( 'NONE', *, *, #942, .T. ) ;
#751 = LINE ( 'NONE', #160, #923 ) ;
#752 = ORIENTED_EDGE ( 'NONE', *, *, #58, .F. ) ;
#753 = DIRECTION ( 'NONE',  ( -1.000000000000000000, 0.000000000000000000, 0.000000000000000000 ) ) ;
#754 = CIRCLE ( 'NONE', #470, 6.450000000000000178 ) ;
#755 = CONICAL_SURFACE ( 'NONE', #1128, 7.799999999999999822, 0.7853981633974574939 ) ;
#756 = LINE ( 'NONE', #811, #964 ) ;
#757 = ORIENTED_EDGE ( 'NONE', *, *, #1050, .F. ) ;
#758 = DIRECTION ( 'NONE',  ( -1.000000000000000000, 0.000000000000000000, 0.000000000000000000 ) ) ;
#759 = EDGE_CURVE ( 'NONE', #442, #1222, #1212, .T. ) ;
#760 = EDGE_LOOP ( 'NONE', ( #1182, #961 ) ) ;
#761 = DIRECTION ( 'NONE',  ( -0.7071067811865505703, 8.659560562354895880E-17, -0.7071067811865444641 ) ) ;
#762 = LOCAL_TIME ( 12, 39, 1.000000000000000000, #208 ) ;
#763 = ADVANCED_FACE ( 'NONE', ( #281 ), #580, .T. ) ;
#764 = EDGE_LOOP ( 'NONE', ( #969, #447, #64, #708 ) ) ;
#765 = CARTESIAN_POINT ( 'NONE',  ( 5.500000000000000000, 4.959819536546779614E-16, -4.049999999999999822 ) ) ;
#766 = ORIENTED_EDGE ( 'NONE', *, *, #1110, .T. ) ;
#767 = DIRECTION ( 'NONE',  ( -1.000000000000000000, 0.000000000000000000, 0.000000000000000000 ) ) ;
#768 = ADVANCED_FACE ( 'NONE', ( #563 ), #967, .T. ) ;
#769 = CIRCLE ( 'NONE', #489, 2.700000000000000178 ) ;
#770 = CONICAL_SURFACE ( 'NONE', #62, 2.500000000000000000, 0.7853981633974503884 ) ;
#771 = CARTESIAN_POINT ( 'NONE',  ( 5.500000000000000000, 0.000000000000000000, 0.000000000000000000 ) ) ;
#772 = ORIENTED_EDGE ( 'NONE', *, *, #170, .T. ) ;
#773 = CARTESIAN_POINT ( 'NONE',  ( -5.500000000000000000, 7.898971854500428692E-16, -6.450000000000000178 ) ) ;
#774 = CIRCLE ( 'NONE', #130, 12.20000000000000107 ) ;
#775 = EDGE_CURVE ( 'NONE', #85, #506, #954, .T. ) ;
#776 = CARTESIAN_POINT ( 'NONE',  ( 5.100000000000000533, -4.718447854656920030E-15, 0.000000000000000000 ) ) ;
#777 = AXIS2_PLACEMENT_3D ( 'NONE', #589, #34, #110 ) ;
#778 = CALENDAR_DATE ( 2026, 22, 8 ) ;
#779 = EDGE_LOOP ( 'NONE', ( #271, #1063, #127, #259 ) ) ;
#780 = DIRECTION ( 'NONE',  ( 0.000000000000000000, 0.000000000000000000, -1.000000000000000000 ) ) ;
#781 = AXIS2_PLACEMENT_3D ( 'NONE', #985, #526, #819 ) ;
#782 = CARTESIAN_POINT ( 'NONE',  ( -5.500000000000000000, 0.000000000000000000, 0.000000000000000000 ) ) ;
#783 = CARTESIAN_POINT ( 'NONE',  ( 5.100000000000000533, 0.000000000000000000, 9.875000000000000000 ) ) ;
#784 = COORDINATED_UNIVERSAL_TIME_OFFSET ( 0, 0, .AHEAD. ) ;
#785 = EDGE_CURVE ( 'NONE', #81, #453, #568, .T. ) ;
#786 = ORIENTED_EDGE ( 'NONE', *, *, #564, .F. ) ;
#787 = CARTESIAN_POINT ( 'NONE',  ( -5.500000000000000000, 0.000000000000000000, 6.450000000000000178 ) ) ;
#788 = CARTESIAN_POINT ( 'NONE',  ( 5.299999999999999822, 0.000000000000000000, -6.250000000000000000 ) ) ;
#789 = ORIENTED_EDGE ( 'NONE', *, *, #690, .F. ) ;
#790 = APPROVAL_DATE_TIME ( #401, #66 ) ;
#791 = EDGE_LOOP ( 'NONE', ( #244, #202, #888, #1135 ) ) ;
#792 = DIRECTION ( 'NONE',  ( 1.000000000000000000, 0.000000000000000000, 0.000000000000000000 ) ) ;
#793 = CARTESIAN_POINT ( 'NONE',  ( 5.100000000000000533, 0.000000000000000000, 8.000000000000000000 ) ) ;
#794 = AXIS2_PLACEMENT_3D ( 'NONE', #971, #896, #890 ) ;
#795 = VERTEX_POINT ( 'NONE', #1230 ) ;
#796 = AXIS2_PLACEMENT_3D ( 'NONE', #586, #483, #748 ) ;
#797 = AXIS2_PLACEMENT_3D ( 'NONE', #1071, #684, #697 ) ;
#798 = ORIENTED_EDGE ( 'NONE', *, *, #996, .F. ) ;
#799 = FACE_OUTER_BOUND ( 'NONE', #1120, .T. ) ;
#800 = DIRECTION ( 'NONE',  ( -1.000000000000000000, 0.000000000000000000, 0.000000000000000000 ) ) ;
#801 = EDGE_CURVE ( 'NONE', #116, #910, #84, .T. ) ;
#802 = AXIS2_PLACEMENT_3D ( 'NONE', #177, #1112, #1130 ) ;
#803 = DIRECTION ( 'NONE',  ( -1.000000000000000000, 0.000000000000000000, 0.000000000000000000 ) ) ;
#804 = EDGE_LOOP ( 'NONE', ( #1161, #1091, #283, #987 ) ) ;
#805 = DIRECTION ( 'NONE',  ( -0.7071067811865520136, 0.000000000000000000, 0.7071067811865431318 ) ) ;
#806 = DIRECTION ( 'NONE',  ( -1.000000000000000000, 0.000000000000000000, 0.000000000000000000 ) ) ;
#807 = EDGE_CURVE ( 'NONE', #279, #956, #98, .T. ) ;
#808 = FACE_OUTER_BOUND ( 'NONE', #646, .T. ) ;
#809 = ORIENTED_EDGE ( 'NONE', *, *, #176, .F. ) ;
#810 = DIRECTION ( 'NONE',  ( 0.000000000000000000, 0.000000000000000000, 1.000000000000000000 ) ) ;
#811 = CARTESIAN_POINT ( 'NONE',  ( 0.000000000000000000, 0.000000000000000000, 12.20000000000000107 ) ) ;
#812 = LINE ( 'NONE', #531, #860 ) ;
#813 = EDGE_CURVE ( 'NONE', #956, #1194, #131, .T. ) ;
#814 = VECTOR ( 'NONE', #611, 1000.000000000000000 ) ;
#815 = ORIENTED_EDGE ( 'NONE', *, *, #444, .T. ) ;
#816 = CARTESIAN_POINT ( 'NONE',  ( 5.100000000000000533, 0.000000000000000000, 0.000000000000000000 ) ) ;
#817 = VECTOR ( 'NONE', #388, 1000.000000000000000 ) ;
#818 = DIRECTION ( 'NONE',  ( 0.000000000000000000, 0.000000000000000000, -1.000000000000000000 ) ) ;
#819 = DIRECTION ( 'NONE',  ( 0.000000000000000000, 0.000000000000000000, -1.000000000000000000 ) ) ;
#820 = LOCAL_TIME ( 12, 39, 1.000000000000000000, #1016 ) ;
#821 = ADVANCED_FACE ( 'NONE', ( #1139 ), #476, .T. ) ;
#822 = ORIENTED_EDGE ( 'NONE', *, *, #330, .T. ) ;
#823 = CYLINDRICAL_SURFACE ( 'NONE', #550, 4.250000000000000000 ) ;
#824 = CARTESIAN_POINT ( 'NONE',  ( -5.500000000000000000, 0.000000000000000000, 2.700000000000000178 ) ) ;
#825 = DIRECTION ( 'NONE',  ( 0.7071067811865410224, 0.000000000000000000, -0.7071067811865540120 ) ) ;
#826 = ORIENTED_EDGE ( 'NONE', *, *, #368, .T. ) ;
#827 = CARTESIAN_POINT ( 'NONE',  ( 5.500000000000000000, 0.000000000000000000, 0.000000000000000000 ) ) ;
#828 = DIRECTION ( 'NONE',  ( 0.000000000000000000, 0.000000000000000000, 1.000000000000000000 ) ) ;
#829 = FACE_OUTER_BOUND ( 'NONE', #1070, .T. ) ;
#830 = ORIENTED_EDGE ( 'NONE', *, *, #1208, .F. ) ;
#831 = CARTESIAN_POINT ( 'NONE',  ( -5.000000000000000000, 0.000000000000000000, 0.000000000000000000 ) ) ;
#832 = CARTESIAN_POINT ( 'NONE',  ( -5.299999999999999822, 0.000000000000000000, 0.000000000000000000 ) ) ;
#833 = VECTOR ( 'NONE', #431, 1000.000000000000000 ) ;
#834 = EDGE_CURVE ( 'NONE', #420, #631, #1152, .T. ) ;
#835 = FACE_BOUND ( 'NONE', #609, .T. ) ;
#836 = AXIS2_PLACEMENT_3D ( 'NONE', #190, #1, #480 ) ;
#837 = ORIENTED_EDGE ( 'NONE', *, *, #484, .T. ) ;
#838 = FACE_OUTER_BOUND ( 'NONE', #174, .T. ) ;
#839 = VERTEX_POINT ( 'NONE', #128 ) ;
#840 = DIRECTION ( 'NONE',  ( 0.000000000000000000, 0.000000000000000000, 1.000000000000000000 ) ) ;
#841 = EDGE_CURVE ( 'NONE', #308, #159, #1158, .T. ) ;
#842 = DIRECTION ( 'NONE',  ( 1.000000000000000000, 0.000000000000000000, 0.000000000000000000 ) ) ;
#843 = VERTEX_POINT ( 'NONE', #1059 ) ;
#844 = CARTESIAN_POINT ( 'NONE',  ( -5.000000000000000000, 5.204748896376250699E-16, 4.250000000000000000 ) ) ;
#845 = ORIENTED_EDGE ( 'NONE', *, *, #414, .F. ) ;
#846 = DIRECTION ( 'NONE',  ( 1.000000000000000000, 0.000000000000000000, 0.000000000000000000 ) ) ;
#847 = DIRECTION ( 'NONE',  ( 0.000000000000000000, 0.000000000000000000, -1.000000000000000000 ) ) ;
#848 = ORIENTED_EDGE ( 'NONE', *, *, #444, .F. ) ;
#849 = CARTESIAN_POINT ( 'NONE',  ( 5.299999999999999822, 0.000000000000000000, -8.000000000000000000 ) ) ;
#850 = EDGE_CURVE ( 'NONE', #89, #1003, #473, .T. ) ;
#851 = ORIENTED_EDGE ( 'NONE', *, *, #75, .T. ) ;
#852 = CARTESIAN_POINT ( 'NONE',  ( 0.000000000000000000, 0.000000000000000000, -6.250000000000000000 ) ) ;
#853 = CIRCLE ( 'NONE', #111, 9.875000000000000000 ) ;
#854 = ADVANCED_BREP_SHAPE_REPRESENTATION ( 'VWheel', ( #509, #465, #500 ), #1032 ) ;
#855 = VERTEX_POINT ( 'NONE', #1064 ) ;
#856 = CARTESIAN_POINT ( 'NONE',  ( 0.000000000000000000, 0.000000000000000000, -2.500000000000000000 ) ) ;
#857 = AXIS2_PLACEMENT_3D ( 'NONE', #315, #681, #1055 ) ;
#858 = EDGE_CURVE ( 'NONE', #943, #660, #488, .T. ) ;
#859 = ORIENTED_EDGE ( 'NONE', *, *, #807, .F. ) ;
#860 = VECTOR ( 'NONE', #1185, 999.9999999999998863 ) ;
#861 = CARTESIAN_POINT ( 'NONE',  ( -5.299999999999999822, 5.204748896376250699E-16, 4.250000000000000000 ) ) ;
#862 = DIRECTION ( 'NONE',  ( -1.000000000000000000, 0.000000000000000000, 0.000000000000000000 ) ) ;
#863 = APPROVAL_ROLE ( '' ) ;
#864 = ORIENTED_EDGE ( 'NONE', *, *, #376, .T. ) ;
#865 = CARTESIAN_POINT ( 'NONE',  ( 5.299999999999999822, 0.000000000000000000, 0.000000000000000000 ) ) ;
#866 = ADVANCED_FACE ( 'NONE', ( #197 ), #204, .T. ) ;
#867 = AXIS2_PLACEMENT_3D ( 'NONE', #827, #144, #448 ) ;
#868 = LINE ( 'NONE', #1069, #380 ) ;
#869 = PERSON_AND_ORGANIZATION ( #238, #1192 ) ;
#870 = EDGE_LOOP ( 'NONE', ( #559, #138 ) ) ;
#871 = DIRECTION ( 'NONE',  ( 0.7071067811865410224, 8.659560562355012977E-17, 0.7071067811865540120 ) ) ;
#872 = CARTESIAN_POINT ( 'NONE',  ( -5.500000000000000000, 6.250000000000000000, 0.000000000000000000 ) ) ;
#873 = ADVANCED_FACE ( 'NONE', ( #219 ), #595, .F. ) ;
#874 = CIRCLE ( 'NONE', #556, 12.20000000000000107 ) ;
#875 = ORIENTED_EDGE ( 'NONE', *, *, #12, .F. ) ;
#876 = CIRCLE ( 'NONE', #737, 8.000000000000000000 ) ;
#877 = APPROVAL_ROLE ( '' ) ;
#878 = EDGE_LOOP ( 'NONE', ( #551, #732, #21, #83 ) ) ;
#879 = DIRECTION ( 'NONE',  ( 0.000000000000000000, 0.000000000000000000, 1.000000000000000000 ) ) ;
#880 = CARTESIAN_POINT ( 'NONE',  ( -5.299999999999999822, 0.000000000000000000, 0.000000000000000000 ) ) ;
#881 = DIRECTION ( 'NONE',  ( 0.000000000000000000, 0.000000000000000000, 1.000000000000000000 ) ) ;
#882 = APPROVAL_STATUS ( 'not_yet_approved' ) ;
#883 = ORIENTED_EDGE ( 'NONE', *, *, #921, .T. ) ;
#884 = DIRECTION ( 'NONE',  ( 1.000000000000000000, 0.000000000000000000, 0.000000000000000000 ) ) ;
#885 = DIRECTION ( 'NONE',  ( 0.000000000000000000, 0.000000000000000000, 1.000000000000000000 ) ) ;
#886 = ORIENTED_EDGE ( 'NONE', *, *, #928, .F. ) ;
#887 = EDGE_CURVE ( 'NONE', #339, #298, #72, .T. ) ;
#888 = ORIENTED_EDGE ( 'NONE', *, *, #176, .T. ) ;
#889 = CARTESIAN_POINT ( 'NONE',  ( 5.299999999999999822, 0.000000000000000000, 0.000000000000000000 ) ) ;
#890 = DIRECTION ( 'NONE',  ( 0.000000000000000000, 1.000000000000000000, 0.000000000000000000 ) ) ;
#891 = DIRECTION ( 'NONE',  ( 1.000000000000000000, 0.000000000000000000, 0.000000000000000000 ) ) ;
#892 = CIRCLE ( 'NONE', #796, 12.20000000000000107 ) ;
#893 = ORIENTED_EDGE ( 'NONE', *, *, #51, .T. ) ;
#894 = FACE_OUTER_BOUND ( 'NONE', #764, .T. ) ;
#895 = EDGE_CURVE ( 'NONE', #943, #81, #408, .T. ) ;
#896 = DIRECTION ( 'NONE',  ( 1.000000000000000000, 0.000000000000000000, 0.000000000000000000 ) ) ;
#897 = AXIS2_PLACEMENT_3D ( 'NONE', #1209, #76, #255 ) ;
#898 = DIRECTION ( 'NONE',  ( -1.000000000000000000, 0.000000000000000000, 0.000000000000000000 ) ) ;
#899 = EDGE_LOOP ( 'NONE', ( #859, #515, #893, #225 ) ) ;
#900 = CARTESIAN_POINT ( 'NONE',  ( -5.100000000000000533, 0.000000000000000000, -9.875000000000000000 ) ) ;
#901 = CARTESIAN_POINT ( 'NONE',  ( -5.100000000000000533, 1.209338714158011363E-15, 9.875000000000000000 ) ) ;
#902 = EDGE_CURVE ( 'NONE', #1169, #308, #948, .T. ) ;
#903 = LINE ( 'NONE', #57, #1051 ) ;
#904 = ORIENTED_EDGE ( 'NONE', *, *, #126, .T. ) ;
#905 = DIRECTION ( 'NONE',  ( -1.000000000000000000, 0.000000000000000000, 0.000000000000000000 ) ) ;
#906 = CARTESIAN_POINT ( 'NONE',  ( -5.299999999999999822, 0.000000000000000000, 0.000000000000000000 ) ) ;
#907 = EDGE_CURVE ( 'NONE', #97, #1010, #496, .T. ) ;
#908 = CARTESIAN_POINT ( 'NONE',  ( -2.774999999999999911, 0.000000000000000000, -12.20000000000000995 ) ) ;
#909 = CIRCLE ( 'NONE', #246, 9.875000000000000000 ) ;
#910 = VERTEX_POINT ( 'NONE', #977 ) ;
#911 = DIRECTION ( 'NONE',  ( -1.000000000000000000, 0.000000000000000000, 0.000000000000000000 ) ) ;
#912 = AXIS2_PLACEMENT_3D ( 'NONE', #516, #884, #780 ) ;
#913 = DIRECTION ( 'NONE',  ( 0.000000000000000000, 0.000000000000000000, -1.000000000000000000 ) ) ;
#914 = CARTESIAN_POINT ( 'NONE',  ( -5.500000000000000000, 5.082284216461515156E-16, 4.049999999999999822 ) ) ;
#915 = ORIENTED_EDGE ( 'NONE', *, *, #36, .T. ) ;
#916 = CARTESIAN_POINT ( 'NONE',  ( -5.000000000000000000, 0.000000000000000000, 0.000000000000000000 ) ) ;
#917 = CARTESIAN_POINT ( 'NONE',  ( 5.299999999999999822, 0.000000000000000000, -2.500000000000000000 ) ) ;
#918 = DIRECTION ( 'NONE',  ( 1.000000000000000000, 0.000000000000000000, 0.000000000000000000 ) ) ;
#919 = ORIENTED_EDGE ( 'NONE', *, *, #1082, .T. ) ;
#920 = CARTESIAN_POINT ( 'NONE',  ( -5.000000000000000000, 0.000000000000000000, -4.250000000000000000 ) ) ;
#921 = EDGE_CURVE ( 'NONE', #553, #855, #597, .T. ) ;
#922 = CARTESIAN_POINT ( 'NONE',  ( 0.000000000000000000, 0.000000000000000000, 0.000000000000000000 ) ) ;
#923 = VECTOR ( 'NONE', #552, 1000.000000000000000 ) ;
#924 = CARTESIAN_POINT ( 'NONE',  ( -5.500000000000000000, 2.500000000000000000, 0.000000000000000000 ) ) ;
#925 = ORIENTED_EDGE ( 'NONE', *, *, #5, .T. ) ;
#926 = ORIENTED_EDGE ( 'NONE', *, *, #813, .T. ) ;
#927 = FACE_OUTER_BOUND ( 'NONE', #1217, .T. ) ;
#928 = EDGE_CURVE ( 'NONE', #292, #839, #123, .T. ) ;
#929 = AXIS2_PLACEMENT_3D ( 'NONE', #704, #709, #879 ) ;
#930 = DIRECTION ( 'NONE',  ( -1.000000000000000000, 0.000000000000000000, 0.000000000000000000 ) ) ;
#931 = CIRCLE ( 'NONE', #209, 4.049999999999999822 ) ;
#932 = ORIENTED_EDGE ( 'NONE', *, *, #1110, .F. ) ;
#933 = ORIENTED_EDGE ( 'NONE', *, *, #41, .T. ) ;
#934 = DIRECTION ( 'NONE',  ( 1.000000000000000000, 0.000000000000000000, 0.000000000000000000 ) ) ;
#935 = ADVANCED_FACE ( 'NONE', ( #894 ), #1006, .T. ) ;
#936 = CARTESIAN_POINT ( 'NONE',  ( -5.299999999999999822, 0.000000000000000000, -4.250000000000000000 ) ) ;
#937 = ORIENTED_EDGE ( 'NONE', *, *, #240, .T. ) ;
#938 = DIRECTION ( 'NONE',  ( 0.000000000000000000, 0.000000000000000000, -1.000000000000000000 ) ) ;
#939 = VERTEX_POINT ( 'NONE', #1085 ) ;
#940 = CARTESIAN_POINT ( 'NONE',  ( 5.299999999999999822, 3.061616997868383141E-16, 2.500000000000000000 ) ) ;
#941 = FACE_OUTER_BOUND ( 'NONE', #273, .T. ) ;
#942 = EDGE_CURVE ( 'NONE', #466, #279, #876, .T. ) ;
#943 = VERTEX_POINT ( 'NONE', #970 ) ;
#944 = DIRECTION ( 'NONE',  ( 1.000000000000000000, 0.000000000000000000, 0.000000000000000000 ) ) ;
#945 = ORIENTED_EDGE ( 'NONE', *, *, #104, .F. ) ;
#946 = CARTESIAN_POINT ( 'NONE',  ( -5.100000000000000533, 0.000000000000000000, 0.000000000000000000 ) ) ;
#947 = AXIS2_PLACEMENT_3D ( 'NONE', #346, #61, #234 ) ;
#948 = CIRCLE ( 'NONE', #777, 12.20000000000000107 ) ;
#949 = ORIENTED_EDGE ( 'NONE', *, *, #104, .T. ) ;
#950 = PERSON_AND_ORGANIZATION_ROLE ( 'design_owner' ) ;
#951 = VECTOR ( 'NONE', #587, 1000.000000000000000 ) ;
#952 = VERTEX_POINT ( 'NONE', #616 ) ;
#953 = VECTOR ( 'NONE', #918, 1000.000000000000000 ) ;
#954 = LINE ( 'NONE', #1218, #1224 ) ;
#955 = PLANE ( 'NONE',  #739 ) ;
#956 = VERTEX_POINT ( 'NONE', #1162 ) ;
#957 = CARTESIAN_POINT ( 'NONE',  ( -5.500000000000000000, 0.000000000000000000, 0.000000000000000000 ) ) ;
#958 = EDGE_CURVE ( 'NONE', #120, #85, #188, .T. ) ;
#959 = AXIS2_PLACEMENT_3D ( 'NONE', #831, #528, #437 ) ;
#960 = ORIENTED_EDGE ( 'NONE', *, *, #240, .F. ) ;
#961 = ORIENTED_EDGE ( 'NONE', *, *, #712, .T. ) ;
#962 = DIRECTION ( 'NONE',  ( 1.000000000000000000, 0.000000000000000000, 0.000000000000000000 ) ) ;
#963 = DIRECTION ( 'NONE',  ( 0.000000000000000000, 0.000000000000000000, 1.000000000000000000 ) ) ;
#964 = VECTOR ( 'NONE', #806, 1000.000000000000000 ) ;
#965 = UNCERTAINTY_MEASURE_WITH_UNIT (LENGTH_MEASURE( 1.000000000000000082E-05 ), #71, 'distance_accuracy_value', 'NONE');
#966 = FACE_OUTER_BOUND ( 'NONE', #242, .T. ) ;
#967 = CONICAL_SURFACE ( 'NONE', #576, 9.875000000000000000, 0.7853981633974503884 ) ;
#968 = DATE_TIME_ROLE ( 'classification_date' ) ;
#969 = ORIENTED_EDGE ( 'NONE', *, *, #1156, .F. ) ;
#970 = CARTESIAN_POINT ( 'NONE',  ( -5.299999999999999822, 3.061616997868383141E-16, 2.500000000000000000 ) ) ;
#971 = CARTESIAN_POINT ( 'NONE',  ( 5.000000000000000000, 4.250000000000000000, 0.000000000000000000 ) ) ;
#972 = LOCAL_TIME ( 12, 39, 1.000000000000000000, #486 ) ;
#973 = EDGE_CURVE ( 'NONE', #553, #339, #28, .T. ) ;
#974 = ORIENTED_EDGE ( 'NONE', *, *, #682, .F. ) ;
#975 = PERSON_AND_ORGANIZATION ( #238, #1192 ) ;
#976 = VERTEX_POINT ( 'NONE', #310 ) ;
#977 = CARTESIAN_POINT ( 'NONE',  ( -5.299999999999999822, 5.204748896376250699E-16, 4.250000000000000000 ) ) ;
#978 = CARTESIAN_POINT ( 'NONE',  ( 5.000000000000000000, 5.204748896376250699E-16, 4.250000000000000000 ) ) ;
#979 = CARTESIAN_POINT ( 'NONE',  ( -5.500000000000000000, 0.000000000000000000, -4.049999999999999822 ) ) ;
#980 = ADVANCED_FACE ( 'NONE', ( #799 ), #715, .F. ) ;
#981 = ORIENTED_EDGE ( 'NONE', *, *, #564, .T. ) ;
#982 = CARTESIAN_POINT ( 'NONE',  ( -5.299999999999999822, 9.797174393178825657E-16, 8.000000000000000000 ) ) ;
#983 = DIRECTION ( 'NONE',  ( 0.7071067811865460184, 8.659560562354951347E-17, 0.7071067811865489050 ) ) ;
#984 = CONICAL_SURFACE ( 'NONE', #10, 8.000000000000000000, 0.7853981633974574939 ) ;
#985 = CARTESIAN_POINT ( 'NONE',  ( 0.000000000000000000, 0.000000000000000000, 0.000000000000000000 ) ) ;
#986 = AXIS2_PLACEMENT_3D ( 'NONE', #533, #243, #810 ) ;
#987 = ORIENTED_EDGE ( 'NONE', *, *, #368, .F. ) ;
#988 = DIRECTION ( 'NONE',  ( 1.000000000000000000, 0.000000000000000000, 0.000000000000000000 ) ) ;
#989 = ADVANCED_FACE ( 'NONE', ( #999 ), #718, .F. ) ;
#990 = CARTESIAN_POINT ( 'NONE',  ( 2.774999999999999911, 0.000000000000000000, 0.000000000000000000 ) ) ;
#991 = CONICAL_SURFACE ( 'NONE', #1191, 9.875000000000000000, 0.7853981633974503884 ) ;
#992 = CARTESIAN_POINT ( 'NONE',  ( -5.500000000000000000, 0.000000000000000000, 0.000000000000000000 ) ) ;
#993 = ORIENTED_EDGE ( 'NONE', *, *, #996, .T. ) ;
#994 = DIRECTION ( 'NONE',  ( 1.000000000000000000, 0.000000000000000000, 0.000000000000000000 ) ) ;
#995 = FACE_OUTER_BOUND ( 'NONE', #475, .T. ) ;
#996 = EDGE_CURVE ( 'NONE', #572, #395, #1097, .T. ) ;
#997 = CARTESIAN_POINT ( 'NONE',  ( 5.100000000000000533, 0.000000000000000000, 0.000000000000000000 ) ) ;
#998 = ORIENTED_EDGE ( 'NONE', *, *, #399, .F. ) ;
#999 = FACE_OUTER_BOUND ( 'NONE', #779, .T. ) ;
#1000 = CYLINDRICAL_SURFACE ( 'NONE', #655, 2.500000000000000000 ) ;
#1001 = DIRECTION ( 'NONE',  ( 0.000000000000000000, 0.000000000000000000, 1.000000000000000000 ) ) ;
#1002 = AXIS2_PLACEMENT_3D ( 'NONE', #1020, #749, #648 ) ;
#1003 = VERTEX_POINT ( 'NONE', #356 ) ;
#1004 = VECTOR ( 'NONE', #1018, 1000.000000000000000 ) ;
#1005 = FACE_OUTER_BOUND ( 'NONE', #381, .T. ) ;
#1006 = CONICAL_SURFACE ( 'NONE', #929, 4.049999999999999822, 0.7853981633974440602 ) ;
#1007 = DIRECTION ( 'NONE',  ( 1.000000000000000000, 0.000000000000000000, 0.000000000000000000 ) ) ;
#1008 = DIRECTION ( 'NONE',  ( 0.000000000000000000, 0.000000000000000000, 1.000000000000000000 ) ) ;
#1009 = EDGE_CURVE ( 'NONE', #553, #843, #294, .T. ) ;
#1010 = VERTEX_POINT ( 'NONE', #920 ) ;
#1011 = CARTESIAN_POINT ( 'NONE',  ( 0.000000000000000000, 0.000000000000000000, 0.000000000000000000 ) ) ;
#1012 = DIRECTION ( 'NONE',  ( 0.000000000000000000, 0.000000000000000000, 1.000000000000000000 ) ) ;
#1013 = FACE_OUTER_BOUND ( 'NONE', #791, .T. ) ;
#1014 = EDGE_CURVE ( 'NONE', #468, #407, #618, .T. ) ;
#1015 = ORIENTED_EDGE ( 'NONE', *, *, #759, .F. ) ;
#1016 = COORDINATED_UNIVERSAL_TIME_OFFSET ( 0, 0, .AHEAD. ) ;
#1017 = EDGE_LOOP ( 'NONE', ( #815, #344 ) ) ;
#1018 = DIRECTION ( 'NONE',  ( 1.000000000000000000, 0.000000000000000000, 0.000000000000000000 ) ) ;
#1019 = VECTOR ( 'NONE', #134, 1000.000000000000114 ) ;
#1020 = CARTESIAN_POINT ( 'NONE',  ( 5.299999999999999822, 0.000000000000000000, 0.000000000000000000 ) ) ;
#1021 = VERTEX_POINT ( 'NONE', #733 ) ;
#1022 = DIRECTION ( 'NONE',  ( -1.000000000000000000, 0.000000000000000000, 0.000000000000000000 ) ) ;
#1023 = CC_DESIGN_SECURITY_CLASSIFICATION ( #1074, ( #542 ) ) ;
#1024 = AXIS2_PLACEMENT_3D ( 'NONE', #1079, #227, #124 ) ;
#1025 = ORIENTED_EDGE ( 'NONE', *, *, #1050, .T. ) ;
#1026 = CARTESIAN_POINT ( 'NONE',  ( 0.000000000000000000, 0.000000000000000000, -8.000000000000000000 ) ) ;
#1027 = ADVANCED_FACE ( 'NONE', ( #1101 ), #1089, .T. ) ;
#1028 = CIRCLE ( 'NONE', #1167, 2.500000000000000000 ) ;
#1029 = DESIGN_CONTEXT ( 'detailed design', #621, 'design' ) ;
#1030 = CARTESIAN_POINT ( 'NONE',  ( 2.774999999999999911, 1.494069094959771056E-15, -12.20000000000000107 ) ) ;
#1031 = CLOSED_SHELL ( 'NONE', ( #1066, #873, #578, #351, #282, #545, #214, #501, #135, #821, #591, #645, #980, #866, #730, #479, #198, #224, #538, #296, #490, #652, #256, #1196, #1103, #600, #1027, #275, #338, #989, #1147, #935, #360, #629 ) ) ;
#1032 =( GEOMETRIC_REPRESENTATION_CONTEXT ( 3 ) GLOBAL_UNCERTAINTY_ASSIGNED_CONTEXT ( ( #965 ) ) GLOBAL_UNIT_ASSIGNED_CONTEXT ( ( #71, #665, #1040 ) ) REPRESENTATION_CONTEXT ( 'NONE', 'WORKASPACE' ) );
#1033 = ORIENTED_EDGE ( 'NONE', *, *, #785, .F. ) ;
#1034 = CARTESIAN_POINT ( 'NONE',  ( -5.299999999999999822, 0.000000000000000000, 0.000000000000000000 ) ) ;
#1035 = ORIENTED_EDGE ( 'NONE', *, *, #1119, .F. ) ;
#1036 = DIRECTION ( 'NONE',  ( -0.7071067811865505703, 0.000000000000000000, 0.7071067811865444641 ) ) ;
#1037 = ADVANCED_FACE ( 'NONE', ( #1005 ), #540, .F. ) ;
#1038 = LINE ( 'NONE', #1030, #742 ) ;
#1039 = ORIENTED_EDGE ( 'NONE', *, *, #1014, .F. ) ;
#1040 =( NAMED_UNIT ( * ) SI_UNIT ( $, .STERADIAN. ) SOLID_ANGLE_UNIT ( ) );
#1041 = VERTEX_POINT ( 'NONE', #1107 ) ;
#1042 = DIRECTION ( 'NONE',  ( 0.7071067811865441310, 8.659560562354977232E-17, 0.7071067811865510144 ) ) ;
#1043 = EDGE_LOOP ( 'NONE', ( #180, #686, #937, #669 ) ) ;
#1044 = EDGE_LOOP ( 'NONE', ( #1039, #875 ) ) ;
#1045 = DIRECTION ( 'NONE',  ( 0.000000000000000000, 0.000000000000000000, 1.000000000000000000 ) ) ;
#1046 = AXIS2_PLACEMENT_3D ( 'NONE', #512, #326, #710 ) ;
#1047 = CIRCLE ( 'NONE', #394, 2.700000000000000178 ) ;
#1048 = ORIENTED_EDGE ( 'NONE', *, *, #584, .T. ) ;
#1049 = CALENDAR_DATE ( 2026, 22, 8 ) ;
#1050 = EDGE_CURVE ( 'NONE', #1151, #1010, #336, .T. ) ;
#1051 = VECTOR ( 'NONE', #343, 1000.000000000000000 ) ;
#1052 = ORIENTED_EDGE ( 'NONE', *, *, #1208, .T. ) ;
#1053 = CIRCLE ( 'NONE', #521, 8.000000000000000000 ) ;
#1054 = DIRECTION ( 'NONE',  ( -1.000000000000000000, 0.000000000000000000, 0.000000000000000000 ) ) ;
#1055 = DIRECTION ( 'NONE',  ( 0.000000000000000000, 0.000000000000000000, -1.000000000000000000 ) ) ;
#1056 = DATE_AND_TIME ( #1049, #972 ) ;
#1057 = EDGE_CURVE ( 'NONE', #726, #943, #1028, .T. ) ;
#1058 = ORIENTED_EDGE ( 'NONE', *, *, #464, .F. ) ;
#1059 = CARTESIAN_POINT ( 'NONE',  ( -5.299999999999999822, 0.000000000000000000, -6.250000000000000000 ) ) ;
#1060 = CARTESIAN_POINT ( 'NONE',  ( -5.500000000000000000, 9.674709713264090115E-16, 7.799999999999999822 ) ) ;
#1061 = CARTESIAN_POINT ( 'NONE',  ( 5.500000000000000000, 0.000000000000000000, 4.049999999999999822 ) ) ;
#1062 = DATE_AND_TIME ( #108, #762 ) ;
#1063 = ORIENTED_EDGE ( 'NONE', *, *, #1009, .F. ) ;
#1064 = CARTESIAN_POINT ( 'NONE',  ( -5.000000000000000000, 7.654042494670957606E-16, 6.250000000000000000 ) ) ;
#1065 = CARTESIAN_POINT ( 'NONE',  ( 5.299999999999999822, 5.204748896376250699E-16, 4.250000000000000000 ) ) ;
#1066 = ADVANCED_FACE ( 'NONE', ( #139 ), #755, .T. ) ;
#1067 = AXIS2_PLACEMENT_3D ( 'NONE', #832, #641, #543 ) ;
#1068 = AXIS2_PLACEMENT_3D ( 'NONE', #1011, #1206, #237 ) ;
#1069 = CARTESIAN_POINT ( 'NONE',  ( 0.000000000000000000, 5.204748896376250699E-16, 4.250000000000000000 ) ) ;
#1070 = EDGE_LOOP ( 'NONE', ( #696, #109, #331, #218 ) ) ;
#1071 = CARTESIAN_POINT ( 'NONE',  ( 5.500000000000000000, 0.000000000000000000, 0.000000000000000000 ) ) ;
#1072 = VECTOR ( 'NONE', #1175, 1000.000000000000000 ) ;
#1073 = LINE ( 'NONE', #213, #714 ) ;
#1074 = SECURITY_CLASSIFICATION ( '', '', #694 ) ;
#1075 = EDGE_CURVE ( 'NONE', #395, #1021, #622, .T. ) ;
#1076 = DIRECTION ( 'NONE',  ( -1.000000000000000000, 0.000000000000000000, 0.000000000000000000 ) ) ;
#1077 = EDGE_LOOP ( 'NONE', ( #688, #193 ) ) ;
#1078 = DIRECTION ( 'NONE',  ( 1.000000000000000000, 0.000000000000000000, 0.000000000000000000 ) ) ;
#1079 = CARTESIAN_POINT ( 'NONE',  ( 5.299999999999999822, 0.000000000000000000, 0.000000000000000000 ) ) ;
#1080 = CC_DESIGN_PERSON_AND_ORGANIZATION_ASSIGNMENT ( #975, #217, ( #542 ) ) ;
#1081 = FACE_BOUND ( 'NONE', #1077, .T. ) ;
#1082 = EDGE_CURVE ( 'NONE', #77, #596, #206, .T. ) ;
#1083 = CIRCLE ( 'NONE', #265, 9.875000000000000000 ) ;
#1084 = ORIENTED_EDGE ( 'NONE', *, *, #850, .F. ) ;
#1085 = CARTESIAN_POINT ( 'NONE',  ( 5.299999999999999822, 0.000000000000000000, -4.250000000000000000 ) ) ;
#1086 = CARTESIAN_POINT ( 'NONE',  ( 5.100000000000000533, 0.000000000000000000, 0.000000000000000000 ) ) ;
#1087 = AXIS2_PLACEMENT_3D ( 'NONE', #880, #415, #590 ) ;
#1088 = DIRECTION ( 'NONE',  ( 0.000000000000000000, 1.000000000000000000, 0.000000000000000000 ) ) ;
#1089 = CONICAL_SURFACE ( 'NONE', #558, 4.250000000000000000, 0.7853981633974532750 ) ;
#1090 = EDGE_CURVE ( 'NONE', #795, #855, #1181, .T. ) ;
#1091 = ORIENTED_EDGE ( 'NONE', *, *, #801, .T. ) ;
#1092 = DIRECTION ( 'NONE',  ( 0.000000000000000000, 0.000000000000000000, -1.000000000000000000 ) ) ;
#1093 = DIRECTION ( 'NONE',  ( 1.000000000000000000, 0.000000000000000000, 0.000000000000000000 ) ) ;
#1094 = CIRCLE ( 'NONE', #398, 4.250000000000000000 ) ;
#1095 = DIRECTION ( 'NONE',  ( 0.000000000000000000, 0.000000000000000000, -1.000000000000000000 ) ) ;
#1096 = EDGE_LOOP ( 'NONE', ( #173, #945, #993, #485 ) ) ;
#1097 = LINE ( 'NONE', #644, #833 ) ;
#1098 = DIRECTION ( 'NONE',  ( 1.000000000000000000, 0.000000000000000000, 0.000000000000000000 ) ) ;
#1099 = CARTESIAN_POINT ( 'NONE',  ( -5.299999999999999822, 0.000000000000000000, -4.250000000000000000 ) ) ;
#1100 = EDGE_LOOP ( 'NONE', ( #728, #1052, #822, #1015 ) ) ;
#1101 = FACE_OUTER_BOUND ( 'NONE', #1143, .T. ) ;
#1102 = FACE_BOUND ( 'NONE', #1113, .T. ) ;
#1103 = ADVANCED_FACE ( 'NONE', ( #443 ), #823, .T. ) ;
#1104 = DIRECTION ( 'NONE',  ( 0.000000000000000000, 0.000000000000000000, -1.000000000000000000 ) ) ;
#1105 = PRODUCT_DEFINITION_SHAPE ( 'NONE', 'NONE',  #328 ) ;
#1106 = EDGE_LOOP ( 'NONE', ( #830, #211, #561, #588 ) ) ;
#1107 = CARTESIAN_POINT ( 'NONE',  ( -5.100000000000000533, 0.000000000000000000, -9.875000000000000000 ) ) ;
#1108 = VECTOR ( 'NONE', #792, 1000.000000000000000 ) ;
#1109 = CARTESIAN_POINT ( 'NONE',  ( 5.500000000000000000, 0.000000000000000000, 0.000000000000000000 ) ) ;
#1110 = EDGE_CURVE ( 'NONE', #1003, #89, #1137, .T. ) ;
#1111 = CIRCLE ( 'NONE', #189, 7.799999999999999822 ) ;
#1112 = DIRECTION ( 'NONE',  ( -1.000000000000000000, 0.000000000000000000, 0.000000000000000000 ) ) ;
#1113 = EDGE_LOOP ( 'NONE', ( #532, #1025 ) ) ;
#1114 = DIRECTION ( 'NONE',  ( 0.000000000000000000, 0.000000000000000000, -1.000000000000000000 ) ) ;
#1115 = CARTESIAN_POINT ( 'NONE',  ( 5.000000000000000000, 0.000000000000000000, -6.250000000000000000 ) ) ;
#1116 = CARTESIAN_POINT ( 'NONE',  ( -5.500000000000000000, 0.000000000000000000, 6.450000000000000178 ) ) ;
#1117 = EDGE_LOOP ( 'NONE', ( #658, #1211, #664, #757 ) ) ;
#1118 = DIRECTION ( 'NONE',  ( 0.000000000000000000, 0.000000000000000000, 1.000000000000000000 ) ) ;
#1119 = EDGE_CURVE ( 'NONE', #1003, #952, #1195, .T. ) ;
#1120 = EDGE_LOOP ( 'NONE', ( #933, #883, #1048, #683 ) ) ;
#1121 = FACE_OUTER_BOUND ( 'NONE', #899, .T. ) ;
#1122 = DIRECTION ( 'NONE',  ( 0.000000000000000000, 0.000000000000000000, 1.000000000000000000 ) ) ;
#1123 = ORIENTED_EDGE ( 'NONE', *, *, #1125, .T. ) ;
#1124 = CIRCLE ( 'NONE', #334, 6.250000000000000000 ) ;
#1125 = EDGE_CURVE ( 'NONE', #1041, #159, #741, .T. ) ;
#1126 = ORIENTED_EDGE ( 'NONE', *, *, #406, .F. ) ;
#1127 = DIRECTION ( 'NONE',  ( -1.000000000000000000, 0.000000000000000000, 0.000000000000000000 ) ) ;
#1128 = AXIS2_PLACEMENT_3D ( 'NONE', #232, #627, #60 ) ;
#1129 = AXIS2_PLACEMENT_3D ( 'NONE', #349, #911, #547 ) ;
#1130 = DIRECTION ( 'NONE',  ( 0.000000000000000000, 0.000000000000000000, 1.000000000000000000 ) ) ;
#1131 = EDGE_LOOP ( 'NONE', ( #1205, #915, #522, #527 ) ) ;
#1132 = CARTESIAN_POINT ( 'NONE',  ( 2.774999999999999911, 0.000000000000000000, 12.20000000000000107 ) ) ;
#1133 = VERTEX_POINT ( 'NONE', #39 ) ;
#1134 = DIRECTION ( 'NONE',  ( 0.000000000000000000, 0.000000000000000000, -1.000000000000000000 ) ) ;
#1135 = ORIENTED_EDGE ( 'NONE', *, *, #114, .F. ) ;
#1136 = APPLICATION_PROTOCOL_DEFINITION ( 'international standard', 'config_control_design', 1994, #297 ) ;
#1137 = CIRCLE ( 'NONE', #867, 7.799999999999999822 ) ;
#1138 = ORIENTED_EDGE ( 'NONE', *, *, #45, .F. ) ;
#1139 = FACE_OUTER_BOUND ( 'NONE', #263, .T. ) ;
#1140 = EDGE_CURVE ( 'NONE', #1133, #660, #769, .T. ) ;
#1141 = DIRECTION ( 'NONE',  ( 1.000000000000000000, 0.000000000000000000, 0.000000000000000000 ) ) ;
#1142 = APPROVAL_STATUS ( 'not_yet_approved' ) ;
#1143 = EDGE_LOOP ( 'NONE', ( #200, #3, #826, #285 ) ) ;
#1144 = CARTESIAN_POINT ( 'NONE',  ( 0.000000000000000000, 0.000000000000000000, 0.000000000000000000 ) ) ;
#1145 = AXIS2_PLACEMENT_3D ( 'NONE', #1174, #498, #735 ) ;
#1146 = VECTOR ( 'NONE', #934, 1000.000000000000000 ) ;
#1147 = ADVANCED_FACE ( 'NONE', ( #838 ), #770, .F. ) ;
#1148 = CARTESIAN_POINT ( 'NONE',  ( -5.299999999999999822, 0.000000000000000000, 0.000000000000000000 ) ) ;
#1149 = PERSON_AND_ORGANIZATION ( #238, #1192 ) ;
#1150 = AXIS2_PLACEMENT_3D ( 'NONE', #771, #288, #702 ) ;
#1151 = VERTEX_POINT ( 'NONE', #844 ) ;
#1152 = LINE ( 'NONE', #982, #31 ) ;
#1153 = CARTESIAN_POINT ( 'NONE',  ( -5.100000000000000533, 1.351703904558891209E-15, 9.875000000000000000 ) ) ;
#1154 = CARTESIAN_POINT ( 'NONE',  ( 5.299999999999999822, 3.061616997868383141E-16, 2.500000000000000000 ) ) ;
#1155 = PERSON_AND_ORGANIZATION ( #238, #1192 ) ;
#1156 = EDGE_CURVE ( 'NONE', #120, #939, #264, .T. ) ;
#1157 = ORIENTED_EDGE ( 'NONE', *, *, #182, .T. ) ;
#1158 = LINE ( 'NONE', #421, #91 ) ;
#1159 = DIRECTION ( 'NONE',  ( -1.000000000000000000, 0.000000000000000000, 0.000000000000000000 ) ) ;
#1160 = ORIENTED_EDGE ( 'NONE', *, *, #484, .F. ) ;
#1161 = ORIENTED_EDGE ( 'NONE', *, *, #262, .F. ) ;
#1162 = CARTESIAN_POINT ( 'NONE',  ( -5.100000000000000533, 9.797174393178825657E-16, -8.000000000000000000 ) ) ;
#1163 = EDGE_CURVE ( 'NONE', #1222, #952, #220, .T. ) ;
#1164 = DIRECTION ( 'NONE',  ( -1.000000000000000000, 0.000000000000000000, 0.000000000000000000 ) ) ;
#1165 = CIRCLE ( 'NONE', #633, 4.250000000000000000 ) ;
#1166 = AXIS2_PLACEMENT_3D ( 'NONE', #724, #1098, #440 ) ;
#1167 = AXIS2_PLACEMENT_3D ( 'NONE', #1189, #156, #332 ) ;
#1168 = CARTESIAN_POINT ( 'NONE',  ( 5.000000000000000000, 0.000000000000000000, 0.000000000000000000 ) ) ;
#1169 = VERTEX_POINT ( 'NONE', #1132 ) ;
#1170 = DIRECTION ( 'NONE',  ( 0.000000000000000000, 0.000000000000000000, -1.000000000000000000 ) ) ;
#1171 = CIRCLE ( 'NONE', #499, 7.799999999999999822 ) ;
#1172 = CONICAL_SURFACE ( 'NONE', #802, 2.700000000000000178, 0.7853981633974419507 ) ;
#1173 = APPROVAL ( #1142, 'UNSPECIFIED' ) ;
#1174 = CARTESIAN_POINT ( 'NONE',  ( -5.299999999999999822, 0.000000000000000000, 0.000000000000000000 ) ) ;
#1175 = DIRECTION ( 'NONE',  ( -0.7071067811865470176, 0.000000000000000000, 0.7071067811865480168 ) ) ;
#1176 = EDGE_LOOP ( 'NONE', ( #304, #1160 ) ) ;
#1177 = CARTESIAN_POINT ( 'NONE',  ( -5.500000000000000000, 0.000000000000000000, 0.000000000000000000 ) ) ;
#1178 = CARTESIAN_POINT ( 'NONE',  ( 5.500000000000000000, 0.000000000000000000, 0.000000000000000000 ) ) ;
#1179 = EDGE_CURVE ( 'NONE', #726, #620, #651, .T. ) ;
#1180 = FACE_BOUND ( 'NONE', #607, .T. ) ;
#1181 = CIRCLE ( 'NONE', #959, 6.250000000000000000 ) ;
#1182 = ORIENTED_EDGE ( 'NONE', *, *, #887, .T. ) ;
#1183 = CARTESIAN_POINT ( 'NONE',  ( -5.299999999999999822, 0.000000000000000000, 0.000000000000000000 ) ) ;
#1184 = CARTESIAN_POINT ( 'NONE',  ( 5.299999999999999822, 0.000000000000000000, 0.000000000000000000 ) ) ;
#1185 = DIRECTION ( 'NONE',  ( -0.7071067811865520136, 8.659560562354878624E-17, -0.7071067811865431318 ) ) ;
#1186 = AXIS2_PLACEMENT_3D ( 'NONE', #293, #846, #1045 ) ;
#1187 = VECTOR ( 'NONE', #573, 1000.000000000000000 ) ;
#1188 = ORIENTED_EDGE ( 'NONE', *, *, #525, .F. ) ;
#1189 = CARTESIAN_POINT ( 'NONE',  ( -5.299999999999999822, 0.000000000000000000, 0.000000000000000000 ) ) ;
#1190 = DIRECTION ( 'NONE',  ( -1.000000000000000000, 0.000000000000000000, 0.000000000000000000 ) ) ;
#1191 = AXIS2_PLACEMENT_3D ( 'NONE', #602, #619, #1104 ) ;
#1192 = ORGANIZATION ( 'UNSPECIFIED', 'UNSPECIFIED', '' ) ;
#1193 = PLANE ( 'NONE',  #276 ) ;
#1194 = VERTEX_POINT ( 'NONE', #467 ) ;
#1195 = LINE ( 'NONE', #251, #649 ) ;
#1196 = ADVANCED_FACE ( 'NONE', ( #179 ), #1221, .F. ) ;
#1197 = DIRECTION ( 'NONE',  ( 0.000000000000000000, 0.000000000000000000, 1.000000000000000000 ) ) ;
#1198 = LINE ( 'NONE', #441, #562 ) ;
#1199 = ORIENTED_EDGE ( 'NONE', *, *, #330, .F. ) ;
#1200 = CARTESIAN_POINT ( 'NONE',  ( 0.000000000000000000, 0.000000000000000000, 0.000000000000000000 ) ) ;
#1201 = FACE_OUTER_BOUND ( 'NONE', #579, .T. ) ;
#1202 = CC_DESIGN_PERSON_AND_ORGANIZATION_ASSIGNMENT ( #474, #950, ( #471 ) ) ;
#1203 = PLANE ( 'NONE',  #419 ) ;
#1204 = AXIS2_PLACEMENT_3D ( 'NONE', #1184, #634, #913 ) ;
#1205 = ORIENTED_EDGE ( 'NONE', *, *, #450, .T. ) ;
#1206 = DIRECTION ( 'NONE',  ( -1.000000000000000000, 0.000000000000000000, 0.000000000000000000 ) ) ;
#1207 = FACE_OUTER_BOUND ( 'NONE', #73, .T. ) ;
#1208 = EDGE_CURVE ( 'NONE', #631, #952, #751, .T. ) ;
#1209 = CARTESIAN_POINT ( 'NONE',  ( -5.000000000000000000, 0.000000000000000000, 0.000000000000000000 ) ) ;
#1210 = ORIENTED_EDGE ( 'NONE', *, *, #75, .F. ) ;
#1211 = ORIENTED_EDGE ( 'NONE', *, *, #613, .T. ) ;
#1212 = LINE ( 'NONE', #1026, #1146 ) ;
#1213 = DIRECTION ( 'NONE',  ( 0.000000000000000000, 0.000000000000000000, -1.000000000000000000 ) ) ;
#1214 = EDGE_CURVE ( 'NONE', #301, #1041, #1083, .T. ) ;
#1215 = EDGE_LOOP ( 'NONE', ( #949, #539 ) ) ;
#1216 = DIRECTION ( 'NONE',  ( 0.000000000000000000, 0.000000000000000000, -1.000000000000000000 ) ) ;
#1217 = EDGE_LOOP ( 'NONE', ( #570, #168, #638, #162 ) ) ;
#1218 = CARTESIAN_POINT ( 'NONE',  ( 5.500000000000000000, 0.000000000000000000, 4.049999999999999822 ) ) ;
#1219 = DIRECTION ( 'NONE',  ( -1.000000000000000000, 0.000000000000000000, 0.000000000000000000 ) ) ;
#1220 = ORIENTED_EDGE ( 'NONE', *, *, #1057, .T. ) ;
#1221 = CYLINDRICAL_SURFACE ( 'NONE', #608, 6.250000000000000000 ) ;
#1222 = VERTEX_POINT ( 'NONE', #849 ) ;
#1223 = DIRECTION ( 'NONE',  ( 0.000000000000000000, 0.000000000000000000, 1.000000000000000000 ) ) ;
#1224 = VECTOR ( 'NONE', #1036, 1000.000000000000114 ) ;
#1225 = CIRCLE ( 'NONE', #581, 4.250000000000000000 ) ;
#1226 = AXIS2_PLACEMENT_3D ( 'NONE', #1034, #758, #1228 ) ;
#1227 = EDGE_LOOP ( 'NONE', ( #402, #52, #362, #363 ) ) ;
#1228 = DIRECTION ( 'NONE',  ( 0.000000000000000000, 0.000000000000000000, 1.000000000000000000 ) ) ;
#1229 = ORIENTED_EDGE ( 'NONE', *, *, #170, .F. ) ;
#1230 = CARTESIAN_POINT ( 'NONE',  ( -5.000000000000000000, 0.000000000000000000, -6.250000000000000000 ) ) ;
#1231 = EDGE_CURVE ( 'NONE', #943, #726, #701, .T. ) ;
ENDSEC;
END-ISO-10303-21;
