ISO-10303-21;
HEADER;
FILE_DESCRIPTION (( 'STEP AP203' ),
    '1' );
FILE_NAME ('VWheelSpacer.step',
    '2026-08-22T11:39:04',
    ( '' ),
    ( '' ),
    'SwSTEP 2.0',
    'SolidWorks 2026',
    '' );
FILE_SCHEMA (( 'CONFIG_CONTROL_DESIGN' ));
ENDSEC;

DATA;
#1 = LOCAL_TIME ( 12, 39, 4.000000000000000000, #119 ) ;
#2 = APPROVAL_STATUS ( 'not_yet_approved' ) ;
#3 = PERSON_AND_ORGANIZATION ( #81, #231 ) ;
#4 = CIRCLE ( 'NONE', #124, 2.649999999999999911 ) ;
#5 = APPROVAL ( #2, 'UNSPECIFIED' ) ;
#6 = DIRECTION ( 'NONE',  ( 0.000000000000000000, 0.000000000000000000, -1.000000000000000000 ) ) ;
#7 = ORIENTED_EDGE ( 'NONE', *, *, #158, .T. ) ;
#8 = EDGE_LOOP ( 'NONE', ( #166, #28 ) ) ;
#9 = CARTESIAN_POINT ( 'NONE',  ( 0.000000000000000000, 0.000000000000000000, 0.000000000000000000 ) ) ;
#10 = CARTESIAN_POINT ( 'NONE',  ( 0.000000000000000000, 5.000000000000000000, 0.000000000000000000 ) ) ;
#11 = CARTESIAN_POINT ( 'NONE',  ( 0.000000000000000000, 5.000000000000000000, -2.649999999999999911 ) ) ;
#12 = EDGE_CURVE ( 'NONE', #225, #99, #17, .T. ) ;
#13 = DIRECTION ( 'NONE',  ( -0.000000000000000000, -1.000000000000000000, -0.000000000000000000 ) ) ;
#14 = PRODUCT_DEFINITION_FORMATION_WITH_SPECIFIED_SOURCE ( 'ANY', '', #69, .NOT_KNOWN. ) ;
#15 = DIRECTION ( 'NONE',  ( -0.000000000000000000, -1.000000000000000000, -0.000000000000000000 ) ) ;
#16 = LINE ( 'NONE', #73, #226 ) ;
#17 = CIRCLE ( 'NONE', #39, 3.300000000000000266 ) ;
#18 = APPROVAL_DATE_TIME ( #24, #130 ) ;
#19 = ADVANCED_FACE ( 'NONE', ( #30, #191 ), #107, .T. ) ;
#20 = DATE_AND_TIME ( #62, #125 ) ;
#21 = ORIENTED_EDGE ( 'NONE', *, *, #158, .F. ) ;
#22 = CALENDAR_DATE ( 2026, 22, 8 ) ;
#23 = ORIENTED_EDGE ( 'NONE', *, *, #102, .T. ) ;
#24 = DATE_AND_TIME ( #139, #194 ) ;
#25 = CLOSED_SHELL ( 'NONE', ( #149, #64, #19, #246, #219, #212 ) ) ;
#26 = VECTOR ( 'NONE', #175, 1000.000000000000000 ) ;
#27 = ORIENTED_EDGE ( 'NONE', *, *, #236, .T. ) ;
#28 = ORIENTED_EDGE ( 'NONE', *, *, #205, .T. ) ;
#29 = ORIENTED_EDGE ( 'NONE', *, *, #156, .F. ) ;
#30 = FACE_OUTER_BOUND ( 'NONE', #8, .T. ) ;
#31 = EDGE_CURVE ( 'NONE', #183, #184, #82, .T. ) ;
#32 = EDGE_LOOP ( 'NONE', ( #87, #23, #208, #29 ) ) ;
#33 = CYLINDRICAL_SURFACE ( 'NONE', #150, 2.649999999999999911 ) ;
#34 = DESIGN_CONTEXT ( 'detailed design', #44, 'design' ) ;
#35 = AXIS2_PLACEMENT_3D ( 'NONE', #193, #13, #94 ) ;
#36 = DIRECTION ( 'NONE',  ( 0.000000000000000000, 0.000000000000000000, -1.000000000000000000 ) ) ;
#37 = FACE_OUTER_BOUND ( 'NONE', #105, .T. ) ;
#38 = APPROVAL_STATUS ( 'not_yet_approved' ) ;
#39 = AXIS2_PLACEMENT_3D ( 'NONE', #83, #108, #222 ) ;
#40 = DATE_AND_TIME ( #233, #232 ) ;
#41 = CC_DESIGN_PERSON_AND_ORGANIZATION_ASSIGNMENT ( #98, #136, ( #14 ) ) ;
#42 = PERSON_AND_ORGANIZATION ( #81, #231 ) ;
#43 = APPLICATION_PROTOCOL_DEFINITION ( 'international standard', 'config_control_design', 1994, #44 ) ;
#44 = APPLICATION_CONTEXT ( 'configuration controlled 3d designs of mechanical parts and assemblies' ) ;
#45 = ORIENTED_EDGE ( 'NONE', *, *, #180, .T. ) ;
#46 = APPROVAL_PERSON_ORGANIZATION ( #59, #130, #200 ) ;
#47 = CARTESIAN_POINT ( 'NONE',  ( 0.000000000000000000, 0.000000000000000000, -2.649999999999999911 ) ) ;
#48 = ORIENTED_EDGE ( 'NONE', *, *, #12, .F. ) ;
#49 = CC_DESIGN_SECURITY_CLASSIFICATION ( #160, ( #14 ) ) ;
#50 = DIRECTION ( 'NONE',  ( 0.000000000000000000, 1.000000000000000000, 0.000000000000000000 ) ) ;
#51 = CIRCLE ( 'NONE', #244, 2.649999999999999911 ) ;
#52 = EDGE_LOOP ( 'NONE', ( #21, #163 ) ) ;
#53 = CC_DESIGN_DATE_AND_TIME_ASSIGNMENT ( #201, #95, ( #160 ) ) ;
#54 =( NAMED_UNIT ( * ) PLANE_ANGLE_UNIT ( ) SI_UNIT ( $, .RADIAN. ) );
#55 = DIRECTION ( 'NONE',  ( 0.000000000000000000, 0.000000000000000000, 1.000000000000000000 ) ) ;
#56 = CARTESIAN_POINT ( 'NONE',  ( 4.041334437186266003E-16, 0.000000000000000000, 3.300000000000000266 ) ) ;
#57 = FACE_BOUND ( 'NONE', #207, .T. ) ;
#58 = CC_DESIGN_DATE_AND_TIME_ASSIGNMENT ( #198, #100, ( #171 ) ) ;
#59 = PERSON_AND_ORGANIZATION ( #81, #231 ) ;
#60 = SHAPE_DEFINITION_REPRESENTATION ( #157, #153 ) ;
#61 = EDGE_LOOP ( 'NONE', ( #170, #162 ) ) ;
#62 = CALENDAR_DATE ( 2026, 22, 8 ) ;
#63 = CARTESIAN_POINT ( 'NONE',  ( 0.000000000000000000, 0.000000000000000000, 0.000000000000000000 ) ) ;
#64 = ADVANCED_FACE ( 'NONE', ( #143 ), #169, .T. ) ;
#65 = DIRECTION ( 'NONE',  ( 0.000000000000000000, 1.000000000000000000, 0.000000000000000000 ) ) ;
#66 = CARTESIAN_POINT ( 'NONE',  ( 4.041334437186266003E-16, 5.000000000000000000, 3.300000000000000266 ) ) ;
#67 = VERTEX_POINT ( 'NONE', #47 ) ;
#68 = ORIENTED_EDGE ( 'NONE', *, *, #156, .T. ) ;
#69 = PRODUCT ( 'VWheelSpacer', 'VWheelSpacer', '', ( #134 ) ) ;
#70 = AXIS2_PLACEMENT_3D ( 'NONE', #9, #129, #147 ) ;
#71 = CARTESIAN_POINT ( 'NONE',  ( 0.000000000000000000, 5.000000000000000000, -2.649999999999999911 ) ) ;
#72 = CIRCLE ( 'NONE', #174, 2.649999999999999911 ) ;
#73 = CARTESIAN_POINT ( 'NONE',  ( 0.000000000000000000, 5.000000000000000000, -3.300000000000000266 ) ) ;
#74 = CARTESIAN_POINT ( 'NONE',  ( 0.000000000000000000, 5.000000000000000000, -3.300000000000000266 ) ) ;
#75 = DIRECTION ( 'NONE',  ( -0.000000000000000000, -1.000000000000000000, -0.000000000000000000 ) ) ;
#76 = APPROVAL ( #38, 'UNSPECIFIED' ) ;
#77 = COORDINATED_UNIVERSAL_TIME_OFFSET ( 0, 0, .AHEAD. ) ;
#78 = CC_DESIGN_APPROVAL ( #130, ( #14 ) ) ;
#79 = PERSON_AND_ORGANIZATION_ROLE ( 'creator' ) ;
#80 = APPROVAL_DATE_TIME ( #40, #5 ) ;
#81 = PERSON ( 'UNSPECIFIED', 'UNSPECIFIED', 'UNSPECIFIED', ('UNSPECIFIED'), ('UNSPECIFIED'), ('UNSPECIFIED') ) ;
#82 = CIRCLE ( 'NONE', #70, 3.300000000000000266 ) ;
#83 = CARTESIAN_POINT ( 'NONE',  ( 0.000000000000000000, 5.000000000000000000, 0.000000000000000000 ) ) ;
#84 = CC_DESIGN_PERSON_AND_ORGANIZATION_ASSIGNMENT ( #42, #182, ( #14 ) ) ;
#85 = ORIENTED_EDGE ( 'NONE', *, *, #111, .F. ) ;
#86 = ORIENTED_EDGE ( 'NONE', *, *, #111, .T. ) ;
#87 = ORIENTED_EDGE ( 'NONE', *, *, #205, .F. ) ;
#88 = DIRECTION ( 'NONE',  ( -0.000000000000000000, -1.000000000000000000, -0.000000000000000000 ) ) ;
#89 = FACE_OUTER_BOUND ( 'NONE', #52, .T. ) ;
#90 = CIRCLE ( 'NONE', #186, 3.300000000000000266 ) ;
#91 =( GEOMETRIC_REPRESENTATION_CONTEXT ( 3 ) GLOBAL_UNCERTAINTY_ASSIGNED_CONTEXT ( ( #116 ) ) GLOBAL_UNIT_ASSIGNED_CONTEXT ( ( #154, #54, #131 ) ) REPRESENTATION_CONTEXT ( 'NONE', 'WORKASPACE' ) );
#92 = LINE ( 'NONE', #71, #216 ) ;
#93 = CARTESIAN_POINT ( 'NONE',  ( 3.245314017740485962E-16, 5.000000000000000000, 2.649999999999999911 ) ) ;
#94 = DIRECTION ( 'NONE',  ( 0.000000000000000000, 0.000000000000000000, -1.000000000000000000 ) ) ;
#95 = DATE_TIME_ROLE ( 'classification_date' ) ;
#96 = COORDINATED_UNIVERSAL_TIME_OFFSET ( 0, 0, .AHEAD. ) ;
#97 = COORDINATED_UNIVERSAL_TIME_OFFSET ( 0, 0, .AHEAD. ) ;
#98 = PERSON_AND_ORGANIZATION ( #81, #231 ) ;
#99 = VERTEX_POINT ( 'NONE', #239 ) ;
#100 = DATE_TIME_ROLE ( 'creation_date' ) ;
#101 = LOCAL_TIME ( 12, 39, 4.000000000000000000, #77 ) ;
#102 = EDGE_CURVE ( 'NONE', #99, #183, #165, .T. ) ;
#103 = VECTOR ( 'NONE', #146, 1000.000000000000000 ) ;
#104 = AXIS2_PLACEMENT_3D ( 'NONE', #133, #213, #197 ) ;
#105 = EDGE_LOOP ( 'NONE', ( #106, #27, #185, #85 ) ) ;
#106 = ORIENTED_EDGE ( 'NONE', *, *, #180, .F. ) ;
#107 = PLANE ( 'NONE',  #118 ) ;
#108 = DIRECTION ( 'NONE',  ( 0.000000000000000000, 1.000000000000000000, 0.000000000000000000 ) ) ;
#109 = DIRECTION ( 'NONE',  ( 0.000000000000000000, 1.000000000000000000, 0.000000000000000000 ) ) ;
#110 = DIRECTION ( 'NONE',  ( 0.000000000000000000, 1.000000000000000000, 0.000000000000000000 ) ) ;
#111 = EDGE_CURVE ( 'NONE', #127, #67, #164, .T. ) ;
#112 = DIRECTION ( 'NONE',  ( 0.000000000000000000, 0.000000000000000000, 1.000000000000000000 ) ) ;
#113 = CC_DESIGN_APPROVAL ( #76, ( #171 ) ) ;
#114 = DIRECTION ( 'NONE',  ( -0.000000000000000000, -1.000000000000000000, -0.000000000000000000 ) ) ;
#115 = DIRECTION ( 'NONE',  ( 0.000000000000000000, -0.000000000000000000, 1.000000000000000000 ) ) ;
#116 = UNCERTAINTY_MEASURE_WITH_UNIT (LENGTH_MEASURE( 1.000000000000000082E-05 ), #154, 'distance_accuracy_value', 'NONE');
#117 = CALENDAR_DATE ( 2026, 22, 8 ) ;
#118 = AXIS2_PLACEMENT_3D ( 'NONE', #10, #168, #238 ) ;
#119 = COORDINATED_UNIVERSAL_TIME_OFFSET ( 0, 0, .AHEAD. ) ;
#120 = PERSON_AND_ORGANIZATION_ROLE ( 'classification_officer' ) ;
#121 = EDGE_CURVE ( 'NONE', #67, #127, #51, .T. ) ;
#122 = EDGE_CURVE ( 'NONE', #209, #188, #4, .T. ) ;
#123 = DIRECTION ( 'NONE',  ( 0.000000000000000000, 0.000000000000000000, 1.000000000000000000 ) ) ;
#124 = AXIS2_PLACEMENT_3D ( 'NONE', #203, #65, #144 ) ;
#125 = LOCAL_TIME ( 12, 39, 4.000000000000000000, #141 ) ;
#126 = FACE_OUTER_BOUND ( 'NONE', #148, .T. ) ;
#127 = VERTEX_POINT ( 'NONE', #221 ) ;
#128 = DIRECTION ( 'NONE',  ( 0.000000000000000000, 0.000000000000000000, 1.000000000000000000 ) ) ;
#129 = DIRECTION ( 'NONE',  ( 0.000000000000000000, 1.000000000000000000, 0.000000000000000000 ) ) ;
#130 = APPROVAL ( #159, 'UNSPECIFIED' ) ;
#131 =( NAMED_UNIT ( * ) SI_UNIT ( $, .STERADIAN. ) SOLID_ANGLE_UNIT ( ) );
#132 = CC_DESIGN_PERSON_AND_ORGANIZATION_ASSIGNMENT ( #235, #120, ( #160 ) ) ;
#133 = CARTESIAN_POINT ( 'NONE',  ( 0.000000000000000000, 0.000000000000000000, 0.000000000000000000 ) ) ;
#134 = MECHANICAL_CONTEXT ( 'NONE', #179, 'mechanical' ) ;
#135 = CARTESIAN_POINT ( 'NONE',  ( 0.000000000000000000, 0.000000000000000000, -3.300000000000000266 ) ) ;
#136 = PERSON_AND_ORGANIZATION_ROLE ( 'design_supplier' ) ;
#137 = AXIS2_PLACEMENT_3D ( 'NONE', #177, #152, #172 ) ;
#138 = AXIS2_PLACEMENT_3D ( 'NONE', #192, #227, #115 ) ;
#139 = CALENDAR_DATE ( 2026, 22, 8 ) ;
#140 = ORIENTED_EDGE ( 'NONE', *, *, #102, .F. ) ;
#141 = COORDINATED_UNIVERSAL_TIME_OFFSET ( 0, 0, .AHEAD. ) ;
#142 = PERSON_AND_ORGANIZATION ( #81, #231 ) ;
#143 = FACE_OUTER_BOUND ( 'NONE', #32, .T. ) ;
#144 = DIRECTION ( 'NONE',  ( 0.000000000000000000, 0.000000000000000000, 1.000000000000000000 ) ) ;
#145 = CIRCLE ( 'NONE', #187, 3.300000000000000266 ) ;
#146 = DIRECTION ( 'NONE',  ( -0.000000000000000000, -1.000000000000000000, -0.000000000000000000 ) ) ;
#147 = DIRECTION ( 'NONE',  ( 0.000000000000000000, 0.000000000000000000, 1.000000000000000000 ) ) ;
#148 = EDGE_LOOP ( 'NONE', ( #242, #45, #190, #189 ) ) ;
#149 = ADVANCED_FACE ( 'NONE', ( #126 ), #206, .F. ) ;
#150 = AXIS2_PLACEMENT_3D ( 'NONE', #247, #75, #36 ) ;
#151 = PLANE ( 'NONE',  #138 ) ;
#152 = DIRECTION ( 'NONE',  ( -0.000000000000000000, -1.000000000000000000, -0.000000000000000000 ) ) ;
#153 = ADVANCED_BREP_SHAPE_REPRESENTATION ( 'VWheelSpacer', ( #224, #104 ), #91 ) ;
#154 =( LENGTH_UNIT ( ) NAMED_UNIT ( * ) SI_UNIT ( .MILLI., .METRE. ) );
#155 = CARTESIAN_POINT ( 'NONE',  ( 0.000000000000000000, 5.000000000000000000, 0.000000000000000000 ) ) ;
#156 = EDGE_CURVE ( 'NONE', #225, #184, #16, .T. ) ;
#157 = PRODUCT_DEFINITION_SHAPE ( 'NONE', 'NONE',  #171 ) ;
#158 = EDGE_CURVE ( 'NONE', #184, #183, #90, .T. ) ;
#159 = APPROVAL_STATUS ( 'not_yet_approved' ) ;
#160 = SECURITY_CLASSIFICATION ( '', '', #217 ) ;
#161 = APPROVAL_ROLE ( '' ) ;
#162 = ORIENTED_EDGE ( 'NONE', *, *, #236, .F. ) ;
#163 = ORIENTED_EDGE ( 'NONE', *, *, #31, .F. ) ;
#164 = CIRCLE ( 'NONE', #204, 2.649999999999999911 ) ;
#165 = LINE ( 'NONE', #66, #103 ) ;
#166 = ORIENTED_EDGE ( 'NONE', *, *, #12, .T. ) ;
#167 = EDGE_CURVE ( 'NONE', #209, #67, #92, .T. ) ;
#168 = DIRECTION ( 'NONE',  ( 0.000000000000000000, 1.000000000000000000, 0.000000000000000000 ) ) ;
#169 = CYLINDRICAL_SURFACE ( 'NONE', #173, 3.300000000000000266 ) ;
#170 = ORIENTED_EDGE ( 'NONE', *, *, #122, .F. ) ;
#171 = PRODUCT_DEFINITION ( 'UNKNOWN', '', #14, #34 ) ;
#172 = DIRECTION ( 'NONE',  ( 0.000000000000000000, 0.000000000000000000, -1.000000000000000000 ) ) ;
#173 = AXIS2_PLACEMENT_3D ( 'NONE', #223, #88, #6 ) ;
#174 = AXIS2_PLACEMENT_3D ( 'NONE', #155, #109, #229 ) ;
#175 = DIRECTION ( 'NONE',  ( -0.000000000000000000, -1.000000000000000000, -0.000000000000000000 ) ) ;
#176 = CYLINDRICAL_SURFACE ( 'NONE', #35, 3.300000000000000266 ) ;
#177 = CARTESIAN_POINT ( 'NONE',  ( 0.000000000000000000, 5.000000000000000000, 0.000000000000000000 ) ) ;
#178 = PERSON_AND_ORGANIZATION ( #81, #231 ) ;
#179 = APPLICATION_CONTEXT ( 'configuration controlled 3d designs of mechanical parts and assemblies' ) ;
#180 = EDGE_CURVE ( 'NONE', #188, #127, #210, .T. ) ;
#181 = PERSON_AND_ORGANIZATION_ROLE ( 'design_owner' ) ;
#182 = PERSON_AND_ORGANIZATION_ROLE ( 'creator' ) ;
#183 = VERTEX_POINT ( 'NONE', #56 ) ;
#184 = VERTEX_POINT ( 'NONE', #135 ) ;
#185 = ORIENTED_EDGE ( 'NONE', *, *, #167, .T. ) ;
#186 = AXIS2_PLACEMENT_3D ( 'NONE', #211, #214, #55 ) ;
#187 = AXIS2_PLACEMENT_3D ( 'NONE', #249, #110, #112 ) ;
#188 = VERTEX_POINT ( 'NONE', #248 ) ;
#189 = ORIENTED_EDGE ( 'NONE', *, *, #167, .F. ) ;
#190 = ORIENTED_EDGE ( 'NONE', *, *, #121, .F. ) ;
#191 = FACE_BOUND ( 'NONE', #61, .T. ) ;
#192 = CARTESIAN_POINT ( 'NONE',  ( 0.000000000000000000, 0.000000000000000000, 0.000000000000000000 ) ) ;
#193 = CARTESIAN_POINT ( 'NONE',  ( 0.000000000000000000, 5.000000000000000000, 0.000000000000000000 ) ) ;
#194 = LOCAL_TIME ( 12, 39, 4.000000000000000000, #96 ) ;
#195 = APPLICATION_PROTOCOL_DEFINITION ( 'international standard', 'config_control_design', 1994, #179 ) ;
#196 = APPROVAL_PERSON_ORGANIZATION ( #3, #5, #161 ) ;
#197 = DIRECTION ( 'NONE',  ( 1.000000000000000000, 0.000000000000000000, 0.000000000000000000 ) ) ;
#198 = DATE_AND_TIME ( #117, #1 ) ;
#199 = CC_DESIGN_PERSON_AND_ORGANIZATION_ASSIGNMENT ( #202, #79, ( #171 ) ) ;
#200 = APPROVAL_ROLE ( '' ) ;
#201 = DATE_AND_TIME ( #22, #101 ) ;
#202 = PERSON_AND_ORGANIZATION ( #81, #231 ) ;
#203 = CARTESIAN_POINT ( 'NONE',  ( 0.000000000000000000, 5.000000000000000000, 0.000000000000000000 ) ) ;
#204 = AXIS2_PLACEMENT_3D ( 'NONE', #63, #50, #128 ) ;
#205 = EDGE_CURVE ( 'NONE', #99, #225, #145, .T. ) ;
#206 = CYLINDRICAL_SURFACE ( 'NONE', #137, 2.649999999999999911 ) ;
#207 = EDGE_LOOP ( 'NONE', ( #240, #86 ) ) ;
#208 = ORIENTED_EDGE ( 'NONE', *, *, #31, .T. ) ;
#209 = VERTEX_POINT ( 'NONE', #11 ) ;
#210 = LINE ( 'NONE', #93, #26 ) ;
#211 = CARTESIAN_POINT ( 'NONE',  ( 0.000000000000000000, 0.000000000000000000, 0.000000000000000000 ) ) ;
#212 = ADVANCED_FACE ( 'NONE', ( #37 ), #33, .F. ) ;
#213 = DIRECTION ( 'NONE',  ( 0.000000000000000000, 0.000000000000000000, 1.000000000000000000 ) ) ;
#214 = DIRECTION ( 'NONE',  ( 0.000000000000000000, 1.000000000000000000, 0.000000000000000000 ) ) ;
#215 = PRODUCT_RELATED_PRODUCT_CATEGORY ( 'detail', '', ( #69 ) ) ;
#216 = VECTOR ( 'NONE', #15, 1000.000000000000000 ) ;
#217 = SECURITY_CLASSIFICATION_LEVEL ( 'unclassified' ) ;
#218 = APPROVAL_DATE_TIME ( #20, #76 ) ;
#219 = ADVANCED_FACE ( 'NONE', ( #243 ), #176, .T. ) ;
#220 = DIRECTION ( 'NONE',  ( 0.000000000000000000, 1.000000000000000000, 0.000000000000000000 ) ) ;
#221 = CARTESIAN_POINT ( 'NONE',  ( 3.245314017740485962E-16, 0.000000000000000000, 2.649999999999999911 ) ) ;
#222 = DIRECTION ( 'NONE',  ( 0.000000000000000000, 0.000000000000000000, 1.000000000000000000 ) ) ;
#223 = CARTESIAN_POINT ( 'NONE',  ( 0.000000000000000000, 5.000000000000000000, 0.000000000000000000 ) ) ;
#224 = MANIFOLD_SOLID_BREP ( 'Boss-Extrude1', #25 ) ;
#225 = VERTEX_POINT ( 'NONE', #74 ) ;
#226 = VECTOR ( 'NONE', #114, 1000.000000000000000 ) ;
#227 = DIRECTION ( 'NONE',  ( 0.000000000000000000, 1.000000000000000000, 0.000000000000000000 ) ) ;
#228 = CC_DESIGN_PERSON_AND_ORGANIZATION_ASSIGNMENT ( #142, #181, ( #69 ) ) ;
#229 = DIRECTION ( 'NONE',  ( 0.000000000000000000, 0.000000000000000000, 1.000000000000000000 ) ) ;
#230 = APPROVAL_ROLE ( '' ) ;
#231 = ORGANIZATION ( 'UNSPECIFIED', 'UNSPECIFIED', '' ) ;
#232 = LOCAL_TIME ( 12, 39, 4.000000000000000000, #97 ) ;
#233 = CALENDAR_DATE ( 2026, 22, 8 ) ;
#234 = EDGE_LOOP ( 'NONE', ( #140, #48, #68, #7 ) ) ;
#235 = PERSON_AND_ORGANIZATION ( #81, #231 ) ;
#236 = EDGE_CURVE ( 'NONE', #188, #209, #72, .T. ) ;
#237 = CARTESIAN_POINT ( 'NONE',  ( 0.000000000000000000, 0.000000000000000000, 0.000000000000000000 ) ) ;
#238 = DIRECTION ( 'NONE',  ( 0.000000000000000000, -0.000000000000000000, 1.000000000000000000 ) ) ;
#239 = CARTESIAN_POINT ( 'NONE',  ( 4.041334437186266003E-16, 5.000000000000000000, 3.300000000000000266 ) ) ;
#240 = ORIENTED_EDGE ( 'NONE', *, *, #121, .T. ) ;
#241 = CC_DESIGN_APPROVAL ( #5, ( #160 ) ) ;
#242 = ORIENTED_EDGE ( 'NONE', *, *, #122, .T. ) ;
#243 = FACE_OUTER_BOUND ( 'NONE', #234, .T. ) ;
#244 = AXIS2_PLACEMENT_3D ( 'NONE', #237, #220, #123 ) ;
#245 = APPROVAL_PERSON_ORGANIZATION ( #178, #76, #230 ) ;
#246 = ADVANCED_FACE ( 'NONE', ( #89, #57 ), #151, .F. ) ;
#247 = CARTESIAN_POINT ( 'NONE',  ( 0.000000000000000000, 5.000000000000000000, 0.000000000000000000 ) ) ;
#248 = CARTESIAN_POINT ( 'NONE',  ( 3.245314017740485962E-16, 5.000000000000000000, 2.649999999999999911 ) ) ;
#249 = CARTESIAN_POINT ( 'NONE',  ( 0.000000000000000000, 5.000000000000000000, 0.000000000000000000 ) ) ;
ENDSEC;
END-ISO-10303-21;
