ISO-10303-21;
HEADER;
FILE_DESCRIPTION (( 'STEP AP203' ),
    '1' );
FILE_NAME ('Ziptie.step',
    '2026-08-22T11:39:06',
    ( '' ),
    ( '' ),
    'SwSTEP 2.0',
    'SolidWorks 2026',
    '' );
FILE_SCHEMA (( 'CONFIG_CONTROL_DESIGN' ));
ENDSEC;

DATA;
#1 = DIRECTION ( 'NONE',  ( -0.4070669706298069568, -0.9133983147686840498, 0.000000000000000000 ) ) ;
#2 = APPROVAL ( #446, 'UNSPECIFIED' ) ;
#3 = ORIENTED_EDGE ( 'NONE', *, *, #625, .F. ) ;
#4 = CARTESIAN_POINT ( 'NONE',  ( 147.0725446635723870, -42.41035809475580010, 0.000000000000000000 ) ) ;
#5 = CARTESIAN_POINT ( 'NONE',  ( 223.7632394060525201, 260.3959031759399636, 2.000000000000000000 ) ) ;
#6 = EDGE_CURVE ( 'NONE', #327, #517, #179, .T. ) ;
#7 = VERTEX_POINT ( 'NONE', #562 ) ;
#8 = DIRECTION ( 'NONE',  ( 0.2770737126168726916, 0.9608486653873765659, 0.000000000000000000 ) ) ;
#9 = PRODUCT_DEFINITION_FORMATION_WITH_SPECIFIED_SOURCE ( 'ANY', '', #760, .NOT_KNOWN. ) ;
#10 = CARTESIAN_POINT ( 'NONE',  ( 223.7632394060525201, 261.3959031759399636, 0.000000000000000000 ) ) ;
#11 = VERTEX_POINT ( 'NONE', #238 ) ;
#12 = LINE ( 'NONE', #613, #556 ) ;
#13 = ADVANCED_FACE ( 'NONE', ( #747 ), #149, .T. ) ;
#14 = DIRECTION ( 'NONE',  ( 1.000000000000000000, 0.000000000000000000, 0.000000000000000000 ) ) ;
#15 = ORIENTED_EDGE ( 'NONE', *, *, #437, .F. ) ;
#16 = ORIENTED_EDGE ( 'NONE', *, *, #274, .T. ) ;
#17 = CARTESIAN_POINT ( 'NONE',  ( 87.69805713546645620, -39.08369642360762697, 2.000000000000000000 ) ) ;
#18 = VECTOR ( 'NONE', #840, 1000.000000000000000 ) ;
#19 = CARTESIAN_POINT ( 'NONE',  ( 223.7632394060525201, 260.3959031759399636, 0.000000000000000000 ) ) ;
#20 = EDGE_LOOP ( 'NONE', ( #487, #558, #762, #94 ) ) ;
#21 = ORIENTED_EDGE ( 'NONE', *, *, #595, .F. ) ;
#22 = DIRECTION ( 'NONE',  ( -0.000000000000000000, -0.000000000000000000, -1.000000000000000000 ) ) ;
#23 = DIRECTION ( 'NONE',  ( 1.000000000000000000, 0.000000000000000000, 0.000000000000000000 ) ) ;
#24 = VERTEX_POINT ( 'NONE', #169 ) ;
#25 = ORIENTED_EDGE ( 'NONE', *, *, #185, .T. ) ;
#26 = DIRECTION ( 'NONE',  ( -1.000000000000000000, 0.000000000000000000, 0.000000000000000000 ) ) ;
#27 = CARTESIAN_POINT ( 'NONE',  ( 217.0426127453095546, 241.9805588813366342, 2.000000000000000000 ) ) ;
#28 = EDGE_CURVE ( 'NONE', #829, #24, #379, .T. ) ;
#29 = ORIENTED_EDGE ( 'NONE', *, *, #248, .F. ) ;
#30 = CIRCLE ( 'NONE', #170, 3.749999999999947597 ) ;
#31 = AXIS2_PLACEMENT_3D ( 'NONE', #343, #397, #261 ) ;
#32 = CARTESIAN_POINT ( 'NONE',  ( 217.1788519435875742, 241.2430367590565652, 2.000000000000000000 ) ) ;
#33 = CARTESIAN_POINT ( 'NONE',  ( 216.6968570122212725, 243.8522852661132276, 2.000000000000000000 ) ) ;
#34 = DIRECTION ( 'NONE',  ( -0.000000000000000000, 0.000000000000000000, 1.000000000000000000 ) ) ;
#35 = LINE ( 'NONE', #489, #567 ) ;
#36 = DIRECTION ( 'NONE',  ( -0.000000000000000000, -0.000000000000000000, -1.000000000000000000 ) ) ;
#37 = ORIENTED_EDGE ( 'NONE', *, *, #289, .T. ) ;
#38 = EDGE_CURVE ( 'NONE', #835, #517, #119, .T. ) ;
#39 = DIRECTION ( 'NONE',  ( 0.000000000000000000, 0.000000000000000000, 1.000000000000000000 ) ) ;
#40 = VECTOR ( 'NONE', #802, 1000.000000000000000 ) ;
#41 = ORIENTED_EDGE ( 'NONE', *, *, #28, .F. ) ;
#42 = PERSON_AND_ORGANIZATION ( #329, #442 ) ;
#43 = CIRCLE ( 'NONE', #582, 6.862197903135997201 ) ;
#44 = EDGE_CURVE ( 'NONE', #426, #717, #292, .T. ) ;
#45 = LINE ( 'NONE', #512, #624 ) ;
#46 = VERTEX_POINT ( 'NONE', #110 ) ;
#47 = COORDINATED_UNIVERSAL_TIME_OFFSET ( 0, 0, .AHEAD. ) ;
#48 = CARTESIAN_POINT ( 'NONE',  ( 233.5482383091917598, 254.7670754847977150, 0.000000000000000000 ) ) ;
#49 = CARTESIAN_POINT ( 'NONE',  ( 230.9923227321403658, 245.9035566476698591, 2.000000000000000000 ) ) ;
#50 = CARTESIAN_POINT ( 'NONE',  ( 232.8222149507928691, 254.9561999764266034, 0.000000000000000000 ) ) ;
#51 = SECURITY_CLASSIFICATION ( '', '', #193 ) ;
#52 = EDGE_LOOP ( 'NONE', ( #37, #535, #683, #788, #172, #583, #145, #616, #805, #458, #770 ) ) ;
#53 =( NAMED_UNIT ( * ) SI_UNIT ( $, .STERADIAN. ) SOLID_ANGLE_UNIT ( ) );
#54 = DIRECTION ( 'NONE',  ( -0.000000000000000000, -0.000000000000000000, -1.000000000000000000 ) ) ;
#55 = AXIS2_PLACEMENT_3D ( 'NONE', #781, #323, #852 ) ;
#56 = CARTESIAN_POINT ( 'NONE',  ( 222.7006524239514533, 261.7863739255313931, 2.000000000000000000 ) ) ;
#57 = VERTEX_POINT ( 'NONE', #315 ) ;
#58 = DIRECTION ( 'NONE',  ( 0.000000000000000000, 0.000000000000000000, 1.000000000000000000 ) ) ;
#59 = AXIS2_PLACEMENT_3D ( 'NONE', #263, #141, #405 ) ;
#60 = DIRECTION ( 'NONE',  ( -0.000000000000000000, -0.000000000000000000, -1.000000000000000000 ) ) ;
#61 = EDGE_LOOP ( 'NONE', ( #15, #112, #550, #89 ) ) ;
#62 = EDGE_CURVE ( 'NONE', #335, #422, #401, .T. ) ;
#63 = DIRECTION ( 'NONE',  ( 0.000000000000000000, 1.000000000000000000, 0.000000000000000000 ) ) ;
#64 = VERTEX_POINT ( 'NONE', #636 ) ;
#65 = LINE ( 'NONE', #525, #40 ) ;
#66 = CYLINDRICAL_SURFACE ( 'NONE', #420, 1.750000000000001554 ) ;
#67 = ORIENTED_EDGE ( 'NONE', *, *, #821, .F. ) ;
#68 = CARTESIAN_POINT ( 'NONE',  ( 214.7934635462158610, 243.8522852661132276, 0.000000000000000000 ) ) ;
#69 = EDGE_CURVE ( 'NONE', #372, #64, #45, .T. ) ;
#70 = VECTOR ( 'NONE', #621, 1000.000000000000114 ) ;
#71 = AXIS2_PLACEMENT_3D ( 'NONE', #510, #516, #39 ) ;
#72 = CARTESIAN_POINT ( 'NONE',  ( 226.8673279442221258, 256.3339822328352966, 2.000000000000000000 ) ) ;
#73 = EDGE_LOOP ( 'NONE', ( #848, #192, #711, #161 ) ) ;
#74 = FACE_BOUND ( 'NONE', #520, .T. ) ;
#75 = CARTESIAN_POINT ( 'NONE',  ( -0.000000000000000000, 261.3959031759399636, 0.000000000000000000 ) ) ;
#76 = ORIENTED_EDGE ( 'NONE', *, *, #231, .T. ) ;
#77 = PLANE ( 'NONE',  #324 ) ;
#78 = LOCAL_TIME ( 12, 39, 6.000000000000000000, #728 ) ;
#79 = DIRECTION ( 'NONE',  ( 0.000000000000000000, -0.000000000000000000, -1.000000000000000000 ) ) ;
#80 = CARTESIAN_POINT ( 'NONE',  ( 87.69805713546645620, -39.08369642360762697, 2.000000000000000000 ) ) ;
#81 = EDGE_CURVE ( 'NONE', #835, #539, #773, .T. ) ;
#82 = PLANE ( 'NONE',  #714 ) ;
#83 = CARTESIAN_POINT ( 'NONE',  ( 226.8673279442221258, 256.3339822328352966, 2.000000000000000000 ) ) ;
#84 = VECTOR ( 'NONE', #699, 1000.000000000000000 ) ;
#85 = ORIENTED_EDGE ( 'NONE', *, *, #320, .F. ) ;
#86 = LINE ( 'NONE', #617, #175 ) ;
#87 = ADVANCED_FACE ( 'NONE', ( #186 ), #311, .T. ) ;
#88 = FACE_OUTER_BOUND ( 'NONE', #353, .T. ) ;
#89 = ORIENTED_EDGE ( 'NONE', *, *, #560, .T. ) ;
#90 = CARTESIAN_POINT ( 'NONE',  ( 231.0340034644928551, 261.7863739255313362, 2.000000000000000000 ) ) ;
#91 = AXIS2_PLACEMENT_3D ( 'NONE', #373, #236, #555 ) ;
#92 = CC_DESIGN_DATE_AND_TIME_ASSIGNMENT ( #454, #128, ( #51 ) ) ;
#93 = LINE ( 'NONE', #749, #490 ) ;
#94 = ORIENTED_EDGE ( 'NONE', *, *, #675, .T. ) ;
#95 = DIRECTION ( 'NONE',  ( -0.000000000000000000, -0.000000000000000000, -1.000000000000000000 ) ) ;
#96 = DIRECTION ( 'NONE',  ( 1.000000000000000000, 0.000000000000000000, 0.000000000000000000 ) ) ;
#97 = CARTESIAN_POINT ( 'NONE',  ( 216.6968570122212725, 243.8522852661132276, 0.000000000000000000 ) ) ;
#98 = CIRCLE ( 'NONE', #580, 1.750000000000001554 ) ;
#99 = AXIS2_PLACEMENT_3D ( 'NONE', #588, #523, #674 ) ;
#100 = DIRECTION ( 'NONE',  ( -0.000000000000000000, -0.000000000000000000, -1.000000000000000000 ) ) ;
#101 = CARTESIAN_POINT ( 'NONE',  ( 229.9714164823917599, 262.1459031759399636, 2.000000000000000000 ) ) ;
#102 = CARTESIAN_POINT ( 'NONE',  ( 223.7632394060525201, 260.3959031759399636, 2.000000000000000000 ) ) ;
#103 = ADVANCED_FACE ( 'NONE', ( #721 ), #651, .F. ) ;
#104 = CARTESIAN_POINT ( 'NONE',  ( 223.7632394060525201, 260.3959031759399636, 2.000000000000000000 ) ) ;
#105 = DIRECTION ( 'NONE',  ( -0.000000000000000000, 0.000000000000000000, 1.000000000000000000 ) ) ;
#106 = DIRECTION ( 'NONE',  ( 1.000000000000000000, 0.000000000000000000, 0.000000000000000000 ) ) ;
#107 = ORIENTED_EDGE ( 'NONE', *, *, #560, .F. ) ;
#108 = PERSON_AND_ORGANIZATION_ROLE ( 'creator' ) ;
#109 = FACE_OUTER_BOUND ( 'NONE', #589, .T. ) ;
#110 = CARTESIAN_POINT ( 'NONE',  ( 232.8222149507928691, 254.9561999764266034, 2.000000000000000000 ) ) ;
#111 = VECTOR ( 'NONE', #415, 1000.000000000000000 ) ;
#112 = ORIENTED_EDGE ( 'NONE', *, *, #434, .F. ) ;
#113 = CIRCLE ( 'NONE', #229, 2.653393466005404822 ) ;
#114 = LINE ( 'NONE', #521, #378 ) ;
#115 = DIRECTION ( 'NONE',  ( -1.000000000000000000, 0.000000000000000000, 0.000000000000000000 ) ) ;
#116 = ORIENTED_EDGE ( 'NONE', *, *, #646, .T. ) ;
#117 = COORDINATED_UNIVERSAL_TIME_OFFSET ( 0, 0, .AHEAD. ) ;
#118 = APPROVAL ( #377, 'UNSPECIFIED' ) ;
#119 = LINE ( 'NONE', #777, #431 ) ;
#120 = LINE ( 'NONE', #389, #351 ) ;
#121 =( GEOMETRIC_REPRESENTATION_CONTEXT ( 3 ) GLOBAL_UNCERTAINTY_ASSIGNED_CONTEXT ( ( #740 ) ) GLOBAL_UNIT_ASSIGNED_CONTEXT ( ( #154, #712, #53 ) ) REPRESENTATION_CONTEXT ( 'NONE', 'WORKASPACE' ) );
#122 = VERTEX_POINT ( 'NONE', #180 ) ;
#123 = PERSON_AND_ORGANIZATION_ROLE ( 'creator' ) ;
#124 = VECTOR ( 'NONE', #576, 1000.000000000000000 ) ;
#125 = FACE_OUTER_BOUND ( 'NONE', #707, .T. ) ;
#126 = EDGE_CURVE ( 'NONE', #517, #841, #245, .T. ) ;
#127 = ORIENTED_EDGE ( 'NONE', *, *, #38, .F. ) ;
#128 = DATE_TIME_ROLE ( 'classification_date' ) ;
#129 = VECTOR ( 'NONE', #673, 1000.000000000000000 ) ;
#130 = DIRECTION ( 'NONE',  ( 1.000000000000000000, 0.000000000000000000, 0.000000000000000000 ) ) ;
#131 = VERTEX_POINT ( 'NONE', #448 ) ;
#132 = APPROVAL ( #308, 'UNSPECIFIED' ) ;
#133 = DIRECTION ( 'NONE',  ( 0.9833628297069292312, 0.1816522643700893558, 0.000000000000000000 ) ) ;
#134 = LINE ( 'NONE', #596, #598 ) ;
#135 = VERTEX_POINT ( 'NONE', #56 ) ;
#136 = CARTESIAN_POINT ( 'NONE',  ( 229.9714164823917599, 261.3959031759399636, 0.000000000000000000 ) ) ;
#137 = EDGE_CURVE ( 'NONE', #135, #57, #716, .T. ) ;
#138 = CARTESIAN_POINT ( 'NONE',  ( 88.38310587154296627, -39.38899665157998697, 2.000000000000000000 ) ) ;
#139 = AXIS2_PLACEMENT_3D ( 'NONE', #102, #247, #176 ) ;
#140 = EDGE_LOOP ( 'NONE', ( #440, #107, #67, #856 ) ) ;
#141 = DIRECTION ( 'NONE',  ( -0.000000000000000000, 0.000000000000000000, 1.000000000000000000 ) ) ;
#142 = VECTOR ( 'NONE', #133, 1000.000000000000114 ) ;
#143 = AXIS2_PLACEMENT_3D ( 'NONE', #661, #63, #200 ) ;
#144 = LINE ( 'NONE', #526, #212 ) ;
#145 = ORIENTED_EDGE ( 'NONE', *, *, #413, .F. ) ;
#146 = LINE ( 'NONE', #410, #227 ) ;
#147 = EDGE_CURVE ( 'NONE', #135, #829, #518, .T. ) ;
#148 = CARTESIAN_POINT ( 'NONE',  ( 229.9714164823917599, 260.3959031759399636, 0.000000000000000000 ) ) ;
#149 = PLANE ( 'NONE',  #503 ) ;
#150 = DIRECTION ( 'NONE',  ( 1.000000000000000000, 0.000000000000000000, 0.000000000000000000 ) ) ;
#151 = DIRECTION ( 'NONE',  ( -0.000000000000000000, 0.000000000000000000, 1.000000000000000000 ) ) ;
#152 = EDGE_LOOP ( 'NONE', ( #205, #369, #688, #658 ) ) ;
#153 = ADVANCED_FACE ( 'NONE', ( #787 ), #444, .F. ) ;
#154 =( LENGTH_UNIT ( ) NAMED_UNIT ( * ) SI_UNIT ( .MILLI., .METRE. ) );
#155 = VECTOR ( 'NONE', #682, 1000.000000000000000 ) ;
#156 = CARTESIAN_POINT ( 'NONE',  ( 227.3891402369377488, 246.9425830699830442, 2.000000000000000000 ) ) ;
#157 = VECTOR ( 'NONE', #474, 1000.000000000000000 ) ;
#158 = ORIENTED_EDGE ( 'NONE', *, *, #607, .F. ) ;
#159 = DIRECTION ( 'NONE',  ( -0.000000000000000000, 0.000000000000000000, 1.000000000000000000 ) ) ;
#160 = DIRECTION ( 'NONE',  ( 1.000000000000000000, 0.000000000000000000, 0.000000000000000000 ) ) ;
#161 = ORIENTED_EDGE ( 'NONE', *, *, #691, .T. ) ;
#162 = EDGE_LOOP ( 'NONE', ( #202, #626, #783, #497 ) ) ;
#163 = CARTESIAN_POINT ( 'NONE',  ( 229.9714164823917599, 260.3959031759399636, 2.000000000000000000 ) ) ;
#164 = CIRCLE ( 'NONE', #590, 1.000000000000000888 ) ;
#165 = DIRECTION ( 'NONE',  ( -0.000000000000000000, 0.000000000000000000, 1.000000000000000000 ) ) ;
#166 = EDGE_LOOP ( 'NONE', ( #332, #528, #642, #698 ) ) ;
#167 = DIRECTION ( 'NONE',  ( -0.000000000000000000, 0.000000000000000000, 1.000000000000000000 ) ) ;
#168 = FACE_OUTER_BOUND ( 'NONE', #498, .T. ) ;
#169 = CARTESIAN_POINT ( 'NONE',  ( 220.5994079438887070, 259.1273563451276800, 0.000000000000000000 ) ) ;
#170 = AXIS2_PLACEMENT_3D ( 'NONE', #333, #594, #861 ) ;
#171 = CARTESIAN_POINT ( 'NONE',  ( 226.8673279442221258, 256.3339822328352966, 2.000000000000000000 ) ) ;
#172 = ORIENTED_EDGE ( 'NONE', *, *, #471, .T. ) ;
#173 = CALENDAR_DATE ( 2026, 22, 8 ) ;
#174 = CARTESIAN_POINT ( 'NONE',  ( 226.8673279442221258, 256.3339822328352966, 2.000000000000000000 ) ) ;
#175 = VECTOR ( 'NONE', #232, 1000.000000000000114 ) ;
#176 = DIRECTION ( 'NONE',  ( 1.000000000000000000, 0.000000000000000000, 0.000000000000000000 ) ) ;
#177 = ORIENTED_EDGE ( 'NONE', *, *, #595, .T. ) ;
#178 = APPROVAL_ROLE ( '' ) ;
#179 = CIRCLE ( 'NONE', #669, 2.653393466005404822 ) ;
#180 = CARTESIAN_POINT ( 'NONE',  ( 214.0434635462158610, 243.8522852661132276, 2.000000000000000000 ) ) ;
#181 = AXIS2_PLACEMENT_3D ( 'NONE', #763, #696, #226 ) ;
#182 = VERTEX_POINT ( 'NONE', #306 ) ;
#183 = CALENDAR_DATE ( 2026, 22, 8 ) ;
#184 = AXIS2_PLACEMENT_3D ( 'NONE', #5, #534, #800 ) ;
#185 = EDGE_CURVE ( 'NONE', #7, #553, #383, .T. ) ;
#186 = FACE_OUTER_BOUND ( 'NONE', #751, .T. ) ;
#187 = ORIENTED_EDGE ( 'NONE', *, *, #471, .F. ) ;
#188 = APPROVAL_DATE_TIME ( #254, #132 ) ;
#189 = EDGE_CURVE ( 'NONE', #422, #372, #803, .T. ) ;
#190 = DIRECTION ( 'NONE',  ( 0.4070669706298069568, 0.9133983147686840498, 0.000000000000000000 ) ) ;
#191 = LOCAL_TIME ( 12, 39, 6.000000000000000000, #244 ) ;
#192 = ORIENTED_EDGE ( 'NONE', *, *, #69, .F. ) ;
#193 = SECURITY_CLASSIFICATION_LEVEL ( 'unclassified' ) ;
#194 = CARTESIAN_POINT ( 'NONE',  ( -36.06313431832086991, 195.2254541628736604, 2.000000000000000000 ) ) ;
#195 = PLANE ( 'NONE',  #143 ) ;
#196 = EDGE_CURVE ( 'NONE', #545, #453, #837, .T. ) ;
#197 = ORIENTED_EDGE ( 'NONE', *, *, #196, .T. ) ;
#198 = CARTESIAN_POINT ( 'NONE',  ( 230.5786090435923654, 261.1904578899921603, 2.000000000000000000 ) ) ;
#199 = AXIS2_PLACEMENT_3D ( 'NONE', #174, #660, #713 ) ;
#200 = DIRECTION ( 'NONE',  ( 0.000000000000000000, -0.000000000000000000, 1.000000000000000000 ) ) ;
#201 = ADVANCED_FACE ( 'NONE', ( #705 ), #710, .T. ) ;
#202 = ORIENTED_EDGE ( 'NONE', *, *, #767, .F. ) ;
#203 = FACE_OUTER_BOUND ( 'NONE', #166, .T. ) ;
#204 = PLANE ( 'NONE',  #700 ) ;
#205 = ORIENTED_EDGE ( 'NONE', *, *, #400, .F. ) ;
#206 = CC_DESIGN_APPROVAL ( #2, ( #9 ) ) ;
#207 = DIRECTION ( 'NONE',  ( -0.000000000000000000, -0.000000000000000000, -1.000000000000000000 ) ) ;
#208 = CARTESIAN_POINT ( 'NONE',  ( 88.38310587154296627, -39.38899665157998697, 0.000000000000000000 ) ) ;
#209 = ORIENTED_EDGE ( 'NONE', *, *, #473, .T. ) ;
#210 = FACE_OUTER_BOUND ( 'NONE', #672, .T. ) ;
#211 = ADVANCED_FACE ( 'NONE', ( #330 ), #204, .F. ) ;
#212 = VECTOR ( 'NONE', #190, 999.9999999999998863 ) ;
#213 = CARTESIAN_POINT ( 'NONE',  ( 227.3891402369377488, 246.9425830699830442, 0.000000000000000000 ) ) ;
#214 = ORIENTED_EDGE ( 'NONE', *, *, #473, .F. ) ;
#215 = LINE ( 'NONE', #664, #129 ) ;
#216 = ADVANCED_BREP_SHAPE_REPRESENTATION ( 'Ziptie', ( #818, #469 ), #121 ) ;
#217 = LINE ( 'NONE', #764, #155 ) ;
#218 = ADVANCED_FACE ( 'NONE', ( #394 ), #66, .T. ) ;
#219 = ORIENTED_EDGE ( 'NONE', *, *, #285, .T. ) ;
#220 = ORIENTED_EDGE ( 'NONE', *, *, #356, .F. ) ;
#221 = LINE ( 'NONE', #17, #70 ) ;
#222 = LOCAL_TIME ( 12, 39, 6.000000000000000000, #635 ) ;
#223 = CYLINDRICAL_SURFACE ( 'NONE', #671, 1.903393466005404155 ) ;
#224 = ORIENTED_EDGE ( 'NONE', *, *, #720, .T. ) ;
#225 = ORIENTED_EDGE ( 'NONE', *, *, #509, .T. ) ;
#226 = DIRECTION ( 'NONE',  ( 1.000000000000000000, 0.000000000000000000, 0.000000000000000000 ) ) ;
#227 = VECTOR ( 'NONE', #745, 1000.000000000000000 ) ;
#228 = CARTESIAN_POINT ( 'NONE',  ( 227.9340970300480080, 243.9924945808623420, 2.000000000000000000 ) ) ;
#229 = AXIS2_PLACEMENT_3D ( 'NONE', #357, #697, #96 ) ;
#230 = ORIENTED_EDGE ( 'NONE', *, *, #81, .T. ) ;
#231 = EDGE_CURVE ( 'NONE', #7, #717, #43, .T. ) ;
#232 = DIRECTION ( 'NONE',  ( 0.2770737126168726916, 0.9608486653873765659, 0.000000000000000000 ) ) ;
#233 = ADVANCED_FACE ( 'NONE', ( #468 ), #592, .T. ) ;
#234 = CARTESIAN_POINT ( 'NONE',  ( 229.9714164823917599, 260.3959031759399636, 2.000000000000000000 ) ) ;
#235 = ORIENTED_EDGE ( 'NONE', *, *, #858, .T. ) ;
#236 = DIRECTION ( 'NONE',  ( -0.000000000000000000, -0.000000000000000000, -1.000000000000000000 ) ) ;
#237 = CARTESIAN_POINT ( 'NONE',  ( 216.6968570122212725, 243.8522852661132276, 2.000000000000000000 ) ) ;
#238 = CARTESIAN_POINT ( 'NONE',  ( 214.2732518919543736, 244.9323941062105234, 0.000000000000000000 ) ) ;
#239 = CARTESIAN_POINT ( 'NONE',  ( 228.0703362283256013, 243.2549724585821025, 0.000000000000000000 ) ) ;
#240 = PRODUCT_DEFINITION ( 'UNKNOWN', '', #9, #587 ) ;
#241 = DIRECTION ( 'NONE',  ( -0.000000000000000000, -0.000000000000000000, -1.000000000000000000 ) ) ;
#242 = CIRCLE ( 'NONE', #391, 1.903393466005404155 ) ;
#243 = ORIENTED_EDGE ( 'NONE', *, *, #543, .T. ) ;
#244 = COORDINATED_UNIVERSAL_TIME_OFFSET ( 0, 0, .AHEAD. ) ;
#245 = LINE ( 'NONE', #435, #537 ) ;
#246 = ORIENTED_EDGE ( 'NONE', *, *, #368, .T. ) ;
#247 = DIRECTION ( 'NONE',  ( -0.000000000000000000, 0.000000000000000000, 1.000000000000000000 ) ) ;
#248 = EDGE_CURVE ( 'NONE', #182, #64, #855, .T. ) ;
#249 = ORIENTED_EDGE ( 'NONE', *, *, #739, .F. ) ;
#250 = VECTOR ( 'NONE', #633, 1000.000000000000114 ) ;
#251 = DIRECTION ( 'NONE',  ( -0.000000000000000000, -0.000000000000000000, -1.000000000000000000 ) ) ;
#252 = VECTOR ( 'NONE', #8, 1000.000000000000000 ) ;
#253 = ORIENTED_EDGE ( 'NONE', *, *, #81, .F. ) ;
#254 = DATE_AND_TIME ( #579, #222 ) ;
#255 = AXIS2_PLACEMENT_3D ( 'NONE', #171, #564, #647 ) ;
#256 = EDGE_CURVE ( 'NONE', #387, #573, #601, .T. ) ;
#257 = CARTESIAN_POINT ( 'NONE',  ( 214.0434635462158610, 243.8522852661132276, 0.000000000000000000 ) ) ;
#258 = ORIENTED_EDGE ( 'NONE', *, *, #356, .T. ) ;
#259 = APPROVAL_ROLE ( '' ) ;
#260 = EDGE_CURVE ( 'NONE', #131, #135, #338, .T. ) ;
#261 = DIRECTION ( 'NONE',  ( 1.000000000000000000, 0.000000000000000000, 0.000000000000000000 ) ) ;
#262 = VERTEX_POINT ( 'NONE', #741 ) ;
#263 = CARTESIAN_POINT ( 'NONE',  ( 226.8673279442221258, 256.3339822328352966, 0.000000000000000000 ) ) ;
#264 = DIRECTION ( 'NONE',  ( 1.000000000000000000, 0.000000000000000000, 0.000000000000000000 ) ) ;
#265 = ORIENTED_EDGE ( 'NONE', *, *, #622, .T. ) ;
#266 = AXIS2_PLACEMENT_3D ( 'NONE', #278, #275, #150 ) ;
#267 = CARTESIAN_POINT ( 'NONE',  ( 230.2716862330997856, 246.1113619321324109, 0.000000000000000000 ) ) ;
#268 = AXIS2_PLACEMENT_3D ( 'NONE', #339, #272, #269 ) ;
#269 = DIRECTION ( 'NONE',  ( -1.000000000000000000, 0.000000000000000000, 0.000000000000000000 ) ) ;
#270 = ORIENTED_EDGE ( 'NONE', *, *, #767, .T. ) ;
#271 = CARTESIAN_POINT ( 'NONE',  ( -35.92689512004331220, 194.4879320405934493, 2.000000000000000000 ) ) ;
#272 = DIRECTION ( 'NONE',  ( -0.000000000000000000, -0.000000000000000000, -1.000000000000000000 ) ) ;
#273 = ORIENTED_EDGE ( 'NONE', *, *, #185, .F. ) ;
#274 = EDGE_CURVE ( 'NONE', #131, #513, #733, .T. ) ;
#275 = DIRECTION ( 'NONE',  ( -0.000000000000000000, 0.000000000000000000, 1.000000000000000000 ) ) ;
#276 = PLANE ( 'NONE',  #757 ) ;
#277 = ORIENTED_EDGE ( 'NONE', *, *, #858, .F. ) ;
#278 = CARTESIAN_POINT ( 'NONE',  ( 216.6968570122212725, 243.8522852661132276, 0.000000000000000000 ) ) ;
#279 = AXIS2_PLACEMENT_3D ( 'NONE', #194, #571, #645 ) ;
#280 = DIRECTION ( 'NONE',  ( -0.000000000000000000, -0.000000000000000000, -1.000000000000000000 ) ) ;
#281 = ORIENTED_EDGE ( 'NONE', *, *, #543, .F. ) ;
#282 = ORIENTED_EDGE ( 'NONE', *, *, #772, .F. ) ;
#283 = CARTESIAN_POINT ( 'NONE',  ( 227.3891402369377488, 246.9425830699830442, 2.000000000000000000 ) ) ;
#284 = APPLICATION_CONTEXT ( 'configuration controlled 3d designs of mechanical parts and assemblies' ) ;
#285 = EDGE_CURVE ( 'NONE', #11, #24, #460, .T. ) ;
#286 = FACE_OUTER_BOUND ( 'NONE', #381, .T. ) ;
#287 = ORIENTED_EDGE ( 'NONE', *, *, #231, .F. ) ;
#288 = LINE ( 'NONE', #820, #84 ) ;
#289 = EDGE_CURVE ( 'NONE', #335, #853, #134, .T. ) ;
#290 = DIRECTION ( 'NONE',  ( -0.000000000000000000, 0.000000000000000000, 1.000000000000000000 ) ) ;
#291 = EDGE_LOOP ( 'NONE', ( #532, #612, #287, #25 ) ) ;
#292 = CIRCLE ( 'NONE', #780, 1.750000000000001554 ) ;
#293 = EDGE_LOOP ( 'NONE', ( #21, #3, #445, #376 ) ) ;
#294 = CARTESIAN_POINT ( 'NONE',  ( 214.2732518919543736, 244.9323941062105234, 2.000000000000000000 ) ) ;
#295 = CIRCLE ( 'NONE', #419, 1.903393466005404155 ) ;
#296 = CARTESIAN_POINT ( 'NONE',  ( 226.8673279442221258, 256.3339822328352966, 0.000000000000000000 ) ) ;
#297 = VECTOR ( 'NONE', #817, 1000.000000000000114 ) ;
#298 = ORIENTED_EDGE ( 'NONE', *, *, #428, .T. ) ;
#299 = DIRECTION ( 'NONE',  ( 1.000000000000000000, 0.000000000000000000, 0.000000000000000000 ) ) ;
#300 = CARTESIAN_POINT ( 'NONE',  ( 231.0340034644928551, 261.7863739255313362, 0.000000000000000000 ) ) ;
#301 = DIRECTION ( 'NONE',  ( 1.000000000000000000, 0.000000000000000000, 0.000000000000000000 ) ) ;
#302 = EDGE_CURVE ( 'NONE', #553, #511, #640, .T. ) ;
#303 = DIRECTION ( 'NONE',  ( -0.000000000000000000, -0.000000000000000000, -1.000000000000000000 ) ) ;
#304 = CC_DESIGN_PERSON_AND_ORGANIZATION_ASSIGNMENT ( #451, #792, ( #9 ) ) ;
#305 = CC_DESIGN_APPROVAL ( #118, ( #240 ) ) ;
#306 = CARTESIAN_POINT ( 'NONE',  ( 214.9583006280307416, 244.6270938782377016, 0.000000000000000000 ) ) ;
#307 = EDGE_LOOP ( 'NONE', ( #450, #41, #631, #480 ) ) ;
#308 = APPROVAL_STATUS ( 'not_yet_approved' ) ;
#309 = EDGE_CURVE ( 'NONE', #362, #372, #144, .T. ) ;
#310 = VECTOR ( 'NONE', #280, 1000.000000000000000 ) ;
#311 = CYLINDRICAL_SURFACE ( 'NONE', #363, 2.653393466005404822 ) ;
#312 = AXIS2_PLACEMENT_3D ( 'NONE', #355, #159, #424 ) ;
#313 = VERTEX_POINT ( 'NONE', #407 ) ;
#314 = FACE_OUTER_BOUND ( 'NONE', #20, .T. ) ;
#315 = CARTESIAN_POINT ( 'NONE',  ( 222.7006524239514533, 261.7863739255313931, 0.000000000000000000 ) ) ;
#316 = ORIENTED_EDGE ( 'NONE', *, *, #816, .T. ) ;
#317 = APPROVAL_DATE_TIME ( #584, #2 ) ;
#318 = EDGE_CURVE ( 'NONE', #801, #122, #758, .T. ) ;
#319 = DIRECTION ( 'NONE',  ( 1.000000000000000000, 0.000000000000000000, 0.000000000000000000 ) ) ;
#320 = EDGE_CURVE ( 'NONE', #573, #398, #863, .T. ) ;
#321 = EDGE_LOOP ( 'NONE', ( #395, #508, #737, #462, #392, #791, #430, #249, #219, #341, #214 ) ) ;
#322 = PERSON_AND_ORGANIZATION ( #329, #442 ) ;
#323 = DIRECTION ( 'NONE',  ( -0.9608486653873765659, 0.2770737126168726916, 0.000000000000000000 ) ) ;
#324 = AXIS2_PLACEMENT_3D ( 'NONE', #271, #541, #346 ) ;
#325 = ORIENTED_EDGE ( 'NONE', *, *, #542, .F. ) ;
#326 = DIRECTION ( 'NONE',  ( -0.9133983147686840498, 0.4070669706298069568, 0.000000000000000000 ) ) ;
#327 = VERTEX_POINT ( 'NONE', #257 ) ;
#328 = PLANE ( 'NONE',  #279 ) ;
#329 = PERSON ( 'UNSPECIFIED', 'UNSPECIFIED', 'UNSPECIFIED', ('UNSPECIFIED'), ('UNSPECIFIED'), ('UNSPECIFIED') ) ;
#330 = FACE_OUTER_BOUND ( 'NONE', #73, .T. ) ;
#331 = APPROVAL_PERSON_ORGANIZATION ( #322, #132, #654 ) ;
#332 = ORIENTED_EDGE ( 'NONE', *, *, #719, .F. ) ;
#333 = CARTESIAN_POINT ( 'NONE',  ( 227.3891402369377488, 246.9425830699830442, 0.000000000000000000 ) ) ;
#334 = DIRECTION ( 'NONE',  ( -0.000000000000000000, 0.000000000000000000, 1.000000000000000000 ) ) ;
#335 = VERTEX_POINT ( 'NONE', #657 ) ;
#336 = CIRCLE ( 'NONE', #461, 1.903393466005404155 ) ;
#337 = CARTESIAN_POINT ( 'NONE',  ( 229.9714164823917599, 260.3959031759399636, 0.000000000000000000 ) ) ;
#338 = CIRCLE ( 'NONE', #184, 1.750000000000001554 ) ;
#339 = CARTESIAN_POINT ( 'NONE',  ( 229.9714164823917599, 260.3959031759399636, 2.000000000000000000 ) ) ;
#340 = ADVANCED_FACE ( 'NONE', ( #519 ), #790, .T. ) ;
#341 = ORIENTED_EDGE ( 'NONE', *, *, #663, .F. ) ;
#342 = FACE_OUTER_BOUND ( 'NONE', #293, .T. ) ;
#343 = CARTESIAN_POINT ( 'NONE',  ( 229.9714164823917599, 260.3959031759399636, 0.000000000000000000 ) ) ;
#344 = ORIENTED_EDGE ( 'NONE', *, *, #652, .T. ) ;
#345 = ADVANCED_FACE ( 'NONE', ( #125 ), #195, .F. ) ;
#346 = DIRECTION ( 'NONE',  ( -0.9833628297069292312, -0.1816522643700893003, 0.000000000000000000 ) ) ;
#347 = FACE_BOUND ( 'NONE', #52, .T. ) ;
#348 = DIRECTION ( 'NONE',  ( -0.9133983147686839388, 0.4070669706298069013, 0.000000000000000000 ) ) ;
#349 = LINE ( 'NONE', #677, #404 ) ;
#350 = EDGE_CURVE ( 'NONE', #545, #7, #666, .T. ) ;
#351 = VECTOR ( 'NONE', #709, 1000.000000000000000 ) ;
#352 = DIRECTION ( 'NONE',  ( 1.000000000000000000, -0.000000000000000000, 0.000000000000000000 ) ) ;
#353 = EDGE_LOOP ( 'NONE', ( #765, #634, #488, #282, #414, #246, #230, #281, #731, #76, #465 ) ) ;
#354 = VERTEX_POINT ( 'NONE', #228 ) ;
#355 = CARTESIAN_POINT ( 'NONE',  ( 223.7632394060525201, 260.3959031759399636, 0.000000000000000000 ) ) ;
#356 = EDGE_CURVE ( 'NONE', #578, #384, #380, .T. ) ;
#357 = CARTESIAN_POINT ( 'NONE',  ( 216.6968570122212725, 243.8522852661132276, 2.000000000000000000 ) ) ;
#358 = ORIENTED_EDGE ( 'NONE', *, *, #256, .T. ) ;
#359 = LINE ( 'NONE', #563, #639 ) ;
#360 = AXIS2_PLACEMENT_3D ( 'NONE', #283, #685, #26 ) ;
#361 = DIRECTION ( 'NONE',  ( 1.000000000000000000, 0.000000000000000000, 0.000000000000000000 ) ) ;
#362 = VERTEX_POINT ( 'NONE', #678 ) ;
#363 = AXIS2_PLACEMENT_3D ( 'NONE', #847, #581, #572 ) ;
#364 = CYLINDRICAL_SURFACE ( 'NONE', #360, 3.749999999999947597 ) ;
#365 = AXIS2_PLACEMENT_3D ( 'NONE', #337, #477, #811 ) ;
#366 = CARTESIAN_POINT ( 'NONE',  ( 221.2844566799652455, 258.8220561171553413, 2.000000000000000000 ) ) ;
#367 = VECTOR ( 'NONE', #604, 1000.000000000000114 ) ;
#368 = EDGE_CURVE ( 'NONE', #122, #835, #113, .T. ) ;
#369 = ORIENTED_EDGE ( 'NONE', *, *, #509, .F. ) ;
#370 = CARTESIAN_POINT ( 'NONE',  ( 214.7934635462158610, 243.8522852661132276, 2.000000000000000000 ) ) ;
#371 = DIRECTION ( 'NONE',  ( -0.000000000000000000, -0.000000000000000000, -1.000000000000000000 ) ) ;
#372 = VERTEX_POINT ( 'NONE', #366 ) ;
#373 = CARTESIAN_POINT ( 'NONE',  ( 226.8673279442221258, 256.3339822328352966, 2.000000000000000000 ) ) ;
#374 = ADVANCED_FACE ( 'NONE', ( #492 ), #619, .F. ) ;
#375 = CARTESIAN_POINT ( 'NONE',  ( 233.5482383091917598, 254.7670754847977150, 2.000000000000000000 ) ) ;
#376 = ORIENTED_EDGE ( 'NONE', *, *, #434, .T. ) ;
#377 = APPROVAL_STATUS ( 'not_yet_approved' ) ;
#378 = VECTOR ( 'NONE', #54, 1000.000000000000000 ) ;
#379 = LINE ( 'NONE', #452, #124 ) ;
#380 = CIRCLE ( 'NONE', #786, 2.999999999999947153 ) ;
#381 = EDGE_LOOP ( 'NONE', ( #679, #752, #827, #823 ) ) ;
#382 = EDGE_CURVE ( 'NONE', #46, #417, #478, .T. ) ;
#383 = LINE ( 'NONE', #375, #18 ) ;
#384 = VERTEX_POINT ( 'NONE', #425 ) ;
#385 = CALENDAR_DATE ( 2026, 22, 8 ) ;
#386 = CARTESIAN_POINT ( 'NONE',  ( -35.92689512004331220, 194.4879320405934493, 2.000000000000000000 ) ) ;
#387 = VERTEX_POINT ( 'NONE', #10 ) ;
#388 = PERSON_AND_ORGANIZATION ( #329, #442 ) ;
#389 = CARTESIAN_POINT ( 'NONE',  ( 147.0725446635723870, -42.41035809475580010, 2.000000000000000000 ) ) ;
#390 = DIRECTION ( 'NONE',  ( -0.000000000000000000, -0.000000000000000000, -1.000000000000000000 ) ) ;
#391 = AXIS2_PLACEMENT_3D ( 'NONE', #549, #290, #813 ) ;
#392 = ORIENTED_EDGE ( 'NONE', *, *, #686, .T. ) ;
#393 = PRODUCT_DEFINITION_SHAPE ( 'NONE', 'NONE',  #240 ) ;
#394 = FACE_OUTER_BOUND ( 'NONE', #484, .T. ) ;
#395 = ORIENTED_EDGE ( 'NONE', *, *, #607, .T. ) ;
#396 = CARTESIAN_POINT ( 'NONE',  ( -36.06313431832086991, 195.2254541628736604, 2.000000000000000000 ) ) ;
#397 = DIRECTION ( 'NONE',  ( 0.000000000000000000, -0.000000000000000000, -1.000000000000000000 ) ) ;
#398 = VERTEX_POINT ( 'NONE', #746 ) ;
#399 = CARTESIAN_POINT ( 'NONE',  ( 229.9714164823917599, 261.3959031759399636, 2.000000000000000000 ) ) ;
#400 = EDGE_CURVE ( 'NONE', #313, #511, #406, .T. ) ;
#401 = CIRCLE ( 'NONE', #139, 1.000000000000000888 ) ;
#402 = CARTESIAN_POINT ( 'NONE',  ( 223.7632394060525201, 260.3959031759399636, 2.000000000000000000 ) ) ;
#403 = ORIENTED_EDGE ( 'NONE', *, *, #274, .F. ) ;
#404 = VECTOR ( 'NONE', #815, 1000.000000000000114 ) ;
#405 = DIRECTION ( 'NONE',  ( 1.000000000000000000, 0.000000000000000000, 0.000000000000000000 ) ) ;
#406 = CIRCLE ( 'NONE', #785, 1.750000000000001554 ) ;
#407 = CARTESIAN_POINT ( 'NONE',  ( 229.9714164823917599, 262.1459031759399636, 0.000000000000000000 ) ) ;
#408 = ADVANCED_FACE ( 'NONE', ( #347, #88 ), #276, .T. ) ;
#409 = ORIENTED_EDGE ( 'NONE', *, *, #368, .F. ) ;
#410 = CARTESIAN_POINT ( 'NONE',  ( 214.2732518919543736, 244.9323941062105234, 2.000000000000000000 ) ) ;
#411 = DIRECTION ( 'NONE',  ( 1.000000000000000000, 0.000000000000000000, 0.000000000000000000 ) ) ;
#412 = LOCAL_TIME ( 12, 39, 6.000000000000000000, #117 ) ;
#413 = EDGE_CURVE ( 'NONE', #814, #493, #242, .T. ) ;
#414 = ORIENTED_EDGE ( 'NONE', *, *, #318, .T. ) ;
#415 = DIRECTION ( 'NONE',  ( -0.000000000000000000, -0.000000000000000000, -1.000000000000000000 ) ) ;
#416 = LINE ( 'NONE', #826, #310 ) ;
#417 = VERTEX_POINT ( 'NONE', #552 ) ;
#418 = CARTESIAN_POINT ( 'NONE',  ( 230.2716862330997856, 246.1113619321324109, 2.000000000000000000 ) ) ;
#419 = AXIS2_PLACEMENT_3D ( 'NONE', #237, #774, #106 ) ;
#420 = AXIS2_PLACEMENT_3D ( 'NONE', #402, #809, #670 ) ;
#421 = CARTESIAN_POINT ( 'NONE',  ( 216.6968570122212725, 243.8522852661132276, 0.000000000000000000 ) ) ;
#422 = VERTEX_POINT ( 'NONE', #609 ) ;
#423 = AXIS2_PLACEMENT_3D ( 'NONE', #769, #251, #115 ) ;
#424 = DIRECTION ( 'NONE',  ( 1.000000000000000000, 0.000000000000000000, 0.000000000000000000 ) ) ;
#425 = CARTESIAN_POINT ( 'NONE',  ( 227.9340970300480080, 243.9924945808623420, 0.000000000000000000 ) ) ;
#426 = VERTEX_POINT ( 'NONE', #692 ) ;
#427 = FACE_OUTER_BOUND ( 'NONE', #470, .T. ) ;
#428 = EDGE_CURVE ( 'NONE', #605, #653, #336, .T. ) ;
#429 = DIRECTION ( 'NONE',  ( -0.000000000000000000, -0.000000000000000000, -1.000000000000000000 ) ) ;
#430 = ORIENTED_EDGE ( 'NONE', *, *, #6, .F. ) ;
#431 = VECTOR ( 'NONE', #36, 1000.000000000000000 ) ;
#432 = DIRECTION ( 'NONE',  ( 1.000000000000000000, 0.000000000000000000, 0.000000000000000000 ) ) ;
#433 = DIRECTION ( 'NONE',  ( -1.000000000000000000, 0.000000000000000000, 0.000000000000000000 ) ) ;
#434 = EDGE_CURVE ( 'NONE', #46, #524, #416, .T. ) ;
#435 = CARTESIAN_POINT ( 'NONE',  ( -35.92689512004331220, 194.4879320405934493, 0.000000000000000000 ) ) ;
#436 = FACE_OUTER_BOUND ( 'NONE', #546, .T. ) ;
#437 = EDGE_CURVE ( 'NONE', #524, #398, #540, .T. ) ;
#438 = DIRECTION ( 'NONE',  ( 1.000000000000000000, 0.000000000000000000, 0.000000000000000000 ) ) ;
#439 = EDGE_CURVE ( 'NONE', #717, #511, #217, .T. ) ;
#440 = ORIENTED_EDGE ( 'NONE', *, *, #320, .T. ) ;
#441 = APPLICATION_PROTOCOL_DEFINITION ( 'international standard', 'config_control_design', 1994, #722 ) ;
#442 = ORGANIZATION ( 'UNSPECIFIED', 'UNSPECIFIED', '' ) ;
#443 = CARTESIAN_POINT ( 'NONE',  ( 228.0703362283256013, 243.2549724585821025, 2.000000000000000000 ) ) ;
#444 = CYLINDRICAL_SURFACE ( 'NONE', #423, 6.112197903135996313 ) ;
#445 = ORIENTED_EDGE ( 'NONE', *, *, #527, .T. ) ;
#446 = APPROVAL_STATUS ( 'not_yet_approved' ) ;
#447 = CIRCLE ( 'NONE', #742, 3.749999999999947597 ) ;
#448 = CARTESIAN_POINT ( 'NONE',  ( 223.7632394060525201, 262.1459031759400204, 2.000000000000000000 ) ) ;
#449 = AXIS2_PLACEMENT_3D ( 'NONE', #457, #60, #726 ) ;
#450 = ORIENTED_EDGE ( 'NONE', *, *, #663, .T. ) ;
#451 = PERSON_AND_ORGANIZATION ( #329, #442 ) ;
#452 = CARTESIAN_POINT ( 'NONE',  ( 220.5994079438887070, 259.1273563451276800, 2.000000000000000000 ) ) ;
#453 = VERTEX_POINT ( 'NONE', #761 ) ;
#454 = DATE_AND_TIME ( #385, #78 ) ;
#455 = EDGE_CURVE ( 'NONE', #131, #426, #93, .T. ) ;
#456 = CC_DESIGN_PERSON_AND_ORGANIZATION_ASSIGNMENT ( #789, #776, ( #760 ) ) ;
#457 = CARTESIAN_POINT ( 'NONE',  ( 226.8673279442221258, 256.3339822328352966, 2.000000000000000000 ) ) ;
#458 = ORIENTED_EDGE ( 'NONE', *, *, #189, .F. ) ;
#459 = PERSON_AND_ORGANIZATION_ROLE ( 'classification_officer' ) ;
#460 = LINE ( 'NONE', #530, #367 ) ;
#461 = AXIS2_PLACEMENT_3D ( 'NONE', #421, #151, #160 ) ;
#462 = ORIENTED_EDGE ( 'NONE', *, *, #816, .F. ) ;
#463 = LINE ( 'NONE', #399, #505 ) ;
#464 = CARTESIAN_POINT ( 'NONE',  ( 147.7931811626129104, -42.61816337921845843, 2.000000000000000000 ) ) ;
#465 = ORIENTED_EDGE ( 'NONE', *, *, #44, .F. ) ;
#466 = CC_DESIGN_DATE_AND_TIME_ASSIGNMENT ( #574, #784, ( #240 ) ) ;
#467 = CYLINDRICAL_SURFACE ( 'NONE', #839, 2.653393466005404822 ) ;
#468 = FACE_OUTER_BOUND ( 'NONE', #152, .T. ) ;
#469 = AXIS2_PLACEMENT_3D ( 'NONE', #638, #58, #649 ) ;
#470 = EDGE_LOOP ( 'NONE', ( #258, #734, #187, #662 ) ) ;
#471 = EDGE_CURVE ( 'NONE', #694, #354, #799, .T. ) ;
#472 = DIRECTION ( 'NONE',  ( -0.9608486653873765659, 0.2770737126168726361, 0.000000000000000000 ) ) ;
#473 = EDGE_CURVE ( 'NONE', #513, #57, #98, .T. ) ;
#474 = DIRECTION ( 'NONE',  ( 1.000000000000000000, 0.000000000000000000, 0.000000000000000000 ) ) ;
#475 = ORIENTED_EDGE ( 'NONE', *, *, #772, .T. ) ;
#476 = AXIS2_PLACEMENT_3D ( 'NONE', #104, #547, #836 ) ;
#477 = DIRECTION ( 'NONE',  ( -0.000000000000000000, 0.000000000000000000, 1.000000000000000000 ) ) ;
#478 = CIRCLE ( 'NONE', #715, 6.112197903135996313 ) ;
#479 = DIRECTION ( 'NONE',  ( 0.000000000000000000, -0.000000000000000000, -1.000000000000000000 ) ) ;
#480 = ORIENTED_EDGE ( 'NONE', *, *, #137, .T. ) ;
#481 = DIRECTION ( 'NONE',  ( -0.000000000000000000, -0.000000000000000000, -1.000000000000000000 ) ) ;
#482 = DIRECTION ( 'NONE',  ( 1.000000000000000000, 0.000000000000000000, 0.000000000000000000 ) ) ;
#483 = EDGE_LOOP ( 'NONE', ( #158, #403, #860, #225 ) ) ;
#484 = EDGE_LOOP ( 'NONE', ( #209, #602, #755, #16 ) ) ;
#485 = CYLINDRICAL_SURFACE ( 'NONE', #693, 2.999999999999947153 ) ;
#486 = DIRECTION ( 'NONE',  ( -0.000000000000000000, -0.000000000000000000, -1.000000000000000000 ) ) ;
#487 = ORIENTED_EDGE ( 'NONE', *, *, #622, .F. ) ;
#488 = ORIENTED_EDGE ( 'NONE', *, *, #147, .T. ) ;
#489 = CARTESIAN_POINT ( 'NONE',  ( 223.7632394060525201, 261.3959031759399636, 2.000000000000000000 ) ) ;
#490 = VECTOR ( 'NONE', #352, 1000.000000000000000 ) ;
#491 = VECTOR ( 'NONE', #241, 1000.000000000000000 ) ;
#492 = FACE_OUTER_BOUND ( 'NONE', #140, .T. ) ;
#493 = VERTEX_POINT ( 'NONE', #27 ) ;
#494 = VECTOR ( 'NONE', #371, 1000.000000000000000 ) ;
#495 = CARTESIAN_POINT ( 'NONE',  ( 216.6968570122212725, 243.8522852661132276, 2.000000000000000000 ) ) ;
#496 = DIRECTION ( 'NONE',  ( -0.000000000000000000, 0.000000000000000000, 1.000000000000000000 ) ) ;
#497 = ORIENTED_EDGE ( 'NONE', *, *, #756, .T. ) ;
#498 = EDGE_LOOP ( 'NONE', ( #325, #810, #344, #565 ) ) ;
#499 = CARTESIAN_POINT ( 'NONE',  ( 229.9714164823917599, 261.3959031759399636, 2.000000000000000000 ) ) ;
#500 = ADVANCED_FACE ( 'NONE', ( #286 ), #223, .F. ) ;
#501 = DIRECTION ( 'NONE',  ( -0.000000000000000000, -0.000000000000000000, -1.000000000000000000 ) ) ;
#502 = CARTESIAN_POINT ( 'NONE',  ( 222.7006524239514533, 261.7863739255313931, 2.000000000000000000 ) ) ;
#503 = AXIS2_PLACEMENT_3D ( 'NONE', #80, #348, #610 ) ;
#504 = DIRECTION ( 'NONE',  ( -1.000000000000000000, 0.000000000000000000, 0.000000000000000000 ) ) ;
#505 = VECTOR ( 'NONE', #668, 1000.000000000000000 ) ;
#506 = ADVANCED_FACE ( 'NONE', ( #168 ), #630, .F. ) ;
#507 = CARTESIAN_POINT ( 'NONE',  ( 226.8673279442221258, 256.3339822328352966, 2.000000000000000000 ) ) ;
#508 = ORIENTED_EDGE ( 'NONE', *, *, #400, .T. ) ;
#509 = EDGE_CURVE ( 'NONE', #426, #313, #768, .T. ) ;
#510 = CARTESIAN_POINT ( 'NONE',  ( 0.000000000000000000, 262.1459031759399636, 2.000000000000000000 ) ) ;
#511 = VERTEX_POINT ( 'NONE', #300 ) ;
#512 = CARTESIAN_POINT ( 'NONE',  ( 221.2844566799652455, 258.8220561171553413, 2.000000000000000000 ) ) ;
#513 = VERTEX_POINT ( 'NONE', #561 ) ;
#514 = PERSON_AND_ORGANIZATION ( #329, #442 ) ;
#515 = VECTOR ( 'NONE', #303, 1000.000000000000000 ) ;
#516 = DIRECTION ( 'NONE',  ( 0.000000000000000000, 1.000000000000000000, -0.000000000000000000 ) ) ;
#517 = VERTEX_POINT ( 'NONE', #834 ) ;
#518 = CIRCLE ( 'NONE', #644, 6.862197903136024735 ) ;
#519 = FACE_OUTER_BOUND ( 'NONE', #291, .T. ) ;
#520 = EDGE_LOOP ( 'NONE', ( #85, #593, #270, #235, #29, #554, #298, #265, #220, #177, #637 ) ) ;
#521 = CARTESIAN_POINT ( 'NONE',  ( 214.7934635462158610, 243.8522852661132276, 2.000000000000000000 ) ) ;
#522 = EDGE_CURVE ( 'NONE', #362, #814, #295, .T. ) ;
#523 = DIRECTION ( 'NONE',  ( -0.000000000000000000, 0.000000000000000000, 1.000000000000000000 ) ) ;
#524 = VERTEX_POINT ( 'NONE', #50 ) ;
#525 = CARTESIAN_POINT ( 'NONE',  ( 227.9340970300480080, 243.9924945808623420, 2.000000000000000000 ) ) ;
#526 = CARTESIAN_POINT ( 'NONE',  ( 88.38310587154296627, -39.38899665157998697, 2.000000000000000000 ) ) ;
#527 = EDGE_CURVE ( 'NONE', #694, #46, #120, .T. ) ;
#528 = ORIENTED_EDGE ( 'NONE', *, *, #318, .F. ) ;
#529 = CARTESIAN_POINT ( 'NONE',  ( 147.0725446635723870, -42.41035809475580010, 2.000000000000000000 ) ) ;
#530 = CARTESIAN_POINT ( 'NONE',  ( 87.69805713546645620, -39.08369642360762697, 0.000000000000000000 ) ) ;
#531 = ADVANCED_FACE ( 'NONE', ( #109 ), #857, .F. ) ;
#532 = ORIENTED_EDGE ( 'NONE', *, *, #302, .T. ) ;
#533 = LINE ( 'NONE', #732, #111 ) ;
#534 = DIRECTION ( 'NONE',  ( -0.000000000000000000, 0.000000000000000000, 1.000000000000000000 ) ) ;
#535 = ORIENTED_EDGE ( 'NONE', *, *, #821, .T. ) ;
#536 = LINE ( 'NONE', #198, #862 ) ;
#537 = VECTOR ( 'NONE', #703, 1000.000000000000114 ) ;
#538 = DIRECTION ( 'NONE',  ( -0.000000000000000000, 0.000000000000000000, 1.000000000000000000 ) ) ;
#539 = VERTEX_POINT ( 'NONE', #443 ) ;
#540 = CIRCLE ( 'NONE', #798, 6.112197903135996313 ) ;
#541 = DIRECTION ( 'NONE',  ( -0.1816522643700893280, 0.9833628297069293422, 0.000000000000000000 ) ) ;
#542 = EDGE_CURVE ( 'NONE', #814, #605, #114, .T. ) ;
#543 = EDGE_CURVE ( 'NONE', #545, #539, #447, .T. ) ;
#544 = DIRECTION ( 'NONE',  ( 1.000000000000000000, 0.000000000000000000, 0.000000000000000000 ) ) ;
#545 = VERTEX_POINT ( 'NONE', #793 ) ;
#546 = EDGE_LOOP ( 'NONE', ( #778, #832, #243, #116 ) ) ;
#547 = DIRECTION ( 'NONE',  ( -0.000000000000000000, -0.000000000000000000, -1.000000000000000000 ) ) ;
#548 = ADVANCED_FACE ( 'NONE', ( #314 ), #328, .T. ) ;
#549 = CARTESIAN_POINT ( 'NONE',  ( 216.6968570122212725, 243.8522852661132276, 2.000000000000000000 ) ) ;
#550 = ORIENTED_EDGE ( 'NONE', *, *, #382, .T. ) ;
#551 = CYLINDRICAL_SURFACE ( 'NONE', #476, 1.000000000000000888 ) ;
#552 = CARTESIAN_POINT ( 'NONE',  ( 230.5786090435923654, 261.1904578899921603, 2.000000000000000000 ) ) ;
#553 = VERTEX_POINT ( 'NONE', #48 ) ;
#554 = ORIENTED_EDGE ( 'NONE', *, *, #606, .T. ) ;
#555 = DIRECTION ( 'NONE',  ( -1.000000000000000000, 0.000000000000000000, 0.000000000000000000 ) ) ;
#556 = VECTOR ( 'NONE', #207, 1000.000000000000000 ) ;
#557 = DIRECTION ( 'NONE',  ( -0.000000000000000000, 0.000000000000000000, 1.000000000000000000 ) ) ;
#558 = ORIENTED_EDGE ( 'NONE', *, *, #652, .F. ) ;
#559 = CARTESIAN_POINT ( 'NONE',  ( 227.3891402369377488, 246.9425830699830442, 2.000000000000000000 ) ) ;
#560 = EDGE_CURVE ( 'NONE', #417, #398, #536, .T. ) ;
#561 = CARTESIAN_POINT ( 'NONE',  ( 223.7632394060525201, 262.1459031759400204, 0.000000000000000000 ) ) ;
#562 = CARTESIAN_POINT ( 'NONE',  ( 233.5482383091917598, 254.7670754847977150, 2.000000000000000000 ) ) ;
#563 = CARTESIAN_POINT ( 'NONE',  ( 223.1560468448519146, 261.1904578899922171, 2.000000000000000000 ) ) ;
#564 = DIRECTION ( 'NONE',  ( -0.000000000000000000, 0.000000000000000000, 1.000000000000000000 ) ) ;
#565 = ORIENTED_EDGE ( 'NONE', *, *, #428, .F. ) ;
#566 = ADVANCED_FACE ( 'NONE', ( #74, #600 ), #735, .F. ) ;
#567 = VECTOR ( 'NONE', #100, 1000.000000000000000 ) ;
#568 = CARTESIAN_POINT ( 'NONE',  ( 229.9714164823917599, 260.3959031759399636, 2.000000000000000000 ) ) ;
#569 = ORIENTED_EDGE ( 'NONE', *, *, #6, .T. ) ;
#570 = APPLICATION_PROTOCOL_DEFINITION ( 'international standard', 'config_control_design', 1994, #284 ) ;
#571 = DIRECTION ( 'NONE',  ( -0.1816522643700893280, 0.9833628297069293422, 0.000000000000000000 ) ) ;
#572 = DIRECTION ( 'NONE',  ( -1.000000000000000000, 0.000000000000000000, 0.000000000000000000 ) ) ;
#573 = VERTEX_POINT ( 'NONE', #136 ) ;
#574 = DATE_AND_TIME ( #779, #412 ) ;
#575 = LOCAL_TIME ( 12, 39, 6.000000000000000000, #47 ) ;
#576 = DIRECTION ( 'NONE',  ( -0.000000000000000000, -0.000000000000000000, -1.000000000000000000 ) ) ;
#577 = EDGE_CURVE ( 'NONE', #801, #11, #146, .T. ) ;
#578 = VERTEX_POINT ( 'NONE', #267 ) ;
#579 = CALENDAR_DATE ( 2026, 22, 8 ) ;
#580 = AXIS2_PLACEMENT_3D ( 'NONE', #19, #557, #623 ) ;
#581 = DIRECTION ( 'NONE',  ( -0.000000000000000000, -0.000000000000000000, -1.000000000000000000 ) ) ;
#582 = AXIS2_PLACEMENT_3D ( 'NONE', #72, #334, #130 ) ;
#583 = ORIENTED_EDGE ( 'NONE', *, *, #680, .F. ) ;
#584 = DATE_AND_TIME ( #183, #575 ) ;
#585 = DIRECTION ( 'NONE',  ( 1.000000000000000000, 0.000000000000000000, 0.000000000000000000 ) ) ;
#586 = EDGE_CURVE ( 'NONE', #853, #573, #463, .T. ) ;
#587 = DESIGN_CONTEXT ( 'detailed design', #284, 'design' ) ;
#588 = CARTESIAN_POINT ( 'NONE',  ( 216.6968570122212725, 243.8522852661132276, 2.000000000000000000 ) ) ;
#589 = EDGE_LOOP ( 'NONE', ( #277, #796, #819, #824 ) ) ;
#590 = AXIS2_PLACEMENT_3D ( 'NONE', #163, #632, #299 ) ;
#591 = CC_DESIGN_PERSON_AND_ORGANIZATION_ASSIGNMENT ( #846, #123, ( #9 ) ) ;
#592 = CYLINDRICAL_SURFACE ( 'NONE', #268, 1.750000000000001554 ) ;
#593 = ORIENTED_EDGE ( 'NONE', *, *, #256, .F. ) ;
#594 = DIRECTION ( 'NONE',  ( 0.000000000000000000, -0.000000000000000000, -1.000000000000000000 ) ) ;
#595 = EDGE_CURVE ( 'NONE', #578, #524, #748, .T. ) ;
#596 = CARTESIAN_POINT ( 'NONE',  ( 0.000000000000000000, 261.3959031759399636, 2.000000000000000000 ) ) ;
#597 = VECTOR ( 'NONE', #501, 1000.000000000000000 ) ;
#598 = VECTOR ( 'NONE', #264, 1000.000000000000000 ) ;
#599 = EDGE_LOOP ( 'NONE', ( #723, #667, #475, #845 ) ) ;
#600 = FACE_OUTER_BOUND ( 'NONE', #321, .T. ) ;
#601 = LINE ( 'NONE', #75, #157 ) ;
#602 = ORIENTED_EDGE ( 'NONE', *, *, #137, .F. ) ;
#603 = LINE ( 'NONE', #608, #850 ) ;
#604 = DIRECTION ( 'NONE',  ( 0.4070669706298069013, 0.9133983147686839388, 0.000000000000000000 ) ) ;
#605 = VERTEX_POINT ( 'NONE', #68 ) ;
#606 = EDGE_CURVE ( 'NONE', #182, #605, #771, .T. ) ;
#607 = EDGE_CURVE ( 'NONE', #513, #313, #215, .T. ) ;
#608 = CARTESIAN_POINT ( 'NONE',  ( 228.0703362283256013, 243.2549724585821025, 2.000000000000000000 ) ) ;
#609 = CARTESIAN_POINT ( 'NONE',  ( 223.1560468448519146, 261.1904578899922171, 2.000000000000000000 ) ) ;
#610 = DIRECTION ( 'NONE',  ( -0.4070669706298069013, -0.9133983147686839388, 0.000000000000000000 ) ) ;
#611 = CIRCLE ( 'NONE', #59, 6.862197903136024735 ) ;
#612 = ORIENTED_EDGE ( 'NONE', *, *, #439, .F. ) ;
#613 = CARTESIAN_POINT ( 'NONE',  ( 217.0426127453095546, 241.9805588813366342, 2.000000000000000000 ) ) ;
#614 = ADVANCED_FACE ( 'NONE', ( #210 ), #77, .F. ) ;
#615 = DIRECTION ( 'NONE',  ( 0.000000000000000000, -0.000000000000000000, -1.000000000000000000 ) ) ;
#616 = ORIENTED_EDGE ( 'NONE', *, *, #522, .F. ) ;
#617 = CARTESIAN_POINT ( 'NONE',  ( 147.7931811626129104, -42.61816337921845843, 0.000000000000000000 ) ) ;
#618 = CC_DESIGN_PERSON_AND_ORGANIZATION_ASSIGNMENT ( #718, #459, ( #51 ) ) ;
#619 = CYLINDRICAL_SURFACE ( 'NONE', #828, 1.000000000000000888 ) ;
#620 = ORIENTED_EDGE ( 'NONE', *, *, #126, .T. ) ;
#621 = DIRECTION ( 'NONE',  ( 0.4070669706298069013, 0.9133983147686839388, 0.000000000000000000 ) ) ;
#622 = EDGE_CURVE ( 'NONE', #653, #384, #349, .T. ) ;
#623 = DIRECTION ( 'NONE',  ( 1.000000000000000000, 0.000000000000000000, 0.000000000000000000 ) ) ;
#624 = VECTOR ( 'NONE', #843, 1000.000000000000000 ) ;
#625 = EDGE_CURVE ( 'NONE', #694, #578, #533, .T. ) ;
#626 = ORIENTED_EDGE ( 'NONE', *, *, #720, .F. ) ;
#627 = CYLINDRICAL_SURFACE ( 'NONE', #91, 6.862197903136024735 ) ;
#628 = CIRCLE ( 'NONE', #181, 2.653393466005404822 ) ;
#629 = VECTOR ( 'NONE', #390, 1000.000000000000000 ) ;
#630 = CYLINDRICAL_SURFACE ( 'NONE', #729, 1.903393466005404155 ) ;
#631 = ORIENTED_EDGE ( 'NONE', *, *, #147, .F. ) ;
#632 = DIRECTION ( 'NONE',  ( 0.000000000000000000, -0.000000000000000000, -1.000000000000000000 ) ) ;
#633 = DIRECTION ( 'NONE',  ( 0.9833628297069292312, 0.1816522643700893558, 0.000000000000000000 ) ) ;
#634 = ORIENTED_EDGE ( 'NONE', *, *, #260, .T. ) ;
#635 = COORDINATED_UNIVERSAL_TIME_OFFSET ( 0, 0, .AHEAD. ) ;
#636 = CARTESIAN_POINT ( 'NONE',  ( 221.2844566799652455, 258.8220561171553413, 0.000000000000000000 ) ) ;
#637 = ORIENTED_EDGE ( 'NONE', *, *, #437, .T. ) ;
#638 = CARTESIAN_POINT ( 'NONE',  ( 0.000000000000000000, 0.000000000000000000, 0.000000000000000000 ) ) ;
#639 = VECTOR ( 'NONE', #95, 1000.000000000000000 ) ;
#640 = CIRCLE ( 'NONE', #851, 6.862197903135997201 ) ;
#641 = DIRECTION ( 'NONE',  ( 0.000000000000000000, -0.000000000000000000, -1.000000000000000000 ) ) ;
#642 = ORIENTED_EDGE ( 'NONE', *, *, #577, .T. ) ;
#643 = APPROVAL_DATE_TIME ( #854, #118 ) ;
#644 = AXIS2_PLACEMENT_3D ( 'NONE', #507, #105, #319 ) ;
#645 = DIRECTION ( 'NONE',  ( -0.9833628297069292312, -0.1816522643700893003, 0.000000000000000000 ) ) ;
#646 = EDGE_CURVE ( 'NONE', #539, #841, #603, .T. ) ;
#647 = DIRECTION ( 'NONE',  ( 1.000000000000000000, 0.000000000000000000, 0.000000000000000000 ) ) ;
#648 = ORIENTED_EDGE ( 'NONE', *, *, #719, .T. ) ;
#649 = DIRECTION ( 'NONE',  ( 1.000000000000000000, 0.000000000000000000, 0.000000000000000000 ) ) ;
#650 = CC_DESIGN_SECURITY_CLASSIFICATION ( #51, ( #9 ) ) ;
#651 = PLANE ( 'NONE',  #55 ) ;
#652 = EDGE_CURVE ( 'NONE', #493, #653, #12, .T. ) ;
#653 = VERTEX_POINT ( 'NONE', #681 ) ;
#654 = APPROVAL_ROLE ( '' ) ;
#655 = DIRECTION ( 'NONE',  ( 0.000000000000000000, -0.000000000000000000, -1.000000000000000000 ) ) ;
#656 = AXIS2_PLACEMENT_3D ( 'NONE', #156, #615, #361 ) ;
#657 = CARTESIAN_POINT ( 'NONE',  ( 223.7632394060525201, 261.3959031759399636, 2.000000000000000000 ) ) ;
#658 = ORIENTED_EDGE ( 'NONE', *, *, #439, .T. ) ;
#659 = ADVANCED_FACE ( 'NONE', ( #342 ), #82, .T. ) ;
#660 = DIRECTION ( 'NONE',  ( -0.000000000000000000, -0.000000000000000000, -1.000000000000000000 ) ) ;
#661 = CARTESIAN_POINT ( 'NONE',  ( 0.000000000000000000, 261.3959031759399636, 2.000000000000000000 ) ) ;
#662 = ORIENTED_EDGE ( 'NONE', *, *, #625, .T. ) ;
#663 = EDGE_CURVE ( 'NONE', #57, #24, #611, .T. ) ;
#664 = CARTESIAN_POINT ( 'NONE',  ( 0.000000000000000000, 262.1459031759399636, 0.000000000000000000 ) ) ;
#665 = AXIS2_PLACEMENT_3D ( 'NONE', #753, #167, #432 ) ;
#666 = LINE ( 'NONE', #464, #297 ) ;
#667 = ORIENTED_EDGE ( 'NONE', *, *, #577, .F. ) ;
#668 = DIRECTION ( 'NONE',  ( -0.000000000000000000, -0.000000000000000000, -1.000000000000000000 ) ) ;
#669 = AXIS2_PLACEMENT_3D ( 'NONE', #97, #34, #301 ) ;
#670 = DIRECTION ( 'NONE',  ( -1.000000000000000000, 0.000000000000000000, 0.000000000000000000 ) ) ;
#671 = AXIS2_PLACEMENT_3D ( 'NONE', #831, #429, #754 ) ;
#672 = EDGE_LOOP ( 'NONE', ( #620, #744, #253, #775 ) ) ;
#673 = DIRECTION ( 'NONE',  ( 1.000000000000000000, -0.000000000000000000, 0.000000000000000000 ) ) ;
#674 = DIRECTION ( 'NONE',  ( 1.000000000000000000, 0.000000000000000000, 0.000000000000000000 ) ) ;
#675 = EDGE_CURVE ( 'NONE', #354, #384, #65, .T. ) ;
#676 = EDGE_LOOP ( 'NONE', ( #316, #273, #695, #197 ) ) ;
#677 = CARTESIAN_POINT ( 'NONE',  ( -36.06313431832086991, 195.2254541628736604, 0.000000000000000000 ) ) ;
#678 = CARTESIAN_POINT ( 'NONE',  ( 214.9583006280307416, 244.6270938782377016, 2.000000000000000000 ) ) ;
#679 = ORIENTED_EDGE ( 'NONE', *, *, #522, .T. ) ;
#680 = EDGE_CURVE ( 'NONE', #493, #354, #797, .T. ) ;
#681 = CARTESIAN_POINT ( 'NONE',  ( 217.0426127453095546, 241.9805588813366342, 0.000000000000000000 ) ) ;
#682 = DIRECTION ( 'NONE',  ( -0.000000000000000000, -0.000000000000000000, -1.000000000000000000 ) ) ;
#683 = ORIENTED_EDGE ( 'NONE', *, *, #382, .F. ) ;
#684 = CIRCLE ( 'NONE', #312, 1.000000000000000888 ) ;
#685 = DIRECTION ( 'NONE',  ( -0.000000000000000000, -0.000000000000000000, -1.000000000000000000 ) ) ;
#686 = EDGE_CURVE ( 'NONE', #453, #841, #30, .T. ) ;
#687 = DIRECTION ( 'NONE',  ( -1.000000000000000000, 0.000000000000000000, 0.000000000000000000 ) ) ;
#688 = ORIENTED_EDGE ( 'NONE', *, *, #44, .T. ) ;
#689 = FACE_OUTER_BOUND ( 'NONE', #162, .T. ) ;
#690 = ADVANCED_FACE ( 'NONE', ( #203 ), #467, .T. ) ;
#691 = EDGE_CURVE ( 'NONE', #362, #182, #288, .T. ) ;
#692 = CARTESIAN_POINT ( 'NONE',  ( 229.9714164823917599, 262.1459031759399636, 2.000000000000000000 ) ) ;
#693 = AXIS2_PLACEMENT_3D ( 'NONE', #559, #833, #504 ) ;
#694 = VERTEX_POINT ( 'NONE', #418 ) ;
#695 = ORIENTED_EDGE ( 'NONE', *, *, #350, .F. ) ;
#696 = DIRECTION ( 'NONE',  ( -0.000000000000000000, 0.000000000000000000, 1.000000000000000000 ) ) ;
#697 = DIRECTION ( 'NONE',  ( -0.000000000000000000, 0.000000000000000000, 1.000000000000000000 ) ) ;
#698 = ORIENTED_EDGE ( 'NONE', *, *, #739, .T. ) ;
#699 = DIRECTION ( 'NONE',  ( -0.000000000000000000, -0.000000000000000000, -1.000000000000000000 ) ) ;
#700 = AXIS2_PLACEMENT_3D ( 'NONE', #138, #326, #1 ) ;
#701 = DIRECTION ( 'NONE',  ( -0.000000000000000000, -0.000000000000000000, -1.000000000000000000 ) ) ;
#702 = ADVANCED_FACE ( 'NONE', ( #689 ), #551, .F. ) ;
#703 = DIRECTION ( 'NONE',  ( 0.9833628297069292312, 0.1816522643700893558, 0.000000000000000000 ) ) ;
#704 = CARTESIAN_POINT ( 'NONE',  ( 220.5994079438887070, 259.1273563451276800, 2.000000000000000000 ) ) ;
#705 = FACE_OUTER_BOUND ( 'NONE', #483, .T. ) ;
#706 = CC_DESIGN_APPROVAL ( #132, ( #51 ) ) ;
#707 = EDGE_LOOP ( 'NONE', ( #358, #838, #727, #224 ) ) ;
#708 = MECHANICAL_CONTEXT ( 'NONE', #722, 'mechanical' ) ;
#709 = DIRECTION ( 'NONE',  ( 0.2770737126168726916, 0.9608486653873765659, 0.000000000000000000 ) ) ;
#710 = PLANE ( 'NONE',  #71 ) ;
#711 = ORIENTED_EDGE ( 'NONE', *, *, #309, .F. ) ;
#712 =( NAMED_UNIT ( * ) PLANE_ANGLE_UNIT ( ) SI_UNIT ( $, .RADIAN. ) );
#713 = DIRECTION ( 'NONE',  ( -1.000000000000000000, 0.000000000000000000, 0.000000000000000000 ) ) ;
#714 = AXIS2_PLACEMENT_3D ( 'NONE', #529, #472, #738 ) ;
#715 = AXIS2_PLACEMENT_3D ( 'NONE', #83, #496, #482 ) ;
#716 = LINE ( 'NONE', #502, #494 ) ;
#717 = VERTEX_POINT ( 'NONE', #90 ) ;
#718 = PERSON_AND_ORGANIZATION ( #329, #442 ) ;
#719 = EDGE_CURVE ( 'NONE', #122, #327, #759, .T. ) ;
#720 = EDGE_CURVE ( 'NONE', #335, #387, #35, .T. ) ;
#721 = FACE_OUTER_BOUND ( 'NONE', #676, .T. ) ;
#722 = APPLICATION_CONTEXT ( 'configuration controlled 3d designs of mechanical parts and assemblies' ) ;
#723 = ORIENTED_EDGE ( 'NONE', *, *, #285, .F. ) ;
#724 = SHAPE_DEFINITION_REPRESENTATION ( #393, #216 ) ;
#725 = CIRCLE ( 'NONE', #665, 6.112197903136023847 ) ;
#726 = DIRECTION ( 'NONE',  ( -1.000000000000000000, 0.000000000000000000, 0.000000000000000000 ) ) ;
#727 = ORIENTED_EDGE ( 'NONE', *, *, #289, .F. ) ;
#728 = COORDINATED_UNIVERSAL_TIME_OFFSET ( 0, 0, .AHEAD. ) ;
#729 = AXIS2_PLACEMENT_3D ( 'NONE', #33, #701, #433 ) ;
#730 = CARTESIAN_POINT ( 'NONE',  ( 226.8673279442221258, 256.3339822328352966, 0.000000000000000000 ) ) ;
#731 = ORIENTED_EDGE ( 'NONE', *, *, #350, .T. ) ;
#732 = CARTESIAN_POINT ( 'NONE',  ( 230.2716862330997856, 246.1113619321324109, 2.000000000000000000 ) ) ;
#733 = LINE ( 'NONE', #859, #629 ) ;
#734 = ORIENTED_EDGE ( 'NONE', *, *, #675, .F. ) ;
#735 = PLANE ( 'NONE',  #365 ) ;
#736 = DIRECTION ( 'NONE',  ( 1.000000000000000000, 0.000000000000000000, 0.000000000000000000 ) ) ;
#737 = ORIENTED_EDGE ( 'NONE', *, *, #302, .F. ) ;
#738 = DIRECTION ( 'NONE',  ( -0.2770737126168726361, -0.9608486653873765659, 0.000000000000000000 ) ) ;
#739 = EDGE_CURVE ( 'NONE', #11, #327, #628, .T. ) ;
#740 = UNCERTAINTY_MEASURE_WITH_UNIT (LENGTH_MEASURE( 1.000000000000000082E-05 ), #154, 'distance_accuracy_value', 'NONE');
#741 = CARTESIAN_POINT ( 'NONE',  ( 223.1560468448519146, 261.1904578899922171, 0.000000000000000000 ) ) ;
#742 = AXIS2_PLACEMENT_3D ( 'NONE', #849, #655, #585 ) ;
#743 = VECTOR ( 'NONE', #795, 999.9999999999998863 ) ;
#744 = ORIENTED_EDGE ( 'NONE', *, *, #646, .F. ) ;
#745 = DIRECTION ( 'NONE',  ( -0.000000000000000000, -0.000000000000000000, -1.000000000000000000 ) ) ;
#746 = CARTESIAN_POINT ( 'NONE',  ( 230.5786090435923654, 261.1904578899921603, 0.000000000000000000 ) ) ;
#747 = FACE_OUTER_BOUND ( 'NONE', #599, .T. ) ;
#748 = LINE ( 'NONE', #4, #252 ) ;
#749 = CARTESIAN_POINT ( 'NONE',  ( 0.000000000000000000, 262.1459031759399636, 2.000000000000000000 ) ) ;
#750 = CC_DESIGN_PERSON_AND_ORGANIZATION_ASSIGNMENT ( #514, #108, ( #240 ) ) ;
#751 = EDGE_LOOP ( 'NONE', ( #409, #648, #569, #127 ) ) ;
#752 = ORIENTED_EDGE ( 'NONE', *, *, #542, .T. ) ;
#753 = CARTESIAN_POINT ( 'NONE',  ( 226.8673279442221258, 256.3339822328352966, 0.000000000000000000 ) ) ;
#754 = DIRECTION ( 'NONE',  ( -1.000000000000000000, 0.000000000000000000, 0.000000000000000000 ) ) ;
#755 = ORIENTED_EDGE ( 'NONE', *, *, #260, .F. ) ;
#756 = EDGE_CURVE ( 'NONE', #422, #262, #359, .T. ) ;
#757 = AXIS2_PLACEMENT_3D ( 'NONE', #234, #538, #23 ) ;
#758 = CIRCLE ( 'NONE', #99, 2.653393466005404822 ) ;
#759 = LINE ( 'NONE', #830, #515 ) ;
#760 = PRODUCT ( 'Ziptie', 'Ziptie', '', ( #708 ) ) ;
#761 = CARTESIAN_POINT ( 'NONE',  ( 230.9923227321403658, 245.9035566476698591, 0.000000000000000000 ) ) ;
#762 = ORIENTED_EDGE ( 'NONE', *, *, #680, .T. ) ;
#763 = CARTESIAN_POINT ( 'NONE',  ( 216.6968570122212725, 243.8522852661132276, 0.000000000000000000 ) ) ;
#764 = CARTESIAN_POINT ( 'NONE',  ( 231.0340034644928551, 261.7863739255313362, 2.000000000000000000 ) ) ;
#765 = ORIENTED_EDGE ( 'NONE', *, *, #455, .F. ) ;
#766 = FACE_OUTER_BOUND ( 'NONE', #307, .T. ) ;
#767 = EDGE_CURVE ( 'NONE', #387, #262, #684, .T. ) ;
#768 = LINE ( 'NONE', #101, #597 ) ;
#769 = CARTESIAN_POINT ( 'NONE',  ( 226.8673279442221258, 256.3339822328352966, 2.000000000000000000 ) ) ;
#770 = ORIENTED_EDGE ( 'NONE', *, *, #62, .F. ) ;
#771 = CIRCLE ( 'NONE', #266, 1.903393466005404155 ) ;
#772 = EDGE_CURVE ( 'NONE', #801, #829, #221, .T. ) ;
#773 = LINE ( 'NONE', #386, #250 ) ;
#774 = DIRECTION ( 'NONE',  ( -0.000000000000000000, 0.000000000000000000, 1.000000000000000000 ) ) ;
#775 = ORIENTED_EDGE ( 'NONE', *, *, #38, .T. ) ;
#776 = PERSON_AND_ORGANIZATION_ROLE ( 'design_owner' ) ;
#777 = CARTESIAN_POINT ( 'NONE',  ( 217.1788519435875742, 241.2430367590565652, 2.000000000000000000 ) ) ;
#778 = ORIENTED_EDGE ( 'NONE', *, *, #686, .F. ) ;
#779 = CALENDAR_DATE ( 2026, 22, 8 ) ;
#780 = AXIS2_PLACEMENT_3D ( 'NONE', #568, #641, #438 ) ;
#781 = CARTESIAN_POINT ( 'NONE',  ( 147.7931811626129104, -42.61816337921845843, 2.000000000000000000 ) ) ;
#782 = ADVANCED_FACE ( 'NONE', ( #436 ), #364, .T. ) ;
#783 = ORIENTED_EDGE ( 'NONE', *, *, #62, .T. ) ;
#784 = DATE_TIME_ROLE ( 'creation_date' ) ;
#785 = AXIS2_PLACEMENT_3D ( 'NONE', #148, #79, #14 ) ;
#786 = AXIS2_PLACEMENT_3D ( 'NONE', #213, #479, #411 ) ;
#787 = FACE_OUTER_BOUND ( 'NONE', #61, .T. ) ;
#788 = ORIENTED_EDGE ( 'NONE', *, *, #527, .F. ) ;
#789 = PERSON_AND_ORGANIZATION ( #329, #442 ) ;
#790 = CYLINDRICAL_SURFACE ( 'NONE', #449, 6.862197903135997201 ) ;
#791 = ORIENTED_EDGE ( 'NONE', *, *, #126, .F. ) ;
#792 = PERSON_AND_ORGANIZATION_ROLE ( 'design_supplier' ) ;
#793 = CARTESIAN_POINT ( 'NONE',  ( 230.9923227321403658, 245.9035566476698591, 2.000000000000000000 ) ) ;
#794 = PRODUCT_RELATED_PRODUCT_CATEGORY ( 'detail', '', ( #760 ) ) ;
#795 = DIRECTION ( 'NONE',  ( 0.4070669706298069568, 0.9133983147686840498, 0.000000000000000000 ) ) ;
#796 = ORIENTED_EDGE ( 'NONE', *, *, #756, .F. ) ;
#797 = LINE ( 'NONE', #396, #142 ) ;
#798 = AXIS2_PLACEMENT_3D ( 'NONE', #296, #165, #544 ) ;
#799 = CIRCLE ( 'NONE', #656, 2.999999999999947153 ) ;
#800 = DIRECTION ( 'NONE',  ( 1.000000000000000000, 0.000000000000000000, 0.000000000000000000 ) ) ;
#801 = VERTEX_POINT ( 'NONE', #294 ) ;
#802 = DIRECTION ( 'NONE',  ( -0.000000000000000000, -0.000000000000000000, -1.000000000000000000 ) ) ;
#803 = CIRCLE ( 'NONE', #255, 6.112197903136023847 ) ;
#804 = DIRECTION ( 'NONE',  ( -0.000000000000000000, 0.000000000000000000, 1.000000000000000000 ) ) ;
#805 = ORIENTED_EDGE ( 'NONE', *, *, #309, .T. ) ;
#806 = ADVANCED_FACE ( 'NONE', ( #766 ), #627, .T. ) ;
#807 = DIRECTION ( 'NONE',  ( -0.000000000000000000, -0.000000000000000000, -1.000000000000000000 ) ) ;
#808 = APPROVAL_PERSON_ORGANIZATION ( #388, #118, #178 ) ;
#809 = DIRECTION ( 'NONE',  ( -0.000000000000000000, -0.000000000000000000, -1.000000000000000000 ) ) ;
#810 = ORIENTED_EDGE ( 'NONE', *, *, #413, .T. ) ;
#811 = DIRECTION ( 'NONE',  ( 1.000000000000000000, 0.000000000000000000, 0.000000000000000000 ) ) ;
#812 = CLOSED_SHELL ( 'NONE', ( #500, #87, #201, #218, #806, #13, #690, #614, #782, #103, #340, #233, #408, #566, #345, #702, #531, #211, #506, #548, #842, #659, #153, #374 ) ) ;
#813 = DIRECTION ( 'NONE',  ( 1.000000000000000000, 0.000000000000000000, 0.000000000000000000 ) ) ;
#814 = VERTEX_POINT ( 'NONE', #370 ) ;
#815 = DIRECTION ( 'NONE',  ( 0.9833628297069292312, 0.1816522643700893558, 0.000000000000000000 ) ) ;
#816 = EDGE_CURVE ( 'NONE', #453, #553, #86, .T. ) ;
#817 = DIRECTION ( 'NONE',  ( 0.2770737126168726916, 0.9608486653873765659, 0.000000000000000000 ) ) ;
#818 = MANIFOLD_SOLID_BREP ( 'Extrude-Thin5', #812 ) ;
#819 = ORIENTED_EDGE ( 'NONE', *, *, #189, .T. ) ;
#820 = CARTESIAN_POINT ( 'NONE',  ( 214.9583006280307416, 244.6270938782377016, 2.000000000000000000 ) ) ;
#821 = EDGE_CURVE ( 'NONE', #853, #417, #164, .T. ) ;
#822 = CARTESIAN_POINT ( 'NONE',  ( 229.9714164823917599, 260.3959031759399636, 2.000000000000000000 ) ) ;
#823 = ORIENTED_EDGE ( 'NONE', *, *, #691, .F. ) ;
#824 = ORIENTED_EDGE ( 'NONE', *, *, #69, .T. ) ;
#825 = DIRECTION ( 'NONE',  ( -1.000000000000000000, 0.000000000000000000, 0.000000000000000000 ) ) ;
#826 = CARTESIAN_POINT ( 'NONE',  ( 232.8222149507928691, 254.9561999764266034, 2.000000000000000000 ) ) ;
#827 = ORIENTED_EDGE ( 'NONE', *, *, #606, .F. ) ;
#828 = AXIS2_PLACEMENT_3D ( 'NONE', #822, #486, #687 ) ;
#829 = VERTEX_POINT ( 'NONE', #704 ) ;
#830 = CARTESIAN_POINT ( 'NONE',  ( 214.0434635462158610, 243.8522852661132276, 2.000000000000000000 ) ) ;
#831 = CARTESIAN_POINT ( 'NONE',  ( 216.6968570122212725, 243.8522852661132276, 2.000000000000000000 ) ) ;
#832 = ORIENTED_EDGE ( 'NONE', *, *, #196, .F. ) ;
#833 = DIRECTION ( 'NONE',  ( -0.000000000000000000, -0.000000000000000000, -1.000000000000000000 ) ) ;
#834 = CARTESIAN_POINT ( 'NONE',  ( 217.1788519435875742, 241.2430367590565652, 0.000000000000000000 ) ) ;
#835 = VERTEX_POINT ( 'NONE', #32 ) ;
#836 = DIRECTION ( 'NONE',  ( -1.000000000000000000, 0.000000000000000000, 0.000000000000000000 ) ) ;
#837 = LINE ( 'NONE', #49, #491 ) ;
#838 = ORIENTED_EDGE ( 'NONE', *, *, #586, .F. ) ;
#839 = AXIS2_PLACEMENT_3D ( 'NONE', #495, #22, #825 ) ;
#840 = DIRECTION ( 'NONE',  ( -0.000000000000000000, -0.000000000000000000, -1.000000000000000000 ) ) ;
#841 = VERTEX_POINT ( 'NONE', #239 ) ;
#842 = ADVANCED_FACE ( 'NONE', ( #427 ), #485, .F. ) ;
#843 = DIRECTION ( 'NONE',  ( -0.000000000000000000, -0.000000000000000000, -1.000000000000000000 ) ) ;
#844 = APPROVAL_PERSON_ORGANIZATION ( #42, #2, #259 ) ;
#845 = ORIENTED_EDGE ( 'NONE', *, *, #28, .T. ) ;
#846 = PERSON_AND_ORGANIZATION ( #329, #442 ) ;
#847 = CARTESIAN_POINT ( 'NONE',  ( 216.6968570122212725, 243.8522852661132276, 2.000000000000000000 ) ) ;
#848 = ORIENTED_EDGE ( 'NONE', *, *, #248, .T. ) ;
#849 = CARTESIAN_POINT ( 'NONE',  ( 227.3891402369377488, 246.9425830699830442, 2.000000000000000000 ) ) ;
#850 = VECTOR ( 'NONE', #807, 1000.000000000000000 ) ;
#851 = AXIS2_PLACEMENT_3D ( 'NONE', #730, #804, #736 ) ;
#852 = DIRECTION ( 'NONE',  ( -0.2770737126168726916, -0.9608486653873765659, 0.000000000000000000 ) ) ;
#853 = VERTEX_POINT ( 'NONE', #499 ) ;
#854 = DATE_AND_TIME ( #173, #191 ) ;
#855 = LINE ( 'NONE', #208, #743 ) ;
#856 = ORIENTED_EDGE ( 'NONE', *, *, #586, .T. ) ;
#857 = CYLINDRICAL_SURFACE ( 'NONE', #199, 6.112197903136023847 ) ;
#858 = EDGE_CURVE ( 'NONE', #262, #64, #725, .T. ) ;
#859 = CARTESIAN_POINT ( 'NONE',  ( 223.7632394060525201, 262.1459031759400204, 2.000000000000000000 ) ) ;
#860 = ORIENTED_EDGE ( 'NONE', *, *, #455, .T. ) ;
#861 = DIRECTION ( 'NONE',  ( 1.000000000000000000, 0.000000000000000000, 0.000000000000000000 ) ) ;
#862 = VECTOR ( 'NONE', #481, 1000.000000000000000 ) ;
#863 = CIRCLE ( 'NONE', #31, 1.000000000000000888 ) ;
ENDSEC;
END-ISO-10303-21;
